<?xml version="1.0" encoding="UTF-8"?>
<svg xmlns="http://www.w3.org/2000/svg" width="162" height="63" viewBox="0 0 162 63" fill="none">
  <path d="M19.8459 30.4708C19.275 30.4708 18.788 30.3952 18.385 30.2441C17.7469 30.009 17.2851 29.7319 16.9996 29.4129C16.6974 29.1106 16.5462 28.7832 16.5462 28.4305C16.5462 27.9771 16.7729 27.4986 17.2263 26.9948C17.6629 26.5078 18.2758 26.0292 19.0651 25.5591C19.8543 25.1057 20.7611 24.7027 21.7854 24.35C22.8097 24.0142 23.9012 23.7623 25.0599 23.5944C25.5804 23.5104 26.1514 23.4432 26.7727 23.3929C27.4108 23.3425 28.0489 23.2921 28.687 23.2417C29.3419 23.2081 29.9296 23.1914 30.4502 23.1914C31.0715 22.1334 31.5753 21.1343 31.9615 20.1939C32.3645 19.2536 32.7171 18.1705 33.0194 16.9447L33.1202 16.5416C32.8011 16.8439 32.3477 17.2133 31.76 17.6499C31.189 18.0697 30.5174 18.4979 29.7449 18.9345C28.9893 19.3543 28.1748 19.707 27.3016 19.9924C26.4452 20.2779 25.5637 20.4206 24.6569 20.4206C23.9516 20.4206 23.2715 20.3115 22.6166 20.0932C21.9113 19.8413 21.2732 19.4215 20.7023 18.8338C20.1482 18.2293 19.7032 17.4904 19.3673 16.6172C19.0483 15.7272 18.8887 14.7449 18.8887 13.6702C18.8887 12.8809 18.9895 12.0413 19.191 11.1513C19.3925 10.2446 19.72 9.32098 20.1734 8.38062C19.6528 7.84327 19.2414 7.24714 18.9391 6.59225C18.6537 5.93735 18.5109 5.26566 18.5109 4.57718C18.5109 3.97266 18.6369 3.37654 18.8887 2.78881C19.1406 2.18429 19.5352 1.60496 20.0726 1.05082C20.2237 0.882893 20.3665 0.798932 20.5008 0.798932C20.568 0.798932 20.6016 0.832517 20.6016 0.899686C20.6016 1.00044 20.5428 1.11798 20.4252 1.25232C20.039 1.7225 19.7535 2.21787 19.5688 2.73843C19.3841 3.25899 19.2918 3.77955 19.2918 4.30011C19.2918 4.88784 19.4009 5.46717 19.6192 6.0381C19.8543 6.60904 20.1817 7.13799 20.6016 7.62497C20.6855 7.45705 20.7695 7.28912 20.8534 7.1212C20.9542 6.95328 21.0549 6.78536 21.1557 6.61744C21.9617 5.30764 22.9441 4.18256 24.1027 3.2422C25.2782 2.30184 26.5292 1.57977 27.8558 1.076C29.1824 0.555446 30.4754 0.295166 31.7348 0.295166C31.9531 0.295166 32.163 0.303562 32.3645 0.320354C32.5828 0.337146 32.8011 0.362335 33.0194 0.39592C34.6482 0.647803 35.8657 1.19355 36.6717 2.03316C37.4777 2.87277 37.8807 3.81314 37.8807 4.85425C37.8807 5.57632 37.6792 6.29838 37.2762 7.02045C36.89 7.74251 36.2939 8.40581 35.4879 9.01033C34.6986 9.61485 33.7079 10.1018 32.5156 10.4712C31.3402 10.8407 29.9716 11.0422 28.4099 11.0758C27.1841 11.0926 25.9751 10.9414 24.7828 10.6224C23.5906 10.2865 22.583 9.84994 21.7602 9.31259C21.3404 10.2026 21.0298 11.0758 20.8283 11.9322C20.6435 12.7718 20.5512 13.561 20.5512 14.2999C20.5512 15.5425 20.8115 16.6088 21.332 17.4988C21.8526 18.3888 22.5746 18.9849 23.4982 19.2872C23.7669 19.3711 24.0356 19.4299 24.3042 19.4635C24.5897 19.4971 24.8668 19.5139 25.1355 19.5139C25.8911 19.5139 26.6468 19.4047 27.4024 19.1864C28.1748 18.9513 28.8885 18.6491 29.5434 18.2796C30.1983 17.9102 30.7525 17.524 31.2058 17.121C31.676 16.7012 31.9867 16.3149 32.1378 15.9623C32.524 15.0891 32.9019 14.4846 33.2713 14.1487C33.6575 13.7961 34.0017 13.6198 34.304 13.6198C34.5559 13.6198 34.7658 13.7373 34.9337 13.9724C35.1184 14.1907 35.1856 14.493 35.1352 14.8792C34.9673 16.273 34.5811 17.6247 33.9766 18.9345C33.3888 20.2443 32.6248 21.6633 31.6844 23.1914C32.8263 23.2081 33.8506 23.2669 34.7574 23.3677C35.681 23.4852 36.5122 23.6363 37.251 23.8211C37.4525 23.8714 37.5869 23.9302 37.6541 23.9974C37.738 24.0813 37.78 24.1485 37.78 24.1989C37.78 24.3164 37.6792 24.3752 37.4777 24.3752C37.377 24.3752 37.2342 24.35 37.0495 24.2996C36.6633 24.1989 36.1512 24.1065 35.513 24.0226C34.8749 23.9554 34.1865 23.905 33.4476 23.8714C32.7255 23.8379 32.0287 23.8211 31.357 23.8211C30.6517 24.8286 29.8121 25.7354 28.8381 26.5414C27.881 27.3642 26.8651 28.0695 25.7903 28.6572C24.7156 29.245 23.6577 29.6899 22.6166 29.9922C21.5923 30.3113 20.6687 30.4708 19.8459 30.4708ZM27.7299 10.3201C27.9146 10.3201 28.0993 10.3201 28.284 10.3201C28.4687 10.3033 28.6534 10.2865 28.8381 10.2697C30.5342 10.1018 31.9699 9.7156 33.1453 9.11108C34.3376 8.48977 35.236 7.75931 35.8405 6.9197C36.4618 6.08008 36.7725 5.25727 36.7725 4.45124C36.7725 3.66201 36.4702 2.96513 35.8657 2.36061C35.278 1.7393 34.3712 1.33628 33.1453 1.15157C32.9774 1.11798 32.8347 1.10119 32.7171 1.10119C32.6164 1.10119 32.4737 1.10119 32.2889 1.10119C31.1974 1.10119 30.064 1.36147 28.8885 1.88203C27.7299 2.40259 26.6216 3.13305 25.5637 4.07341C24.5225 4.99699 23.6242 6.07169 22.8685 7.29752C22.6838 7.61657 22.5411 7.86006 22.4403 8.02798C22.3395 8.1959 22.222 8.39741 22.0877 8.6325C22.7761 9.15306 23.6074 9.56447 24.5813 9.86673C25.5721 10.169 26.6216 10.3201 27.7299 10.3201ZM19.8207 29.6899C20.4756 29.6899 21.2481 29.564 22.138 29.3121C23.028 29.077 23.9516 28.7076 24.9088 28.2038C25.8827 27.7169 26.8147 27.1123 27.7047 26.3903C28.5946 25.6682 29.3755 24.8286 30.0472 23.8714C29.2412 23.8882 28.4435 23.9218 27.6543 23.9722C26.8818 24.0394 26.1094 24.1401 25.337 24.2745C24.5141 24.4088 23.6577 24.6355 22.7678 24.9545C21.8946 25.2904 21.0801 25.6766 20.3245 26.1132C19.5856 26.5498 18.9811 26.9864 18.5109 27.423C18.0575 27.8764 17.8308 28.2878 17.8308 28.6572C17.8308 28.8755 17.9232 29.0686 18.1079 29.2366C18.3094 29.4045 18.6201 29.5304 19.0399 29.6144C19.275 29.6648 19.5352 29.6899 19.8207 29.6899Z" fill="white"></path>
  <path d="M39.6729 10.7735C39.421 10.7735 39.2111 10.6895 39.0431 10.5216C38.892 10.3369 38.8165 10.1186 38.8165 9.86673C38.8165 9.54768 38.9424 9.27061 39.1943 9.03551C39.4462 8.80042 39.7232 8.68288 40.0255 8.68288C40.2942 8.68288 40.5125 8.76684 40.6804 8.93476C40.8483 9.10268 40.9323 9.30419 40.9323 9.53928C40.9323 9.85833 40.8063 10.1438 40.5544 10.3957C40.3026 10.6476 40.0087 10.7735 39.6729 10.7735ZM37.6326 21C37.0113 21 36.5747 20.8237 36.3228 20.471C36.0709 20.1016 35.945 19.6818 35.945 19.2116C35.945 18.9597 35.9702 18.7078 36.0205 18.4559C36.0877 18.1873 36.1633 17.9438 36.2472 17.7255L37.9349 13.4183C37.9852 13.2839 38.0104 13.1664 38.0104 13.0656C38.0104 12.8977 37.9684 12.755 37.8845 12.6374C37.8005 12.5031 37.7418 12.4108 37.7082 12.3604L39.0935 12.31C39.3454 12.2932 39.5217 12.3268 39.6225 12.4108C39.74 12.4779 39.7988 12.5619 39.7988 12.6626C39.7988 12.7634 39.74 12.9481 39.6225 13.2168L37.5318 18.1285C37.5318 18.1285 37.4815 18.2377 37.3807 18.4559C37.2968 18.6575 37.2464 18.7918 37.2296 18.859C37.1792 19.1108 37.1456 19.2704 37.1288 19.3375C37.112 19.4047 37.1036 19.4467 37.1036 19.4635C37.1036 19.4803 37.1036 19.5474 37.1036 19.665C37.1036 19.8833 37.154 20.068 37.2548 20.2191C37.3723 20.3703 37.5654 20.4458 37.8341 20.4458C38.002 20.4458 38.1951 20.3955 38.4134 20.2947C38.6317 20.1939 38.7913 20.0932 38.892 19.9924C39.3118 19.5558 39.7232 18.9849 40.1262 18.2796C40.5461 17.5576 40.9323 16.8439 41.2849 16.1386C41.3521 15.9707 41.436 15.8867 41.5368 15.8867C41.6208 15.8867 41.6627 15.9455 41.6627 16.0631C41.6627 16.1302 41.6375 16.231 41.5872 16.3653C41.4192 16.718 41.2093 17.1546 40.9575 17.6751C40.7056 18.1957 40.4033 18.7162 40.0507 19.2368C39.7148 19.7406 39.3454 20.1604 38.9424 20.4962C38.5394 20.832 38.1028 21 37.6326 21Z" fill="white"></path>
  <path d="M38.8865 21.2015C39.491 19.9756 40.0704 18.7666 40.6245 17.5744C41.1954 16.3653 41.7748 15.2151 42.3625 14.1236C42.6983 13.519 42.9754 13.0992 43.1937 12.8641C43.4288 12.6123 43.7395 12.4863 44.1257 12.4863C44.26 12.4863 44.4028 12.5115 44.5539 12.5619C44.705 12.5955 44.8561 12.6123 45.0073 12.6123C45.108 12.6123 45.1836 12.6039 45.234 12.5871C44.9989 12.7214 44.6966 13.0573 44.3272 13.5946C43.9578 14.1152 43.5799 14.7197 43.1937 15.4082C42.8075 16.0966 42.4633 16.7431 42.161 17.3477C42.48 16.9614 42.8075 16.5752 43.1433 16.189C43.496 15.8028 43.8822 15.4333 44.302 15.0807C44.705 14.7281 45.1836 14.367 45.7377 13.9976C46.3087 13.6114 46.8628 13.2923 47.4002 13.0405C47.9375 12.7886 48.3657 12.6626 48.6848 12.6626C48.8023 12.6626 48.8863 12.671 48.9366 12.6878C48.9366 12.6878 48.8443 12.8557 48.6596 13.1916C48.4749 13.5106 48.2398 13.9388 47.9543 14.4762C47.6856 14.9968 47.4086 15.5593 47.1231 16.1638C46.8376 16.7515 46.5773 17.3225 46.3423 17.8766C46.124 18.414 45.9812 18.8674 45.9141 19.2368C45.8637 19.4551 45.8385 19.6566 45.8385 19.8413C45.8385 20.11 45.8889 20.2863 45.9896 20.3703C46.0904 20.4542 46.1995 20.4962 46.3171 20.4962C46.6361 20.4962 46.972 20.3283 47.3246 19.9924C47.6772 19.6398 48.0131 19.2116 48.3321 18.7078C48.668 18.2041 48.9618 17.7171 49.2137 17.2469C49.4824 16.7599 49.6755 16.3905 49.7931 16.1386C49.8602 16.0043 49.9106 15.9287 49.9442 15.9119C49.9778 15.8783 50.0281 15.8616 50.0953 15.8616C50.1961 15.8616 50.2464 15.9287 50.2464 16.0631C50.2464 16.147 50.2213 16.2394 50.1709 16.3401C49.9694 16.7264 49.7259 17.1881 49.4404 17.7255C49.1717 18.2628 48.8611 18.7918 48.5084 19.3124C48.1558 19.8161 47.7696 20.2443 47.3498 20.597C46.93 20.9328 46.4766 21.1007 45.9896 21.1007C45.6538 21.1007 45.3011 20.9832 44.9317 20.7481C44.5791 20.513 44.4028 20.0764 44.4028 19.4383C44.4028 19.2536 44.4195 19.0605 44.4531 18.859C44.4867 18.6407 44.5455 18.4056 44.6294 18.1537C44.7638 17.8178 44.9233 17.4568 45.108 17.0706C45.2927 16.6844 45.595 16.1554 46.0148 15.4837C46.1324 15.299 46.1995 15.1563 46.2163 15.0555C46.2499 14.9548 46.2667 14.8708 46.2667 14.8036C46.2667 14.6021 46.1743 14.5014 45.9896 14.5014C45.8385 14.5014 45.6118 14.5853 45.3095 14.7533C45.0241 14.9212 44.663 15.2151 44.2264 15.6349C43.8066 16.0379 43.3029 16.6088 42.7151 17.3477C42.1442 18.0865 41.4809 19.178 40.7253 20.6221C40.6077 20.8404 40.4734 20.958 40.3222 20.9748C40.1879 20.9916 39.9948 21.0084 39.7429 21.0252C39.575 21.042 39.4155 21.0503 39.2643 21.0503C39.1132 21.0671 38.9873 21.1175 38.8865 21.2015Z" fill="white"></path>
  <path d="M47.3482 21.2015C47.9527 19.9756 48.5321 18.7666 49.0862 17.5744C49.6571 16.3653 50.2365 15.2151 50.8242 14.1236C51.16 13.519 51.4371 13.0992 51.6554 12.8641C51.8905 12.6123 52.2012 12.4863 52.5874 12.4863C52.7217 12.4863 52.8645 12.5115 53.0156 12.5619C53.1667 12.5955 53.3178 12.6123 53.469 12.6123C53.5697 12.6123 53.6453 12.6039 53.6957 12.5871C53.4606 12.7214 53.1583 13.0573 52.7889 13.5946C52.4195 14.1152 52.0416 14.7197 51.6554 15.4082C51.2692 16.0966 50.925 16.7431 50.6227 17.3477C50.9417 16.9614 51.2692 16.5752 51.605 16.189C51.9577 15.8028 52.3439 15.4333 52.7637 15.0807C53.1667 14.7281 53.6453 14.367 54.1994 13.9976C54.7704 13.6114 55.3245 13.2923 55.8619 13.0405C56.3992 12.7886 56.8274 12.6626 57.1465 12.6626C57.264 12.6626 57.348 12.671 57.3984 12.6878C57.3984 12.6878 57.306 12.8557 57.1213 13.1916C56.9366 13.5106 56.7015 13.9388 56.416 14.4762C56.1473 14.9968 55.8703 15.5593 55.5848 16.1638C55.2993 16.7515 55.039 17.3225 54.804 17.8766C54.5857 18.414 54.4429 18.8674 54.3758 19.2368C54.3254 19.4551 54.3002 19.6566 54.3002 19.8413C54.3002 20.11 54.3506 20.2863 54.4513 20.3703C54.5521 20.4542 54.6612 20.4962 54.7788 20.4962C55.0978 20.4962 55.4337 20.3283 55.7863 19.9924C56.1389 19.6398 56.4748 19.2116 56.7938 18.7078C57.1297 18.2041 57.4235 17.7171 57.6754 17.2469C57.9441 16.7599 58.1372 16.3905 58.2548 16.1386C58.3219 16.0043 58.3723 15.9287 58.4059 15.9119C58.4395 15.8783 58.4898 15.8616 58.557 15.8616C58.6578 15.8616 58.7081 15.9287 58.7081 16.0631C58.7081 16.147 58.683 16.2394 58.6326 16.3401C58.4311 16.7264 58.1876 17.1881 57.9021 17.7255C57.6334 18.2628 57.3228 18.7918 56.9702 19.3124C56.6175 19.8161 56.2313 20.2443 55.8115 20.597C55.3917 20.9328 54.9383 21.1007 54.4513 21.1007C54.1155 21.1007 53.7628 20.9832 53.3934 20.7481C53.0408 20.513 52.8645 20.0764 52.8645 19.4383C52.8645 19.2536 52.8812 19.0605 52.9148 18.859C52.9484 18.6407 53.0072 18.4056 53.0912 18.1537C53.2255 17.8178 53.385 17.4568 53.5697 17.0706C53.7544 16.6844 54.0567 16.1554 54.4765 15.4837C54.5941 15.299 54.6612 15.1563 54.678 15.0555C54.7116 14.9548 54.7284 14.8708 54.7284 14.8036C54.7284 14.6021 54.636 14.5014 54.4513 14.5014C54.3002 14.5014 54.0735 14.5853 53.7712 14.7533C53.4858 14.9212 53.1247 15.2151 52.6881 15.6349C52.2683 16.0379 51.7646 16.6088 51.1768 17.3477C50.6059 18.0865 49.9426 19.178 49.187 20.6221C49.0694 20.8404 48.9351 20.958 48.7839 20.9748C48.6496 20.9916 48.4565 21.0084 48.2046 21.0252C48.0367 21.042 47.8772 21.0503 47.726 21.0503C47.5749 21.0671 47.449 21.1175 47.3482 21.2015Z" fill="white"></path>
  <path d="M54.8024 29.035C53.9292 29.035 53.3079 28.8587 52.9384 28.5061C52.569 28.1702 52.3843 27.7672 52.3843 27.2971C52.3843 27.0452 52.4179 26.8269 52.4851 26.6422C52.5522 26.4574 52.653 26.2223 52.7873 25.9369C53.0224 25.4499 53.3499 25.0301 53.7697 24.6775C54.1895 24.3248 54.6429 24.0394 55.1298 23.8211C56.003 23.4181 56.9938 23.0906 58.1021 22.8387C59.2271 22.5868 60.3018 22.3098 61.3262 22.0075C61.6452 21.4534 61.9391 20.8237 62.2078 20.1184C62.4764 19.3963 62.7199 18.6994 62.9382 18.0277C63.1565 17.3393 63.3328 16.7767 63.4672 16.3401C63.2657 16.7096 63.0054 17.1629 62.6863 17.7003C62.3841 18.2209 62.0398 18.733 61.6536 19.2368C61.2674 19.7406 60.8476 20.1604 60.3942 20.4962C59.9576 20.832 59.4958 21 59.0088 21C58.8241 21 58.5974 20.958 58.3288 20.874C58.0769 20.7901 57.8502 20.6389 57.6487 20.4206C57.464 20.1855 57.3716 19.8413 57.3716 19.3879C57.3716 18.9513 57.4723 18.5315 57.6739 18.1285C57.8921 17.7087 58.0937 17.3057 58.2784 16.9195C58.228 16.9195 58.1692 16.9027 58.1021 16.8691C58.0517 16.8355 58.0265 16.7851 58.0265 16.718C58.0265 16.6508 58.0433 16.5836 58.0769 16.5164C58.144 16.3821 58.2196 16.2394 58.3036 16.0882C58.3875 15.9371 58.4631 15.7776 58.5303 15.6097C58.7821 15.0891 59.034 14.5937 59.2859 14.1236C59.5378 13.6366 59.7561 13.2084 59.9408 12.839C60.1255 12.4695 60.4446 12.2848 60.898 12.2848H62.4596C62.3421 12.3856 62.191 12.5031 62.0062 12.6374C61.8383 12.755 61.6788 12.9397 61.5277 13.1916C61.0743 13.964 60.6797 14.7113 60.3438 15.4334C60.008 16.1386 59.6469 16.8943 59.2607 17.7003C59.076 18.0865 58.9417 18.4392 58.8577 18.7582C58.7737 19.0773 58.7318 19.3543 58.7318 19.5894C58.7318 20.1436 58.9165 20.4206 59.2859 20.4206C59.6889 20.4206 60.1759 20.0932 60.7468 19.4383C61.217 18.8842 61.6872 18.2293 62.1574 17.4736C62.6443 16.7012 63.1061 15.9119 63.5427 15.1059C63.9961 14.2831 64.3907 13.5274 64.7266 12.839C64.9113 12.4695 65.2387 12.2848 65.7089 12.2848H67.0943C66.6073 12.6207 66.2295 13.0573 65.9608 13.5946C65.7089 14.132 65.4235 14.8204 65.1044 15.66C64.7518 16.5836 64.4159 17.5408 64.0969 18.5315C63.7946 19.5055 63.4504 20.4878 63.0642 21.4785C63.6183 21.2938 64.2396 21.0084 64.9281 20.6221C65.6334 20.2359 66.2295 19.6818 66.7165 18.9597C67.1027 18.3888 67.4301 17.843 67.6988 17.3225C67.9843 16.7851 68.1858 16.3989 68.3033 16.1638C68.3705 15.9959 68.4629 15.9119 68.5804 15.9119C68.6979 15.9119 68.7567 15.9875 68.7567 16.1386C68.7567 16.2226 68.7315 16.3149 68.6812 16.4157C68.2446 17.2889 67.8499 18.0277 67.4973 18.6323C67.1615 19.22 66.7836 19.7322 66.3638 20.1688C65.9608 20.5886 65.4654 20.958 64.8777 21.277C64.29 21.6129 63.5427 21.9487 62.636 22.2846C62.2329 23.0066 61.7712 23.7539 61.2506 24.5263C60.7468 25.3156 60.1675 26.046 59.5126 26.7177C58.8745 27.4062 58.1608 27.9603 57.3716 28.3801C56.5992 28.8167 55.7427 29.035 54.8024 29.035ZM54.1979 28.5313C54.752 28.5313 55.3229 28.3634 55.9107 28.0275C56.4984 27.6917 57.0693 27.2635 57.6235 26.7429C58.1776 26.2391 58.6814 25.7186 59.1348 25.1812C59.605 24.6607 59.9828 24.1989 60.2682 23.7959C60.3522 23.6783 60.4446 23.5272 60.5453 23.3425C60.6461 23.1578 60.7468 22.9815 60.8476 22.8135C60.0248 23.0318 59.118 23.2669 58.1272 23.5188C57.1533 23.7875 56.3053 24.0813 55.5832 24.4004C54.7772 24.7362 54.1475 25.2148 53.6941 25.8361C53.2239 26.4574 52.9888 27.0116 52.9888 27.4986C52.9888 27.8008 53.0896 28.0443 53.2911 28.229C53.4758 28.4305 53.7781 28.5313 54.1979 28.5313Z" fill="white"></path>
  <path d="M83.1174 23.5944C82.4961 23.5944 81.858 23.5272 81.2031 23.3929C80.565 23.2585 79.9269 23.057 79.2888 22.7883C78.2477 22.335 77.408 21.7388 76.7699 21C76.1318 20.2779 75.6701 19.4551 75.3846 18.5315C75.0991 17.6079 74.9564 16.6424 74.9564 15.6349C74.9564 14.5769 75.0823 13.519 75.3342 12.4611C75.6029 11.4032 75.9723 10.3957 76.4425 9.43853C76.9127 8.46458 77.4416 7.59978 78.0294 6.84413C77.9118 6.40753 77.8111 5.90377 77.7271 5.33283C77.6599 4.7619 77.6264 4.18256 77.6264 3.59484C77.6264 2.70485 77.7271 1.85684 77.9286 1.05082C77.9958 0.815724 78.1133 0.698179 78.2812 0.698179C78.3988 0.698179 78.4576 0.78214 78.4576 0.950062C78.4576 1.05082 78.4492 1.12638 78.4324 1.17676C78.3988 1.42864 78.3652 1.68892 78.3316 1.9576C78.3148 2.22627 78.3064 2.50334 78.3064 2.78881C78.3064 3.35975 78.34 3.92229 78.4072 4.47643C78.4744 5.03057 78.5499 5.54273 78.6339 6.01292C79.8597 4.41765 81.2619 3.2338 82.8403 2.46136C84.4356 1.67213 86.1064 1.27751 87.8528 1.27751C88.3062 1.27751 88.7428 1.3027 89.1626 1.35308C90.506 1.50421 91.6059 1.84005 92.4623 2.36061C93.3187 2.86438 93.9484 3.48569 94.3514 4.22455C94.7712 4.9634 94.9811 5.74424 94.9811 6.56706C94.9811 7.37309 94.7964 8.17072 94.427 8.95995C94.0575 9.74918 93.5202 10.4712 92.8149 11.1261C92.1096 11.7643 91.2448 12.2848 90.2205 12.6878C89.213 13.074 88.0711 13.2672 86.7949 13.2672C86.5094 13.2672 86.224 13.2588 85.9385 13.242C85.653 13.2252 85.3424 13.1916 85.0065 13.1412C83.6799 12.9397 82.4709 12.5115 81.3794 11.8566C80.2879 11.2017 79.4063 10.1942 78.7346 8.83401C78.6003 9.00193 78.4156 9.34617 78.1805 9.86673C77.9454 10.3705 77.7103 10.9834 77.4752 11.7055C77.2401 12.4275 77.0386 13.2168 76.8707 14.0732C76.7028 14.9128 76.6188 15.7608 76.6188 16.6172C76.6188 17.44 76.728 18.2376 76.9463 19.0101C77.1646 19.7657 77.5424 20.429 78.0797 21C78.6171 21.5877 79.3476 22.0243 80.2711 22.3098C80.7245 22.4441 81.1947 22.5449 81.6817 22.612C82.1686 22.6792 82.664 22.7128 83.1678 22.7128C84.1417 22.7128 85.1073 22.5868 86.0644 22.335C87.0216 22.0831 87.9116 21.7136 88.7344 21.2267C89.8259 20.5886 90.6655 19.8497 91.2532 19.0101C91.841 18.1537 92.3867 17.1965 92.8905 16.1386C92.9576 15.9707 93.05 15.8867 93.1675 15.8867C93.2515 15.8867 93.2935 15.9455 93.2935 16.0631C93.2935 16.147 93.2599 16.2478 93.1927 16.3653C92.8401 17.1042 92.4875 17.7843 92.1348 18.4056C91.7822 19.0101 91.3708 19.5726 90.9006 20.0932C90.4304 20.6137 89.8343 21.1259 89.1122 21.6297C88.2894 22.2006 87.3658 22.6708 86.3415 23.0402C85.3172 23.4097 84.2425 23.5944 83.1174 23.5944ZM86.6438 12.6123C87.8024 12.6123 88.8268 12.4443 89.7167 12.1085C90.6067 11.7559 91.354 11.3025 91.9585 10.7483C92.5798 10.1774 93.0416 9.54768 93.3439 8.8592C93.6629 8.17072 93.8224 7.47384 93.8224 6.76857C93.8224 6.08009 93.6629 5.42519 93.3439 4.80388C93.0248 4.18256 92.5378 3.65361 91.8829 3.21701C91.2448 2.76362 90.422 2.46976 89.4145 2.33542C89.0451 2.28504 88.6756 2.25986 88.3062 2.25986C87.1643 2.25986 86.0392 2.50334 84.931 2.99032C83.8395 3.4605 82.8068 4.13219 81.8328 5.00538C80.8589 5.86179 79.9941 6.86932 79.2384 8.02798C79.8261 9.4889 80.6489 10.5636 81.7069 11.2521C82.7816 11.9406 84.0074 12.3688 85.3844 12.5367C85.821 12.5871 86.2408 12.6123 86.6438 12.6123Z" fill="white"></path>
  <path d="M94.0458 21C93.4077 21 92.9375 20.7901 92.6353 20.3703C92.333 19.9337 92.1819 19.4047 92.1819 18.7834C92.1819 18.0277 92.3582 17.2385 92.7108 16.4157C93.0467 15.6433 93.4749 14.938 93.9954 14.2999C94.516 13.6618 95.0785 13.1496 95.683 12.7634C96.2876 12.3604 96.8753 12.1589 97.4462 12.1589C98.0843 12.1589 98.5545 12.3688 98.8568 12.7886C99.159 13.2084 99.3102 13.7373 99.3102 14.3754C99.3102 15.1479 99.1338 15.9371 98.7812 16.7431C98.5797 17.1965 98.2942 17.7003 97.9248 18.2544C97.5554 18.7918 97.1356 19.2872 96.6654 19.7406C96.7661 19.9253 96.9089 20.0848 97.0936 20.2191C97.2783 20.3367 97.5302 20.3955 97.8492 20.3955C98.2522 20.3955 98.6301 20.2275 98.9827 19.8917C99.3521 19.5558 99.688 19.1528 99.9902 18.6826C100.293 18.1957 100.561 17.7087 100.796 17.2217C101.031 16.7347 101.224 16.3401 101.376 16.0379C101.426 15.9371 101.51 15.8867 101.627 15.8867C101.695 15.8867 101.745 15.9203 101.779 15.9875C101.812 16.0379 101.804 16.1218 101.753 16.2394C101.653 16.4913 101.485 16.8691 101.25 17.3729C101.015 17.8598 100.729 18.372 100.393 18.9093C100.057 19.4299 99.6712 19.8749 99.2346 20.2443C98.798 20.6137 98.311 20.7985 97.7737 20.7985C97.4042 20.7985 97.0852 20.7397 96.8165 20.6221C96.5478 20.4878 96.3295 20.3283 96.1616 20.1436C95.809 20.4122 95.4563 20.6221 95.1037 20.7733C94.7511 20.9244 94.3984 21 94.0458 21ZM94.4236 20.4458C94.877 20.4458 95.364 20.2275 95.8845 19.7909C95.7502 19.5894 95.6495 19.3795 95.5823 19.1612C95.5151 18.9429 95.4815 18.7414 95.4815 18.5567C95.4815 18.2544 95.5487 17.9942 95.683 17.7759C95.8342 17.5576 96.0609 17.4484 96.3631 17.4484C96.5814 17.4484 96.7577 17.5324 96.8921 17.7003C97.0432 17.8514 97.1188 18.0277 97.1188 18.2293C97.1188 18.2796 97.1104 18.33 97.0936 18.3804C97.0936 18.414 97.0852 18.456 97.0684 18.5063C97.3539 18.1201 97.6225 17.6667 97.8744 17.1462C98.4286 15.9539 98.7056 14.9716 98.7056 14.1991C98.7056 13.8129 98.6301 13.5106 98.4789 13.2923C98.3278 13.074 98.1011 12.9649 97.7989 12.9649C97.4462 12.9649 97.06 13.116 96.6402 13.4183C96.2372 13.7205 95.8426 14.1236 95.4563 14.6273C95.0869 15.1311 94.7595 15.6936 94.474 16.3149C94.2053 16.8859 93.987 17.44 93.8191 17.9774C93.668 18.4979 93.5924 18.9513 93.5924 19.3375C93.5924 19.6734 93.6596 19.9421 93.7939 20.1436C93.9283 20.3451 94.1382 20.4458 94.4236 20.4458Z" fill="white"></path>
  <path d="M104.271 21.0252C103.952 21.0252 103.633 20.8992 103.314 20.6473C102.995 20.3787 102.836 19.9505 102.836 19.3627C102.836 18.9093 102.945 18.3888 103.163 17.8011C103.364 17.2301 103.633 16.676 103.969 16.1386C104.322 15.6013 104.574 15.1647 104.725 14.8288C104.775 14.6945 104.8 14.5769 104.8 14.4762C104.8 14.1739 104.607 13.9556 104.221 13.8213C103.851 13.687 103.364 13.6114 102.76 13.5946L102.458 14.4258C102.273 14.9632 102.013 15.5929 101.677 16.3149C101.358 17.037 100.997 17.7339 100.594 18.4056C100.208 19.0773 99.8045 19.6146 99.3847 20.0176C99.3512 20.0512 99.3092 20.068 99.2588 20.068C99.1916 20.068 99.1496 20.026 99.1329 19.9421C99.0993 19.8581 99.1329 19.7573 99.2336 19.6398C99.8885 18.7666 100.476 17.8011 100.997 16.7431C101.517 15.6684 101.954 14.5769 102.307 13.4687C102.676 12.3604 102.945 11.336 103.113 10.3957C103.163 10.127 103.255 9.9339 103.39 9.81635C103.524 9.68202 103.667 9.61485 103.818 9.61485C104.036 9.61485 104.238 9.724 104.422 9.9423C104.607 10.1438 104.699 10.4377 104.699 10.8239C104.699 10.8911 104.691 10.9666 104.674 11.0506C104.674 11.1345 104.666 11.2185 104.649 11.3025C104.582 11.6551 104.38 11.9909 104.045 12.31C103.726 12.6123 103.465 12.839 103.264 12.9901C103.432 13.0069 103.608 13.0237 103.793 13.0405C103.977 13.0405 104.179 13.0405 104.397 13.0405C105.186 13.0405 105.967 12.9901 106.74 12.8893C106.773 12.9901 106.79 13.0656 106.79 13.116C106.79 13.3343 106.723 13.6114 106.589 13.9472C106.471 14.2831 106.345 14.5853 106.211 14.854C106.144 15.0051 106.009 15.2822 105.808 15.6852C105.606 16.0715 105.388 16.5164 105.153 17.0202C104.918 17.5072 104.716 17.9942 104.548 18.4811C104.397 18.9513 104.322 19.3543 104.322 19.6902C104.322 20.1268 104.49 20.3451 104.825 20.3451C105.077 20.3451 105.354 20.1855 105.657 19.8665C105.959 19.5307 106.253 19.1276 106.538 18.6575C106.84 18.1705 107.109 17.7003 107.344 17.2469C107.596 16.7767 107.789 16.4073 107.924 16.1386C107.991 15.9707 108.083 15.8867 108.201 15.8867C108.268 15.8867 108.301 15.9455 108.301 16.0631C108.301 16.1302 108.276 16.231 108.226 16.3653C108.041 16.7515 107.823 17.1881 107.571 17.6751C107.319 18.1621 107.034 18.6407 106.715 19.1108C106.412 19.581 106.076 19.9924 105.707 20.3451C105.354 20.6809 104.968 20.8992 104.548 21C104.498 21.0168 104.406 21.0252 104.271 21.0252Z" fill="white"></path>
  <path d="M108.421 21.1007C107.598 21.1007 107.01 20.8908 106.658 20.471C106.322 20.0344 106.154 19.581 106.154 19.1108C106.154 18.7246 106.246 18.372 106.431 18.0529C106.632 17.7339 106.868 17.566 107.136 17.5492C107.472 16.8943 107.833 16.1806 108.219 15.4082C108.622 14.6357 108.992 13.8885 109.328 13.1664C109.563 12.6794 109.857 12.2092 110.209 11.7559C110.579 11.3025 110.982 11.0422 111.418 10.975H111.67C111.804 10.975 111.922 10.9834 112.023 11.0002C112.14 11.017 112.258 11.0506 112.375 11.101C112.56 11.1849 112.652 11.3109 112.652 11.4788C112.652 11.5795 112.594 11.6299 112.476 11.6299C112.426 11.6299 112.359 11.6047 112.275 11.5543C112.073 11.4704 111.897 11.4284 111.746 11.4284C111.645 11.4284 111.553 11.4536 111.469 11.504C111.15 11.6719 110.923 11.907 110.789 12.2092C110.671 12.5115 110.612 12.8306 110.612 13.1664C110.612 13.4351 110.637 13.7121 110.688 13.9976C110.755 14.2663 110.831 14.5098 110.914 14.7281C111.099 15.1983 111.292 15.66 111.494 16.1134C111.712 16.5668 111.821 17.0538 111.821 17.5744C111.821 18.0781 111.653 18.6155 111.318 19.1864C110.982 19.7406 110.553 20.1855 110.033 20.5214L110.209 20.5466C110.293 20.5634 110.352 20.5718 110.386 20.5718C110.419 20.5718 110.444 20.5718 110.461 20.5718C110.847 20.5718 111.208 20.4626 111.544 20.2443C111.897 20.0092 112.207 19.7238 112.476 19.3879C112.745 19.0521 113.047 18.5819 113.383 17.9774C113.736 17.3729 114.071 16.7347 114.39 16.0631C114.441 15.9791 114.5 15.9371 114.567 15.9371C114.651 15.9371 114.71 15.9707 114.743 16.0379C114.793 16.0882 114.802 16.1554 114.768 16.2394C114.55 16.7096 114.298 17.2217 114.013 17.7759C113.744 18.3132 113.433 18.8338 113.081 19.3375C112.728 19.8245 112.317 20.2275 111.846 20.5466C111.393 20.8488 110.881 21 110.31 21C110.176 21 110.033 20.9916 109.882 20.9748C109.731 20.958 109.58 20.9244 109.428 20.874C109.26 20.9412 109.084 20.9916 108.899 21.0252C108.732 21.0755 108.572 21.1007 108.421 21.1007ZM109.176 20.3451C109.462 20.11 109.714 19.7657 109.932 19.3124C110.167 18.859 110.285 18.2628 110.285 17.524C110.285 16.8691 110.218 16.1722 110.083 15.4334C109.949 14.6945 109.882 14.0396 109.882 13.4687C109.882 13.3511 109.882 13.2504 109.882 13.1664C109.899 13.0656 109.915 12.9733 109.932 12.8893C109.714 13.3427 109.462 13.8717 109.176 14.4762C108.891 15.0639 108.606 15.6349 108.32 16.189C108.035 16.7431 107.791 17.2133 107.59 17.5995C107.59 17.5995 107.632 17.6079 107.716 17.6247C107.816 17.6247 107.909 17.6835 107.993 17.8011C108.077 17.9018 108.11 18.1117 108.093 18.4308C108.077 18.8506 108.169 19.2452 108.37 19.6146C108.589 19.9672 108.857 20.2107 109.176 20.3451ZM108.219 20.6977C108.32 20.6977 108.412 20.6893 108.496 20.6725C108.58 20.6389 108.656 20.6138 108.723 20.597C108.471 20.4122 108.245 20.1688 108.043 19.8665C107.858 19.5474 107.749 19.1444 107.716 18.6575C107.413 18.9765 107.262 19.3207 107.262 19.6902C107.262 19.9589 107.346 20.1939 107.514 20.3955C107.682 20.597 107.917 20.6977 108.219 20.6977Z" fill="white"></path>
  <path d="M117.132 10.7735C116.88 10.7735 116.67 10.6895 116.502 10.5216C116.351 10.3369 116.275 10.1186 116.275 9.86673C116.275 9.54768 116.401 9.27061 116.653 9.03551C116.905 8.80042 117.182 8.68288 117.485 8.68288C117.753 8.68288 117.971 8.76684 118.139 8.93476C118.307 9.10268 118.391 9.30419 118.391 9.53928C118.391 9.85833 118.265 10.1438 118.013 10.3957C117.762 10.6476 117.468 10.7735 117.132 10.7735ZM115.092 21C114.47 21 114.034 20.8237 113.782 20.471C113.53 20.1016 113.404 19.6818 113.404 19.2116C113.404 18.9597 113.429 18.7078 113.48 18.4559C113.547 18.1873 113.622 17.9438 113.706 17.7255L115.394 13.4183C115.444 13.2839 115.469 13.1664 115.469 13.0656C115.469 12.8977 115.427 12.755 115.344 12.6374C115.26 12.5031 115.201 12.4108 115.167 12.3604L116.553 12.31C116.804 12.2932 116.981 12.3268 117.082 12.4108C117.199 12.4779 117.258 12.5619 117.258 12.6626C117.258 12.7634 117.199 12.9481 117.082 13.2168L114.991 18.1285C114.991 18.1285 114.94 18.2377 114.84 18.4559C114.756 18.6575 114.705 18.7918 114.689 18.859C114.638 19.1108 114.605 19.2704 114.588 19.3375C114.571 19.4047 114.563 19.4467 114.563 19.4635C114.563 19.4803 114.563 19.5474 114.563 19.665C114.563 19.8833 114.613 20.068 114.714 20.2191C114.831 20.3703 115.024 20.4458 115.293 20.4458C115.461 20.4458 115.654 20.3955 115.872 20.2947C116.091 20.1939 116.25 20.0932 116.351 19.9924C116.771 19.5558 117.182 18.9849 117.585 18.2796C118.005 17.5576 118.391 16.8439 118.744 16.1386C118.811 15.9707 118.895 15.8867 118.996 15.8867C119.08 15.8867 119.122 15.9455 119.122 16.0631C119.122 16.1302 119.097 16.231 119.046 16.3653C118.878 16.718 118.668 17.1546 118.416 17.6751C118.165 18.1957 117.862 18.7162 117.51 19.2368C117.174 19.7406 116.804 20.1604 116.401 20.4962C115.998 20.832 115.562 21 115.092 21Z" fill="white"></path>
  <path d="M130.495 22.1334C129.068 22.1334 127.884 21.9067 126.944 21.4534C126.004 21.0168 125.298 20.4374 124.828 19.7154C124.375 18.9765 124.148 18.1957 124.148 17.3729C124.148 16.4493 124.425 15.5341 124.979 14.6273C125.533 13.7038 126.356 12.9145 127.448 12.2596C128.556 11.5879 129.908 11.1681 131.503 11.0002C131.268 10.6812 131.092 10.3201 130.974 9.91711C130.856 9.4973 130.798 9.10268 130.798 8.73326C130.815 7.84327 131.066 7.06243 131.553 6.39074C132.04 5.70226 132.662 5.12293 133.417 4.65275C134.19 4.18256 135.013 3.82993 135.886 3.59484C136.759 3.34295 137.582 3.21701 138.354 3.21701C138.824 3.21701 139.303 3.28418 139.79 3.41852C140.277 3.53606 140.688 3.75436 141.024 4.07341C141.36 4.39247 141.528 4.84586 141.528 5.43358C141.528 5.92056 141.377 6.35716 141.075 6.74338C140.772 7.1296 140.403 7.32271 139.966 7.32271C139.647 7.32271 139.37 7.20516 139.135 6.97007C138.9 6.73498 138.782 6.46631 138.782 6.16405C138.782 5.81141 138.892 5.52594 139.11 5.30764C139.345 5.07255 139.63 4.95501 139.966 4.95501C140.117 4.95501 140.285 5.00538 140.47 5.10614C140.672 5.20689 140.797 5.30764 140.848 5.4084C140.865 5.34123 140.873 5.24887 140.873 5.13132C140.873 4.67793 140.688 4.35888 140.319 4.17417C139.949 3.98945 139.555 3.8971 139.135 3.8971C138.463 3.8971 137.683 4.06502 136.793 4.40086C135.903 4.71991 135.038 5.24887 134.198 5.98773C133.896 6.2564 133.585 6.60904 133.266 7.04564C132.947 7.48224 132.678 7.95242 132.46 8.45618C132.242 8.94316 132.133 9.43853 132.133 9.9423C132.133 10.3285 132.2 10.6644 132.334 10.9498C132.586 10.9498 132.872 10.9414 133.191 10.9246C133.526 10.8911 133.871 10.8743 134.223 10.8743C134.66 10.8743 135.004 10.9666 135.256 11.1513C135.508 11.336 135.634 11.546 135.634 11.781C135.634 11.949 135.533 12.1085 135.332 12.2596C135.13 12.4108 134.811 12.4863 134.374 12.4863C133.82 12.4863 133.317 12.3688 132.863 12.1337C132.427 11.8818 132.082 11.6299 131.83 11.378C130.722 11.5292 129.782 11.9406 129.009 12.6123C128.237 13.2839 127.649 14.0816 127.246 15.0051C126.843 15.9119 126.642 16.8187 126.642 17.7255C126.642 18.4476 126.776 19.1192 127.045 19.7406C127.33 20.3619 127.758 20.8572 128.329 21.2267C128.9 21.6129 129.622 21.806 130.495 21.806C131.402 21.806 132.225 21.6381 132.964 21.3022C133.72 20.9832 134.366 20.5634 134.903 20.0428C135.441 19.5223 135.852 18.9765 136.138 18.4056C136.44 17.8178 136.591 17.2721 136.591 16.7683C136.591 16.3317 136.432 15.9707 136.112 15.6852C135.81 15.383 135.407 15.1647 134.903 15.0303C134.4 14.8792 133.862 14.8036 133.291 14.8036C132.704 14.8036 132.116 14.8876 131.528 15.0555C130.957 15.2067 130.47 15.4501 130.067 15.786C129.664 16.105 129.421 16.5164 129.337 17.0202C129.337 17.0538 129.328 17.0958 129.312 17.1462C129.312 17.1797 129.312 17.2133 129.312 17.2469C129.312 17.6163 129.446 17.9858 129.715 18.3552C130 18.7078 130.437 19.0353 131.024 19.3375C131.176 19.4047 131.251 19.5307 131.251 19.7154C131.251 19.9001 131.167 19.9505 130.999 19.8665C130.076 19.3795 129.396 18.8506 128.959 18.2796C128.539 17.6919 128.329 17.1378 128.329 16.6172C128.329 15.8616 128.732 15.2151 129.538 14.6777C130.361 14.1236 131.528 13.8465 133.039 13.8465H137.498C137.767 13.8465 138.161 13.7877 138.682 13.6702C139.219 13.5526 139.765 13.3847 140.319 13.1664C140.873 12.9313 141.343 12.6626 141.729 12.3604C142.132 12.0413 142.334 11.6803 142.334 11.2773C142.334 11.059 142.258 10.8239 142.107 10.572C142.074 10.5216 142.057 10.4629 142.057 10.3957C142.057 10.2949 142.099 10.2446 142.183 10.2446C142.25 10.2446 142.309 10.2865 142.359 10.3705C142.611 10.7399 142.737 11.1178 142.737 11.504C142.737 11.9574 142.569 12.3772 142.233 12.7634C141.914 13.1496 141.478 13.4938 140.923 13.7961C140.369 14.0816 139.748 14.2999 139.06 14.451C138.388 14.6021 137.699 14.6693 136.994 14.6525C137.313 14.9212 137.548 15.2234 137.699 15.5593C137.85 15.8951 137.926 16.2478 137.926 16.6172C137.926 17.2385 137.741 17.8766 137.372 18.5315C137.002 19.1696 136.482 19.7657 135.81 20.3199C135.139 20.8572 134.349 21.2938 133.443 21.6297C132.553 21.9655 131.57 22.1334 130.495 22.1334ZM134.374 12.0581C134.929 12.0581 135.206 11.949 135.206 11.7307C135.206 11.6467 135.13 11.5627 134.979 11.4788C134.845 11.378 134.66 11.3193 134.425 11.3025C134.324 11.2857 134.156 11.2773 133.921 11.2773C133.686 11.2773 133.434 11.2773 133.165 11.2773C132.914 11.2773 132.704 11.2773 132.536 11.2773C132.956 11.7978 133.568 12.0581 134.374 12.0581Z" fill="white"></path>
  <path d="M34.8081 56.8966C34.5562 56.863 34.2119 56.7959 33.7754 56.6951C33.3388 56.6112 32.8938 56.4348 32.4404 56.1662C31.987 55.8975 31.6008 55.4861 31.2817 54.9319C30.9627 54.3946 30.8031 53.6725 30.8031 52.7657C30.8031 51.7246 31.013 50.5828 31.4328 49.3401C31.8694 48.0807 32.3984 46.7709 33.0197 45.4108C33.641 44.0506 34.2371 42.7072 34.8081 41.3806C35.2615 40.3227 35.4882 39.5167 35.4882 38.9625C35.4882 38.4084 35.2783 38.1313 34.8584 38.1313C34.3883 38.1313 33.683 38.5091 32.7426 39.2648C31.8191 40.0037 30.7444 41.1287 29.5185 42.64C29.1995 43.043 28.7881 43.6056 28.2843 44.3277C27.7805 45.0329 27.2432 45.8222 26.6722 46.6954C26.1013 47.5518 25.5388 48.425 24.9846 49.3149C24.4473 50.1881 23.9687 50.9942 23.5489 51.733C23.1459 52.4719 22.852 53.0596 22.6673 53.4962C22.449 54.0168 22.1971 54.3694 21.9116 54.5541C21.6262 54.7556 21.3575 54.8564 21.1056 54.8564C20.8873 54.8564 20.6942 54.7976 20.5263 54.6801C20.3752 54.5625 20.2996 54.4198 20.2996 54.2519C20.2996 54.1511 20.3248 54.0671 20.3752 54C20.4759 53.7985 20.7446 53.3115 21.1812 52.539C21.6178 51.7666 22.1132 50.7423 22.6673 49.4661C23.2214 48.1731 23.7504 46.6786 24.2542 44.9825C24.7747 43.2697 25.1609 41.3806 25.4128 39.3152C25.4464 39.0801 25.4632 38.8282 25.4632 38.5595C25.4632 37.9718 25.3624 37.5436 25.1609 37.2749C24.9594 36.9895 24.6908 36.8467 24.3549 36.8467C23.9855 36.8467 23.5657 37.0062 23.0955 37.3253C22.6253 37.6444 22.1467 38.1061 21.6598 38.7107C20.8202 39.7686 20.0813 40.7509 19.4432 41.6577C18.8051 42.5477 18.2174 43.4377 17.68 44.3277C17.1595 45.2176 16.6389 46.1664 16.1183 47.1739C15.6146 48.1815 15.0772 49.3149 14.5063 50.5744C13.9353 51.817 13.2804 53.2611 12.5416 54.9067C12.424 55.1754 12.2225 55.3685 11.9371 55.4861C11.6684 55.6036 11.4165 55.6624 11.1814 55.6624C10.9463 55.6624 10.7532 55.612 10.6021 55.5113C10.451 55.4105 10.4006 55.2678 10.451 55.0831C10.8876 54.4114 11.3577 53.5634 11.8615 52.539C12.3653 51.5147 12.869 50.398 13.3728 49.189C13.8934 47.9632 14.3719 46.7289 14.8085 45.4863C15.2619 44.2269 15.6482 43.043 15.9672 41.9348C16.2863 40.8097 16.5046 39.8357 16.6221 39.0129C16.6557 38.7442 16.6809 38.4924 16.6977 38.2573C16.7145 38.0222 16.7229 37.7955 16.7229 37.5772C16.7229 36.2842 16.4458 35.3606 15.8916 34.8065C15.3543 34.2523 14.6574 33.9753 13.801 33.9753C13.0789 33.9753 12.2897 34.1432 11.4333 34.479C10.5937 34.7981 9.73729 35.2431 8.86409 35.814C8.00769 36.3849 7.18487 37.0482 6.39564 37.8039C5.6064 38.5427 4.90953 39.3404 4.30501 40.1968C3.70049 41.0364 3.2387 41.8928 2.91965 42.766C2.70135 43.3873 2.53343 43.9834 2.41588 44.5543C2.31513 45.1085 2.26475 45.629 2.26475 46.116C2.26475 47.0564 2.43267 47.854 2.76852 48.5089C3.12116 49.1638 3.58294 49.6592 4.15388 49.995C4.7416 50.3309 5.37131 50.4988 6.043 50.4988C6.27809 50.4988 6.53837 50.4736 6.82384 50.4232C7.1261 50.3561 7.37798 50.2889 7.57949 50.2217C8.06646 50.037 8.53665 49.7515 8.99004 49.3653C9.44343 48.9623 9.84644 48.5005 10.1991 47.98C10.5517 47.4594 10.8288 46.9304 11.0303 46.3931C11.2318 45.8557 11.3326 45.352 11.3326 44.8818C11.3326 44.3948 11.1982 43.9918 10.9295 43.6728C10.6609 43.3537 10.2327 43.1942 9.64493 43.1942C9.57776 43.1942 9.5022 43.2026 9.41824 43.2194C9.35107 43.2194 9.2755 43.2194 9.19154 43.2194H9.11598C8.99843 43.2194 8.88928 43.2026 8.78853 43.169C8.68778 43.1186 8.6374 43.0598 8.6374 42.9927C8.6374 42.9255 8.72136 42.8499 8.88928 42.766C9.074 42.682 9.40145 42.64 9.87163 42.64C10.6273 42.64 11.1898 42.8667 11.5592 43.3201C11.9455 43.7567 12.1386 44.3193 12.1386 45.0077C12.1386 45.629 11.9707 46.3007 11.6348 47.0228C11.299 47.7449 10.7952 48.4333 10.1235 49.0882C9.45182 49.7431 8.60381 50.2805 7.57949 50.7003C6.97497 50.9354 6.38724 51.0529 5.81631 51.0529C4.9767 51.0529 4.17907 50.843 3.42342 50.4232C2.66777 49.9866 2.05485 49.3737 1.58467 48.5845C1.11449 47.7785 0.879395 46.8297 0.879395 45.7382C0.879395 45.2512 0.929771 44.7391 1.03052 44.2017C1.14807 43.6476 1.33278 43.0766 1.58467 42.4889C2.13881 41.1959 2.88606 40.0037 3.82643 38.9122C4.78358 37.8039 5.84149 36.8467 7.00016 36.0407C8.15882 35.2179 9.33428 34.5798 10.5265 34.1264C11.7188 33.673 12.8271 33.4463 13.8514 33.4463C15.094 33.4463 16.1183 33.8157 16.9244 34.5546C17.7472 35.2934 18.1586 36.4857 18.1586 38.1313C18.1586 38.2489 18.1502 38.4084 18.1334 38.6099C18.1334 38.7946 18.125 38.9374 18.1082 39.0381C18.0075 39.8945 17.8311 40.7509 17.5793 41.6073C17.3442 42.4637 17.0839 43.2865 16.7984 44.0758C16.748 44.2101 16.7061 44.3528 16.6725 44.504C16.6557 44.6383 16.6473 44.7307 16.6473 44.781C16.6473 44.865 16.6641 44.907 16.6977 44.907C16.7648 44.907 16.8992 44.7307 17.1007 44.378C17.4869 43.6728 17.8311 43.0598 18.1334 42.5393C18.4525 42.0019 18.7631 41.515 19.0654 41.0784C19.3676 40.6418 19.6951 40.1968 20.0477 39.7434C20.4003 39.29 20.8034 38.7862 21.2568 38.2321C21.7773 37.6108 22.3734 37.1154 23.0451 36.746C23.7168 36.3765 24.3633 36.1918 24.9846 36.1918C25.5388 36.1918 26.0089 36.3765 26.3952 36.746C26.7814 37.1154 26.9745 37.7451 26.9745 38.6351C26.9745 38.7358 26.9745 38.8198 26.9745 38.887C26.9745 38.9541 26.9661 39.0549 26.9493 39.1892C26.7982 40.8013 26.4791 42.3882 25.9922 43.9498C25.5052 45.4947 25.0014 47.0564 24.4809 48.6349C25.0014 47.8288 25.7067 46.8045 26.5967 45.5619C27.4867 44.3193 28.4606 43.0347 29.5185 41.7081C30.8115 40.096 32.0122 38.887 33.1205 38.0809C34.2287 37.2749 35.1439 36.8719 35.866 36.8719C36.7728 36.8719 37.2262 37.4261 37.2262 38.5343C37.2262 38.9541 37.1422 39.4579 36.9743 40.0456C36.8231 40.6334 36.5796 41.2547 36.2438 41.9096C35.8744 42.6484 35.463 43.5048 35.0096 44.4788C34.573 45.4359 34.1532 46.4435 33.7502 47.5014C33.3471 48.5593 33.0113 49.6004 32.7426 50.6247C32.4907 51.6323 32.3648 52.5642 32.3648 53.4206C32.3648 54.3442 32.5747 55.0915 32.9945 55.6624C33.4311 56.2501 34.1784 56.5272 35.2363 56.4936H35.3874C35.6393 56.4936 35.7652 56.544 35.7652 56.6447C35.7652 56.7119 35.6813 56.7791 35.5133 56.8463C35.3454 56.9134 35.1103 56.9302 34.8081 56.8966Z" fill="white"></path>
  <path d="M40.9273 54.0755C40.7425 54.0923 40.5326 54.0503 40.2976 53.9496C40.0625 53.8488 39.8526 53.6641 39.6678 53.3955C39.4999 53.1268 39.416 52.7489 39.416 52.262C39.416 51.859 39.4915 51.372 39.6427 50.8011C39.4411 51.1201 39.1809 51.5147 38.8618 51.9849C38.5428 52.4383 38.1985 52.8413 37.8291 53.1939C37.51 53.4962 37.2078 53.7145 36.9223 53.8488C36.6368 53.9832 36.3766 54.0503 36.1415 54.0503C35.7049 54.0503 35.3522 53.8572 35.0836 53.471C34.8149 53.068 34.6806 52.5474 34.6806 51.9093C34.6806 51.2377 34.8485 50.4736 35.1843 49.6172C35.5202 48.7608 36.0659 47.8708 36.8216 46.9472C37.3085 46.3595 37.8963 45.8893 38.5847 45.5367C39.29 45.1673 39.9785 44.9825 40.6502 44.9825C41.0364 44.9825 41.4058 45.0497 41.7585 45.1841C42.1111 45.3016 42.4218 45.5031 42.6904 45.7886C42.808 45.9061 42.8668 46.0405 42.8668 46.1916C42.8668 46.2923 42.8248 46.3763 42.7408 46.4435C42.6569 46.5106 42.5477 46.5274 42.4134 46.4939C42.2287 45.9061 41.834 45.6123 41.2295 45.6123C40.9441 45.6123 40.6166 45.7046 40.2472 45.8893C39.6762 46.1916 39.0801 46.687 38.4588 47.3754C37.8543 48.0639 37.3253 48.7776 36.8719 49.5164C36.8048 49.6172 36.6956 49.8103 36.5445 50.0958C36.4102 50.3812 36.2758 50.7003 36.1415 51.0529C36.0071 51.4056 35.9148 51.7498 35.8644 52.0857C35.8476 52.1864 35.8392 52.262 35.8392 52.3124C35.8392 52.3459 35.8392 52.4047 35.8392 52.4887C35.8392 53.0428 36.0491 53.3199 36.4689 53.3199C36.9727 53.3199 37.5436 52.9505 38.1817 52.2116C38.6183 51.6743 39.0129 51.1117 39.3656 50.524C39.7182 49.9363 40.0793 49.3065 40.4487 48.6349C40.7006 48.1815 40.9357 47.8036 41.154 47.5014C41.3723 47.1991 41.6829 47.048 42.0859 47.048C42.2706 47.048 42.4554 47.0732 42.6401 47.1236C42.8248 47.1739 43.0179 47.1823 43.2194 47.1487C43.0851 47.2831 42.9003 47.535 42.6653 47.9044C42.447 48.2738 42.2119 48.6936 41.96 49.1638C41.7081 49.634 41.4814 50.1126 41.2799 50.5995C41.0784 51.0865 40.9357 51.5063 40.8517 51.859C40.8349 51.9597 40.8097 52.1024 40.7761 52.2872C40.7593 52.4719 40.7509 52.6062 40.7509 52.6902C40.7509 53.1604 40.8853 53.3955 41.154 53.3955C41.4226 53.3955 41.7081 53.2359 42.0104 52.9169C42.3294 52.5978 42.6401 52.2032 42.9423 51.733C43.2446 51.2628 43.5217 50.7927 43.7735 50.3225C44.0254 49.8355 44.2269 49.4409 44.3781 49.1386C44.4452 48.9707 44.546 48.8867 44.6803 48.8867C44.7643 48.8867 44.8063 48.9455 44.8063 49.0631C44.8063 49.1134 44.7811 49.2058 44.7307 49.3401C44.5292 49.7599 44.2857 50.2385 44.0002 50.7759C43.7148 51.2964 43.4041 51.8086 43.0683 52.3124C42.7324 52.7993 42.3798 53.2107 42.0104 53.5466C41.6577 53.8656 41.2967 54.042 40.9273 54.0755Z" fill="white"></path>
  <path d="M47.3393 54.0252C47.0202 54.0252 46.7012 53.8992 46.3821 53.6473C46.0631 53.3787 45.9035 52.9505 45.9035 52.3627C45.9035 51.9093 46.0127 51.3888 46.231 50.8011C46.4325 50.2301 46.7012 49.676 47.037 49.1386C47.3896 48.6013 47.6415 48.1647 47.7927 47.8288C47.843 47.6945 47.8682 47.5769 47.8682 47.4762C47.8682 47.1739 47.6751 46.9556 47.2889 46.8213C46.9195 46.687 46.4325 46.6114 45.828 46.5946L45.5257 47.4258C45.341 47.9632 45.0807 48.5929 44.7449 49.3149C44.4258 50.037 44.0648 50.7339 43.6618 51.4056C43.2755 52.0773 42.8725 52.6146 42.4527 53.0176C42.4191 53.0512 42.3772 53.068 42.3268 53.068C42.2596 53.068 42.2176 53.026 42.2008 52.9421C42.1673 52.8581 42.2008 52.7573 42.3016 52.6398C42.9565 51.7666 43.5442 50.8011 44.0648 49.7431C44.5853 48.6684 45.0219 47.5769 45.3746 46.4687C45.744 45.3604 46.0127 44.336 46.1806 43.3957C46.231 43.127 46.3233 42.9339 46.4577 42.8164C46.592 42.682 46.7347 42.6148 46.8859 42.6148C47.1042 42.6148 47.3057 42.724 47.4904 42.9423C47.6751 43.1438 47.7675 43.4377 47.7675 43.8239C47.7675 43.8911 47.7591 43.9666 47.7423 44.0506C47.7423 44.1345 47.7339 44.2185 47.7171 44.3025C47.6499 44.6551 47.4484 44.9909 47.1126 45.31C46.7935 45.6123 46.5332 45.839 46.3317 45.9901C46.4996 46.0069 46.676 46.0237 46.8607 46.0405C47.0454 46.0405 47.2469 46.0405 47.4652 46.0405C48.2544 46.0405 49.0353 45.9901 49.8077 45.8893C49.8413 45.9901 49.8581 46.0656 49.8581 46.116C49.8581 46.3343 49.7909 46.6114 49.6566 46.9472C49.539 47.2831 49.4131 47.5853 49.2788 47.854C49.2116 48.0051 49.0773 48.2822 48.8757 48.6852C48.6742 49.0715 48.4559 49.5164 48.2209 50.0202C47.9858 50.5072 47.7843 50.9942 47.6163 51.4811C47.4652 51.9513 47.3896 52.3543 47.3896 52.6902C47.3896 53.1268 47.5576 53.3451 47.8934 53.3451C48.1453 53.3451 48.4224 53.1855 48.7246 52.8665C49.0269 52.5307 49.3207 52.1276 49.6062 51.6575C49.9085 51.1705 50.1771 50.7003 50.4122 50.2469C50.6641 49.7767 50.8572 49.4073 50.9916 49.1386C51.0587 48.9707 51.1511 48.8867 51.2686 48.8867C51.3358 48.8867 51.3694 48.9455 51.3694 49.0631C51.3694 49.1302 51.3442 49.231 51.2938 49.3653C51.1091 49.7515 50.8908 50.1881 50.6389 50.6751C50.387 51.1621 50.1016 51.6407 49.7825 52.1108C49.4803 52.581 49.1444 52.9924 48.775 53.3451C48.4224 53.6809 48.0361 53.8992 47.6163 54C47.566 54.0168 47.4736 54.0252 47.3393 54.0252Z" fill="white"></path>
  <path d="M47.5091 62.035C46.6359 62.035 46.0146 61.8587 45.6451 61.5061C45.2757 61.1702 45.091 60.7672 45.091 60.2971C45.091 60.0452 45.1246 59.8269 45.1918 59.6422C45.2589 59.4574 45.3597 59.2223 45.494 58.9369C45.7291 58.4499 46.0566 58.0301 46.4764 57.6775C46.8962 57.3248 47.3496 57.0394 47.8365 56.8211C48.7097 56.4181 49.7005 56.0906 50.8088 55.8387C51.9338 55.5868 53.0085 55.3098 54.0329 55.0075C54.3519 54.4534 54.6458 53.8237 54.9145 53.1184C55.1831 52.3963 55.4266 51.6994 55.6449 51.0277C55.8632 50.3393 56.0395 49.7767 56.1739 49.3401C55.9724 49.7096 55.7121 50.1629 55.393 50.7003C55.0908 51.2209 54.7465 51.733 54.3603 52.2368C53.9741 52.7406 53.5543 53.1604 53.1009 53.4962C52.6643 53.832 52.2025 54 51.7155 54C51.5308 54 51.3041 53.958 51.0355 53.874C50.7836 53.7901 50.5569 53.6389 50.3554 53.4206C50.1707 53.1855 50.0783 52.8413 50.0783 52.3879C50.0783 51.9513 50.179 51.5315 50.3806 51.1285C50.5989 50.7087 50.8004 50.3057 50.9851 49.9195C50.9347 49.9195 50.8759 49.9027 50.8088 49.8691C50.7584 49.8355 50.7332 49.7851 50.7332 49.718C50.7332 49.6508 50.75 49.5836 50.7836 49.5164C50.8507 49.3821 50.9263 49.2394 51.0103 49.0882C51.0942 48.9371 51.1698 48.7776 51.237 48.6097C51.4888 48.0891 51.7407 47.5937 51.9926 47.1236C52.2445 46.6366 52.4628 46.2084 52.6475 45.839C52.8322 45.4695 53.1513 45.2848 53.6047 45.2848H55.1663C55.0488 45.3856 54.8977 45.5031 54.7129 45.6374C54.545 45.755 54.3855 45.9397 54.2344 46.1916C53.781 46.964 53.3864 47.7113 53.0505 48.4333C52.7147 49.1386 52.3536 49.8943 51.9674 50.7003C51.7827 51.0865 51.6484 51.4392 51.5644 51.7582C51.4804 52.0773 51.4385 52.3543 51.4385 52.5894C51.4385 53.1436 51.6232 53.4206 51.9926 53.4206C52.3956 53.4206 52.8826 53.0932 53.4535 52.4383C53.9237 51.8842 54.3939 51.2293 54.8641 50.4736C55.3511 49.7012 55.8128 48.9119 56.2494 48.1059C56.7028 47.2831 57.0974 46.5274 57.4333 45.839C57.618 45.4695 57.9454 45.2848 58.4156 45.2848H59.801C59.314 45.6207 58.9362 46.0573 58.6675 46.5946C58.4156 47.132 58.1302 47.8204 57.8111 48.66C57.4585 49.5836 57.1226 50.5408 56.8036 51.5315C56.5013 52.5055 56.1571 53.4878 55.7709 54.4785C56.325 54.2938 56.9463 54.0084 57.6348 53.6221C58.3401 53.2359 58.9362 52.6818 59.4232 51.9597C59.8094 51.3888 60.1368 50.843 60.4055 50.3225C60.691 49.7851 60.8925 49.3989 61.01 49.1638C61.0772 48.9959 61.1696 48.9119 61.2871 48.9119C61.4046 48.9119 61.4634 48.9875 61.4634 49.1386C61.4634 49.2226 61.4382 49.3149 61.3879 49.4157C60.9513 50.2889 60.5566 51.0277 60.204 51.6323C59.8682 52.22 59.4903 52.7322 59.0705 53.1688C58.6675 53.5886 58.1721 53.958 57.5844 54.277C56.9967 54.6129 56.2494 54.9487 55.3427 55.2846C54.9396 56.0066 54.4779 56.7539 53.9573 57.5263C53.4535 58.3156 52.8742 59.046 52.2193 59.7177C51.5812 60.4062 50.8675 60.9603 50.0783 61.3801C49.3059 61.8167 48.4495 62.035 47.5091 62.035ZM46.9046 61.5313C47.4587 61.5313 48.0296 61.3634 48.6174 61.0275C49.2051 60.6917 49.776 60.2635 50.3302 59.7429C50.8843 59.2391 51.3881 58.7186 51.8415 58.1812C52.3117 57.6607 52.6895 57.1989 52.975 56.7959C53.0589 56.6783 53.1513 56.5272 53.252 56.3425C53.3528 56.1578 53.4535 55.9815 53.5543 55.8135C52.7315 56.0318 51.8247 56.2669 50.8339 56.5188C49.86 56.7875 49.012 57.0813 48.2899 57.4004C47.4839 57.7362 46.8542 58.2148 46.4008 58.8361C45.9306 59.4574 45.6955 60.0116 45.6955 60.4986C45.6955 60.8008 45.7963 61.0443 45.9978 61.229C46.1825 61.4305 46.4848 61.5313 46.9046 61.5313Z" fill="white"></path>
  <path d="M100.534 56.8966C100.282 56.863 99.9377 56.7959 99.5011 56.6951C99.0645 56.6112 98.6195 56.4348 98.1662 56.1662C97.7128 55.8975 97.3265 55.4861 97.0075 54.9319C96.6884 54.3946 96.5289 53.6725 96.5289 52.7657C96.5289 51.7246 96.7388 50.5828 97.1586 49.3401C97.5952 48.0807 98.1242 46.7709 98.7455 45.4108C99.3668 44.0506 99.9629 42.7072 100.534 41.3806C100.987 40.3227 101.214 39.5167 101.214 38.9625C101.214 38.4084 101.004 38.1313 100.584 38.1313C100.114 38.1313 99.4088 38.5091 98.4684 39.2648C97.5448 40.0037 96.4701 41.1287 95.2443 42.64C94.9253 43.043 94.5138 43.6056 94.0101 44.3277C93.5063 45.0329 92.969 45.8222 92.398 46.6954C91.8271 47.5518 91.2646 48.425 90.7104 49.3149C90.1731 50.1881 89.6945 50.9942 89.2747 51.733C88.8717 52.4719 88.5778 53.0596 88.3931 53.4962C88.1748 54.0168 87.9229 54.3694 87.6374 54.5541C87.352 54.7556 87.0833 54.8564 86.8314 54.8564C86.6131 54.8564 86.42 54.7976 86.2521 54.6801C86.1009 54.5625 86.0254 54.4198 86.0254 54.2519C86.0254 54.1511 86.0506 54.0671 86.1009 54C86.2017 53.7985 86.4704 53.3115 86.907 52.539C87.3436 51.7666 87.8389 50.7423 88.3931 49.4661C88.9472 48.1731 89.4762 46.6786 89.9799 44.9825C90.5005 43.2697 90.8867 41.3806 91.1386 39.3152C91.1722 39.0801 91.189 38.8282 91.189 38.5595C91.189 37.9718 91.0882 37.5436 90.8867 37.2749C90.6852 36.9895 90.4165 36.8467 90.0807 36.8467C89.7113 36.8467 89.2915 37.0062 88.8213 37.3253C88.3511 37.6444 87.8725 38.1061 87.3856 38.7107C86.5459 39.7686 85.8071 40.7509 85.169 41.6577C84.5309 42.5477 83.9431 43.4377 83.4058 44.3277C82.8852 45.2176 82.3647 46.1664 81.8441 47.1739C81.3404 48.1815 80.803 49.3149 80.2321 50.5744C79.6611 51.817 79.0062 53.2611 78.2674 54.9067C78.1498 55.1754 77.9483 55.3685 77.6629 55.4861C77.3942 55.6036 77.1423 55.6624 76.9072 55.6624C76.6721 55.6624 76.479 55.612 76.3279 55.5113C76.1767 55.4105 76.1264 55.2678 76.1767 55.0831C76.6133 54.4114 77.0835 53.5634 77.5873 52.539C78.0911 51.5147 78.5948 50.398 79.0986 49.189C79.6191 47.9632 80.0977 46.7289 80.5343 45.4863C80.9877 44.2269 81.3739 43.043 81.693 41.9348C82.012 40.8097 82.2303 39.8357 82.3479 39.0129C82.3815 38.7442 82.4067 38.4924 82.4234 38.2573C82.4402 38.0222 82.4486 37.7955 82.4486 37.5772C82.4486 36.2842 82.1716 35.3606 81.6174 34.8065C81.0801 34.2523 80.3832 33.9753 79.5268 33.9753C78.8047 33.9753 78.0155 34.1432 77.1591 34.479C76.3195 34.7981 75.4631 35.2431 74.5899 35.814C73.7335 36.3849 72.9107 37.0482 72.1214 37.8039C71.3322 38.5427 70.6353 39.3404 70.0308 40.1968C69.4263 41.0364 68.9645 41.8928 68.6454 42.766C68.4271 43.3873 68.2592 43.9834 68.1417 44.5543C68.0409 45.1085 67.9905 45.629 67.9905 46.116C67.9905 47.0564 68.1585 47.854 68.4943 48.5089C68.8469 49.1638 69.3087 49.6592 69.8797 49.995C70.4674 50.3309 71.0971 50.4988 71.7688 50.4988C72.0039 50.4988 72.2642 50.4736 72.5496 50.4232C72.8519 50.3561 73.1038 50.2889 73.3053 50.2217C73.7922 50.037 74.2624 49.7515 74.7158 49.3653C75.1692 48.9623 75.5722 48.5005 75.9249 47.98C76.2775 47.4594 76.5546 46.9304 76.7561 46.3931C76.9576 45.8557 77.0583 45.352 77.0583 44.8818C77.0583 44.3948 76.924 43.9918 76.6553 43.6728C76.3866 43.3537 75.9584 43.1942 75.3707 43.1942C75.3036 43.1942 75.228 43.2026 75.144 43.2194C75.0769 43.2194 75.0013 43.2194 74.9173 43.2194H74.8418C74.7242 43.2194 74.6151 43.2026 74.5143 43.169C74.4136 43.1186 74.3632 43.0598 74.3632 42.9927C74.3632 42.9255 74.4471 42.8499 74.6151 42.766C74.7998 42.682 75.1272 42.64 75.5974 42.64C76.3531 42.64 76.9156 42.8667 77.285 43.3201C77.6712 43.7567 77.8644 44.3193 77.8644 45.0077C77.8644 45.629 77.6964 46.3007 77.3606 47.0228C77.0248 47.7449 76.521 48.4333 75.8493 49.0882C75.1776 49.7431 74.3296 50.2805 73.3053 50.7003C72.7008 50.9354 72.113 51.0529 71.5421 51.0529C70.7025 51.0529 69.9049 50.843 69.1492 50.4232C68.3936 49.9866 67.7806 49.3737 67.3105 48.5845C66.8403 47.7785 66.6052 46.8297 66.6052 45.7382C66.6052 45.2512 66.6556 44.7391 66.7563 44.2017C66.8739 43.6476 67.0586 43.0766 67.3105 42.4889C67.8646 41.1959 68.6119 40.0037 69.5522 38.9122C70.5094 37.8039 71.5673 36.8467 72.7259 36.0407C73.8846 35.2179 75.0601 34.5798 76.2523 34.1264C77.4446 33.673 78.5528 33.4463 79.5772 33.4463C80.8198 33.4463 81.8441 33.8157 82.6501 34.5546C83.473 35.2934 83.8844 36.4857 83.8844 38.1313C83.8844 38.2489 83.876 38.4084 83.8592 38.6099C83.8592 38.7946 83.8508 38.9374 83.834 39.0381C83.7332 39.8945 83.5569 40.7509 83.305 41.6073C83.0699 42.4637 82.8097 43.2865 82.5242 44.0758C82.4738 44.2101 82.4318 44.3528 82.3983 44.504C82.3815 44.6383 82.3731 44.7307 82.3731 44.781C82.3731 44.865 82.3899 44.907 82.4234 44.907C82.4906 44.907 82.625 44.7307 82.8265 44.378C83.2127 43.6728 83.5569 43.0598 83.8592 42.5393C84.1782 42.0019 84.4889 41.515 84.7912 41.0784C85.0934 40.6418 85.4209 40.1968 85.7735 39.7434C86.1261 39.29 86.5291 38.7862 86.9825 38.2321C87.5031 37.6108 88.0992 37.1154 88.7709 36.746C89.4426 36.3765 90.0891 36.1918 90.7104 36.1918C91.2646 36.1918 91.7347 36.3765 92.121 36.746C92.5072 37.1154 92.7003 37.7451 92.7003 38.6351C92.7003 38.7358 92.7003 38.8198 92.7003 38.887C92.7003 38.9541 92.6919 39.0549 92.6751 39.1892C92.524 40.8013 92.2049 42.3882 91.7179 43.9498C91.231 45.4947 90.7272 47.0564 90.2066 48.6349C90.7272 47.8288 91.4325 46.8045 92.3225 45.5619C93.2125 44.3193 94.1864 43.0347 95.2443 41.7081C96.5373 40.096 97.738 38.887 98.8462 38.0809C99.9545 37.2749 100.87 36.8719 101.592 36.8719C102.499 36.8719 102.952 37.4261 102.952 38.5343C102.952 38.9541 102.868 39.4579 102.7 40.0456C102.549 40.6334 102.305 41.2547 101.97 41.9096C101.6 42.6484 101.189 43.5048 100.735 44.4788C100.299 45.4359 99.879 46.4435 99.4759 47.5014C99.0729 48.5593 98.7371 49.6004 98.4684 50.6247C98.2165 51.6323 98.0906 52.5642 98.0906 53.4206C98.0906 54.3442 98.3005 55.0915 98.7203 55.6624C99.1569 56.2501 99.9041 56.5272 100.962 56.4936H101.113C101.365 56.4936 101.491 56.544 101.491 56.6447C101.491 56.7119 101.407 56.7791 101.239 56.8463C101.071 56.9134 100.836 56.9302 100.534 56.8966Z" fill="white"></path>
  <path d="M106.653 54.0755C106.468 54.0923 106.258 54.0503 106.023 53.9496C105.788 53.8488 105.578 53.6641 105.394 53.3955C105.226 53.1268 105.142 52.7489 105.142 52.262C105.142 51.859 105.217 51.372 105.368 50.8011C105.167 51.1201 104.907 51.5147 104.588 51.9849C104.269 52.4383 103.924 52.8413 103.555 53.1939C103.236 53.4962 102.934 53.7145 102.648 53.8488C102.363 53.9832 102.102 54.0503 101.867 54.0503C101.431 54.0503 101.078 53.8572 100.809 53.471C100.541 53.068 100.406 52.5474 100.406 51.9093C100.406 51.2377 100.574 50.4736 100.91 49.6172C101.246 48.7608 101.792 47.8708 102.547 46.9472C103.034 46.3595 103.622 45.8893 104.311 45.5367C105.016 45.1673 105.704 44.9825 106.376 44.9825C106.762 44.9825 107.132 45.0497 107.484 45.1841C107.837 45.3016 108.148 45.5031 108.416 45.7886C108.534 45.9061 108.593 46.0405 108.593 46.1916C108.593 46.2923 108.551 46.3763 108.467 46.4435C108.383 46.5106 108.273 46.5274 108.139 46.4939C107.954 45.9061 107.56 45.6123 106.955 45.6123C106.67 45.6123 106.342 45.7046 105.973 45.8893C105.402 46.1916 104.806 46.687 104.185 47.3754C103.58 48.0639 103.051 48.7776 102.598 49.5164C102.531 49.6172 102.421 49.8103 102.27 50.0958C102.136 50.3812 102.002 50.7003 101.867 51.0529C101.733 51.4056 101.641 51.7498 101.59 52.0857C101.573 52.1864 101.565 52.262 101.565 52.3124C101.565 52.3459 101.565 52.4047 101.565 52.4887C101.565 53.0428 101.775 53.3199 102.195 53.3199C102.698 53.3199 103.269 52.9505 103.908 52.2116C104.344 51.6743 104.739 51.1117 105.091 50.524C105.444 49.9363 105.805 49.3065 106.174 48.6349C106.426 48.1815 106.661 47.8036 106.88 47.5014C107.098 47.1991 107.409 47.048 107.812 47.048C107.996 47.048 108.181 47.0732 108.366 47.1236C108.551 47.1739 108.744 47.1823 108.945 47.1487C108.811 47.2831 108.626 47.535 108.391 47.9044C108.173 48.2738 107.938 48.6936 107.686 49.1638C107.434 49.634 107.207 50.1126 107.006 50.5995C106.804 51.0865 106.661 51.5063 106.577 51.859C106.561 51.9597 106.535 52.1024 106.502 52.2872C106.485 52.4719 106.477 52.6062 106.477 52.6902C106.477 53.1604 106.611 53.3955 106.88 53.3955C107.148 53.3955 107.434 53.2359 107.736 52.9169C108.055 52.5978 108.366 52.2032 108.668 51.733C108.97 51.2628 109.247 50.7927 109.499 50.3225C109.751 49.8355 109.953 49.4409 110.104 49.1386C110.171 48.9707 110.272 48.8867 110.406 48.8867C110.49 48.8867 110.532 48.9455 110.532 49.0631C110.532 49.1134 110.507 49.2058 110.456 49.3401C110.255 49.7599 110.011 50.2385 109.726 50.7759C109.441 51.2964 109.13 51.8086 108.794 52.3124C108.458 52.7993 108.106 53.2107 107.736 53.5466C107.384 53.8656 107.022 54.042 106.653 54.0755Z" fill="white"></path>
  <path d="M112.158 54.1007C111.201 54.1007 110.529 53.874 110.143 53.4206C109.757 52.9505 109.564 52.3795 109.564 51.7078C109.564 50.969 109.732 50.1797 110.068 49.3401C110.42 48.5005 110.832 47.7701 111.302 47.1487C111.789 46.4938 112.326 45.9901 112.914 45.6374C113.502 45.268 114.098 45.0833 114.702 45.0833C115.34 45.0833 115.811 45.2428 116.113 45.5619C116.415 45.8809 116.533 46.3091 116.465 46.8465C116.432 47.1823 116.272 47.5182 115.987 47.854C115.701 48.1731 115.416 48.3326 115.13 48.3326C114.996 48.3326 114.879 48.2822 114.778 48.1815C114.912 48.0135 115.055 47.812 115.206 47.5769C115.357 47.3419 115.466 47.1152 115.534 46.8969C115.601 46.6954 115.634 46.4939 115.634 46.2923C115.634 45.8725 115.433 45.6626 115.03 45.6626C114.576 45.6626 114.098 45.8977 113.594 46.3679C113.107 46.8213 112.679 47.3167 112.309 47.854C112.158 48.0555 111.974 48.3746 111.755 48.8112C111.554 49.231 111.369 49.7012 111.201 50.2217C111.033 50.7255 110.949 51.2209 110.949 51.7078C110.949 52.2116 111.058 52.665 111.277 53.068C111.512 53.4542 111.898 53.6473 112.435 53.6473C113.174 53.6473 113.804 53.4206 114.324 52.9673C114.862 52.4971 115.332 51.9177 115.735 51.2293C116.155 50.5408 116.533 49.8691 116.868 49.2142C116.969 49.0127 117.07 48.9119 117.171 48.9119C117.255 48.9119 117.297 48.9791 117.297 49.1134C117.297 49.1806 117.271 49.2646 117.221 49.3653C116.818 50.2385 116.407 51.0361 115.987 51.7582C115.567 52.4803 115.055 53.0512 114.45 53.471C113.863 53.8908 113.099 54.1007 112.158 54.1007Z" fill="white"></path>
  <path d="M121.194 54.1763C120.741 54.1259 120.33 53.916 119.96 53.5466C119.608 53.1604 119.364 52.6482 119.23 52.0101C119.213 51.8925 119.196 51.7918 119.179 51.7078C119.179 51.6071 119.179 51.4979 119.179 51.3804C119.179 50.7087 119.33 50.1713 119.633 49.7683C119.935 49.3485 120.212 49.1302 120.464 49.1134C120.733 49.1302 121.06 49.0715 121.446 48.9371C121.832 48.786 122.168 48.5845 122.454 48.3326C122.941 47.9464 123.184 47.5518 123.184 47.1487C123.184 46.7289 122.941 46.519 122.454 46.519C122.185 46.519 121.841 46.6114 121.421 46.7961C121.018 46.9808 120.548 47.2999 120.011 47.7533C119.339 48.3242 118.642 49.0882 117.92 50.0454C117.819 50.2637 117.702 50.5912 117.567 51.0277C117.433 51.4476 117.315 51.8841 117.215 52.3375C117.131 52.7909 117.089 53.1772 117.089 53.4962C117.089 53.7481 117.131 53.916 117.215 54H115.628C115.443 54 115.351 53.9244 115.351 53.7733C115.351 53.7229 115.359 53.6809 115.376 53.6473C115.393 53.6138 115.409 53.5466 115.426 53.4458C115.661 52.5726 115.972 51.7498 116.358 50.9774C116.744 50.2049 117.131 49.3905 117.517 48.5341C116.929 49.6256 116.392 50.5911 115.905 51.4308C115.435 52.2536 115.074 52.7825 114.822 53.0176C114.788 53.0512 114.746 53.068 114.696 53.068C114.629 53.068 114.587 53.026 114.57 52.9421C114.536 52.8581 114.553 52.7741 114.62 52.6902C114.973 52.22 115.376 51.5735 115.829 50.7507C116.299 49.9279 116.795 49.0127 117.315 48.0051C117.836 46.9808 118.365 45.9481 118.902 44.907C119.44 43.8659 119.96 42.8835 120.464 41.9599C120.984 41.0364 121.455 40.2555 121.874 39.6174C122.177 39.164 122.462 38.845 122.731 38.6603C123 38.4588 123.277 38.358 123.562 38.358H123.688C123.839 38.358 124.007 38.3832 124.192 38.4336C124.393 38.484 124.578 38.4924 124.746 38.4588C124.427 38.7107 124.041 39.1221 123.587 39.693C123.134 40.2639 122.655 40.944 122.152 41.7333C121.648 42.5225 121.136 43.3621 120.615 44.2521C120.111 45.1421 119.633 46.0237 119.179 46.8969C119.011 47.2327 118.852 47.5853 118.701 47.9548C118.55 48.3242 118.407 48.6936 118.273 49.0631C118.625 48.6265 119.028 48.1731 119.482 47.7029C119.935 47.2327 120.405 46.8045 120.892 46.4183C121.396 46.0153 121.891 45.7214 122.378 45.5367C122.932 45.3352 123.394 45.2344 123.764 45.2344C124.15 45.2344 124.427 45.3268 124.595 45.5115C124.78 45.6962 124.872 45.9313 124.872 46.2168C124.872 46.5358 124.746 46.922 124.494 47.3754C124.242 47.812 123.898 48.1899 123.461 48.5089C123.092 48.7608 122.706 48.9791 122.303 49.1638C121.9 49.3485 121.421 49.4661 120.867 49.5164C120.766 49.7515 120.691 49.995 120.64 50.2469C120.607 50.482 120.59 50.7171 120.59 50.9522C120.59 51.6071 120.741 52.1864 121.043 52.6902C121.346 53.1772 121.74 53.4206 122.227 53.4206C122.462 53.4206 122.714 53.3535 122.983 53.2191C123.268 53.0848 123.562 52.8581 123.864 52.539C124.2 52.2032 124.536 51.7246 124.872 51.1033C125.225 50.482 125.577 49.8019 125.93 49.0631C125.997 48.9287 126.073 48.8616 126.156 48.8616C126.257 48.8616 126.308 48.9287 126.308 49.0631C126.308 49.1302 126.282 49.2142 126.232 49.3149C125.745 50.44 125.275 51.3384 124.822 52.0101C124.385 52.665 123.957 53.1604 123.537 53.4962C123.134 53.8153 122.739 54.0168 122.353 54.1007C121.967 54.1847 121.581 54.2099 121.194 54.1763Z" fill="white"></path>
  <path d="M127.07 54.0755C126.364 54.0755 125.886 53.8908 125.634 53.5214C125.382 53.1352 125.256 52.6818 125.256 52.1612C125.256 51.6239 125.332 51.0697 125.483 50.4988C125.634 49.9279 125.768 49.4493 125.886 49.0631C126.155 48.1227 126.49 47.1236 126.893 46.0656C127.313 44.9909 127.767 43.9414 128.254 42.9171C128.757 41.876 129.253 40.944 129.74 40.1212C130.126 39.4663 130.537 38.9793 130.974 38.6603C131.427 38.3244 131.822 38.1565 132.158 38.1565C132.426 38.1565 132.636 38.2573 132.787 38.4588C132.955 38.6435 133.039 38.929 133.039 39.3152C133.039 39.5839 132.989 39.9029 132.888 40.2723C132.804 40.6418 132.653 41.0616 132.435 41.5317C131.847 42.8415 131.142 44.1513 130.319 45.4611C129.513 46.7709 128.489 47.9968 127.246 49.1386C127.179 49.3569 127.087 49.6172 126.969 49.9195C126.868 50.2049 126.776 50.4988 126.692 50.8011C126.591 51.2544 126.541 51.6407 126.541 51.9597C126.541 52.4803 126.642 52.8749 126.843 53.1436C127.061 53.3954 127.322 53.5214 127.624 53.5214C127.893 53.5214 128.178 53.429 128.48 53.2443C128.783 53.0428 129.068 52.7573 129.337 52.3879C129.74 51.8002 130.101 51.2041 130.42 50.5995C130.756 49.9782 131.008 49.4997 131.175 49.1638C131.276 48.9791 131.385 48.8867 131.503 48.8867C131.587 48.8867 131.629 48.9371 131.629 49.0379C131.629 49.1218 131.604 49.2142 131.553 49.3149C131.402 49.6508 131.201 50.0874 130.949 50.6247C130.714 51.1453 130.411 51.6743 130.042 52.2116C129.689 52.7322 129.261 53.1772 128.757 53.5466C128.27 53.8992 127.708 54.0755 127.07 54.0755ZM127.448 48.3326C128.052 47.7113 128.64 46.9976 129.211 46.1916C129.782 45.3688 130.311 44.5208 130.798 43.6476C131.301 42.7576 131.721 41.918 132.057 41.1287C132.175 40.8769 132.267 40.5998 132.334 40.2975C132.418 39.9953 132.46 39.7434 132.46 39.5419C132.46 39.3068 132.401 39.1892 132.284 39.1892C132.217 39.1892 132.116 39.2564 131.981 39.3907C131.847 39.5083 131.671 39.7182 131.453 40.0205C131.133 40.4403 130.781 41.0112 130.395 41.7333C130.025 42.4553 129.647 43.2278 129.261 44.0506C128.875 44.8734 128.522 45.671 128.203 46.4435C127.884 47.1991 127.632 47.8288 127.448 48.3326Z" fill="white"></path>
  <path d="M131.979 54C131.794 54 131.567 53.958 131.299 53.874C131.047 53.7901 130.82 53.6389 130.619 53.4206C130.434 53.1855 130.341 52.8413 130.341 52.3879C130.341 51.9513 130.442 51.5315 130.644 51.1285C130.862 50.7087 131.064 50.3057 131.248 49.9195C131.198 49.9195 131.139 49.9027 131.072 49.8691C131.022 49.8355 130.996 49.7851 130.996 49.718C130.996 49.6508 131.013 49.5836 131.047 49.5164C131.114 49.3821 131.189 49.2394 131.273 49.0882C131.357 48.9371 131.433 48.7776 131.5 48.6097C131.752 48.0891 132.004 47.5937 132.256 47.1236C132.508 46.6366 132.726 46.2084 132.911 45.839C133.095 45.4695 133.414 45.2848 133.868 45.2848H135.43C135.144 45.5031 134.884 45.7466 134.649 46.0153C134.43 46.2672 134.153 46.7373 133.817 47.4258C133.817 47.4258 133.759 47.5434 133.641 47.7785C133.524 48.0135 133.372 48.3158 133.188 48.6852C133.02 49.0379 132.844 49.3989 132.659 49.7683C132.491 50.1378 132.348 50.4484 132.231 50.7003C132.012 51.1705 131.87 51.5483 131.802 51.8338C131.735 52.1025 131.702 52.3543 131.702 52.5894C131.702 53.1436 131.886 53.4206 132.256 53.4206C132.659 53.4206 133.146 53.0932 133.717 52.4383C134.187 51.8842 134.649 51.2209 135.102 50.4484C135.555 49.676 135.984 48.8783 136.387 48.0555C136.806 47.2327 137.176 46.4938 137.495 45.839C137.68 45.4695 138.007 45.2848 138.477 45.2848H139.863C139.611 45.4863 139.401 45.6794 139.233 45.8641C139.065 46.0321 138.897 46.2672 138.729 46.5694C138.578 46.8549 138.368 47.2663 138.099 47.8036C137.881 48.257 137.646 48.744 137.394 49.2646C137.159 49.7683 136.949 50.2469 136.764 50.7003C136.58 51.1537 136.462 51.5231 136.412 51.8086C136.395 51.9765 136.378 52.1025 136.361 52.1864C136.345 52.2704 136.336 52.3627 136.336 52.4635C136.336 52.7825 136.387 53.0092 136.487 53.1436C136.605 53.2779 136.739 53.3451 136.89 53.3451C137.293 53.3451 137.696 53.1184 138.099 52.665C138.519 52.2116 138.914 51.6575 139.283 51.0026C139.67 50.3477 139.997 49.7263 140.266 49.1386C140.366 48.9539 140.459 48.8616 140.543 48.8616C140.644 48.8616 140.694 48.9203 140.694 49.0379C140.694 49.1218 140.66 49.2226 140.593 49.3401C140.408 49.7431 140.182 50.2049 139.913 50.7255C139.644 51.246 139.342 51.7582 139.006 52.262C138.67 52.7657 138.301 53.1855 137.898 53.5214C137.495 53.8404 137.058 54 136.588 54C136.168 54 135.824 53.8488 135.555 53.5466C135.287 53.2275 135.152 52.7825 135.152 52.2116C135.152 51.7582 135.236 51.2712 135.404 50.7507C135.119 51.2544 134.791 51.7582 134.422 52.262C134.053 52.7657 133.658 53.1855 133.238 53.5214C132.818 53.8404 132.399 54 131.979 54Z" fill="white"></path>
  <path d="M137.832 54.2015C138.436 52.9756 139.016 51.7666 139.57 50.5744C140.141 49.3653 140.72 48.2151 141.308 47.1236C141.644 46.519 141.921 46.0992 142.139 45.8641C142.374 45.6123 142.685 45.4863 143.071 45.4863C143.205 45.4863 143.348 45.5115 143.499 45.5619C143.65 45.5955 143.802 45.6123 143.953 45.6123C144.053 45.6123 144.129 45.6039 144.179 45.5871C143.944 45.7214 143.642 46.0573 143.273 46.5946C142.903 47.1152 142.525 47.7197 142.139 48.4082C141.753 49.0966 141.409 49.7431 141.106 50.3477C141.425 49.9614 141.753 49.5752 142.089 49.189C142.441 48.8028 142.828 48.4334 143.247 48.0807C143.65 47.7281 144.129 47.367 144.683 46.9976C145.254 46.6114 145.808 46.2923 146.346 46.0405C146.883 45.7886 147.311 45.6626 147.63 45.6626C147.748 45.6626 147.832 45.671 147.882 45.6878C147.882 45.6878 147.79 45.8557 147.605 46.1916C147.42 46.5106 147.185 46.9388 146.9 47.4762C146.631 47.9968 146.354 48.5593 146.068 49.1638C145.783 49.7515 145.523 50.3225 145.288 50.8766C145.069 51.414 144.927 51.8674 144.859 52.2368C144.809 52.4551 144.784 52.6566 144.784 52.8413C144.784 53.11 144.834 53.2863 144.935 53.3703C145.036 53.4542 145.145 53.4962 145.262 53.4962C145.581 53.4962 145.917 53.3283 146.27 52.9924C146.623 52.6398 146.958 52.2116 147.277 51.7078C147.613 51.2041 147.907 50.7171 148.159 50.2469C148.428 49.7599 148.621 49.3905 148.738 49.1386C148.806 49.0043 148.856 48.9287 148.89 48.9119C148.923 48.8783 148.973 48.8616 149.041 48.8616C149.141 48.8616 149.192 48.9287 149.192 49.0631C149.192 49.147 149.167 49.2394 149.116 49.3401C148.915 49.7264 148.671 50.1881 148.386 50.7255C148.117 51.2628 147.806 51.7918 147.454 52.3124C147.101 52.8161 146.715 53.2443 146.295 53.597C145.875 53.9328 145.422 54.1007 144.935 54.1007C144.599 54.1007 144.246 53.9832 143.877 53.7481C143.524 53.513 143.348 53.0764 143.348 52.4383C143.348 52.2536 143.365 52.0605 143.398 51.859C143.432 51.6407 143.491 51.4056 143.575 51.1537C143.709 50.8178 143.869 50.4568 144.053 50.0706C144.238 49.6844 144.54 49.1554 144.96 48.4837C145.078 48.299 145.145 48.1563 145.162 48.0555C145.195 47.9548 145.212 47.8708 145.212 47.8036C145.212 47.6021 145.12 47.5014 144.935 47.5014C144.784 47.5014 144.557 47.5853 144.255 47.7533C143.969 47.9212 143.608 48.2151 143.172 48.6349C142.752 49.0379 142.248 49.6088 141.66 50.3477C141.09 51.0865 140.426 52.178 139.671 53.6221C139.553 53.8404 139.419 53.958 139.268 53.9748C139.133 53.9916 138.94 54.0084 138.688 54.0252C138.52 54.042 138.361 54.0503 138.21 54.0503C138.059 54.0671 137.933 54.1175 137.832 54.2015Z" fill="white"></path>
  <path d="M154.253 54C153.8 54 153.422 53.7733 153.12 53.3199C153.036 53.1855 152.96 53.0092 152.893 52.7909C152.826 52.5726 152.792 52.3291 152.792 52.0605C152.792 51.9093 152.801 51.7582 152.817 51.6071C152.834 51.4392 152.868 51.2712 152.918 51.1033C152.683 51.4727 152.406 51.8841 152.087 52.3375C151.785 52.7741 151.432 53.1604 151.029 53.4962C150.643 53.8153 150.206 53.9748 149.719 53.9748C149.551 53.9748 149.375 53.9496 149.19 53.8992C148.737 53.7649 148.409 53.5298 148.208 53.1939C148.023 52.8581 147.931 52.4551 147.931 51.9849C147.931 51.4643 148.032 50.8934 148.233 50.2721C148.451 49.6508 148.72 49.0463 149.039 48.4585C149.375 47.8708 149.719 47.367 150.072 46.9472C150.576 46.3595 151.155 45.8893 151.81 45.5367C152.465 45.1841 153.128 45.0077 153.8 45.0077C154.404 45.0077 154.975 45.1673 155.512 45.4863C155.764 45.0161 156.033 44.4956 156.319 43.9246C156.604 43.3369 156.889 42.7576 157.175 42.1866C157.46 41.6157 157.712 41.0952 157.931 40.625C158.149 40.138 158.317 39.7686 158.434 39.5167C158.686 38.929 158.921 38.5595 159.14 38.4084C159.375 38.2405 159.652 38.1565 159.971 38.1565C160.156 38.1565 160.357 38.1817 160.575 38.2321C160.81 38.2657 161.037 38.2741 161.255 38.2573C161.155 38.358 160.945 38.6519 160.626 39.1389C160.323 39.609 159.962 40.2136 159.543 40.9524C159.123 41.6913 158.669 42.5057 158.182 43.3957C157.712 44.2689 157.242 45.1589 156.772 46.0656C156.319 46.9556 155.89 47.8036 155.487 48.6097C155.101 49.3989 154.79 50.079 154.555 50.6499C154.488 50.7843 154.387 51.0613 154.253 51.4811C154.136 51.8841 154.077 52.2368 154.077 52.539C154.077 52.7573 154.127 52.9505 154.228 53.1184C154.329 53.2695 154.497 53.3451 154.732 53.3451C155.051 53.3451 155.37 53.1855 155.689 52.8665C156.025 52.5307 156.344 52.1276 156.646 51.6575C156.948 51.1705 157.217 50.7003 157.452 50.2469C157.687 49.7767 157.863 49.4073 157.981 49.1386C158.065 48.9539 158.166 48.8616 158.283 48.8616C158.384 48.8616 158.434 48.9371 158.434 49.0882C158.434 49.105 158.434 49.1386 158.434 49.189C158.434 49.2226 158.418 49.2646 158.384 49.3149C158.233 49.6676 158.023 50.1042 157.754 50.6247C157.502 51.1453 157.2 51.6659 156.847 52.1864C156.495 52.707 156.1 53.1436 155.664 53.4962C155.227 53.832 154.757 54 154.253 54ZM149.895 53.2443C150.131 53.2443 150.424 53.1184 150.777 52.8665C151.13 52.5978 151.508 52.178 151.911 51.6071C152.381 50.9354 152.918 50.0958 153.523 49.0882C154.127 48.0807 154.723 47.0144 155.311 45.8893C155.093 45.6878 154.841 45.5871 154.555 45.5871C154.085 45.5871 153.556 45.8054 152.968 46.242C152.398 46.6786 151.835 47.2327 151.281 47.9044C150.744 48.5761 150.29 49.2562 149.921 49.9446C149.669 50.4148 149.484 50.843 149.367 51.2293C149.266 51.6155 149.215 51.9513 149.215 52.2368C149.215 52.9085 149.442 53.2443 149.895 53.2443Z" fill="white"></path>
</svg>
