<?xml version="1.0" encoding="UTF-8"?>
<svg xmlns="http://www.w3.org/2000/svg" width="264" height="62" viewBox="0 0 264 62" fill="none">
  <path d="M62.5541 22.9214C60.9084 22.9214 59.3971 22.6779 58.0202 22.1909C56.66 21.7039 55.5601 20.9903 54.7205 20.0499C53.8809 19.0928 53.4191 17.9173 53.3351 16.5235C53.3015 15.9526 53.3939 15.3229 53.6122 14.6344C53.8305 13.9459 54.1328 13.2659 54.519 12.5942C54.922 11.9057 55.3922 11.2928 55.9295 10.7554C56.4837 10.2013 57.0714 9.78147 57.6927 9.496C57.7431 9.46241 57.8187 9.43723 57.9194 9.42043C58.037 9.40364 58.1209 9.39525 58.1713 9.39525C58.272 9.39525 58.3224 9.42043 58.3224 9.47081C58.3224 9.55477 58.1965 9.68911 57.9446 9.87382C57.2393 10.428 56.66 11.0661 56.2066 11.7881C55.7364 12.5102 55.3838 13.2826 55.1487 14.1055C54.9136 14.9283 54.7961 15.7595 54.7961 16.5991C54.7961 17.5898 55.006 18.4463 55.4258 19.1683C55.8624 19.8736 56.4417 20.4529 57.1638 20.9063C57.8858 21.3765 58.7086 21.7207 59.6322 21.939C60.5558 22.1573 61.5213 22.2665 62.5289 22.2665C63.6539 22.2665 64.7622 22.1405 65.8537 21.8887C66.962 21.6368 67.9695 21.2757 68.8763 20.8056C70.2701 20.0667 71.37 19.1515 72.176 18.06C72.9988 16.9685 73.4102 15.8854 73.4102 14.8107C73.4102 14.2398 73.2843 13.6941 73.0324 13.1735C72.7973 12.6529 72.4111 12.1828 71.8737 11.7629C71.4707 11.4439 70.9754 11.1416 70.3876 10.8562C69.8167 10.5707 69.2038 10.2936 68.5489 10.025C67.9108 9.75628 67.2811 9.4876 66.6598 9.21893C66.0384 8.93346 65.4927 8.6312 65.0225 8.31215C64.3508 7.85876 63.8555 7.37178 63.5364 6.85122C63.2341 6.33067 63.083 5.81011 63.083 5.28955C63.083 4.66824 63.2593 4.06372 63.612 3.47599C63.9814 2.88826 64.4768 2.35931 65.0981 1.88912C65.7362 1.40215 66.4499 1.02433 67.2391 0.755649C67.9276 0.520558 68.6748 0.335844 69.4809 0.201506C70.3037 0.0671685 71.1097 0 71.8989 0C72.5538 0 73.1751 0.0503765 73.7629 0.15113C74.3674 0.235091 74.8963 0.394617 75.3497 0.629708C75.9207 0.898384 76.3573 1.25942 76.6595 1.71281C76.9618 2.1494 77.1129 2.61119 77.1129 3.09816C77.1129 3.76985 76.8107 4.35758 76.2061 4.86135C75.9878 5.02927 75.7443 5.1888 75.4757 5.33993C75.207 5.47426 74.8879 5.59181 74.5185 5.69256C74.4513 5.70935 74.3758 5.71775 74.2918 5.71775C74.0903 5.71775 73.9896 5.65898 73.9896 5.54143C73.9896 5.47426 74.0399 5.40709 74.1407 5.33993C74.2582 5.25596 74.4262 5.20559 74.6445 5.18879C75.1482 5.12163 75.526 4.92851 75.7779 4.60946C76.0466 4.29041 76.1809 3.92098 76.1809 3.50118C76.1809 3.06458 76.0298 2.63638 75.7276 2.21657C75.4421 1.77997 74.9971 1.41894 74.3926 1.13347C73.7881 0.831215 73.0156 0.680085 72.0752 0.680085C71.5379 0.680085 70.9418 0.738858 70.2869 0.856403C69.6488 0.973949 68.9519 1.16706 68.1962 1.43573C67.2727 1.75479 66.5002 2.22497 65.8789 2.84628C65.2744 3.46759 64.9721 4.13088 64.9721 4.83616C64.9721 5.27276 65.1149 5.71775 65.4003 6.17114C65.7026 6.60774 66.1812 7.02754 66.8361 7.43056C67.3902 7.7664 68.0199 8.10224 68.7252 8.43809C69.4305 8.75714 70.1441 9.08459 70.8662 9.42043C71.5883 9.73949 72.2432 10.0837 72.8309 10.4532C73.7545 11.0241 74.4178 11.637 74.8208 12.2919C75.2238 12.9468 75.4253 13.6185 75.4253 14.307C75.4253 15.113 75.1818 15.9274 74.6948 16.7502C74.2246 17.5563 73.6033 18.3203 72.8309 19.0424C72.0585 19.7476 71.2104 20.3774 70.2869 20.9315C69.2122 21.5696 67.9947 22.0566 66.6346 22.3924C65.2912 22.7451 63.931 22.9214 62.5541 22.9214Z" fill="white"></path>
  <path d="M78.4542 20.6041C78.2695 20.6041 78.0428 20.5621 77.7741 20.4781C77.5222 20.3941 77.2955 20.243 77.094 20.0247C76.9093 19.7896 76.8169 19.4454 76.8169 18.992C76.8169 18.5554 76.9177 18.1356 77.1192 17.7326C77.3375 17.3128 77.539 16.9098 77.7237 16.5235C77.6733 16.5235 77.6146 16.5068 77.5474 16.4732C77.497 16.4396 77.4718 16.3892 77.4718 16.322C77.4718 16.2549 77.4886 16.1877 77.5222 16.1205C77.5894 15.9862 77.665 15.8435 77.7489 15.6923C77.8329 15.5412 77.9084 15.3817 77.9756 15.2137C78.2275 14.6932 78.4794 14.1978 78.7313 13.7276C78.9831 13.2407 79.2014 12.8125 79.3862 12.443C79.5709 12.0736 79.8899 11.8889 80.3433 11.8889H81.905C81.6195 12.1072 81.3592 12.3507 81.1242 12.6194C80.9059 12.8712 80.6288 13.3414 80.2929 14.0299C80.2929 14.0299 80.2342 14.1474 80.1166 14.3825C79.9991 14.6176 79.8479 14.9199 79.6632 15.2893C79.4953 15.642 79.319 16.003 79.1343 16.3724C78.9664 16.7418 78.8236 17.0525 78.7061 17.3044C78.4878 17.7746 78.345 18.1524 78.2779 18.4379C78.2107 18.7065 78.1771 18.9584 78.1771 19.1935C78.1771 19.7476 78.3618 20.0247 78.7313 20.0247C79.1343 20.0247 79.6212 19.6973 80.1922 19.0424C80.6624 18.4882 81.1242 17.8249 81.5775 17.0525C82.0309 16.2801 82.4591 15.4824 82.8621 14.6596C83.2819 13.8368 83.6514 13.0979 83.9704 12.443C84.1552 12.0736 84.4826 11.8889 84.9528 11.8889H86.3381C86.0863 12.0904 85.8763 12.2835 85.7084 12.4682C85.5405 12.6361 85.3726 12.8712 85.2047 13.1735C85.0535 13.459 84.8436 13.8704 84.575 14.4077C84.3567 14.8611 84.1216 15.3481 83.8697 15.8686C83.6346 16.3724 83.4247 16.851 83.24 17.3044C83.0553 17.7578 82.9377 18.1272 82.8873 18.4127C82.8705 18.5806 82.8538 18.7065 82.837 18.7905C82.8202 18.8745 82.8118 18.9668 82.8118 19.0676C82.8118 19.3866 82.8621 19.6133 82.9629 19.7476C83.0804 19.882 83.2148 19.9492 83.3659 19.9492C83.7689 19.9492 84.1719 19.7225 84.575 19.2691C84.9948 18.8157 85.3894 18.2615 85.7588 17.6066C86.145 16.9517 86.4725 16.3304 86.7411 15.7427C86.8419 15.558 86.9343 15.4656 87.0182 15.4656C87.119 15.4656 87.1693 15.5244 87.1693 15.642C87.1693 15.7259 87.1358 15.8267 87.0686 15.9442C86.8839 16.3472 86.6572 16.809 86.3885 17.3296C86.1198 17.8501 85.8176 18.3623 85.4817 18.8661C85.1459 19.3698 84.7765 19.7896 84.3734 20.1255C83.9704 20.4445 83.5338 20.6041 83.0637 20.6041C82.6438 20.6041 82.2996 20.4529 82.0309 20.1507C81.7623 19.8316 81.6279 19.3866 81.6279 18.8157C81.6279 18.3623 81.7119 17.8753 81.8798 17.3548C81.5943 17.8585 81.2669 18.3623 80.8975 18.8661C80.528 19.3698 80.1334 19.7896 79.7136 20.1255C79.2938 20.4445 78.874 20.6041 78.4542 20.6041Z" fill="white"></path>
  <path d="M87.255 20.7048C86.4321 20.7048 85.8444 20.4949 85.4918 20.0751C85.1559 19.6385 84.988 19.1851 84.988 18.7149C84.988 18.3287 85.0804 17.9761 85.2651 17.657C85.4666 17.338 85.7017 17.17 85.9703 17.1532C86.3062 16.4984 86.6672 15.7847 87.0534 15.0122C87.4565 14.2398 87.8259 13.4925 88.1617 12.7705C88.3968 12.2835 88.6907 11.8133 89.0433 11.3599C89.4128 10.9065 89.8158 10.6463 90.2524 10.5791H90.5042C90.6386 10.5791 90.7561 10.5875 90.8569 10.6043C90.9744 10.6211 91.092 10.6547 91.2095 10.705C91.3942 10.789 91.4866 10.9149 91.4866 11.0829C91.4866 11.1836 91.4278 11.234 91.3103 11.234C91.2599 11.234 91.1927 11.2088 91.1088 11.1584C90.9073 11.0745 90.7309 11.0325 90.5798 11.0325C90.4791 11.0325 90.3867 11.0577 90.3027 11.1081C89.9837 11.276 89.757 11.5111 89.6227 11.8133C89.5051 12.1156 89.4463 12.4346 89.4463 12.7705C89.4463 13.0392 89.4715 13.3162 89.5219 13.6017C89.5891 13.8704 89.6646 14.1139 89.7486 14.3322C89.9333 14.8023 90.1264 15.2641 90.3279 15.7175C90.5462 16.1709 90.6554 16.6579 90.6554 17.1784C90.6554 17.6822 90.4875 18.2196 90.1516 18.7905C89.8158 19.3446 89.3876 19.7896 88.867 20.1255L89.0433 20.1507C89.1273 20.1675 89.1861 20.1758 89.2196 20.1758C89.2532 20.1758 89.2784 20.1758 89.2952 20.1758C89.6814 20.1758 90.0425 20.0667 90.3783 19.8484C90.7309 19.6133 91.0416 19.3278 91.3103 18.992C91.5789 18.6562 91.8812 18.186 92.2171 17.5815C92.5697 16.9769 92.9055 16.3388 93.2246 15.6671C93.275 15.5832 93.3337 15.5412 93.4009 15.5412C93.4849 15.5412 93.5436 15.5748 93.5772 15.642C93.6276 15.6923 93.636 15.7595 93.6024 15.8435C93.3841 16.3136 93.1322 16.8258 92.8468 17.3799C92.5781 17.9173 92.2674 18.4379 91.9148 18.9416C91.5622 19.4286 91.1507 19.8316 90.6806 20.1507C90.2272 20.4529 89.715 20.6041 89.1441 20.6041C89.0097 20.6041 88.867 20.5957 88.7159 20.5789C88.5647 20.5621 88.4136 20.5285 88.2625 20.4781C88.0946 20.5453 87.9182 20.5957 87.7335 20.6292C87.5656 20.6796 87.4061 20.7048 87.255 20.7048ZM88.0106 19.9492C88.2961 19.7141 88.548 19.3698 88.7663 18.9164C89.0013 18.463 89.1189 17.8669 89.1189 17.1281C89.1189 16.4732 89.0517 15.7763 88.9174 15.0374C88.783 14.2986 88.7159 13.6437 88.7159 13.0727C88.7159 12.9552 88.7159 12.8544 88.7159 12.7705C88.7327 12.6697 88.7495 12.5774 88.7663 12.4934C88.548 12.9468 88.2961 13.4758 88.0106 14.0803C87.7251 14.668 87.4397 15.2389 87.1542 15.7931C86.8687 16.3472 86.6252 16.8174 86.4237 17.2036C86.4237 17.2036 86.4657 17.212 86.5497 17.2288C86.6504 17.2288 86.7428 17.2876 86.8268 17.4051C86.9107 17.5059 86.9443 17.7158 86.9275 18.0348C86.9107 18.4546 87.0031 18.8493 87.2046 19.2187C87.4229 19.5713 87.6916 19.8148 88.0106 19.9492ZM87.0534 20.3018C87.1542 20.3018 87.2466 20.2934 87.3305 20.2766C87.4145 20.243 87.49 20.2178 87.5572 20.201C87.3053 20.0163 87.0786 19.7728 86.8771 19.4706C86.6924 19.1515 86.5833 18.7485 86.5497 18.2615C86.2474 18.5806 86.0963 18.9248 86.0963 19.2943C86.0963 19.5629 86.1803 19.798 86.3482 19.9995C86.5161 20.201 86.7512 20.3018 87.0534 20.3018Z" fill="white"></path>
  <path d="M98.5856 20.6796C98.4008 20.6964 98.1909 20.6544 97.9558 20.5537C97.7208 20.4529 97.5109 20.2682 97.3261 19.9995C97.1582 19.7309 97.0743 19.353 97.0743 18.8661C97.0743 18.463 97.1498 17.9761 97.301 17.4051C97.0994 17.7242 96.8392 18.1188 96.5201 18.589C96.2011 19.0424 95.8568 19.4454 95.4874 19.798C95.1683 20.1003 94.8661 20.3186 94.5806 20.4529C94.2952 20.5873 94.0349 20.6544 93.7998 20.6544C93.3632 20.6544 93.0105 20.4613 92.7419 20.0751C92.4732 19.6721 92.3389 19.1515 92.3389 18.5134C92.3389 17.8417 92.5068 17.0777 92.8426 16.2213C93.1785 15.3649 93.7242 14.4749 94.4799 13.5513C94.9668 12.9636 95.5546 12.4934 96.243 12.1408C96.9483 11.7713 97.6368 11.5866 98.3085 11.5866C98.6947 11.5866 99.0641 11.6538 99.4168 11.7881C99.7694 11.9057 100.08 12.1072 100.349 12.3927C100.466 12.5102 100.525 12.6445 100.525 12.7957C100.525 12.8964 100.483 12.9804 100.399 13.0476C100.315 13.1147 100.206 13.1315 100.072 13.0979C99.887 12.5102 99.4923 12.2163 98.8878 12.2163C98.6023 12.2163 98.2749 12.3087 97.9055 12.4934C97.3345 12.7957 96.7384 13.291 96.1171 13.9795C95.5126 14.668 94.9836 15.3817 94.5302 16.1205C94.4631 16.2213 94.3539 16.4144 94.2028 16.6999C94.0685 16.9853 93.9341 17.3044 93.7998 17.657C93.6654 18.0097 93.5731 18.3539 93.5227 18.6897C93.5059 18.7905 93.4975 18.8661 93.4975 18.9164C93.4975 18.95 93.4975 19.0088 93.4975 19.0928C93.4975 19.6469 93.7074 19.924 94.1272 19.924C94.631 19.924 95.2019 19.5545 95.84 18.8157C96.2766 18.2783 96.6713 17.7158 97.0239 17.1281C97.3765 16.5403 97.7376 15.9106 98.107 15.2389C98.3589 14.7855 98.594 14.4077 98.8123 14.1055C99.0306 13.8032 99.3412 13.6521 99.7442 13.6521C99.9289 13.6521 100.114 13.6773 100.298 13.7276C100.483 13.778 100.676 13.7864 100.878 13.7528C100.743 13.8872 100.559 14.139 100.324 14.5085C100.105 14.8779 99.8702 15.2977 99.6183 15.7679C99.3664 16.2381 99.1397 16.7167 98.9382 17.2036C98.7367 17.6906 98.594 18.1104 98.51 18.463C98.4932 18.5638 98.468 18.7065 98.4344 18.8912C98.4176 19.076 98.4092 19.2103 98.4092 19.2943C98.4092 19.7644 98.5436 19.9995 98.8123 19.9995C99.0809 19.9995 99.3664 19.84 99.6687 19.521C99.9877 19.2019 100.298 18.8073 100.601 18.3371C100.903 17.8669 101.18 17.3967 101.432 16.9266C101.684 16.4396 101.885 16.045 102.036 15.7427C102.104 15.5748 102.204 15.4908 102.339 15.4908C102.423 15.4908 102.465 15.5496 102.465 15.6671C102.465 15.7175 102.439 15.8099 102.389 15.9442C102.187 16.364 101.944 16.8426 101.659 17.3799C101.373 17.9005 101.062 18.4127 100.727 18.9164C100.391 19.4034 100.038 19.8148 99.6687 20.1507C99.316 20.4697 98.955 20.646 98.5856 20.6796Z" fill="white"></path>
  <path d="M99.6073 20.8056C100.212 19.5797 100.791 18.3707 101.345 17.1784C101.916 15.9694 102.496 14.8191 103.083 13.7276C103.419 13.1231 103.696 12.7033 103.914 12.4682C104.15 12.2163 104.46 12.0904 104.846 12.0904C104.981 12.0904 105.124 12.1156 105.275 12.166C105.426 12.1995 105.577 12.2163 105.728 12.2163C105.829 12.2163 105.904 12.2079 105.955 12.1911C105.72 12.3255 105.417 12.6613 105.048 13.1987C104.679 13.7192 104.301 14.3238 103.914 15.0122C103.528 15.7007 103.184 16.3472 102.882 16.9517C103.201 16.5655 103.528 16.1793 103.864 15.7931C104.217 15.4069 104.603 15.0374 105.023 14.6848C105.426 14.3322 105.904 13.9711 106.458 13.6017C107.029 13.2155 107.584 12.8964 108.121 12.6445C108.658 12.3927 109.086 12.2667 109.406 12.2667C109.523 12.2667 109.607 12.2751 109.657 12.2919C109.657 12.2919 109.565 12.4598 109.38 12.7957C109.196 13.1147 108.961 13.5429 108.675 14.0803C108.406 14.6008 108.129 15.1634 107.844 15.7679C107.558 16.3556 107.298 16.9266 107.063 17.4807C106.845 18.018 106.702 18.4714 106.635 18.8409C106.584 19.0592 106.559 19.2607 106.559 19.4454C106.559 19.7141 106.61 19.8904 106.71 19.9743C106.811 20.0583 106.92 20.1003 107.038 20.1003C107.357 20.1003 107.693 19.9324 108.045 19.5965C108.398 19.2439 108.734 18.8157 109.053 18.3119C109.389 17.8081 109.683 17.3212 109.934 16.851C110.203 16.364 110.396 15.9946 110.514 15.7427C110.581 15.6084 110.631 15.5328 110.665 15.516C110.699 15.4824 110.749 15.4656 110.816 15.4656C110.917 15.4656 110.967 15.5328 110.967 15.6671C110.967 15.7511 110.942 15.8435 110.892 15.9442C110.69 16.3304 110.447 16.7922 110.161 17.3296C109.892 17.8669 109.582 18.3959 109.229 18.9164C108.877 19.4202 108.49 19.8484 108.071 20.201C107.651 20.5369 107.197 20.7048 106.71 20.7048C106.375 20.7048 106.022 20.5873 105.652 20.3522C105.3 20.1171 105.124 19.6805 105.124 19.0424C105.124 18.8577 105.14 18.6645 105.174 18.463C105.207 18.2447 105.266 18.0097 105.35 17.7578C105.485 17.4219 105.644 17.0609 105.829 16.6747C106.013 16.2885 106.316 15.7595 106.736 15.0878C106.853 14.9031 106.92 14.7604 106.937 14.6596C106.971 14.5589 106.987 14.4749 106.987 14.4077C106.987 14.2062 106.895 14.1055 106.71 14.1055C106.559 14.1055 106.333 14.1894 106.03 14.3573C105.745 14.5253 105.384 14.8191 104.947 15.2389C104.527 15.642 104.024 16.2129 103.436 16.9517C102.865 17.6906 102.202 18.7821 101.446 20.2262C101.328 20.4445 101.194 20.5621 101.043 20.5789C100.909 20.5957 100.716 20.6124 100.464 20.6292C100.296 20.646 100.136 20.6544 99.9851 20.6544C99.834 20.6712 99.708 20.7216 99.6073 20.8056Z" fill="white"></path>
  <path d="M119.952 21.5864C119.566 21.5864 119.171 21.5612 118.768 21.5108C117.71 21.3765 116.929 21.0658 116.426 20.5789C115.939 20.0751 115.695 19.5377 115.695 18.9668C115.695 18.3455 115.964 17.783 116.501 17.2792C117.055 16.7754 117.836 16.5235 118.844 16.5235C119.515 16.5235 120.246 16.6579 121.035 16.9266C121.371 17.0273 121.782 17.2036 122.269 17.4555C122.773 17.6906 123.268 17.9341 123.755 18.186C124.242 18.4379 124.62 18.6394 124.889 18.7905C125.628 18.0684 126.308 17.2372 126.929 16.2968C127.567 15.3397 128.172 14.3238 128.743 13.2491C129.314 12.1576 129.893 11.0577 130.481 9.94939C131.068 8.8411 131.681 7.7664 132.319 6.72528C132.974 5.66737 133.696 4.70182 134.486 3.82863C133.612 3.29127 132.647 2.87987 131.589 2.5944C130.548 2.29214 129.473 2.14101 128.365 2.14101C127.945 2.14101 127.517 2.1662 127.08 2.21657C126.66 2.26695 126.232 2.33412 125.796 2.41808C124.234 2.75392 122.916 3.29127 121.841 4.03013C120.766 4.7522 119.952 5.54983 119.398 6.42302C118.86 7.27943 118.592 8.09385 118.592 8.86629C118.592 9.43723 118.743 9.94099 119.045 10.3776C119.347 10.8142 119.809 11.1248 120.431 11.3096C120.884 11.4439 121.279 11.5111 121.614 11.5111C122.169 11.5111 122.647 11.4019 123.05 11.1836C123.47 10.9485 123.823 10.6631 124.108 10.3272C124.393 9.99137 124.603 9.66392 124.738 9.34487C124.889 9.02582 124.973 8.76554 124.99 8.56403C124.99 8.44649 125.065 8.38771 125.216 8.38771C125.451 8.38771 125.544 8.53045 125.493 8.81591C125.409 9.4876 125.158 10.0753 124.738 10.5791C124.318 11.0661 123.814 11.4523 123.226 11.7378C122.639 12.0064 122.034 12.1408 121.413 12.1408C121.01 12.1408 120.59 12.0736 120.153 11.9393C119.381 11.6706 118.726 11.2088 118.189 10.5539C117.668 9.88222 117.408 9.09299 117.408 8.18621C117.408 7.29622 117.702 6.40623 118.29 5.51624C118.894 4.60946 119.851 3.79504 121.161 3.07298C122.471 2.35091 124.184 1.83875 126.299 1.53649C127.005 1.43573 127.718 1.38536 128.44 1.38536C129.633 1.38536 130.8 1.52809 131.942 1.81356C133.1 2.09903 134.192 2.51044 135.216 3.04779L135.846 2.31733C135.997 2.18299 136.207 2.01507 136.475 1.81356C136.761 1.61205 137.046 1.41894 137.332 1.23423C137.617 1.04951 137.827 0.931968 137.962 0.881591C138.18 0.79763 138.356 0.755649 138.491 0.755649C138.591 0.755649 138.642 0.780838 138.642 0.831215C138.642 0.94876 138.507 1.09149 138.239 1.25942C138.071 1.37696 137.92 1.5113 137.785 1.66243C137.651 1.79677 137.55 1.90592 137.483 1.98988C137.231 2.34251 137.03 2.62798 136.879 2.84628C136.744 3.06458 136.559 3.35005 136.324 3.70268C137.869 4.72701 139.129 6.05359 140.103 7.68244C141.077 9.29449 141.564 11.1416 141.564 13.2239C141.564 13.6605 141.538 14.1055 141.488 14.5589C141.387 15.6336 141.093 16.6075 140.606 17.4807C140.119 18.3539 139.481 19.0928 138.692 19.6973C137.92 20.3018 137.055 20.7636 136.098 21.0826C135.157 21.4185 134.167 21.5864 133.125 21.5864C132.739 21.5864 132.353 21.5612 131.967 21.5108C130.321 21.3093 128.961 21.0406 127.886 20.7048C126.828 20.3858 125.896 20.0499 125.09 19.6973C123.562 20.9567 121.849 21.5864 119.952 21.5864ZM132.697 20.8307C134.041 20.8307 135.224 20.5453 136.249 19.9743C137.29 19.3866 138.13 18.6226 138.768 17.6822C139.406 16.7418 139.784 15.7259 139.901 14.6344C139.951 14.2314 139.977 13.8284 139.977 13.4254C139.977 11.595 139.582 9.9326 138.793 8.43809C138.02 6.92679 136.996 5.65898 135.72 4.63465C134.981 5.79332 134.217 7.01915 133.428 8.31215C132.655 9.60515 131.874 10.8898 131.085 12.166C130.296 13.4254 129.524 14.5924 128.768 15.6671C128.029 16.7418 127.332 17.6318 126.677 18.3371C126.56 18.4379 126.409 18.589 126.224 18.7905C126.056 18.9752 125.88 19.1263 125.695 19.2439C126.484 19.5965 127.383 19.9156 128.39 20.201C129.398 20.4865 130.581 20.688 131.942 20.8056C132.093 20.8223 132.219 20.8307 132.319 20.8307C132.437 20.8307 132.563 20.8307 132.697 20.8307ZM119.398 20.8056C120.321 20.8559 121.186 20.7468 121.992 20.4781C122.798 20.1926 123.545 19.798 124.234 19.2943C123.629 19.0088 123.017 18.7149 122.395 18.4127C121.774 18.0936 121.119 17.8081 120.431 17.5563C119.977 17.4051 119.574 17.3296 119.221 17.3296C118.6 17.3296 118.13 17.5059 117.811 17.8585C117.492 18.1944 117.332 18.5722 117.332 18.992C117.332 19.4454 117.509 19.8568 117.861 20.2262C118.214 20.5789 118.726 20.772 119.398 20.8056Z" fill="white"></path>
  <path d="M145.506 10.3776C145.254 10.3776 145.045 10.2936 144.877 10.1257C144.725 9.94099 144.65 9.72269 144.65 9.47081C144.65 9.15176 144.776 8.87469 145.028 8.6396C145.28 8.4045 145.557 8.28696 145.859 8.28696C146.128 8.28696 146.346 8.37092 146.514 8.53884C146.682 8.70676 146.766 8.90827 146.766 9.14336C146.766 9.46241 146.64 9.74788 146.388 9.99977C146.136 10.2516 145.842 10.3776 145.506 10.3776ZM143.466 20.6041C142.845 20.6041 142.408 20.4277 142.156 20.0751C141.904 19.7057 141.778 19.2859 141.778 18.8157C141.778 18.5638 141.804 18.3119 141.854 18.06C141.921 17.7914 141.997 17.5479 142.081 17.3296L143.768 13.0224C143.819 12.888 143.844 12.7705 143.844 12.6697C143.844 12.5018 143.802 12.3591 143.718 12.2415C143.634 12.1072 143.575 12.0148 143.542 11.9645L144.927 11.9141C145.179 11.8973 145.355 11.9309 145.456 12.0148C145.573 12.082 145.632 12.166 145.632 12.2667C145.632 12.3675 145.573 12.5522 145.456 12.8209L143.365 17.7326C143.365 17.7326 143.315 17.8417 143.214 18.06C143.13 18.2615 143.08 18.3959 143.063 18.463C143.013 18.7149 142.979 18.8745 142.962 18.9416C142.945 19.0088 142.937 19.0508 142.937 19.0676C142.937 19.0844 142.937 19.1515 142.937 19.2691C142.937 19.4874 142.987 19.6721 143.088 19.8232C143.206 19.9743 143.399 20.0499 143.668 20.0499C143.835 20.0499 144.029 19.9995 144.247 19.8988C144.465 19.798 144.625 19.6973 144.725 19.5965C145.145 19.1599 145.557 18.589 145.96 17.8837C146.379 17.1616 146.766 16.448 147.118 15.7427C147.186 15.5748 147.269 15.4908 147.37 15.4908C147.454 15.4908 147.496 15.5496 147.496 15.6671C147.496 15.7343 147.471 15.8351 147.421 15.9694C147.253 16.322 147.043 16.7586 146.791 17.2792C146.539 17.7998 146.237 18.3203 145.884 18.8409C145.548 19.3446 145.179 19.7644 144.776 20.1003C144.373 20.4361 143.936 20.6041 143.466 20.6041Z" fill="white"></path>
  <path d="M149.203 20.7048C148.246 20.7048 147.575 20.4781 147.188 20.0247C146.802 19.5545 146.609 18.9836 146.609 18.3119C146.609 17.5731 146.777 16.7838 147.113 15.9442C147.465 15.1046 147.877 14.3741 148.347 13.7528C148.834 13.0979 149.371 12.5942 149.959 12.2415C150.547 11.8721 151.143 11.6874 151.747 11.6874C152.386 11.6874 152.856 11.8469 153.158 12.166C153.46 12.485 153.578 12.9132 153.511 13.4506C153.477 13.7864 153.318 14.1223 153.032 14.4581C152.747 14.7772 152.461 14.9367 152.176 14.9367C152.041 14.9367 151.924 14.8863 151.823 14.7855C151.957 14.6176 152.1 14.4161 152.251 14.181C152.402 13.9459 152.512 13.7192 152.579 13.5009C152.646 13.2994 152.679 13.0979 152.679 12.8964C152.679 12.4766 152.478 12.2667 152.075 12.2667C151.622 12.2667 151.143 12.5018 150.639 12.972C150.152 13.4254 149.724 13.9207 149.355 14.4581C149.203 14.6596 149.019 14.9787 148.8 15.4153C148.599 15.8351 148.414 16.3052 148.246 16.8258C148.078 17.3296 147.994 17.8249 147.994 18.3119C147.994 18.8157 148.104 19.2691 148.322 19.6721C148.557 20.0583 148.943 20.2514 149.481 20.2514C150.219 20.2514 150.849 20.0247 151.37 19.5713C151.907 19.1011 152.377 18.5218 152.78 17.8333C153.2 17.1449 153.578 16.4732 153.914 15.8183C154.014 15.6168 154.115 15.516 154.216 15.516C154.3 15.516 154.342 15.5832 154.342 15.7175C154.342 15.7847 154.317 15.8686 154.266 15.9694C153.863 16.8426 153.452 17.6402 153.032 18.3623C152.612 19.0844 152.1 19.6553 151.496 20.0751C150.908 20.4949 150.144 20.7048 149.203 20.7048Z" fill="white"></path>
  <path d="M158.24 20.7804C157.786 20.73 157.375 20.5201 157.005 20.1507C156.653 19.7644 156.409 19.2523 156.275 18.6142C156.258 18.4966 156.241 18.3959 156.225 18.3119C156.225 18.2112 156.225 18.102 156.225 17.9845C156.225 17.3128 156.376 16.7754 156.678 16.3724C156.98 15.9526 157.257 15.7343 157.509 15.7175C157.778 15.7343 158.105 15.6755 158.491 15.5412C158.878 15.3901 159.214 15.1886 159.499 14.9367C159.986 14.5505 160.229 14.1558 160.229 13.7528C160.229 13.333 159.986 13.1231 159.499 13.1231C159.23 13.1231 158.886 13.2155 158.466 13.4002C158.063 13.5849 157.593 13.904 157.056 14.3573C156.384 14.9283 155.687 15.6923 154.965 16.6495C154.864 16.8678 154.747 17.1952 154.612 17.6318C154.478 18.0516 154.361 18.4882 154.26 18.9416C154.176 19.395 154.134 19.7812 154.134 20.1003C154.134 20.3522 154.176 20.5201 154.26 20.6041H152.673C152.488 20.6041 152.396 20.5285 152.396 20.3774C152.396 20.327 152.404 20.285 152.421 20.2514C152.438 20.2178 152.455 20.1507 152.471 20.0499C152.707 19.1767 153.017 18.3539 153.403 17.5815C153.79 16.809 154.176 15.9946 154.562 15.1382C153.974 16.2297 153.437 17.1952 152.95 18.0348C152.48 18.8577 152.119 19.3866 151.867 19.6217C151.833 19.6553 151.791 19.6721 151.741 19.6721C151.674 19.6721 151.632 19.6301 151.615 19.5461C151.581 19.4622 151.598 19.3782 151.665 19.2943C152.018 18.8241 152.421 18.1776 152.874 17.3548C153.345 16.5319 153.84 15.6168 154.361 14.6092C154.881 13.5849 155.41 12.5522 155.947 11.5111C156.485 10.4699 157.005 9.4876 157.509 8.56403C158.03 7.64046 158.5 6.85962 158.92 6.22152C159.222 5.76813 159.507 5.44907 159.776 5.26436C160.045 5.06285 160.322 4.9621 160.607 4.9621H160.733C160.884 4.9621 161.052 4.98729 161.237 5.03766C161.439 5.08804 161.623 5.09644 161.791 5.06285C161.472 5.31474 161.086 5.72615 160.632 6.29708C160.179 6.86802 159.701 7.5481 159.197 8.33734C158.693 9.12657 158.181 9.96618 157.66 10.8562C157.156 11.7462 156.678 12.6277 156.225 13.5009C156.057 13.8368 155.897 14.1894 155.746 14.5589C155.595 14.9283 155.452 15.2977 155.318 15.6671C155.67 15.2305 156.073 14.7772 156.527 14.307C156.98 13.8368 157.45 13.4086 157.937 13.0224C158.441 12.6194 158.936 12.3255 159.423 12.1408C159.978 11.9393 160.439 11.8385 160.809 11.8385C161.195 11.8385 161.472 11.9309 161.64 12.1156C161.825 12.3003 161.917 12.5354 161.917 12.8209C161.917 13.1399 161.791 13.5261 161.539 13.9795C161.287 14.4161 160.943 14.7939 160.507 15.113C160.137 15.3649 159.751 15.5832 159.348 15.7679C158.945 15.9526 158.466 16.0702 157.912 16.1205C157.811 16.3556 157.736 16.5991 157.685 16.851C157.652 17.0861 157.635 17.3212 157.635 17.5563C157.635 18.2112 157.786 18.7905 158.088 19.2943C158.391 19.7812 158.785 20.0247 159.272 20.0247C159.507 20.0247 159.759 19.9576 160.028 19.8232C160.313 19.6889 160.607 19.4622 160.91 19.1431C161.245 18.8073 161.581 18.3287 161.917 17.7074C162.27 17.0861 162.622 16.406 162.975 15.6671C163.042 15.5328 163.118 15.4656 163.202 15.4656C163.302 15.4656 163.353 15.5328 163.353 15.6671C163.353 15.7343 163.328 15.8183 163.277 15.919C162.79 17.0441 162.32 17.9425 161.867 18.6142C161.43 19.2691 161.002 19.7644 160.582 20.1003C160.179 20.4193 159.784 20.6208 159.398 20.7048C159.012 20.7888 158.626 20.814 158.24 20.7804Z" fill="white"></path>
  <path d="M164.115 20.6796C163.41 20.6796 162.931 20.4949 162.679 20.1255C162.427 19.7393 162.301 19.2859 162.301 18.7653C162.301 18.228 162.377 17.6738 162.528 17.1029C162.679 16.5319 162.814 16.0534 162.931 15.6671C163.2 14.7268 163.536 13.7276 163.939 12.6697C164.358 11.595 164.812 10.5455 165.299 9.52119C165.803 8.48007 166.298 7.5481 166.785 6.72528C167.171 6.07039 167.583 5.58341 168.019 5.26436C168.473 4.92852 168.867 4.76059 169.203 4.76059C169.472 4.76059 169.682 4.86135 169.833 5.06285C170.001 5.24757 170.085 5.53304 170.085 5.91926C170.085 6.18793 170.034 6.50698 169.933 6.87641C169.85 7.24584 169.698 7.66565 169.48 8.13583C168.892 9.44562 168.187 10.7554 167.364 12.0652C166.558 13.375 165.534 14.6008 164.291 15.7427C164.224 15.961 164.132 16.2213 164.014 16.5235C163.913 16.809 163.821 17.1029 163.737 17.4051C163.636 17.8585 163.586 18.2447 163.586 18.5638C163.586 19.0844 163.687 19.479 163.888 19.7476C164.107 19.9995 164.367 20.1255 164.669 20.1255C164.938 20.1255 165.223 20.0331 165.526 19.8484C165.828 19.6469 166.113 19.3614 166.382 18.992C166.785 18.4043 167.146 17.8081 167.465 17.2036C167.801 16.5823 168.053 16.1037 168.221 15.7679C168.321 15.5832 168.431 15.4908 168.548 15.4908C168.632 15.4908 168.674 15.5412 168.674 15.642C168.674 15.7259 168.649 15.8183 168.598 15.919C168.447 16.2549 168.246 16.6915 167.994 17.2288C167.759 17.7494 167.457 18.2783 167.087 18.8157C166.735 19.3362 166.306 19.7812 165.803 20.1507C165.316 20.5033 164.753 20.6796 164.115 20.6796ZM164.493 14.9367C165.097 14.3154 165.685 13.6017 166.256 12.7957C166.827 11.9729 167.356 11.1248 167.843 10.2516C168.347 9.36166 168.766 8.52205 169.102 7.73282C169.22 7.48093 169.312 7.20386 169.379 6.9016C169.463 6.59934 169.505 6.34746 169.505 6.14595C169.505 5.91086 169.446 5.79332 169.329 5.79332C169.262 5.79332 169.161 5.86048 169.027 5.99482C168.892 6.11237 168.716 6.32227 168.498 6.62453C168.179 7.04433 167.826 7.61527 167.44 8.33734C167.07 9.0594 166.693 9.83184 166.306 10.6547C165.92 11.4775 165.567 12.2751 165.248 13.0476C164.929 13.8032 164.677 14.4329 164.493 14.9367Z" fill="white"></path>
  <path d="M170.006 20.7048C169.385 20.7048 168.822 20.5033 168.319 20.1003C167.832 19.6973 167.588 19.0844 167.588 18.2615C167.588 17.5059 167.773 16.6999 168.142 15.8435C168.512 14.9703 168.982 14.2062 169.553 13.5513C170.04 12.9804 170.586 12.5102 171.19 12.1408C171.795 11.7713 172.366 11.5866 172.903 11.5866C173.272 11.5866 173.591 11.6874 173.86 11.8889C174.146 12.1072 174.288 12.4178 174.288 12.8209C174.288 13.2407 174.129 13.7024 173.81 14.2062C173.491 14.71 173.037 15.1802 172.45 15.6168C172.198 15.8015 171.879 15.9778 171.492 16.1457C171.106 16.3136 170.72 16.4564 170.334 16.5739C169.948 16.6747 169.628 16.725 169.377 16.725C169.293 16.9266 169.209 17.1952 169.125 17.5311C169.058 17.8669 169.024 18.2112 169.024 18.5638C169.024 18.9836 169.108 19.3614 169.276 19.6973C169.444 20.0331 169.754 20.201 170.208 20.201C170.762 20.201 171.266 20.0415 171.719 19.7225C172.172 19.4034 172.575 19.0088 172.928 18.5386C173.281 18.0516 173.575 17.5647 173.81 17.0777C174.062 16.5907 174.263 16.1793 174.414 15.8435C174.515 15.6084 174.649 15.4908 174.817 15.4908C174.901 15.4908 174.943 15.5328 174.943 15.6168C174.943 15.6839 174.918 15.7679 174.868 15.8686C174.633 16.3724 174.381 16.9098 174.112 17.4807C173.843 18.0348 173.524 18.5638 173.155 19.0676C172.785 19.5545 172.34 19.9492 171.82 20.2514C171.316 20.5537 170.712 20.7048 170.006 20.7048ZM169.553 16.2717C169.788 16.2717 170.183 16.1877 170.737 16.0198C171.291 15.8351 171.795 15.5496 172.248 15.1634C172.685 14.7772 173.02 14.3573 173.256 13.904C173.491 13.4338 173.608 13.0392 173.608 12.7201C173.608 12.3507 173.474 12.166 173.205 12.166C173.004 12.166 172.727 12.3003 172.374 12.569C172.021 12.8377 171.585 13.291 171.064 13.9291C170.745 14.3322 170.443 14.7688 170.157 15.2389C169.872 15.7091 169.67 16.0534 169.553 16.2717Z" fill="white"></path>
  <path d="M177.463 20.6292C177.144 20.6292 176.825 20.5033 176.506 20.2514C176.187 19.9827 176.027 19.5545 176.027 18.9668C176.027 18.5134 176.137 17.9929 176.355 17.4051C176.556 16.8342 176.825 16.2801 177.161 15.7427C177.514 15.2054 177.765 14.7688 177.917 14.4329C177.967 14.2986 177.992 14.181 177.992 14.0803C177.992 13.778 177.799 13.5597 177.413 13.4254C177.043 13.291 176.556 13.2155 175.952 13.1987L175.65 14.0299C175.465 14.5672 175.205 15.197 174.869 15.919C174.55 16.6411 174.189 17.338 173.786 18.0097C173.399 18.6813 172.996 19.2187 172.577 19.6217C172.543 19.6553 172.501 19.6721 172.451 19.6721C172.384 19.6721 172.342 19.6301 172.325 19.5461C172.291 19.4622 172.325 19.3614 172.426 19.2439C173.08 18.3707 173.668 17.4051 174.189 16.3472C174.709 15.2725 175.146 14.181 175.499 13.0727C175.868 11.9645 176.137 10.9401 176.305 9.99977C176.355 9.73109 176.447 9.53798 176.582 9.42043C176.716 9.2861 176.859 9.21893 177.01 9.21893C177.228 9.21893 177.43 9.32808 177.614 9.54638C177.799 9.74788 177.891 10.0417 177.891 10.428C177.891 10.4951 177.883 10.5707 177.866 10.6547C177.866 10.7386 177.858 10.8226 177.841 10.9065C177.774 11.2592 177.572 11.595 177.237 11.9141C176.917 12.2163 176.657 12.443 176.456 12.5942C176.624 12.611 176.8 12.6277 176.985 12.6445C177.169 12.6445 177.371 12.6445 177.589 12.6445C178.378 12.6445 179.159 12.5942 179.932 12.4934C179.965 12.5942 179.982 12.6697 179.982 12.7201C179.982 12.9384 179.915 13.2155 179.781 13.5513C179.663 13.8872 179.537 14.1894 179.403 14.4581C179.336 14.6092 179.201 14.8863 179 15.2893C178.798 15.6755 178.58 16.1205 178.345 16.6243C178.11 17.1113 177.908 17.5982 177.74 18.0852C177.589 18.5554 177.514 18.9584 177.514 19.2943C177.514 19.7309 177.682 19.9492 178.017 19.9492C178.269 19.9492 178.546 19.7896 178.849 19.4706C179.151 19.1347 179.445 18.7317 179.73 18.2615C180.032 17.7746 180.301 17.3044 180.536 16.851C180.788 16.3808 180.981 16.0114 181.116 15.7427C181.183 15.5748 181.275 15.4908 181.393 15.4908C181.46 15.4908 181.493 15.5496 181.493 15.6671C181.493 15.7343 181.468 15.8351 181.418 15.9694C181.233 16.3556 181.015 16.7922 180.763 17.2792C180.511 17.7662 180.226 18.2447 179.906 18.7149C179.604 19.1851 179.268 19.5965 178.899 19.9492C178.546 20.285 178.16 20.5033 177.74 20.6041C177.69 20.6208 177.598 20.6292 177.463 20.6292Z" fill="white"></path>
  <path d="M192.79 21.7375C191.363 21.7375 190.179 21.5108 189.239 21.0574C188.299 20.6208 187.593 20.0415 187.123 19.3194C186.67 18.5806 186.443 17.7998 186.443 16.9769C186.443 16.0534 186.72 15.1382 187.274 14.2314C187.828 13.3078 188.651 12.5186 189.743 11.8637C190.851 11.192 192.203 10.7722 193.798 10.6043C193.563 10.2852 193.387 9.9242 193.269 9.52119C193.152 9.10138 193.093 8.70676 193.093 8.33734C193.11 7.44735 193.361 6.66651 193.848 5.99482C194.335 5.30634 194.957 4.72701 195.712 4.25683C196.485 3.78664 197.308 3.43401 198.181 3.19892C199.054 2.94703 199.877 2.82109 200.649 2.82109C201.119 2.82109 201.598 2.88826 202.085 3.0226C202.572 3.14014 202.983 3.35844 203.319 3.67749C203.655 3.99655 203.823 4.44994 203.823 5.03766C203.823 5.52464 203.672 5.96124 203.37 6.34746C203.067 6.73368 202.698 6.92679 202.261 6.92679C201.942 6.92679 201.665 6.80924 201.43 6.57415C201.195 6.33906 201.077 6.07039 201.077 5.76813C201.077 5.41549 201.187 5.13002 201.405 4.91172C201.64 4.67663 201.925 4.55909 202.261 4.55909C202.412 4.55909 202.58 4.60946 202.765 4.71022C202.967 4.81097 203.093 4.91172 203.143 5.01248C203.16 4.94531 203.168 4.85295 203.168 4.7354C203.168 4.28202 202.983 3.96296 202.614 3.77825C202.245 3.59353 201.85 3.50118 201.43 3.50118C200.758 3.50118 199.978 3.6691 199.088 4.00494C198.198 4.324 197.333 4.85295 196.493 5.59181C196.191 5.86048 195.88 6.21312 195.561 6.64972C195.242 7.08632 194.973 7.5565 194.755 8.06026C194.537 8.54724 194.428 9.04261 194.428 9.54638C194.428 9.9326 194.495 10.2684 194.629 10.5539C194.881 10.5539 195.167 10.5455 195.486 10.5287C195.821 10.4951 196.166 10.4783 196.518 10.4783C196.955 10.4783 197.299 10.5707 197.551 10.7554C197.803 10.9401 197.929 11.15 197.929 11.3851C197.929 11.553 197.828 11.7126 197.627 11.8637C197.425 12.0148 197.106 12.0904 196.669 12.0904C196.115 12.0904 195.612 11.9729 195.158 11.7378C194.722 11.4859 194.377 11.234 194.125 10.9821C193.017 11.1332 192.077 11.5446 191.304 12.2163C190.532 12.888 189.944 13.6857 189.541 14.6092C189.138 15.516 188.937 16.4228 188.937 17.3296C188.937 18.0516 189.071 18.7233 189.34 19.3446C189.625 19.9659 190.053 20.4613 190.624 20.8307C191.195 21.217 191.917 21.4101 192.79 21.4101C193.697 21.4101 194.52 21.2422 195.259 20.9063C196.015 20.5873 196.661 20.1675 197.198 19.6469C197.736 19.1263 198.147 18.5806 198.433 18.0097C198.735 17.4219 198.886 16.8762 198.886 16.3724C198.886 15.9358 198.727 15.5748 198.407 15.2893C198.105 14.9871 197.702 14.7688 197.198 14.6344C196.695 14.4833 196.157 14.4077 195.586 14.4077C194.999 14.4077 194.411 14.4917 193.823 14.6596C193.252 14.8107 192.765 15.0542 192.362 15.3901C191.959 15.7091 191.716 16.1205 191.632 16.6243C191.632 16.6579 191.623 16.6999 191.607 16.7502C191.607 16.7838 191.607 16.8174 191.607 16.851C191.607 17.2204 191.741 17.5898 192.01 17.9593C192.295 18.3119 192.732 18.6394 193.319 18.9416C193.471 19.0088 193.546 19.1347 193.546 19.3194C193.546 19.5042 193.462 19.5545 193.294 19.4706C192.371 18.9836 191.691 18.4546 191.254 17.8837C190.834 17.296 190.624 16.7418 190.624 16.2213C190.624 15.4656 191.027 14.8191 191.833 14.2818C192.656 13.7276 193.823 13.4506 195.335 13.4506H199.793C200.062 13.4506 200.456 13.3918 200.977 13.2742C201.514 13.1567 202.06 12.9888 202.614 12.7705C203.168 12.5354 203.638 12.2667 204.024 11.9645C204.428 11.6454 204.629 11.2844 204.629 10.8814C204.629 10.6631 204.553 10.428 204.402 10.1761C204.369 10.1257 204.352 10.0669 204.352 9.99977C204.352 9.89901 204.394 9.84864 204.478 9.84864C204.545 9.84864 204.604 9.89062 204.654 9.97458C204.906 10.344 205.032 10.7218 205.032 11.1081C205.032 11.5614 204.864 11.9812 204.528 12.3675C204.209 12.7537 203.773 13.0979 203.218 13.4002C202.664 13.6857 202.043 13.904 201.355 14.0551C200.683 14.2062 199.994 14.2734 199.289 14.2566C199.608 14.5253 199.843 14.8275 199.994 15.1634C200.145 15.4992 200.221 15.8519 200.221 16.2213C200.221 16.8426 200.036 17.4807 199.667 18.1356C199.297 18.7737 198.777 19.3698 198.105 19.924C197.434 20.4613 196.644 20.8979 195.738 21.2338C194.848 21.5696 193.865 21.7375 192.79 21.7375ZM196.669 11.6622C197.224 11.6622 197.501 11.553 197.501 11.3347C197.501 11.2508 197.425 11.1668 197.274 11.0829C197.14 10.9821 196.955 10.9233 196.72 10.9065C196.619 10.8898 196.451 10.8814 196.216 10.8814C195.981 10.8814 195.729 10.8814 195.46 10.8814C195.209 10.8814 194.999 10.8814 194.831 10.8814C195.251 11.4019 195.863 11.6622 196.669 11.6622Z" fill="white"></path>
  <path d="M9.22564 55.9214C7.58001 55.9214 6.06871 55.6779 4.69175 55.1909C3.33158 54.7039 2.23169 53.9903 1.39207 53.0499C0.552464 52.0928 0.090678 50.9173 0.00671689 49.5235C-0.0268675 48.9526 0.0654896 48.3229 0.283788 47.6344C0.502087 46.9459 0.804347 46.2659 1.19057 45.5942C1.59358 44.9057 2.06376 44.2928 2.60111 43.7554C3.15526 43.2013 3.74299 42.7815 4.3643 42.496C4.41467 42.4624 4.49024 42.4372 4.59099 42.4204C4.70854 42.4036 4.7925 42.3952 4.84288 42.3952C4.94363 42.3952 4.99401 42.4204 4.99401 42.4708C4.99401 42.5548 4.86806 42.6891 4.61618 42.8738C3.91091 43.428 3.33158 44.0661 2.87819 44.7881C2.408 45.5102 2.05537 46.2826 1.82028 47.1055C1.58519 47.9283 1.46764 48.7595 1.46764 49.5991C1.46764 50.5898 1.67754 51.4463 2.09735 52.1683C2.53395 52.8736 3.11328 53.4529 3.83534 53.9063C4.55741 54.3765 5.38023 54.7207 6.3038 54.939C7.22737 55.1573 8.19292 55.2665 9.20046 55.2665C10.3255 55.2665 11.4338 55.1405 12.5253 54.8887C13.6336 54.6368 14.6411 54.2757 15.5479 53.8056C16.9417 53.0667 18.0416 52.1515 18.8476 51.06C19.6704 49.9685 20.0818 48.8854 20.0818 47.8107C20.0818 47.2398 19.9559 46.6941 19.704 46.1735C19.4689 45.6529 19.0827 45.1828 18.5453 44.7629C18.1423 44.4439 17.6469 44.1416 17.0592 43.8562C16.4883 43.5707 15.8754 43.2936 15.2205 43.025C14.5824 42.7563 13.9527 42.4876 13.3313 42.2189C12.71 41.9335 12.1643 41.6312 11.6941 41.3121C11.0224 40.8588 10.527 40.3718 10.208 39.8512C9.90573 39.3307 9.7546 38.8101 9.7546 38.2895C9.7546 37.6682 9.93092 37.0637 10.2836 36.476C10.653 35.8883 11.1484 35.3593 11.7697 34.8891C12.4078 34.4022 13.1214 34.0243 13.9107 33.7556C14.5992 33.5206 15.3464 33.3358 16.1524 33.2015C16.9753 33.0672 17.7813 33 18.5705 33C19.2254 33 19.8467 33.0504 20.4345 33.1511C21.039 33.2351 21.5679 33.3946 22.0213 33.6297C22.5922 33.8984 23.0288 34.2594 23.3311 34.7128C23.6334 35.1494 23.7845 35.6112 23.7845 36.0982C23.7845 36.7699 23.4822 37.3576 22.8777 37.8613C22.6594 38.0293 22.4159 38.1888 22.1473 38.3399C21.8786 38.4743 21.5595 38.5918 21.1901 38.6926C21.1229 38.7094 21.0474 38.7178 20.9634 38.7178C20.7619 38.7178 20.6611 38.659 20.6611 38.5414C20.6611 38.4743 20.7115 38.4071 20.8123 38.3399C20.9298 38.256 21.0977 38.2056 21.316 38.1888C21.8198 38.1216 22.1976 37.9285 22.4495 37.6095C22.7182 37.2904 22.8525 36.921 22.8525 36.5012C22.8525 36.0646 22.7014 35.6364 22.3991 35.2166C22.1137 34.78 21.6687 34.4189 21.0642 34.1335C20.4596 33.8312 19.6872 33.6801 18.7468 33.6801C18.2095 33.6801 17.6134 33.7389 16.9585 33.8564C16.3204 33.9739 15.6235 34.1671 14.8678 34.4357C13.9443 34.7548 13.1718 35.225 12.5505 35.8463C11.946 36.4676 11.6437 37.1309 11.6437 37.8362C11.6437 38.2728 11.7865 38.7177 12.0719 39.1711C12.3742 39.6077 12.8528 40.0275 13.5077 40.4306C14.0618 40.7664 14.6915 41.1022 15.3968 41.4381C16.1021 41.7571 16.8157 42.0846 17.5378 42.4204C18.2599 42.7395 18.9148 43.0837 19.5025 43.4532C20.4261 44.0241 21.0893 44.637 21.4924 45.2919C21.8954 45.9468 22.0969 46.6185 22.0969 47.307C22.0969 48.113 21.8534 48.9274 21.3664 49.7502C20.8962 50.5563 20.2749 51.3203 19.5025 52.0424C18.73 52.7476 17.882 53.3774 16.9585 53.9315C15.8838 54.5696 14.6663 55.0566 13.3062 55.3924C11.9628 55.7451 10.6026 55.9214 9.22564 55.9214Z" fill="white"></path>
  <path d="M27.1408 43.3776C26.889 43.3776 26.6791 43.2936 26.5111 43.1257C26.36 42.941 26.2844 42.7227 26.2844 42.4708C26.2844 42.1518 26.4104 41.8747 26.6623 41.6396C26.9141 41.4045 27.1912 41.287 27.4935 41.287C27.7622 41.287 27.9805 41.3709 28.1484 41.5388C28.3163 41.7068 28.4003 41.9083 28.4003 42.1434C28.4003 42.4624 28.2743 42.7479 28.0224 42.9998C27.7705 43.2516 27.4767 43.3776 27.1408 43.3776ZM25.1006 53.604C24.4793 53.604 24.0427 53.4277 23.7908 53.0751C23.5389 52.7057 23.413 52.2859 23.413 51.8157C23.413 51.5638 23.4382 51.3119 23.4885 51.06C23.5557 50.7914 23.6313 50.5479 23.7152 50.3296L25.4028 46.0224C25.4532 45.888 25.4784 45.7705 25.4784 45.6697C25.4784 45.5018 25.4364 45.3591 25.3525 45.2415C25.2685 45.1072 25.2097 45.0148 25.1762 44.9645L26.5615 44.9141C26.8134 44.8973 26.9897 44.9309 27.0905 45.0148C27.208 45.082 27.2668 45.166 27.2668 45.2667C27.2668 45.3675 27.208 45.5522 27.0905 45.8209L24.9998 50.7326C24.9998 50.7326 24.9495 50.8417 24.8487 51.06C24.7647 51.2615 24.7144 51.3959 24.6976 51.463C24.6472 51.7149 24.6136 51.8745 24.5968 51.9416C24.58 52.0088 24.5716 52.0508 24.5716 52.0676C24.5716 52.0844 24.5716 52.1515 24.5716 52.2691C24.5716 52.4874 24.622 52.6721 24.7228 52.8232C24.8403 52.9743 25.0334 53.0499 25.3021 53.0499C25.47 53.0499 25.6631 52.9995 25.8814 52.8988C26.0997 52.798 26.2592 52.6973 26.36 52.5965C26.7798 52.1599 27.1912 51.589 27.5942 50.8837C28.014 50.1616 28.4003 49.448 28.7529 48.7427C28.8201 48.5748 28.904 48.4908 29.0048 48.4908C29.0887 48.4908 29.1307 48.5496 29.1307 48.6671C29.1307 48.7343 29.1055 48.8351 29.0552 48.9694C28.8872 49.322 28.6773 49.7586 28.4254 50.2792C28.1736 50.7998 27.8713 51.3203 27.5187 51.8409C27.1828 52.3446 26.8134 52.7644 26.4104 53.1003C26.0074 53.4361 25.5708 53.604 25.1006 53.604Z" fill="white"></path>
  <path d="M27.0346 61.6391C25.4393 61.6391 24.6417 60.9842 24.6417 59.6744C24.6417 59.0531 24.86 58.499 25.2966 58.012C25.7332 57.525 26.2537 57.1052 26.8583 56.7526C27.6979 56.2488 28.5123 55.8458 29.3015 55.5436C30.0908 55.2413 30.838 54.9726 31.5433 54.7375C32.2654 54.5192 32.9454 54.2757 33.5835 54.0071C33.8858 53.1171 34.0873 52.1851 34.1881 51.2112C34.2384 50.7074 34.2636 50.2708 34.2636 49.9014C34.2636 49.5151 34.2384 49.2633 34.1881 49.1457C34.0033 49.4984 33.7599 49.9266 33.4576 50.4303C33.1553 50.9341 32.8111 51.4295 32.4249 51.9164C32.0387 52.3866 31.6189 52.7812 31.1655 53.1003C30.7289 53.4193 30.2755 53.5789 29.8053 53.5789C29.6374 53.5789 29.4778 53.5537 29.3267 53.5033C28.8565 53.3018 28.5123 53.0163 28.294 52.6469C28.0925 52.2775 27.9917 51.8577 27.9917 51.3875C27.9917 50.6318 28.21 49.8174 28.6466 48.9442C29.0832 48.071 29.6038 47.2734 30.2083 46.5513C30.6953 45.9636 31.2662 45.4934 31.9211 45.1408C32.576 44.7881 33.2393 44.6118 33.911 44.6118C34.6834 44.6118 35.4055 44.8721 36.0772 45.3927C36.3291 45.5942 36.455 45.8125 36.455 46.0476C36.455 46.2994 36.3543 46.4254 36.1528 46.4254C35.9848 46.4254 35.8673 46.3162 35.8001 46.0979C35.565 45.4766 35.1872 45.166 34.6666 45.166C34.2468 45.166 33.7683 45.3507 33.2309 45.7201C32.6936 46.0727 32.1898 46.5177 31.7196 47.0551C31.3166 47.5085 30.922 48.029 30.5358 48.6168C30.1663 49.2045 29.8557 49.7838 29.6038 50.3548C29.3687 50.9257 29.2512 51.4211 29.2512 51.8409C29.2512 52.1263 29.3183 52.3698 29.4527 52.5713C29.587 52.7728 29.7969 52.8736 30.0824 52.8736C30.4686 52.8736 30.8716 52.6889 31.2914 52.3194C31.728 51.95 32.1394 51.4966 32.5256 50.9593C32.9286 50.4219 33.2729 49.8762 33.5584 49.322C33.8606 48.7679 34.0705 48.3061 34.1881 47.9367C34.3056 47.5505 34.4651 47.3154 34.6666 47.2314C34.8681 47.1307 35.0697 47.0803 35.2712 47.0803C35.4727 47.0803 35.6406 47.0299 35.7749 46.9291C35.8421 47.2986 35.8841 47.6764 35.9009 48.0626C35.9345 48.432 35.9512 48.8099 35.9512 49.1961C35.9512 50.4891 35.7833 51.7905 35.4475 53.1003C35.7497 52.8652 36.0604 52.6133 36.3794 52.3446C36.7153 52.0592 37.0008 51.7569 37.2358 51.4379C37.6557 50.8669 37.9663 50.3464 38.1678 49.8762C38.3861 49.3892 38.554 49.0114 38.6716 48.7427C38.7723 48.5748 38.8815 48.4908 38.999 48.4908C39.0998 48.4908 39.1502 48.5412 39.1502 48.6419C39.1502 48.7259 39.1166 48.8267 39.0494 48.9442C38.6296 49.8342 38.2434 50.5982 37.8907 51.2363C37.5381 51.8577 37.1519 52.3866 36.7321 52.8232C36.3123 53.243 35.7917 53.6041 35.1704 53.9063C34.9017 54.7123 34.4987 55.5603 33.9614 56.4503C33.424 57.3403 32.7943 58.1799 32.0722 58.9692C31.3502 59.7584 30.5609 60.3965 29.7045 60.8835C28.8481 61.3872 27.9581 61.6391 27.0346 61.6391ZM26.4301 61.1354C26.7995 61.1354 27.1857 61.0514 27.5887 60.8835C28.0085 60.7323 28.4031 60.5476 28.7726 60.3293C29.142 60.111 29.4275 59.9263 29.629 59.7752C30.0152 59.4729 30.4098 59.0951 30.8128 58.6417C31.2158 58.1883 31.5685 57.7517 31.8707 57.3319C32.1562 56.9289 32.4249 56.5007 32.6768 56.0473C32.9454 55.6107 33.1721 55.1741 33.3568 54.7375C33.2225 54.7879 33.0546 54.8467 32.8531 54.9138C32.6684 54.981 32.534 55.0314 32.4501 55.065C31.8959 55.2497 31.283 55.4596 30.6113 55.6947C29.9564 55.9466 29.3015 56.2152 28.6466 56.5007C27.9917 56.803 27.3956 57.1304 26.8583 57.4831C26.3881 57.8021 26.0019 58.2219 25.6996 58.7425C25.3805 59.263 25.221 59.7164 25.221 60.1026C25.221 60.3881 25.3218 60.6316 25.5233 60.8331C25.708 61.0346 26.0103 61.1354 26.4301 61.1354Z" fill="white"></path>
  <path d="M57.6465 56.0221C57.5625 56.0221 57.4869 56.0221 57.4198 56.0221C57.3526 56.0221 57.2854 56.0137 57.2183 55.9969C56.4122 55.8458 56.0092 55.1237 56.0092 53.8307C56.0092 52.7896 56.2695 51.3875 56.7901 49.6243C57.3106 47.8611 58.0999 45.7369 59.1578 43.2516C59.46 42.5464 59.7623 41.7571 60.0645 40.8839C60.3668 39.994 60.6187 39.104 60.8202 38.214C61.0385 37.324 61.1476 36.518 61.1476 35.7959C61.1476 35.2753 61.0805 34.822 60.9461 34.4357C60.8118 34.0327 60.5851 33.7389 60.266 33.5541C59.8966 33.3191 59.4852 33.1511 59.0318 33.0504C58.5952 32.9328 58.1334 32.8741 57.6465 32.8741C56.7733 32.8741 55.8581 33.0336 54.9009 33.3526C53.9438 33.6549 52.995 34.0831 52.0547 34.6372C51.1143 35.1914 50.2243 35.8379 49.3847 36.5767C48.5451 37.3156 47.7978 38.1216 47.1429 38.9948C46.5048 39.8512 46.0179 40.7412 45.682 41.6648C45.4637 42.2861 45.2958 42.8738 45.1782 43.428C45.0775 43.9821 45.0271 44.5027 45.0271 44.9896C45.0271 45.9972 45.2286 46.8452 45.6316 47.5337C46.0346 48.2054 46.5552 48.7091 47.1933 49.045C47.8482 49.3808 48.5367 49.5487 49.2588 49.5487C49.964 49.5487 50.6609 49.3808 51.3494 49.045C52.0547 48.6923 52.6844 48.2305 53.2385 47.6596C53.8094 47.0887 54.2628 46.459 54.5987 45.7705C54.9345 45.082 55.1024 44.3851 55.1024 43.6799C55.1024 43.1089 54.9849 42.6135 54.7498 42.1937C54.5147 41.7571 54.1201 41.5388 53.566 41.5388C53.4484 41.5388 53.3225 41.5472 53.1881 41.564C53.0706 41.5808 52.9446 41.6144 52.8103 41.6648C52.6424 41.7152 52.508 41.7403 52.4073 41.7403C52.3233 41.7403 52.2813 41.7152 52.2813 41.6648C52.2813 41.6312 52.3149 41.5808 52.3821 41.5137C52.4493 41.4297 52.5416 41.3625 52.6592 41.3121C53.1461 41.0938 53.5995 40.9847 54.0193 40.9847C54.7078 40.9847 55.2452 41.245 55.6314 41.7655C56.0176 42.2861 56.2107 42.9158 56.2107 43.6547C56.2107 44.4607 55.9756 45.2499 55.5055 46.0224C55.0521 46.7948 54.4559 47.5001 53.7171 48.1382C52.9782 48.7595 52.1806 49.2633 51.3242 49.6495C50.4678 50.0189 49.645 50.2036 48.8557 50.2036C47.9657 50.2036 47.1177 49.9601 46.3117 49.4732C45.5057 48.9862 44.8508 48.3061 44.347 47.4329C43.8433 46.5429 43.5914 45.5102 43.5914 44.3347C43.5914 43.7974 43.6585 43.2349 43.7929 42.6471C43.9104 42.0594 44.1035 41.4549 44.3722 40.8336C44.9264 39.5574 45.6988 38.3903 46.6895 37.3324C47.6803 36.2745 48.7886 35.3677 50.0144 34.6121C51.2402 33.8396 52.4913 33.2519 53.7675 32.8489C55.0437 32.4291 56.2611 32.2192 57.4198 32.2192C58.4441 32.2192 59.3593 32.3955 60.1653 32.7481C61.0553 33.1343 61.685 33.7053 62.0544 34.4609C62.4238 35.2166 62.6086 36.0646 62.6086 37.0049C62.6086 38.0293 62.4322 39.1208 62.0796 40.2794C61.7438 41.4213 61.3156 42.5128 60.795 43.5539C60.2577 44.6454 59.7707 45.7873 59.3341 46.9795C58.8975 48.155 58.5281 49.2801 58.2258 50.3548C57.9235 51.4127 57.7052 52.3278 57.5709 53.1003C57.5373 53.285 57.5121 53.4529 57.4953 53.604C57.4785 53.772 57.4701 53.9231 57.4701 54.0574C57.4701 54.8467 57.7304 55.2413 58.251 55.2413C58.6036 55.2413 59.0234 55.0902 59.5104 54.7879C59.9974 54.5024 60.5011 54.1414 61.0217 53.7048C61.559 53.2682 62.0712 52.8148 62.5582 52.3446C63.0452 51.8577 63.465 51.4295 63.8176 51.06C64.1702 50.6738 64.4137 50.4051 64.5481 50.254C65.9586 48.6084 67.0669 46.9627 67.8729 45.3171C68.679 43.6547 69.082 42.1602 69.082 40.8336C69.082 40.5313 69.0568 40.229 69.0064 39.9268C68.9392 39.4902 68.8469 39.1879 68.7293 39.02C68.6118 38.8521 68.4774 38.7513 68.3263 38.7178C68.1752 38.6842 67.9989 38.6506 67.7974 38.617C67.5791 38.5834 67.4111 38.5162 67.2936 38.4155C67.1928 38.3147 67.1425 38.2224 67.1425 38.1384C67.1425 37.9705 67.2852 37.8865 67.5707 37.8865C67.6042 37.8865 67.6462 37.8949 67.6966 37.9117C67.7638 37.9117 67.8309 37.9201 67.8981 37.9369C68.2172 38.0209 68.5698 38.2056 68.956 38.4911C69.3422 38.7765 69.6781 39.1627 69.9636 39.6497C70.249 40.1367 70.3918 40.7496 70.3918 41.4885C70.3918 42.1769 70.2322 42.941 69.9132 43.7806C69.443 45.0064 68.8301 46.2155 68.0744 47.4077C67.3188 48.5832 66.4792 49.6915 65.5556 50.7326C64.6488 51.7569 63.7169 52.6721 62.7597 53.4781C61.8025 54.2673 60.879 54.8887 59.989 55.342C59.1158 55.7954 58.3349 56.0221 57.6465 56.0221Z" fill="white"></path>
  <path d="M75.3405 53.6796C75.1558 53.6964 74.9459 53.6544 74.7108 53.5537C74.4757 53.4529 74.2658 53.2682 74.0811 52.9995C73.9131 52.7309 73.8292 52.353 73.8292 51.8661C73.8292 51.463 73.9047 50.9761 74.0559 50.4051C73.8544 50.7242 73.5941 51.1188 73.275 51.589C72.956 52.0424 72.6117 52.4454 72.2423 52.798C71.9233 53.1003 71.621 53.3186 71.3355 53.4529C71.0501 53.5873 70.7898 53.6544 70.5547 53.6544C70.1181 53.6544 69.7655 53.4613 69.4968 53.0751C69.2281 52.6721 69.0938 52.1515 69.0938 51.5134C69.0938 50.8417 69.2617 50.0777 69.5975 49.2213C69.9334 48.3649 70.4791 47.4749 71.2348 46.5513C71.7218 45.9636 72.3095 45.4934 72.998 45.1408C73.7032 44.7713 74.3917 44.5866 75.0634 44.5866C75.4496 44.5866 75.8191 44.6538 76.1717 44.7881C76.5243 44.9057 76.835 45.1072 77.1037 45.3927C77.2212 45.5102 77.28 45.6445 77.28 45.7957C77.28 45.8964 77.238 45.9804 77.154 46.0476C77.0701 46.1147 76.9609 46.1315 76.8266 46.0979C76.6419 45.5102 76.2473 45.2163 75.6427 45.2163C75.3573 45.2163 75.0298 45.3087 74.6604 45.4934C74.0895 45.7957 73.4933 46.291 72.872 46.9795C72.2675 47.668 71.7385 48.3817 71.2852 49.1205C71.218 49.2213 71.1088 49.4144 70.9577 49.6999C70.8234 49.9853 70.689 50.3044 70.5547 50.657C70.4204 51.0097 70.328 51.3539 70.2776 51.6897C70.2608 51.7905 70.2524 51.8661 70.2524 51.9164C70.2524 51.95 70.2524 52.0088 70.2524 52.0928C70.2524 52.6469 70.4623 52.924 70.8821 52.924C71.3859 52.924 71.9568 52.5545 72.5949 51.8157C73.0315 51.2783 73.4262 50.7158 73.7788 50.1281C74.1314 49.5403 74.4925 48.9106 74.8619 48.2389C75.1138 47.7855 75.3489 47.4077 75.5672 47.1055C75.7855 46.8032 76.0961 46.6521 76.4991 46.6521C76.6839 46.6521 76.8686 46.6773 77.0533 46.7276C77.238 46.778 77.4311 46.7864 77.6326 46.7528C77.4983 46.8872 77.3136 47.139 77.0785 47.5085C76.8602 47.8779 76.6251 48.2977 76.3732 48.7679C76.1213 49.2381 75.8946 49.7167 75.6931 50.2036C75.4916 50.6906 75.3489 51.1104 75.2649 51.463C75.2481 51.5638 75.2229 51.7065 75.1893 51.8912C75.1726 52.076 75.1642 52.2103 75.1642 52.2943C75.1642 52.7644 75.2985 52.9995 75.5672 52.9995C75.8358 52.9995 76.1213 52.84 76.4236 52.521C76.7426 52.2019 77.0533 51.8073 77.3555 51.3371C77.6578 50.8669 77.9349 50.3967 78.1868 49.9266C78.4386 49.4396 78.6401 49.045 78.7913 48.7427C78.8584 48.5748 78.9592 48.4908 79.0935 48.4908C79.1775 48.4908 79.2195 48.5496 79.2195 48.6671C79.2195 48.7175 79.1943 48.8099 79.1439 48.9442C78.9424 49.364 78.6989 49.8426 78.4135 50.3799C78.128 50.9005 77.8173 51.4127 77.4815 51.9164C77.1456 52.4034 76.793 52.8148 76.4236 53.1507C76.0709 53.4697 75.7099 53.646 75.3405 53.6796Z" fill="white"></path>
  <path d="M76.3622 53.8056C76.9667 52.5797 77.546 51.3707 78.1002 50.1784C78.6711 48.9694 79.2504 47.8191 79.8382 46.7276C80.174 46.1231 80.4511 45.7033 80.6694 45.4682C80.9045 45.2163 81.2151 45.0904 81.6013 45.0904C81.7357 45.0904 81.8784 45.1156 82.0295 45.166C82.1807 45.1995 82.3318 45.2163 82.4829 45.2163C82.5837 45.2163 82.6593 45.2079 82.7096 45.1912C82.4745 45.3255 82.1723 45.6613 81.8029 46.1987C81.4334 46.7192 81.0556 47.3238 80.6694 48.0122C80.2832 48.7007 79.9389 49.3472 79.6367 49.9517C79.9557 49.5655 80.2832 49.1793 80.619 48.7931C80.9716 48.4069 81.3579 48.0374 81.7777 47.6848C82.1807 47.3322 82.6593 46.9711 83.2134 46.6017C83.7843 46.2155 84.3385 45.8964 84.8758 45.6445C85.4132 45.3927 85.8414 45.2667 86.1604 45.2667C86.278 45.2667 86.3619 45.2751 86.4123 45.2919C86.4123 45.2919 86.32 45.4598 86.1352 45.7957C85.9505 46.1147 85.7154 46.5429 85.43 47.0803C85.1613 47.6008 84.8842 48.1634 84.5988 48.7679C84.3133 49.3556 84.053 49.9266 83.8179 50.4807C83.5996 51.018 83.4569 51.4714 83.3897 51.8409C83.3393 52.0592 83.3142 52.2607 83.3142 52.4454C83.3142 52.7141 83.3645 52.8904 83.4653 52.9743C83.566 53.0583 83.6752 53.1003 83.7927 53.1003C84.1118 53.1003 84.4476 52.9324 84.8003 52.5965C85.1529 52.2439 85.4887 51.8157 85.8078 51.3119C86.1436 50.8081 86.4375 50.3212 86.6894 49.851C86.9581 49.364 87.1512 48.9946 87.2687 48.7427C87.3359 48.6084 87.3863 48.5328 87.4199 48.516C87.4534 48.4824 87.5038 48.4656 87.571 48.4656C87.6717 48.4656 87.7221 48.5328 87.7221 48.6671C87.7221 48.7511 87.6969 48.8435 87.6465 48.9442C87.445 49.3304 87.2016 49.7922 86.9161 50.3296C86.6474 50.8669 86.3368 51.3959 85.9841 51.9164C85.6315 52.4202 85.2453 52.8484 84.8255 53.201C84.4056 53.5369 83.9523 53.7048 83.4653 53.7048C83.1294 53.7048 82.7768 53.5873 82.4074 53.3522C82.0547 53.1171 81.8784 52.6805 81.8784 52.0424C81.8784 51.8577 81.8952 51.6645 81.9288 51.463C81.9624 51.2447 82.0211 51.0097 82.1051 50.7578C82.2394 50.4219 82.399 50.0609 82.5837 49.6747C82.7684 49.2885 83.0707 48.7595 83.4905 48.0878C83.608 47.9031 83.6752 47.7604 83.692 47.6596C83.7256 47.5589 83.7424 47.4749 83.7424 47.4077C83.7424 47.2062 83.65 47.1055 83.4653 47.1055C83.3142 47.1055 83.0875 47.1894 82.7852 47.3573C82.4997 47.5253 82.1387 47.8191 81.7021 48.2389C81.2823 48.642 80.7785 49.2129 80.1908 49.9517C79.6199 50.6906 78.9566 51.7821 78.2009 53.2262C78.0834 53.4445 77.949 53.5621 77.7979 53.5789C77.6636 53.5957 77.4705 53.6124 77.2186 53.6292C77.0507 53.646 76.8911 53.6544 76.74 53.6544C76.5889 53.6712 76.4629 53.7216 76.3622 53.8056Z" fill="white"></path>
  <path d="M114.868 54.662C114.397 54.662 113.927 54.5528 113.457 54.3345C113.004 54.1162 112.576 53.7972 112.172 53.3774C111.585 52.7728 111.073 52.0508 110.636 51.2112C110.216 50.3548 109.855 49.4816 109.553 48.5916C109.251 47.6848 109.016 46.862 108.848 46.1231C108.68 45.3675 108.562 44.7881 108.495 44.3851C107.874 45.5774 107.227 46.7612 106.555 47.9367C105.901 49.0953 105.061 50.2372 104.037 51.3623C103.063 52.4202 101.996 53.2178 100.838 53.7552C99.6791 54.3093 98.4784 54.5864 97.2358 54.5864C96.8496 54.5864 96.455 54.5612 96.052 54.5108C94.9437 54.3765 94.1293 54.0574 93.6087 53.5537C93.0881 53.0499 92.8279 52.5126 92.8279 51.9416C92.8279 51.3203 93.1049 50.7578 93.6591 50.254C94.2132 49.7502 95.0025 49.4984 96.0268 49.4984C96.3626 49.4984 96.7236 49.5319 97.1099 49.5991C97.4961 49.6663 97.8991 49.7754 98.3189 49.9266C98.5036 49.9937 98.596 50.0693 98.596 50.1533C98.596 50.2204 98.5288 50.254 98.3945 50.254C98.3105 50.254 98.2433 50.2456 98.193 50.2288C97.6388 50.0273 97.1435 49.9266 96.7069 49.9266C96.0016 49.9266 95.4642 50.1365 95.0948 50.5563C94.7254 50.9593 94.5407 51.4043 94.5407 51.8912C94.5407 52.3614 94.7422 52.798 95.1452 53.201C95.5482 53.6041 96.1695 53.8056 97.0091 53.8056C98.067 53.8056 99.041 53.5621 99.931 53.0751C100.821 52.5713 101.652 51.8912 102.425 51.0348C103.197 50.1616 103.936 49.1793 104.641 48.0878C105.346 46.9795 106.035 45.8293 106.707 44.637C107.832 42.6387 108.848 40.8252 109.754 39.1963C110.678 37.5507 111.652 36.1569 112.676 35.0151C112.223 34.9647 111.761 34.9311 111.291 34.9143C110.821 34.8975 110.342 34.8891 109.855 34.8891C108.797 34.8891 107.697 34.9479 106.555 35.0654C105.43 35.1662 104.339 35.3341 103.281 35.5692C101.854 35.8715 100.628 36.3249 99.6035 36.9294C98.5792 37.5171 97.7648 38.1804 97.1602 38.9193C96.5725 39.6413 96.2031 40.3718 96.052 41.1106C96.0016 41.3793 95.9764 41.6396 95.9764 41.8915C95.9764 42.7479 96.2619 43.4112 96.8328 43.8814C97.4037 44.3515 98.0586 44.5866 98.7975 44.5866C99.2677 44.5866 99.7379 44.4943 100.208 44.3096C100.695 44.1081 101.132 43.7974 101.518 43.3776C101.837 43.0417 102.072 42.7311 102.223 42.4456C102.374 42.1434 102.458 41.9167 102.475 41.7655C102.492 41.5304 102.542 41.4129 102.626 41.4129C102.676 41.4129 102.718 41.4549 102.752 41.5388C102.802 41.6228 102.819 41.7068 102.802 41.7907C102.735 42.1769 102.618 42.5548 102.45 42.9242C102.282 43.2936 102.08 43.6043 101.845 43.8562C101.375 44.3431 100.838 44.7042 100.233 44.9393C99.6287 45.1744 99.0494 45.2919 98.4952 45.2919C97.8403 45.2919 97.219 45.1492 96.6313 44.8637C96.0604 44.5782 95.5986 44.1668 95.2459 43.6295C94.8933 43.0753 94.717 42.3952 94.717 41.5892C94.717 40.6489 95.0444 39.6917 95.6993 38.7178C96.3542 37.727 97.3366 36.8538 98.6464 36.0982C99.9729 35.3425 101.619 34.822 103.583 34.5365C104.574 34.4021 105.531 34.3014 106.455 34.2342C107.395 34.1503 108.302 34.1083 109.175 34.1083C109.88 34.1083 110.569 34.1335 111.241 34.1838C111.912 34.2342 112.576 34.3014 113.23 34.3854C113.667 33.932 113.961 33.7053 114.112 33.7053C114.23 33.7053 114.288 33.7976 114.288 33.9823C114.288 34.0495 114.28 34.1335 114.263 34.2342C114.246 34.335 114.221 34.4357 114.188 34.5365C114.641 34.6037 115.078 34.6792 115.497 34.7632C115.934 34.8304 116.32 34.9143 116.656 35.0151C117.983 35.3845 118.948 35.8715 119.553 36.476C120.174 37.0637 120.485 37.7018 120.485 38.3903C120.485 39.1292 120.149 39.868 119.477 40.6069C118.822 41.3457 117.89 42.0006 116.681 42.5716C115.489 43.1425 114.087 43.5623 112.475 43.831C111.954 43.9149 111.492 43.9737 111.089 44.0073C110.703 44.0409 110.367 44.0661 110.082 44.0829C110.115 44.2508 110.191 44.6034 110.309 45.1408C110.426 45.6781 110.594 46.3162 110.812 47.0551C111.031 47.7771 111.308 48.5412 111.644 49.3472C111.996 50.1533 112.416 50.9173 112.903 51.6394C113.289 52.2103 113.684 52.6805 114.087 53.0499C114.49 53.4193 114.918 53.604 115.371 53.604C115.657 53.604 115.951 53.5285 116.253 53.3774C116.572 53.2262 116.899 52.9827 117.235 52.6469C117.638 52.2439 117.999 51.7905 118.318 51.2867C118.654 50.7662 118.94 50.2792 119.175 49.8258C119.41 49.3724 119.569 49.0534 119.653 48.8686C119.788 48.6336 119.93 48.516 120.082 48.516C120.132 48.516 120.157 48.5496 120.157 48.6168C120.157 48.6503 120.132 48.7343 120.082 48.8686C119.998 49.0534 119.872 49.3388 119.704 49.725C119.536 50.0945 119.334 50.5059 119.099 50.9593C118.864 51.4127 118.612 51.8577 118.344 52.2943C118.075 52.7309 117.806 53.1003 117.538 53.4025C117.151 53.8224 116.715 54.133 116.228 54.3345C115.758 54.5528 115.304 54.662 114.868 54.662ZM109.024 43.4028C109.511 43.3188 110.031 43.26 110.586 43.2265C111.14 43.1929 111.686 43.1425 112.223 43.0753C113.096 42.9578 113.919 42.7311 114.691 42.3952C115.464 42.0426 116.144 41.6228 116.732 41.1358C117.336 40.6489 117.806 40.1367 118.142 39.5993C118.478 39.0452 118.646 38.5162 118.646 38.0125C118.646 36.8706 117.882 36.0814 116.354 35.6448C116.051 35.5608 115.657 35.4769 115.17 35.3929C114.7 35.3089 114.272 35.2334 113.885 35.1662C113.079 36.5432 112.248 37.8949 111.392 39.2215C110.552 40.5481 109.763 41.9419 109.024 43.4028Z" fill="white"></path>
  <path d="M125.127 53.6796C124.942 53.6964 124.732 53.6544 124.497 53.5537C124.262 53.4529 124.052 53.2682 123.867 52.9995C123.699 52.7309 123.615 52.353 123.615 51.8661C123.615 51.463 123.691 50.9761 123.842 50.4051C123.641 50.7242 123.38 51.1188 123.061 51.589C122.742 52.0424 122.398 52.4454 122.029 52.798C121.71 53.1003 121.407 53.3186 121.122 53.4529C120.836 53.5873 120.576 53.6544 120.341 53.6544C119.904 53.6544 119.552 53.4613 119.283 53.0751C119.014 52.6721 118.88 52.1515 118.88 51.5134C118.88 50.8417 119.048 50.0777 119.384 49.2213C119.72 48.3649 120.265 47.4749 121.021 46.5513C121.508 45.9636 122.096 45.4934 122.784 45.1408C123.49 44.7713 124.178 44.5866 124.85 44.5866C125.236 44.5866 125.605 44.6538 125.958 44.7881C126.311 44.9057 126.621 45.1072 126.89 45.3927C127.007 45.5102 127.066 45.6445 127.066 45.7957C127.066 45.8964 127.024 45.9804 126.94 46.0476C126.856 46.1147 126.747 46.1315 126.613 46.0979C126.428 45.5102 126.034 45.2163 125.429 45.2163C125.144 45.2163 124.816 45.3087 124.447 45.4934C123.876 45.7957 123.28 46.291 122.658 46.9795C122.054 47.668 121.525 48.3817 121.071 49.1205C121.004 49.2213 120.895 49.4144 120.744 49.6999C120.61 49.9853 120.475 50.3044 120.341 50.657C120.207 51.0097 120.114 51.3539 120.064 51.6897C120.047 51.7905 120.039 51.8661 120.039 51.9164C120.039 51.95 120.039 52.0088 120.039 52.0928C120.039 52.6469 120.249 52.924 120.668 52.924C121.172 52.924 121.743 52.5545 122.381 51.8157C122.818 51.2783 123.212 50.7158 123.565 50.1281C123.918 49.5403 124.279 48.9106 124.648 48.2389C124.9 47.7855 125.135 47.4077 125.353 47.1055C125.572 46.8032 125.882 46.6521 126.285 46.6521C126.47 46.6521 126.655 46.6773 126.84 46.7276C127.024 46.778 127.217 46.7864 127.419 46.7528C127.285 46.8872 127.1 47.139 126.865 47.5085C126.646 47.8779 126.411 48.2977 126.159 48.7679C125.908 49.2381 125.681 49.7167 125.479 50.2036C125.278 50.6906 125.135 51.1104 125.051 51.463C125.034 51.5638 125.009 51.7065 124.976 51.8912C124.959 52.076 124.95 52.2103 124.95 52.2943C124.95 52.7644 125.085 52.9995 125.353 52.9995C125.622 52.9995 125.908 52.84 126.21 52.521C126.529 52.2019 126.84 51.8073 127.142 51.3371C127.444 50.8669 127.721 50.3967 127.973 49.9266C128.225 49.4396 128.426 49.045 128.578 48.7427C128.645 48.5748 128.745 48.4908 128.88 48.4908C128.964 48.4908 129.006 48.5496 129.006 48.6671C129.006 48.7175 128.981 48.8099 128.93 48.9442C128.729 49.364 128.485 49.8426 128.2 50.3799C127.914 50.9005 127.604 51.4127 127.268 51.9164C126.932 52.4034 126.579 52.8148 126.21 53.1507C125.857 53.4697 125.496 53.646 125.127 53.6796Z" fill="white"></path>
  <path d="M133.982 53.6796C133.797 53.6964 133.587 53.6544 133.352 53.5537C133.117 53.4529 132.907 53.2682 132.723 52.9995C132.555 52.7309 132.471 52.353 132.471 51.8661C132.471 51.463 132.546 50.9761 132.697 50.4051C132.496 50.7242 132.236 51.1188 131.917 51.589C131.598 52.0424 131.253 52.4454 130.884 52.798C130.565 53.1003 130.263 53.3186 129.977 53.4529C129.692 53.5873 129.431 53.6544 129.196 53.6544C128.76 53.6544 128.407 53.4613 128.138 53.0751C127.87 52.6721 127.735 52.1515 127.735 51.5134C127.735 50.8417 127.903 50.0777 128.239 49.2213C128.575 48.3649 129.121 47.4749 129.876 46.5513C130.363 45.9636 130.951 45.4934 131.64 45.1408C132.345 44.7713 133.033 44.5866 133.705 44.5866C134.091 44.5866 134.461 44.6538 134.813 44.7881C135.166 44.9057 135.477 45.1072 135.745 45.3927C135.863 45.5102 135.922 45.6445 135.922 45.7957C135.922 45.8964 135.88 45.9804 135.796 46.0476C135.712 46.1147 135.602 46.1315 135.468 46.0979C135.283 45.5102 134.889 45.2163 134.284 45.2163C133.999 45.2163 133.671 45.3087 133.302 45.4934C132.731 45.7957 132.135 46.291 131.514 46.9795C130.909 47.668 130.38 48.3817 129.927 49.1205C129.86 49.2213 129.75 49.4144 129.599 49.6999C129.465 49.9853 129.331 50.3044 129.196 50.657C129.062 51.0097 128.97 51.3539 128.919 51.6897C128.902 51.7905 128.894 51.8661 128.894 51.9164C128.894 51.95 128.894 52.0088 128.894 52.0928C128.894 52.6469 129.104 52.924 129.524 52.924C130.027 52.924 130.598 52.5545 131.237 51.8157C131.673 51.2783 132.068 50.7158 132.42 50.1281C132.773 49.5403 133.134 48.9106 133.503 48.2389C133.755 47.7855 133.99 47.4077 134.209 47.1055C134.427 46.8032 134.738 46.6521 135.141 46.6521C135.325 46.6521 135.51 46.6773 135.695 46.7276C135.88 46.778 136.073 46.7864 136.274 46.7528C136.14 46.8872 135.955 47.139 135.72 47.5085C135.502 47.8779 135.267 48.2977 135.015 48.7679C134.763 49.2381 134.536 49.7167 134.335 50.2036C134.133 50.6906 133.99 51.1104 133.906 51.463C133.89 51.5638 133.865 51.7065 133.831 51.8912C133.814 52.076 133.806 52.2103 133.806 52.2943C133.806 52.7644 133.94 52.9995 134.209 52.9995C134.477 52.9995 134.763 52.84 135.065 52.521C135.384 52.2019 135.695 51.8073 135.997 51.3371C136.299 50.8669 136.576 50.3967 136.828 49.9266C137.08 49.4396 137.282 49.045 137.433 48.7427C137.5 48.5748 137.601 48.4908 137.735 48.4908C137.819 48.4908 137.861 48.5496 137.861 48.6671C137.861 48.7175 137.836 48.8099 137.785 48.9442C137.584 49.364 137.34 49.8426 137.055 50.3799C136.77 50.9005 136.459 51.4127 136.123 51.9164C135.787 52.4034 135.435 52.8148 135.065 53.1507C134.713 53.4697 134.351 53.646 133.982 53.6796Z" fill="white"></path>
  <path d="M135.004 53.8056C135.608 52.5797 136.188 51.3707 136.742 50.1784C137.313 48.9694 137.892 47.8191 138.48 46.7276C138.816 46.1231 139.093 45.7033 139.311 45.4682C139.546 45.2163 139.857 45.0904 140.243 45.0904C140.377 45.0904 140.52 45.1156 140.671 45.166C140.822 45.1995 140.973 45.2163 141.125 45.2163C141.225 45.2163 141.301 45.2079 141.351 45.1912C141.116 45.3255 140.814 45.6613 140.444 46.1987C140.075 46.7192 139.697 47.3238 139.311 48.0122C138.925 48.7007 138.58 49.3472 138.278 49.9517C138.597 49.5655 138.925 49.1793 139.261 48.7931C139.613 48.4069 139.999 48.0374 140.419 47.6848C140.822 47.3322 141.301 46.9711 141.855 46.6017C142.426 46.2155 142.98 45.8964 143.517 45.6445C144.055 45.3927 144.483 45.2667 144.802 45.2667C144.92 45.2667 145.004 45.2751 145.054 45.2919C145.054 45.2919 144.962 45.4598 144.777 45.7957C144.592 46.1147 144.357 46.5429 144.072 47.0803C143.803 47.6008 143.526 48.1634 143.24 48.7679C142.955 49.3556 142.695 49.9266 142.459 50.4807C142.241 51.018 142.098 51.4714 142.031 51.8409C141.981 52.0592 141.956 52.2607 141.956 52.4454C141.956 52.7141 142.006 52.8904 142.107 52.9743C142.208 53.0583 142.317 53.1003 142.434 53.1003C142.753 53.1003 143.089 52.9324 143.442 52.5965C143.794 52.2439 144.13 51.8157 144.449 51.3119C144.785 50.8081 145.079 50.3212 145.331 49.851C145.6 49.364 145.793 48.9946 145.91 48.7427C145.977 48.6084 146.028 48.5328 146.061 48.516C146.095 48.4824 146.145 48.4656 146.213 48.4656C146.313 48.4656 146.364 48.5328 146.364 48.6671C146.364 48.7511 146.338 48.8435 146.288 48.9442C146.087 49.3304 145.843 49.7922 145.558 50.3296C145.289 50.8669 144.978 51.3959 144.626 51.9164C144.273 52.4202 143.887 52.8484 143.467 53.201C143.047 53.5369 142.594 53.7048 142.107 53.7048C141.771 53.7048 141.418 53.5873 141.049 53.3522C140.696 53.1171 140.52 52.6805 140.52 52.0424C140.52 51.8577 140.537 51.6645 140.57 51.463C140.604 51.2447 140.663 51.0097 140.747 50.7578C140.881 50.4219 141.041 50.0609 141.225 49.6747C141.41 49.2885 141.712 48.7595 142.132 48.0878C142.25 47.9031 142.317 47.7604 142.334 47.6596C142.367 47.5589 142.384 47.4749 142.384 47.4077C142.384 47.2062 142.292 47.1055 142.107 47.1055C141.956 47.1055 141.729 47.1894 141.427 47.3573C141.141 47.5253 140.78 47.8191 140.344 48.2389C139.924 48.642 139.42 49.2129 138.832 49.9517C138.261 50.6906 137.598 51.7821 136.842 53.2262C136.725 53.4445 136.591 53.5621 136.439 53.5789C136.305 53.5957 136.112 53.6124 135.86 53.6292C135.692 53.646 135.533 53.6544 135.382 53.6544C135.23 53.6712 135.104 53.7216 135.004 53.8056Z" fill="white"></path>
  <path d="M164.718 55.2161C163.98 55.2161 163.459 54.9222 163.157 54.3345C162.855 53.7636 162.703 53.0919 162.703 52.3194C162.703 51.631 162.796 50.9509 162.98 50.2792C163.182 49.6075 163.417 49.0953 163.686 48.7427C163.232 49.2801 162.67 49.893 161.998 50.5815C161.326 51.2699 160.588 51.9332 159.782 52.5713C158.976 53.2094 158.144 53.7384 157.288 54.1582C156.432 54.578 155.584 54.7879 154.744 54.7879C154.492 54.7879 154.24 54.7627 153.988 54.7123C153.753 54.6788 153.518 54.6116 153.283 54.5108C152.662 54.2589 152.2 53.814 151.898 53.1758C151.595 52.521 151.444 51.7401 151.444 50.8333C151.444 49.8762 151.604 48.8519 151.923 47.7604C152.259 46.6521 152.746 45.527 153.384 44.3851C153.686 43.831 154.022 43.2852 154.391 42.7479C154.778 42.1937 155.189 41.6732 155.626 41.1862C155.105 40.9511 154.626 40.6908 154.19 40.4054C153.753 40.1031 153.384 39.7757 153.081 39.423C152.88 39.1879 152.729 38.9109 152.628 38.5918C152.527 38.2728 152.477 37.9621 152.477 37.6598C152.477 37.1225 152.603 36.7699 152.855 36.6019C152.939 36.4676 153.039 36.4004 153.157 36.4004C153.308 36.4004 153.384 36.4928 153.384 36.6775C153.384 36.795 153.35 36.921 153.283 37.0553C153.199 37.2736 153.157 37.4751 153.157 37.6598C153.157 37.9285 153.224 38.1804 153.359 38.4155C153.493 38.6338 153.652 38.8437 153.837 39.0452C154.374 39.6833 155.113 40.2123 156.054 40.6321C157.128 39.4566 158.304 38.3735 159.58 37.3828C160.873 36.3752 162.258 35.5692 163.736 34.9647C165.214 34.3602 166.767 34.0579 168.396 34.0579C169.756 34.0579 170.822 34.3602 171.595 34.9647C172.367 35.5524 172.754 36.3165 172.754 37.2568C172.754 37.7102 172.619 38.2056 172.351 38.7429C172.082 39.2635 171.645 39.7757 171.041 40.2794C170.436 40.7664 169.63 41.1946 168.623 41.564C167.632 41.9167 166.398 42.1602 164.92 42.2945C164.399 42.3449 163.929 42.3868 163.509 42.4204C163.106 42.4372 162.67 42.4456 162.2 42.4456C161.326 42.4456 160.478 42.3868 159.656 42.2693C158.85 42.1518 158.044 41.967 157.238 41.7152C156.935 42.135 156.549 42.7059 156.079 43.428C155.625 44.15 155.172 44.9225 154.719 45.7453C154.265 46.5681 153.888 47.3489 153.585 48.0878C153.317 48.7931 153.115 49.4396 152.981 50.0273C152.846 50.5982 152.779 51.1104 152.779 51.5638C152.779 52.3866 152.972 53.0079 153.359 53.4277C153.745 53.8307 154.265 54.0323 154.92 54.0323C155.558 54.0323 156.28 53.8475 157.086 53.4781C157.909 53.1087 158.766 52.5545 159.656 51.8157C160.546 51.0768 161.41 50.2456 162.25 49.322C163.106 48.3985 163.887 47.4581 164.593 46.5009C165.298 45.5438 165.869 44.6622 166.305 43.8562C166.591 43.3188 166.868 42.941 167.137 42.7227C167.405 42.4876 167.632 42.3701 167.817 42.3701C168.001 42.3701 168.144 42.4456 168.245 42.5968C168.346 42.7311 168.396 42.9158 168.396 43.1509C168.396 43.6211 168.186 44.0913 167.766 44.5614C167.296 45.082 166.834 45.7201 166.381 46.4758C165.928 47.2314 165.525 48.029 165.172 48.8686C164.819 49.7083 164.567 50.5311 164.416 51.3371C164.366 51.6058 164.332 51.8577 164.315 52.0928C164.299 52.3278 164.29 52.5377 164.29 52.7225C164.29 53.3438 164.383 53.7888 164.567 54.0574C164.769 54.3261 165.029 54.4605 165.348 54.4605C165.734 54.4605 166.179 54.2841 166.683 53.9315C167.187 53.5789 167.674 53.1087 168.144 52.521C168.547 51.9836 168.933 51.4127 169.303 50.8081C169.689 50.2036 170.042 49.5739 170.361 48.919C170.411 48.8015 170.478 48.7175 170.562 48.6671C170.663 48.6 170.73 48.5664 170.764 48.5664C170.848 48.5664 170.89 48.6168 170.89 48.7175C170.89 48.7847 170.864 48.8854 170.814 49.0198C170.663 49.3556 170.461 49.7586 170.21 50.2288C169.958 50.699 169.681 51.186 169.378 51.6897C169.076 52.1767 168.765 52.6301 168.446 53.0499C168.01 53.6208 167.456 54.1246 166.784 54.5612C166.129 54.9978 165.441 55.2161 164.718 55.2161ZM161.973 41.8411C162.846 41.8411 163.82 41.7907 164.895 41.69C166.289 41.5724 167.498 41.2954 168.522 40.8588C169.546 40.4222 170.335 39.868 170.89 39.1963C171.444 38.5246 171.721 37.7774 171.721 36.9546C171.721 36.2157 171.41 35.6532 170.789 35.2669C170.184 34.8807 169.412 34.6876 168.472 34.6876C166.91 34.6876 165.483 34.9983 164.19 35.6196C162.913 36.2241 161.738 37.0217 160.663 38.0125C159.605 39.0032 158.598 40.0695 157.641 41.2114C158.917 41.6312 160.361 41.8411 161.973 41.8411Z" fill="white"></path>
  <path d="M168.039 53.8056C168.643 52.5797 169.223 51.3707 169.777 50.1784C170.348 48.9694 170.927 47.8191 171.515 46.7276C171.851 46.1231 172.128 45.7033 172.346 45.4682C172.581 45.2163 172.892 45.0904 173.278 45.0904C173.412 45.0904 173.555 45.1156 173.706 45.166C173.857 45.1995 174.008 45.2163 174.16 45.2163C174.26 45.2163 174.336 45.2079 174.386 45.1912C174.151 45.3255 173.849 45.6613 173.48 46.1987C173.11 46.7192 172.732 47.3238 172.346 48.0122C171.96 48.7007 171.616 49.3472 171.313 49.9517C171.632 49.5655 171.96 49.1793 172.296 48.7931C172.648 48.4069 173.035 48.0374 173.454 47.6848C173.857 47.3322 174.336 46.9711 174.89 46.6017C175.461 46.2155 176.015 45.8964 176.552 45.6445C177.09 45.3927 177.518 45.2667 177.837 45.2667C177.955 45.2667 178.039 45.2751 178.089 45.2919C178.089 45.2919 177.997 45.4598 177.812 45.7957C177.627 46.1147 177.392 46.5429 177.107 47.0803C176.838 47.6008 176.561 48.1634 176.275 48.7679C175.99 49.3556 175.73 49.9266 175.495 50.4807C175.276 51.018 175.134 51.4714 175.066 51.8409C175.016 52.0592 174.991 52.2607 174.991 52.4454C174.991 52.7141 175.041 52.8904 175.142 52.9743C175.243 53.0583 175.352 53.1003 175.469 53.1003C175.788 53.1003 176.124 52.9324 176.477 52.5965C176.83 52.2439 177.165 51.8157 177.484 51.3119C177.82 50.8081 178.114 50.3212 178.366 49.851C178.635 49.364 178.828 48.9946 178.945 48.7427C179.013 48.6084 179.063 48.5328 179.096 48.516C179.13 48.4824 179.18 48.4656 179.248 48.4656C179.348 48.4656 179.399 48.5328 179.399 48.6671C179.399 48.7511 179.374 48.8435 179.323 48.9442C179.122 49.3304 178.878 49.7922 178.593 50.3296C178.324 50.8669 178.013 51.3959 177.661 51.9164C177.308 52.4202 176.922 52.8484 176.502 53.201C176.082 53.5369 175.629 53.7048 175.142 53.7048C174.806 53.7048 174.453 53.5873 174.084 53.3522C173.731 53.1171 173.555 52.6805 173.555 52.0424C173.555 51.8577 173.572 51.6645 173.605 51.463C173.639 51.2447 173.698 51.0097 173.782 50.7578C173.916 50.4219 174.076 50.0609 174.26 49.6747C174.445 49.2885 174.747 48.7595 175.167 48.0878C175.285 47.9031 175.352 47.7604 175.369 47.6596C175.402 47.5589 175.419 47.4749 175.419 47.4077C175.419 47.2062 175.327 47.1055 175.142 47.1055C174.991 47.1055 174.764 47.1894 174.462 47.3573C174.176 47.5253 173.815 47.8191 173.379 48.2389C172.959 48.642 172.455 49.2129 171.867 49.9517C171.297 50.6906 170.633 51.7821 169.878 53.2262C169.76 53.4445 169.626 53.5621 169.475 53.5789C169.34 53.5957 169.147 53.6124 168.895 53.6292C168.727 53.646 168.568 53.6544 168.417 53.6544C168.266 53.6712 168.14 53.7216 168.039 53.8056Z" fill="white"></path>
  <path d="M184.46 53.604C184.007 53.604 183.629 53.3774 183.327 52.924C183.243 52.7896 183.167 52.6133 183.1 52.395C183.033 52.1767 182.999 51.9332 182.999 51.6646C182.999 51.5134 183.008 51.3623 183.024 51.2112C183.041 51.0432 183.075 50.8753 183.125 50.7074C182.89 51.0768 182.613 51.4882 182.294 51.9416C181.992 52.3782 181.639 52.7644 181.236 53.1003C180.85 53.4193 180.413 53.5789 179.926 53.5789C179.758 53.5789 179.582 53.5537 179.397 53.5033C178.944 53.369 178.616 53.1339 178.415 52.798C178.23 52.4622 178.138 52.0592 178.138 51.589C178.138 51.0684 178.239 50.4975 178.44 49.8762C178.658 49.2549 178.927 48.6503 179.246 48.0626C179.582 47.4749 179.926 46.9711 180.279 46.5513C180.783 45.9636 181.362 45.4934 182.017 45.1408C182.672 44.7881 183.335 44.6118 184.007 44.6118C184.611 44.6118 185.182 44.7713 185.719 45.0904C185.971 44.6202 186.24 44.0997 186.525 43.5287C186.811 42.941 187.096 42.3617 187.382 41.7907C187.667 41.2198 187.919 40.6992 188.138 40.229C188.356 39.7421 188.524 39.3726 188.641 39.1208C188.893 38.533 189.128 38.1636 189.347 38.0125C189.582 37.8446 189.859 37.7606 190.178 37.7606C190.362 37.7606 190.564 37.7858 190.782 37.8362C191.017 37.8697 191.244 37.8781 191.462 37.8613C191.362 37.9621 191.152 38.256 190.833 38.7429C190.53 39.2131 190.169 39.8176 189.75 40.5565C189.33 41.2954 188.876 42.1098 188.389 42.9998C187.919 43.873 187.449 44.7629 186.979 45.6697C186.525 46.5597 186.097 47.4077 185.694 48.2137C185.308 49.003 184.997 49.6831 184.762 50.254C184.695 50.3883 184.594 50.6654 184.46 51.0852C184.342 51.4882 184.284 51.8409 184.284 52.1431C184.284 52.3614 184.334 52.5545 184.435 52.7225C184.536 52.8736 184.704 52.9492 184.939 52.9492C185.258 52.9492 185.577 52.7896 185.896 52.4706C186.232 52.1347 186.551 51.7317 186.853 51.2615C187.155 50.7746 187.424 50.3044 187.659 49.851C187.894 49.3808 188.07 49.0114 188.188 48.7427C188.272 48.558 188.373 48.4656 188.49 48.4656C188.591 48.4656 188.641 48.5412 188.641 48.6923C188.641 48.7091 188.641 48.7427 188.641 48.7931C188.641 48.8267 188.625 48.8686 188.591 48.919C188.44 49.2717 188.23 49.7083 187.961 50.2288C187.709 50.7494 187.407 51.2699 187.054 51.7905C186.702 52.3111 186.307 52.7476 185.871 53.1003C185.434 53.4361 184.964 53.604 184.46 53.604ZM180.102 52.8484C180.338 52.8484 180.631 52.7225 180.984 52.4706C181.337 52.2019 181.715 51.7821 182.118 51.2112C182.588 50.5395 183.125 49.6999 183.73 48.6923C184.334 47.6848 184.93 46.6185 185.518 45.4934C185.3 45.2919 185.048 45.1912 184.762 45.1912C184.292 45.1912 183.763 45.4094 183.175 45.846C182.604 46.2826 182.042 46.8368 181.488 47.5085C180.95 48.1802 180.497 48.8602 180.128 49.5487C179.876 50.0189 179.691 50.4471 179.574 50.8333C179.473 51.2196 179.422 51.5554 179.422 51.8409C179.422 52.5126 179.649 52.8484 180.102 52.8484Z" fill="white"></path>
  <path d="M202.946 56.9037C201.317 56.9037 199.873 56.5847 198.614 55.9466C197.354 55.3253 196.363 54.4689 195.641 53.3774C194.936 52.2691 194.583 51.018 194.583 49.6243C194.583 48.7511 194.735 47.8527 195.037 46.9291C195.205 46.4422 195.448 46.014 195.767 45.6445C196.086 45.2751 196.422 44.9728 196.775 44.7378C197.127 44.5027 197.43 44.3515 197.682 44.2844C197.866 44.234 197.984 44.2088 198.034 44.2088C198.152 44.2088 198.11 44.2928 197.908 44.4607C197.724 44.6118 197.488 44.7797 197.203 44.9645C196.884 45.1828 196.514 45.5102 196.095 45.9468C195.675 46.3834 195.389 47.0299 195.238 47.8863C195.205 48.0878 195.18 48.2893 195.163 48.4908C195.146 48.6923 195.138 48.8854 195.138 49.0702C195.138 50.1616 195.381 51.1272 195.868 51.9668C196.372 52.7896 197.018 53.4781 197.807 54.0323C198.597 54.5864 199.453 55.0062 200.377 55.2917C201.317 55.5771 202.215 55.7199 203.072 55.7199C204.432 55.7199 205.691 55.4512 206.85 54.9138C208.009 54.3933 209.067 53.6712 210.024 52.7476C210.998 51.8241 211.871 50.7662 212.643 49.5739C213.416 48.3649 214.096 47.0887 214.684 45.7453C214.549 45.7453 214.356 45.7453 214.104 45.7453C213.852 45.7285 213.575 45.7201 213.273 45.7201C212.82 45.7201 212.324 45.7537 211.787 45.8209C211.266 45.8712 210.771 45.9972 210.301 46.1987C209.848 46.3834 209.478 46.6773 209.193 47.0803C209.092 47.1978 209 47.2566 208.916 47.2566C208.848 47.2566 208.798 47.2146 208.764 47.1306C208.731 47.0467 208.739 46.9543 208.79 46.8536C209.193 45.9636 209.747 45.3591 210.452 45.04C211.157 44.721 211.947 44.5614 212.82 44.5614C213.189 44.5614 213.559 44.5866 213.928 44.637C214.314 44.6706 214.692 44.721 215.061 44.7881C215.364 44.0661 215.7 43.344 216.069 42.6219C216.438 41.8999 216.799 41.2282 217.152 40.6069C217.505 39.9856 217.824 39.465 218.109 39.0452C218.395 38.6086 218.596 38.3231 218.714 38.1888C217.639 37.6514 216.531 37.1561 215.389 36.7027C214.247 36.2493 213.055 35.9386 211.812 35.7707C211.56 35.7371 211.308 35.7119 211.057 35.6952C210.805 35.6784 210.561 35.67 210.326 35.67C209.218 35.67 208.227 35.8463 207.354 36.1989C206.481 36.5516 205.742 37.0049 205.137 37.5591C204.533 38.0964 204.071 38.6758 203.752 39.2971C203.433 39.9016 203.273 40.4725 203.273 41.0099C203.273 41.7152 203.525 42.2189 204.029 42.5212C204.331 42.7059 204.634 42.8402 204.936 42.9242C205.255 43.0082 205.557 43.0501 205.843 43.0501C206.481 43.0501 207.06 42.9158 207.581 42.6471C208.101 42.3785 208.513 42.0846 208.815 41.7655C209.134 41.4297 209.293 41.1778 209.293 41.0099C209.293 40.842 209.344 40.6992 209.444 40.5817C209.545 40.4473 209.629 40.3802 209.696 40.3802C209.764 40.3802 209.797 40.439 209.797 40.5565C209.797 40.6405 209.772 40.758 209.722 40.9091C209.47 41.7823 208.958 42.454 208.185 42.9242C207.429 43.3776 206.632 43.6043 205.792 43.6043C205.44 43.6043 205.087 43.5623 204.734 43.4783C204.398 43.3944 204.079 43.2684 203.777 43.1005C203.223 42.7815 202.812 42.3785 202.543 41.8915C202.274 41.3877 202.14 40.8504 202.14 40.2794C202.14 39.6245 202.308 38.9528 202.644 38.2644C202.979 37.5591 203.458 36.921 204.079 36.35C204.717 35.7623 205.482 35.2921 206.372 34.9395C207.262 34.5701 208.269 34.3854 209.394 34.3854C210.251 34.3854 211.208 34.5281 212.266 34.8136C213.659 35.183 214.944 35.6448 216.119 36.1989C217.295 36.7363 218.269 37.2484 219.041 37.7354C219.159 37.6011 219.352 37.4248 219.621 37.2065C219.889 36.9882 220.234 36.879 220.653 36.879C220.804 36.879 220.981 36.9042 221.182 36.9546C221.333 37.0049 221.443 37.0889 221.51 37.2065C221.594 37.324 221.636 37.4415 221.636 37.5591C221.636 37.7102 221.585 37.7858 221.485 37.7858C221.417 37.7858 221.317 37.7102 221.182 37.5591C221.065 37.5087 220.939 37.4835 220.804 37.4835C220.586 37.4835 220.376 37.5423 220.175 37.6598C219.973 37.7774 219.797 37.9033 219.646 38.0377C219.948 38.1888 220.343 38.3651 220.83 38.5666C221.333 38.7681 221.888 38.9696 222.492 39.1711C223.097 39.3726 223.701 39.5406 224.306 39.6749C224.927 39.7925 225.498 39.8512 226.018 39.8512C226.455 39.8512 226.85 39.7925 227.202 39.6749C227.555 39.5574 227.807 39.3391 227.958 39.02C228.092 38.701 228.218 38.5414 228.336 38.5414C228.42 38.5414 228.462 38.6338 228.462 38.8185C228.462 38.8689 228.462 38.9193 228.462 38.9696C228.462 39.02 228.453 39.0704 228.436 39.1208C228.369 39.5742 228.092 39.9604 227.605 40.2794C227.118 40.5817 226.531 40.7328 225.842 40.7328C225.741 40.7328 225.632 40.7328 225.515 40.7328C225.414 40.716 225.305 40.6992 225.187 40.6824C224.213 40.5145 223.306 40.271 222.467 39.952C221.627 39.6329 220.922 39.3307 220.351 39.0452C219.797 38.7597 219.436 38.5834 219.268 38.5162C218.731 39.1208 218.252 39.826 217.832 40.6321C217.412 41.4381 217.043 42.2357 216.724 43.025C216.422 43.8142 216.145 44.4859 215.893 45.04C216.413 45.1072 216.976 45.1576 217.58 45.1912C218.202 45.2079 218.781 45.2163 219.318 45.2163C219.587 45.2163 219.83 45.2163 220.049 45.2163C220.284 45.1995 220.485 45.1912 220.653 45.1912H220.804C221.14 45.1912 221.308 45.2499 221.308 45.3675C221.308 45.485 221.115 45.5942 220.729 45.6949C220.477 45.7621 220.049 45.8125 219.444 45.846C218.857 45.8796 218.244 45.8964 217.606 45.8964C217.219 45.8964 216.85 45.888 216.497 45.8712C216.145 45.8544 215.842 45.8293 215.59 45.7957C215.238 46.7528 214.835 47.7436 214.381 48.7679C213.928 49.7922 213.374 50.7914 212.719 51.7653C212.081 52.7225 211.308 53.5873 210.402 54.3597C209.512 55.1489 208.454 55.7702 207.228 56.2236C206.002 56.677 204.575 56.9037 202.946 56.9037Z" fill="white"></path>
  <path d="M226.692 53.6796C226.507 53.6964 226.297 53.6544 226.062 53.5537C225.827 53.4529 225.617 53.2682 225.432 52.9995C225.264 52.7309 225.181 52.353 225.181 51.8661C225.181 51.463 225.256 50.9761 225.407 50.4051C225.206 50.7242 224.945 51.1188 224.626 51.589C224.307 52.0424 223.963 52.4454 223.594 52.798C223.275 53.1003 222.972 53.3186 222.687 53.4529C222.401 53.5873 222.141 53.6544 221.906 53.6544C221.469 53.6544 221.117 53.4613 220.848 53.0751C220.579 52.6721 220.445 52.1515 220.445 51.5134C220.445 50.8417 220.613 50.0777 220.949 49.2213C221.285 48.3649 221.83 47.4749 222.586 46.5513C223.073 45.9636 223.661 45.4934 224.349 45.1408C225.055 44.7713 225.743 44.5866 226.415 44.5866C226.801 44.5866 227.17 44.6538 227.523 44.7881C227.876 44.9057 228.186 45.1072 228.455 45.3927C228.573 45.5102 228.631 45.6445 228.631 45.7957C228.631 45.8964 228.589 45.9804 228.505 46.0476C228.421 46.1147 228.312 46.1315 228.178 46.0979C227.993 45.5102 227.599 45.2163 226.994 45.2163C226.709 45.2163 226.381 45.3087 226.012 45.4934C225.441 45.7957 224.845 46.291 224.223 46.9795C223.619 47.668 223.09 48.3817 222.636 49.1205C222.569 49.2213 222.46 49.4144 222.309 49.6999C222.175 49.9853 222.04 50.3044 221.906 50.657C221.772 51.0097 221.679 51.3539 221.629 51.6897C221.612 51.7905 221.604 51.8661 221.604 51.9164C221.604 51.95 221.604 52.0088 221.604 52.0928C221.604 52.6469 221.814 52.924 222.233 52.924C222.737 52.924 223.308 52.5545 223.946 51.8157C224.383 51.2783 224.777 50.7158 225.13 50.1281C225.483 49.5403 225.844 48.9106 226.213 48.2389C226.465 47.7855 226.7 47.4077 226.919 47.1055C227.137 46.8032 227.447 46.6521 227.85 46.6521C228.035 46.6521 228.22 46.6773 228.405 46.7276C228.589 46.778 228.782 46.7864 228.984 46.7528C228.85 46.8872 228.665 47.139 228.43 47.5085C228.212 47.8779 227.976 48.2977 227.725 48.7679C227.473 49.2381 227.246 49.7167 227.044 50.2036C226.843 50.6906 226.7 51.1104 226.616 51.463C226.599 51.5638 226.574 51.7065 226.541 51.8912C226.524 52.076 226.515 52.2103 226.515 52.2943C226.515 52.7644 226.65 52.9995 226.919 52.9995C227.187 52.9995 227.473 52.84 227.775 52.521C228.094 52.2019 228.405 51.8073 228.707 51.3371C229.009 50.8669 229.286 50.3967 229.538 49.9266C229.79 49.4396 229.991 49.045 230.143 48.7427C230.21 48.5748 230.311 48.4908 230.445 48.4908C230.529 48.4908 230.571 48.5496 230.571 48.6671C230.571 48.7175 230.546 48.8099 230.495 48.9442C230.294 49.364 230.05 49.8426 229.765 50.3799C229.479 50.9005 229.169 51.4127 228.833 51.9164C228.497 52.4034 228.144 52.8148 227.775 53.1507C227.422 53.4697 227.061 53.646 226.692 53.6796Z" fill="white"></path>
  <path d="M227.739 53.73C228.36 52.5377 228.948 51.3455 229.502 50.1533C230.056 48.9442 230.619 47.8023 231.189 46.7276C231.525 46.1231 231.802 45.7033 232.021 45.4682C232.256 45.2163 232.566 45.0904 232.953 45.0904C233.087 45.0904 233.23 45.1156 233.381 45.166C233.532 45.1995 233.683 45.2163 233.834 45.2163C233.935 45.2163 234.011 45.2079 234.061 45.1912C233.826 45.3255 233.524 45.6613 233.154 46.1987C232.785 46.7192 232.407 47.3238 232.021 48.0122C231.634 48.7007 231.29 49.3472 230.988 49.9517C231.307 49.5655 231.634 49.1793 231.97 48.7931C232.323 48.4069 232.709 48.0374 233.129 47.6848C233.498 47.3657 233.885 47.0215 234.288 46.6521C234.707 46.2659 235.119 45.9384 235.522 45.6697C235.925 45.4011 236.278 45.2667 236.58 45.2667C236.697 45.2667 236.773 45.2751 236.806 45.2919C237.126 45.4262 237.285 45.6445 237.285 45.9468C237.285 46.0476 237.243 46.1987 237.159 46.4002C236.941 46.9711 236.655 47.5589 236.303 48.1634C235.967 48.7511 235.648 49.3472 235.346 49.9517C235.597 49.6495 235.908 49.2801 236.278 48.8435C236.664 48.4069 237.05 48.0206 237.436 47.6848C237.806 47.349 238.276 46.9963 238.847 46.6269C239.418 46.2575 239.98 45.9384 240.534 45.6697C241.089 45.4011 241.534 45.2667 241.869 45.2667C241.987 45.2667 242.071 45.2751 242.121 45.2919C242.121 45.2919 242.029 45.4598 241.844 45.7957C241.659 46.1147 241.424 46.5429 241.139 47.0803C240.87 47.6008 240.593 48.1634 240.308 48.7679C240.022 49.3556 239.762 49.9266 239.527 50.4807C239.309 51.018 239.166 51.4714 239.099 51.8409C239.048 52.0592 239.023 52.2607 239.023 52.4454C239.023 52.7141 239.073 52.8904 239.174 52.9743C239.275 53.0583 239.384 53.1003 239.502 53.1003C239.837 53.1003 240.182 52.924 240.534 52.5713C240.887 52.2187 241.223 51.7989 241.542 51.3119C241.878 50.8081 242.172 50.3212 242.423 49.851C242.675 49.364 242.86 48.9946 242.978 48.7427C243.078 48.558 243.179 48.4656 243.28 48.4656C243.381 48.4656 243.431 48.5328 243.431 48.6671C243.431 48.7511 243.406 48.8435 243.355 48.9442C243.154 49.3304 242.91 49.7922 242.625 50.3296C242.356 50.8669 242.046 51.3959 241.693 51.9164C241.34 52.4202 240.946 52.8484 240.509 53.201C240.089 53.5369 239.636 53.7048 239.149 53.7048C238.796 53.7048 238.435 53.5873 238.066 53.3522C237.713 53.1171 237.537 52.6805 237.537 52.0424C237.537 51.6897 237.613 51.2615 237.764 50.7578C237.881 50.4219 238.058 50.0357 238.293 49.5991C238.544 49.1625 238.847 48.6587 239.199 48.0878C239.367 47.8023 239.451 47.5756 239.451 47.4077C239.451 47.2062 239.351 47.1055 239.149 47.1055C238.981 47.1055 238.746 47.1894 238.444 47.3573C238.158 47.5253 237.797 47.8191 237.361 48.2389C237.092 48.4908 236.773 48.8435 236.403 49.2968C236.051 49.7334 235.69 50.212 235.32 50.7326C234.951 51.2531 234.632 51.7653 234.363 52.2691C234.095 52.7728 233.918 53.2178 233.834 53.604C233.582 53.604 233.381 53.5033 233.23 53.3018C233.079 53.0835 233.003 52.8316 233.003 52.5461C233.003 52.4958 233.003 52.4454 233.003 52.395C233.003 52.3446 233.011 52.2859 233.028 52.2187C233.112 51.6981 233.247 51.2112 233.431 50.7578C233.616 50.3044 233.826 49.8342 234.061 49.3472C234.246 48.9946 234.43 48.6168 234.615 48.2137C234.8 47.7939 234.892 47.4749 234.892 47.2566C234.892 47.1223 234.842 47.0551 234.741 47.0551C234.624 47.0551 234.43 47.1474 234.162 47.3322C233.893 47.5001 233.524 47.8023 233.053 48.2389C232.634 48.642 232.121 49.2213 231.517 49.9769C230.929 50.7326 230.283 51.8073 229.577 53.201C229.477 53.3858 229.359 53.5033 229.225 53.5537C229.09 53.5873 228.881 53.604 228.595 53.604C228.41 53.604 228.259 53.604 228.142 53.604C228.007 53.6208 227.873 53.6628 227.739 53.73Z" fill="white"></path>
  <path d="M245.743 43.3776C245.491 43.3776 245.281 43.2936 245.113 43.1257C244.962 42.941 244.887 42.7227 244.887 42.4708C244.887 42.1518 245.013 41.8747 245.264 41.6396C245.516 41.4045 245.793 41.287 246.096 41.287C246.364 41.287 246.583 41.3709 246.751 41.5388C246.919 41.7068 247.002 41.9083 247.002 42.1434C247.002 42.4624 246.877 42.7479 246.625 42.9998C246.373 43.2516 246.079 43.3776 245.743 43.3776ZM243.703 53.604C243.081 53.604 242.645 53.4277 242.393 53.0751C242.141 52.7057 242.015 52.2859 242.015 51.8157C242.015 51.5638 242.04 51.3119 242.091 51.06C242.158 50.7914 242.233 50.5479 242.317 50.3296L244.005 46.0224C244.055 45.888 244.081 45.7705 244.081 45.6697C244.081 45.5018 244.039 45.3591 243.955 45.2415C243.871 45.1072 243.812 45.0148 243.778 44.9645L245.164 44.9141C245.416 44.8973 245.592 44.9309 245.693 45.0148C245.81 45.082 245.869 45.166 245.869 45.2667C245.869 45.3675 245.81 45.5522 245.693 45.8209L243.602 50.7326C243.602 50.7326 243.552 50.8417 243.451 51.06C243.367 51.2615 243.317 51.3959 243.3 51.463C243.249 51.7149 243.216 51.8745 243.199 51.9416C243.182 52.0088 243.174 52.0508 243.174 52.0676C243.174 52.0844 243.174 52.1515 243.174 52.2691C243.174 52.4874 243.224 52.6721 243.325 52.8232C243.443 52.9743 243.636 53.0499 243.904 53.0499C244.072 53.0499 244.265 52.9995 244.484 52.8988C244.702 52.798 244.861 52.6973 244.962 52.5965C245.382 52.1599 245.793 51.589 246.196 50.8837C246.616 50.1616 247.002 49.448 247.355 48.7427C247.422 48.5748 247.506 48.4908 247.607 48.4908C247.691 48.4908 247.733 48.5496 247.733 48.6671C247.733 48.7343 247.708 48.8351 247.657 48.9694C247.489 49.322 247.28 49.7586 247.028 50.2792C246.776 50.7998 246.474 51.3203 246.121 51.8409C245.785 52.3446 245.416 52.7644 245.013 53.1003C244.61 53.4361 244.173 53.604 243.703 53.604Z" fill="white"></path>
  <path d="M248.609 53.6796C247.904 53.6796 247.425 53.4949 247.173 53.1255C246.921 52.7393 246.795 52.2859 246.795 51.7653C246.795 51.228 246.871 50.6738 247.022 50.1029C247.173 49.5319 247.308 49.0534 247.425 48.6671C247.694 47.7268 248.03 46.7276 248.433 45.6697C248.852 44.595 249.306 43.5455 249.793 42.5212C250.297 41.4801 250.792 40.5481 251.279 39.7253C251.665 39.0704 252.077 38.5834 252.513 38.2644C252.967 37.9285 253.361 37.7606 253.697 37.7606C253.966 37.7606 254.176 37.8613 254.327 38.0629C254.495 38.2476 254.579 38.533 254.579 38.9193C254.579 39.1879 254.528 39.507 254.428 39.8764C254.344 40.2458 254.192 40.6656 253.974 41.1358C253.386 42.4456 252.681 43.7554 251.858 45.0652C251.052 46.375 250.028 47.6008 248.785 48.7427C248.718 48.961 248.626 49.2213 248.508 49.5235C248.407 49.809 248.315 50.1029 248.231 50.4051C248.13 50.8585 248.08 51.2447 248.08 51.5638C248.08 52.0844 248.181 52.479 248.382 52.7476C248.601 52.9995 248.861 53.1255 249.163 53.1255C249.432 53.1255 249.717 53.0331 250.02 52.8484C250.322 52.6469 250.607 52.3614 250.876 51.992C251.279 51.4043 251.64 50.8081 251.959 50.2036C252.295 49.5823 252.547 49.1037 252.715 48.7679C252.815 48.5832 252.925 48.4908 253.042 48.4908C253.126 48.4908 253.168 48.5412 253.168 48.6419C253.168 48.7259 253.143 48.8183 253.093 48.919C252.941 49.2549 252.74 49.6915 252.488 50.2288C252.253 50.7494 251.951 51.2783 251.581 51.8157C251.229 52.3362 250.8 52.7812 250.297 53.1507C249.81 53.5033 249.247 53.6796 248.609 53.6796ZM248.987 47.9367C249.591 47.3154 250.179 46.6017 250.75 45.7957C251.321 44.9729 251.85 44.1248 252.337 43.2516C252.841 42.3617 253.26 41.522 253.596 40.7328C253.714 40.4809 253.806 40.2039 253.873 39.9016C253.957 39.5993 253.999 39.3475 253.999 39.146C253.999 38.9109 253.941 38.7933 253.823 38.7933C253.756 38.7933 253.655 38.8605 253.521 38.9948C253.386 39.1124 253.21 39.3223 252.992 39.6245C252.673 40.0443 252.32 40.6153 251.934 41.3373C251.564 42.0594 251.187 42.8318 250.8 43.6547C250.414 44.4775 250.062 45.2751 249.742 46.0476C249.423 46.8032 249.172 47.4329 248.987 47.9367Z" fill="white"></path>
  <path d="M249.312 61.6391C248.438 61.6391 247.817 61.4628 247.448 61.1102C247.078 60.7743 246.893 60.3713 246.893 59.9011C246.893 59.6492 246.927 59.4309 246.994 59.2462C247.061 59.0615 247.162 58.8264 247.296 58.541C247.532 58.054 247.859 57.6342 248.279 57.2815C248.699 56.9289 249.152 56.6434 249.639 56.4251C250.512 56.0221 251.503 55.6947 252.611 55.4428C253.736 55.1909 254.811 54.9138 255.835 54.6116C256.154 54.0574 256.448 53.4277 256.717 52.7225C256.986 52.0004 257.229 51.3035 257.447 50.6318C257.666 49.9433 257.842 49.3808 257.976 48.9442C257.775 49.3136 257.515 49.767 257.195 50.3044C256.893 50.8249 256.549 51.3371 256.163 51.8409C255.777 52.3446 255.357 52.7644 254.903 53.1003C254.467 53.4361 254.005 53.604 253.518 53.604C253.333 53.604 253.107 53.5621 252.838 53.4781C252.586 53.3942 252.359 53.243 252.158 53.0247C251.973 52.7896 251.881 52.4454 251.881 51.992C251.881 51.5554 251.981 51.1356 252.183 50.7326C252.401 50.3128 252.603 49.9098 252.788 49.5235C252.737 49.5235 252.678 49.5067 252.611 49.4732C252.561 49.4396 252.536 49.3892 252.536 49.322C252.536 49.2549 252.552 49.1877 252.586 49.1205C252.653 48.9862 252.729 48.8435 252.813 48.6923C252.897 48.5412 252.972 48.3817 253.039 48.2137C253.291 47.6932 253.543 47.1978 253.795 46.7276C254.047 46.2407 254.265 45.8125 254.45 45.443C254.635 45.0736 254.954 44.8889 255.407 44.8889H256.969C256.851 44.9896 256.7 45.1072 256.515 45.2415C256.347 45.3591 256.188 45.5438 256.037 45.7957C255.583 46.5681 255.189 47.3154 254.853 48.0374C254.517 48.7427 254.156 49.4984 253.77 50.3044C253.585 50.6906 253.451 51.0432 253.367 51.3623C253.283 51.6813 253.241 51.9584 253.241 52.1935C253.241 52.7476 253.426 53.0247 253.795 53.0247C254.198 53.0247 254.685 52.6973 255.256 52.0424C255.726 51.4882 256.196 50.8333 256.667 50.0777C257.153 49.3052 257.615 48.516 258.052 47.71C258.505 46.8872 258.9 46.1315 259.236 45.443C259.42 45.0736 259.748 44.8889 260.218 44.8889H261.603C261.116 45.2247 260.739 45.6613 260.47 46.1987C260.218 46.736 259.933 47.4245 259.614 48.2641C259.261 49.1877 258.925 50.1449 258.606 51.1356C258.304 52.1095 257.96 53.0919 257.573 54.0826C258.127 53.8979 258.749 53.6124 259.437 53.2262C260.142 52.84 260.739 52.2859 261.226 51.5638C261.612 50.9929 261.939 50.4471 262.208 49.9266C262.493 49.3892 262.695 49.003 262.812 48.7679C262.88 48.6 262.972 48.516 263.09 48.516C263.207 48.516 263.266 48.5916 263.266 48.7427C263.266 48.8267 263.241 48.919 263.19 49.0198C262.754 49.893 262.359 50.6318 262.006 51.2363C261.671 51.8241 261.293 52.3362 260.873 52.7728C260.47 53.1926 259.975 53.5621 259.387 53.8811C258.799 54.217 258.052 54.5528 257.145 54.8887C256.742 55.6107 256.28 56.358 255.76 57.1304C255.256 57.9197 254.677 58.6501 254.022 59.3218C253.384 60.0103 252.67 60.5644 251.881 60.9842C251.108 61.4208 250.252 61.6391 249.312 61.6391ZM248.707 61.1354C249.261 61.1354 249.832 60.9674 250.42 60.6316C251.008 60.2958 251.578 59.8675 252.133 59.347C252.687 58.8432 253.191 58.3227 253.644 57.7853C254.114 57.2648 254.492 56.803 254.777 56.4C254.861 56.2824 254.954 56.1313 255.054 55.9466C255.155 55.7618 255.256 55.5855 255.357 55.4176C254.534 55.6359 253.627 55.871 252.636 56.1229C251.662 56.3916 250.814 56.6854 250.092 57.0045C249.286 57.3403 248.657 57.8189 248.203 58.4402C247.733 59.0615 247.498 59.6157 247.498 60.1026C247.498 60.4049 247.599 60.6484 247.8 60.8331C247.985 61.0346 248.287 61.1354 248.707 61.1354Z" fill="white"></path>
</svg>
