<?xml version="1.0" encoding="UTF-8"?>
<svg xmlns="http://www.w3.org/2000/svg" width="187" height="64" viewBox="0 0 187 64" fill="none">
  <path d="M8.37268 23.5944C7.75137 23.5944 7.11326 23.5272 6.45837 23.3929C5.82026 23.2586 5.18216 23.057 4.54405 22.7884C3.50294 22.335 2.66333 21.7389 2.02522 21C1.38712 20.2779 0.925332 19.4551 0.639864 18.5315C0.354397 17.608 0.211663 16.6424 0.211663 15.6349C0.211663 14.577 0.337604 13.5191 0.589488 12.4612C0.858163 11.4032 1.22759 10.3957 1.69777 9.43856C2.16796 8.46461 2.69691 7.59981 3.28464 6.84416C3.16709 6.40756 3.06634 5.9038 2.98238 5.33286C2.91521 4.76193 2.88163 4.18259 2.88163 3.59487C2.88163 2.70488 2.98238 1.85687 3.18389 1.05084C3.25105 0.815753 3.3686 0.698208 3.53652 0.698208C3.65407 0.698208 3.71284 0.782169 3.71284 0.950091C3.71284 1.05085 3.70444 1.12641 3.68765 1.17679C3.65407 1.42867 3.62048 1.68895 3.5869 1.95762C3.57011 2.2263 3.56171 2.50337 3.56171 2.78884C3.56171 3.35978 3.59529 3.92231 3.66246 4.47646C3.72963 5.0306 3.8052 5.54276 3.88916 6.01295C5.11499 4.41768 6.51714 3.23383 8.09561 2.46139C9.69087 1.67216 11.3617 1.27754 13.1081 1.27754C13.5615 1.27754 13.9981 1.30273 14.4179 1.35311C15.7613 1.50424 16.8611 1.84008 17.7176 2.36064C18.574 2.8644 19.2037 3.48572 19.6067 4.22457C20.0265 4.96343 20.2364 5.74427 20.2364 6.56709C20.2364 7.37311 20.0517 8.17075 19.6822 8.95998C19.3128 9.74921 18.7755 10.4713 18.0702 11.1262C17.3649 11.7643 16.5001 12.2848 15.4758 12.6879C14.4683 13.0741 13.3264 13.2672 12.0502 13.2672C11.7647 13.2672 11.4792 13.2588 11.1938 13.242C10.9083 13.2252 10.5976 13.1916 10.2618 13.1412C8.93522 12.9397 7.72618 12.5115 6.63469 11.8566C5.54319 11.2017 4.6616 10.1942 3.98991 8.83404C3.85557 9.00196 3.67086 9.3462 3.43577 9.86676C3.20068 10.3705 2.96559 10.9834 2.7305 11.7055C2.4954 12.4276 2.2939 13.2168 2.12598 14.0732C1.95805 14.9128 1.87409 15.7608 1.87409 16.6172C1.87409 17.44 1.98324 18.2377 2.20154 19.0101C2.41984 19.7658 2.79766 20.4291 3.33502 21C3.87237 21.5877 4.60283 22.0243 5.5264 22.3098C5.97979 22.4441 6.44997 22.5449 6.93695 22.6121C7.42392 22.6792 7.91929 22.7128 8.42306 22.7128C9.39701 22.7128 10.3626 22.5869 11.3197 22.335C12.2769 22.0831 13.1669 21.7137 13.9897 21.2267C15.0812 20.5886 15.9208 19.8497 16.5085 19.0101C17.0962 18.1537 17.642 17.1966 18.1458 16.1387C18.2129 15.9707 18.3053 15.8868 18.4228 15.8868C18.5068 15.8868 18.5488 15.9455 18.5488 16.0631C18.5488 16.147 18.5152 16.2478 18.448 16.3653C18.0954 17.1042 17.7427 17.7843 17.3901 18.4056C17.0375 19.0101 16.6261 19.5727 16.1559 20.0932C15.6857 20.6138 15.0896 21.1259 14.3675 21.6297C13.5447 22.2006 12.6211 22.6708 11.5968 23.0403C10.5725 23.4097 9.49776 23.5944 8.37268 23.5944ZM11.899 12.6123C13.0577 12.6123 14.082 12.4444 14.972 12.1085C15.862 11.7559 16.6093 11.3025 17.2138 10.7484C17.8351 10.1774 18.2969 9.54771 18.5991 8.85923C18.9182 8.17075 19.0777 7.47387 19.0777 6.7686C19.0777 6.08011 18.9182 5.42522 18.5991 4.80391C18.2801 4.18259 17.7931 3.65364 17.1382 3.21704C16.5001 2.76365 15.6773 2.46979 14.6698 2.33545C14.3003 2.28507 13.9309 2.25989 13.5615 2.25989C12.4196 2.25989 11.2945 2.50337 10.1862 2.99035C9.09475 3.46053 8.06202 4.13222 7.08808 5.00541C6.11413 5.86181 5.24933 6.86935 4.49368 8.02801C5.08141 9.48893 5.90422 10.5636 6.96213 11.2521C8.03684 11.9406 9.26267 12.3688 10.6396 12.5367C11.0762 12.5871 11.496 12.6123 11.899 12.6123ZM23.5327 21.0756C23.348 21.0924 23.1381 21.0504 22.903 20.9496C22.6679 20.8489 22.458 20.6642 22.2733 20.3955C22.1054 20.1268 22.0214 19.749 22.0214 19.262C22.0214 18.859 22.097 18.372 22.2481 17.8011C22.0466 18.1201 21.7863 18.5148 21.4673 18.9849C21.1482 19.4383 20.804 19.8413 20.4345 20.194C20.1155 20.4962 19.8132 20.7145 19.5278 20.8489C19.2423 20.9832 18.982 21.0504 18.7469 21.0504C18.3103 21.0504 17.9577 20.8573 17.689 20.471C17.4203 20.068 17.286 19.5475 17.286 18.9094C17.286 18.2377 17.4539 17.4736 17.7898 16.6172C18.1256 15.7608 18.6714 14.8708 19.427 13.9473C19.914 13.3595 20.5017 12.8894 21.1902 12.5367C21.8955 12.1673 22.5839 11.9826 23.2556 11.9826C23.6419 11.9826 24.0113 12.0497 24.3639 12.1841C24.7166 12.3016 25.0272 12.5031 25.2959 12.7886C25.4134 12.9062 25.4722 13.0405 25.4722 13.1916C25.4722 13.2924 25.4302 13.3763 25.3463 13.4435C25.2623 13.5107 25.1532 13.5275 25.0188 13.4939C24.8341 12.9062 24.4395 12.6123 23.835 12.6123C23.5495 12.6123 23.2221 12.7046 22.8526 12.8894C22.2817 13.1916 21.6856 13.687 21.0643 14.3755C20.4597 15.064 19.9308 15.7776 19.4774 16.5165C19.4102 16.6172 19.3011 16.8103 19.1499 17.0958C19.0156 17.3813 18.8813 17.7003 18.7469 18.053C18.6126 18.4056 18.5202 18.7498 18.4699 19.0857C18.4531 19.1864 18.4447 19.262 18.4447 19.3124C18.4447 19.346 18.4447 19.4047 18.4447 19.4887C18.4447 20.0428 18.6546 20.3199 19.0744 20.3199C19.5781 20.3199 20.1491 19.9505 20.7872 19.2116C21.2238 18.6743 21.6184 18.1117 21.971 17.524C22.3237 16.9363 22.6847 16.3066 23.0541 15.6349C23.306 15.1815 23.5411 14.8037 23.7594 14.5014C23.9777 14.1992 24.2884 14.048 24.6914 14.048C24.8761 14.048 25.0608 14.0732 25.2455 14.1236C25.4302 14.174 25.6233 14.1824 25.8248 14.1488C25.6905 14.2831 25.5058 14.535 25.2707 14.9044C25.0524 15.2739 24.8173 15.6937 24.5654 16.1638C24.3135 16.634 24.0869 17.1126 23.8853 17.5996C23.6838 18.0866 23.5411 18.5064 23.4571 18.859C23.4404 18.9597 23.4152 19.1025 23.3816 19.2872C23.3648 19.4719 23.3564 19.6062 23.3564 19.6902C23.3564 20.1604 23.4907 20.3955 23.7594 20.3955C24.0281 20.3955 24.3135 20.236 24.6158 19.9169C24.9349 19.5978 25.2455 19.2032 25.5478 18.7331C25.85 18.2629 26.1271 17.7927 26.379 17.3225C26.6309 16.8355 26.8324 16.4409 26.9835 16.1387C27.0507 15.9707 27.1514 15.8868 27.2858 15.8868C27.3697 15.8868 27.4117 15.9455 27.4117 16.0631C27.4117 16.1135 27.3865 16.2058 27.3361 16.3402C27.1346 16.76 26.8912 17.2385 26.6057 17.7759C26.3202 18.2965 26.0096 18.8086 25.6737 19.3124C25.3379 19.7994 24.9852 20.2108 24.6158 20.5466C24.2632 20.8657 23.9021 21.042 23.5327 21.0756ZM28.1815 21C27.7113 21 27.2915 20.8405 26.9221 20.5214C26.5527 20.1856 26.368 19.665 26.368 18.9597C26.368 18.4056 26.4687 17.7255 26.6702 16.9195C26.8885 16.0967 27.1488 15.2487 27.4511 14.3755C27.7701 13.4855 28.0808 12.6795 28.383 11.9574H27.0481C26.9305 11.9574 26.8717 11.8734 26.8717 11.7055C26.8717 11.6215 26.8885 11.546 26.9221 11.4788C26.9725 11.4116 27.0397 11.3781 27.1236 11.3781H28.6349C28.9204 10.74 29.2226 10.1186 29.5417 9.51412C29.8607 8.9096 30.1714 8.33867 30.4737 7.80132C30.8599 7.12963 31.2713 6.62586 31.7079 6.29002C32.1445 5.95417 32.5223 5.78625 32.8414 5.78625C33.0932 5.78625 33.3032 5.887 33.4711 6.08851C33.639 6.27322 33.723 6.55869 33.723 6.94491C33.723 7.18 33.6726 7.50745 33.5718 7.92726C33.4711 8.33027 33.3115 8.75847 33.0932 9.21186C32.9757 9.44695 32.8078 9.7828 32.5895 10.2194C32.388 10.656 32.1865 11.0422 31.985 11.3781H33.194C33.3115 11.3781 33.3703 11.462 33.3703 11.6299C33.3703 11.6971 33.3535 11.7727 33.3199 11.8566C33.2864 11.9238 33.236 11.9574 33.1688 11.9574H31.6827C31.2629 12.6795 30.7843 13.3847 30.247 14.0732C29.7096 14.7617 29.0715 15.4502 28.3327 16.1387C28.2823 16.2898 28.2151 16.5081 28.1311 16.7935C28.064 17.079 27.9968 17.3729 27.9296 17.6751C27.8793 17.9606 27.8289 18.2041 27.7785 18.4056C27.7449 18.6071 27.7281 18.7079 27.7281 18.7079C27.6778 18.9262 27.6526 19.1277 27.6526 19.3124C27.6526 19.665 27.7365 19.9253 27.9045 20.0932C28.0724 20.2444 28.2655 20.3199 28.4838 20.3199C28.6181 20.3199 28.7525 20.3031 28.8868 20.2695C29.0211 20.2192 29.1723 20.1352 29.3402 20.0177C29.9279 19.5978 30.4401 19.0269 30.8767 18.3048C31.3301 17.5828 31.7247 16.8859 32.0605 16.2142C32.1613 16.0127 32.262 15.912 32.3628 15.912C32.43 15.912 32.4635 15.9623 32.4635 16.0631C32.4635 16.1135 32.4384 16.2058 32.388 16.3402C32.0185 17.1126 31.7079 17.7339 31.456 18.2041C31.2041 18.6743 30.9606 19.0689 30.7255 19.3879C30.4905 19.6902 30.2134 19.9925 29.8943 20.2947C29.6592 20.5298 29.3906 20.7061 29.0883 20.8237C28.786 20.9412 28.4838 21 28.1815 21ZM30.1714 11.3781H31.456C31.6911 10.9415 31.9094 10.5133 32.1109 10.0935C32.3292 9.67365 32.5223 9.25384 32.6902 8.83404C32.8078 8.56536 32.9085 8.2631 32.9925 7.92726C33.0765 7.59141 33.1184 7.33113 33.1184 7.14642C33.1184 6.89454 33.0597 6.7686 32.9421 6.7686C32.8582 6.7686 32.7322 6.84416 32.5643 6.99529C32.4132 7.12963 32.2201 7.36472 31.985 7.70056C31.6827 8.12037 31.3804 8.66612 31.0782 9.3378C30.7927 9.9927 30.4905 10.6728 30.1714 11.3781ZM28.5342 15.3326C29.0211 14.8289 29.4745 14.2915 29.8943 13.7206C30.3309 13.1496 30.7339 12.5619 31.1034 11.9574H29.9195C29.6508 12.5787 29.399 13.1832 29.1639 13.771C28.9288 14.3587 28.7189 14.8792 28.5342 15.3326ZM29.5964 21.2015C30.3017 19.7574 31.0321 18.2461 31.7878 16.6676C32.5602 15.0723 33.3495 13.4687 34.1555 11.8566C34.9615 10.2446 35.7591 8.7081 36.5484 7.24717C36.8338 6.74341 37.0941 6.34879 37.3292 6.06332C37.5811 5.77785 37.9086 5.63512 38.3116 5.63512C38.4627 5.63512 38.639 5.66031 38.8405 5.71068C39.042 5.76106 39.2351 5.76946 39.4198 5.73587C39.2016 5.97097 38.8993 6.38237 38.5131 6.9701C38.1436 7.55783 37.7238 8.2631 37.2537 9.08592C36.8003 9.90874 36.3133 10.7987 35.7927 11.7559C35.289 12.6962 34.7852 13.6534 34.2814 14.6274C33.7945 15.5845 33.3411 16.4829 32.9213 17.3225C33.2571 16.8859 33.6013 16.4745 33.954 16.0883C34.3066 15.7021 34.6509 15.3662 34.9867 15.0807C35.3561 14.7449 35.8179 14.3923 36.3721 14.0228C36.943 13.6534 37.5055 13.3344 38.0597 13.0657C38.6306 12.797 39.084 12.6627 39.4198 12.6627C39.5374 12.6627 39.6214 12.6711 39.6717 12.6879C39.6717 12.6879 39.5794 12.8558 39.3947 13.1916C39.2099 13.5275 38.9749 13.9557 38.6894 14.4762C38.4207 14.9968 38.1352 15.5593 37.833 16.1638C37.5475 16.7684 37.2956 17.3477 37.0773 17.9018C36.859 18.4392 36.7163 18.8842 36.6491 19.2368C36.5988 19.5055 36.5736 19.7322 36.5736 19.9169C36.5736 20.1856 36.6239 20.3703 36.7247 20.471C36.8255 20.555 36.9346 20.597 37.0521 20.597C37.3376 20.597 37.6483 20.4207 37.9841 20.068C38.32 19.7154 38.6474 19.2872 38.9665 18.7834C39.2855 18.2629 39.571 17.7591 39.8229 17.2721C40.0915 16.7852 40.293 16.4073 40.4274 16.1387C40.5281 15.9539 40.6289 15.8616 40.7296 15.8616C40.8304 15.8616 40.8808 15.9288 40.8808 16.0631C40.8808 16.1303 40.8556 16.231 40.8052 16.3653C40.5869 16.8019 40.335 17.2973 40.0496 17.8515C39.7809 18.3888 39.4702 18.9094 39.1176 19.4131C38.7817 19.9001 38.4039 20.3031 37.9841 20.6222C37.5811 20.9412 37.1445 21.1008 36.6743 21.1008C36.3385 21.1008 35.9942 20.9832 35.6416 20.7481C35.289 20.513 35.1126 20.0848 35.1126 19.4635C35.1126 19.2788 35.1294 19.0857 35.163 18.8842C35.1966 18.6659 35.2554 18.4224 35.3393 18.1537C35.4401 17.8179 35.608 17.4484 35.8431 17.0454C36.0782 16.6256 36.3805 16.1051 36.7499 15.4838C36.9178 15.1983 37.0018 14.9716 37.0018 14.8037C37.0018 14.6022 36.901 14.5014 36.6995 14.5014C36.5316 14.5014 36.3049 14.5854 36.0194 14.7533C35.734 14.9212 35.3729 15.2151 34.9363 15.6349C34.5165 16.0379 33.996 16.6256 33.3747 17.3981C32.7533 18.1705 32.09 19.2536 31.3848 20.6474C31.2672 20.8657 31.1329 20.9832 30.9818 21C30.8474 21 30.6627 21.0084 30.4276 21.0252C30.2765 21.042 30.1254 21.0504 29.9742 21.0504C29.8231 21.0672 29.6972 21.1175 29.5964 21.2015ZM42.2154 21.1008C41.594 21.1008 41.0315 20.8992 40.5277 20.4962C40.0408 20.0932 39.7973 19.4803 39.7973 18.6575C39.7973 17.9018 39.982 17.0958 40.3514 16.2394C40.7209 15.3662 41.191 14.6022 41.762 13.9473C42.2489 13.3763 42.7947 12.9062 43.3992 12.5367C44.0037 12.1673 44.5747 11.9826 45.112 11.9826C45.4814 11.9826 45.8005 12.0833 46.0692 12.2848C46.3546 12.5031 46.4974 12.8138 46.4974 13.2168C46.4974 13.6366 46.3378 14.0984 46.0188 14.6022C45.6997 15.1059 45.2464 15.5761 44.6586 16.0127C44.4067 16.1974 44.0877 16.3737 43.7015 16.5417C43.3152 16.7096 42.929 16.8523 42.5428 16.9699C42.1566 17.0706 41.8375 17.121 41.5857 17.121C41.5017 17.3225 41.4177 17.5912 41.3338 17.927C41.2666 18.2629 41.233 18.6071 41.233 18.9597C41.233 19.3796 41.317 19.7574 41.4849 20.0932C41.6528 20.4291 41.9635 20.597 42.4169 20.597C42.971 20.597 43.4748 20.4375 43.9282 20.1184C44.3816 19.7994 44.7846 19.4047 45.1372 18.9346C45.4898 18.4476 45.7837 17.9606 46.0188 17.4736C46.2707 16.9867 46.4722 16.5753 46.6233 16.2394C46.7241 16.0043 46.8584 15.8868 47.0263 15.8868C47.1103 15.8868 47.1523 15.9288 47.1523 16.0127C47.1523 16.0799 47.1271 16.1638 47.0767 16.2646C46.8416 16.7684 46.5897 17.3057 46.3211 17.8766C46.0524 18.4308 45.7333 18.9597 45.3639 19.4635C44.9945 19.9505 44.5495 20.3451 44.0289 20.6474C43.5252 20.9496 42.9206 21.1008 42.2154 21.1008ZM41.762 16.6676C41.9971 16.6676 42.3917 16.5836 42.9458 16.4157C43.5 16.231 44.0037 15.9455 44.4571 15.5593C44.8937 15.1731 45.2296 14.7533 45.4647 14.2999C45.6997 13.8297 45.8173 13.4351 45.8173 13.1161C45.8173 12.7466 45.683 12.5619 45.4143 12.5619C45.2128 12.5619 44.9357 12.6962 44.5831 12.9649C44.2304 13.2336 43.7938 13.687 43.2733 14.3251C42.9542 14.7281 42.652 15.1647 42.3665 15.6349C42.081 16.1051 41.8795 16.4493 41.762 16.6676ZM49.6723 21.0252C49.3532 21.0252 49.0342 20.8992 48.7151 20.6474C48.3961 20.3787 48.2366 19.9505 48.2366 19.3628C48.2366 18.9094 48.3457 18.3888 48.564 17.8011C48.7655 17.2301 49.0342 16.676 49.37 16.1387C49.7227 15.6013 49.9745 15.1647 50.1257 14.8289C50.1761 14.6945 50.2012 14.577 50.2012 14.4762C50.2012 14.174 50.0081 13.9557 49.6219 13.8213C49.2525 13.687 48.7655 13.6114 48.161 13.5946L47.8587 14.4258C47.674 14.9632 47.4137 15.5929 47.0779 16.315C46.7588 17.037 46.3978 17.7339 45.9948 18.4056C45.6086 19.0773 45.2056 19.6146 44.7857 20.0177C44.7522 20.0512 44.7102 20.068 44.6598 20.068C44.5926 20.068 44.5507 20.0261 44.5339 19.9421C44.5003 19.8581 44.5339 19.7574 44.6346 19.6398C45.2895 18.7666 45.8772 17.8011 46.3978 16.7432C46.9184 15.6685 47.355 14.577 47.7076 13.4687C48.077 12.3604 48.3457 11.3361 48.5136 10.3957C48.564 10.127 48.6564 9.93393 48.7907 9.81638C48.925 9.68204 49.0678 9.61488 49.2189 9.61488C49.4372 9.61488 49.6387 9.72403 49.8234 9.94232C50.0081 10.1438 50.1005 10.4377 50.1005 10.8239C50.1005 10.8911 50.0921 10.9667 50.0753 11.0506C50.0753 11.1346 50.0669 11.2185 50.0501 11.3025C49.9829 11.6551 49.7814 11.991 49.4456 12.31C49.1265 12.6123 48.8663 12.839 48.6648 12.9901C48.8327 13.0069 49.009 13.0237 49.1937 13.0405C49.3784 13.0405 49.5799 13.0405 49.7982 13.0405C50.5875 13.0405 51.3683 12.9901 52.1407 12.8894C52.1743 12.9901 52.1911 13.0657 52.1911 13.1161C52.1911 13.3344 52.1239 13.6114 51.9896 13.9473C51.8721 14.2831 51.7461 14.5854 51.6118 14.854C51.5446 15.0052 51.4103 15.2822 51.2088 15.6853C51.0073 16.0715 50.789 16.5165 50.5539 17.0202C50.3188 17.5072 50.1173 17.9942 49.9494 18.4812C49.7982 18.9513 49.7227 19.3544 49.7227 19.6902C49.7227 20.1268 49.8906 20.3451 50.2264 20.3451C50.4783 20.3451 50.7554 20.1856 51.0576 19.8665C51.3599 19.5307 51.6538 19.1277 51.9392 18.6575C52.2415 18.1705 52.5102 17.7003 52.7453 17.2469C52.9971 16.7768 53.1903 16.4073 53.3246 16.1387C53.3918 15.9707 53.4841 15.8868 53.6017 15.8868C53.6688 15.8868 53.7024 15.9455 53.7024 16.0631C53.7024 16.1303 53.6772 16.231 53.6269 16.3653C53.4421 16.7516 53.2238 17.1882 52.972 17.6751C52.7201 18.1621 52.4346 18.6407 52.1156 19.1109C51.8133 19.5811 51.4774 19.9925 51.108 20.3451C50.7554 20.6809 50.3692 20.8992 49.9494 21C49.899 21.0168 49.8066 21.0252 49.6723 21.0252ZM56.0636 10.7735C55.8117 10.7735 55.6018 10.6896 55.4339 10.5217C55.2828 10.3369 55.2072 10.1186 55.2072 9.86676C55.2072 9.54771 55.3332 9.27064 55.585 9.03554C55.8369 8.80045 56.114 8.68291 56.4163 8.68291C56.6849 8.68291 56.9032 8.76687 57.0712 8.93479C57.2391 9.10271 57.323 9.30422 57.323 9.53931C57.323 9.85836 57.1971 10.1438 56.9452 10.3957C56.6933 10.6476 56.3995 10.7735 56.0636 10.7735ZM54.0234 21C53.4021 21 52.9655 20.8237 52.7136 20.471C52.4617 20.1016 52.3358 19.6818 52.3358 19.2116C52.3358 18.9597 52.3609 18.7079 52.4113 18.456C52.4785 18.1873 52.5541 17.9438 52.638 17.7255L54.3256 13.4183C54.376 13.284 54.4012 13.1664 54.4012 13.0657C54.4012 12.8978 54.3592 12.755 54.2753 12.6375C54.1913 12.5031 54.1325 12.4108 54.0989 12.3604L55.4843 12.31C55.7362 12.2932 55.9125 12.3268 56.0132 12.4108C56.1308 12.4779 56.1896 12.5619 56.1896 12.6627C56.1896 12.7634 56.1308 12.9481 56.0132 13.2168L53.9226 18.1285C53.9226 18.1285 53.8722 18.2377 53.7715 18.456C53.6875 18.6575 53.6371 18.7918 53.6204 18.859C53.57 19.1109 53.5364 19.2704 53.5196 19.3376C53.5028 19.4047 53.4944 19.4467 53.4944 19.4635C53.4944 19.4803 53.4944 19.5475 53.4944 19.665C53.4944 19.8833 53.5448 20.068 53.6455 20.2192C53.7631 20.3703 53.9562 20.4459 54.2249 20.4459C54.3928 20.4459 54.5859 20.3955 54.8042 20.2947C55.0225 20.194 55.182 20.0932 55.2828 19.9925C55.7026 19.5559 56.114 18.9849 56.517 18.2797C56.9368 17.5576 57.323 16.8439 57.6757 16.1387C57.7428 15.9707 57.8268 15.8868 57.9276 15.8868C58.0115 15.8868 58.0535 15.9455 58.0535 16.0631C58.0535 16.1303 58.0283 16.231 57.9779 16.3653C57.81 16.718 57.6001 17.1546 57.3482 17.6751C57.0963 18.1957 56.7941 18.7163 56.4414 19.2368C56.1056 19.7406 55.7362 20.1604 55.3332 20.4962C54.9301 20.8321 54.4936 21 54.0234 21ZM55.2773 21.2015C55.8818 19.9757 56.4611 18.7666 57.0153 17.5744C57.5862 16.3653 58.1655 15.2151 58.7533 14.1236C59.0891 13.5191 59.3662 13.0993 59.5845 12.8642C59.8196 12.6123 60.1302 12.4863 60.5164 12.4863C60.6508 12.4863 60.7935 12.5115 60.9446 12.5619C61.0958 12.5955 61.2469 12.6123 61.398 12.6123C61.4988 12.6123 61.5744 12.6039 61.6247 12.5871C61.3896 12.7214 61.0874 13.0573 60.718 13.5946C60.3485 14.1152 59.9707 14.7197 59.5845 15.4082C59.1983 16.0967 58.854 16.7432 58.5518 17.3477C58.8708 16.9615 59.1983 16.5753 59.5341 16.189C59.8867 15.8028 60.273 15.4334 60.6928 15.0807C61.0958 14.7281 61.5744 14.3671 62.1285 13.9976C62.6994 13.6114 63.2536 13.2924 63.7909 13.0405C64.3283 12.7886 64.7565 12.6627 65.0755 12.6627C65.1931 12.6627 65.277 12.6711 65.3274 12.6879C65.3274 12.6879 65.2351 12.8558 65.0503 13.1916C64.8656 13.5107 64.6305 13.9389 64.3451 14.4762C64.0764 14.9968 63.7993 15.5593 63.5139 16.1638C63.2284 16.7516 62.9681 17.3225 62.733 17.8766C62.5147 18.414 62.372 18.8674 62.3048 19.2368C62.2544 19.4551 62.2293 19.6566 62.2293 19.8413C62.2293 20.11 62.2796 20.2863 62.3804 20.3703C62.4811 20.4543 62.5903 20.4962 62.7078 20.4962C63.0269 20.4962 63.3627 20.3283 63.7154 19.9925C64.068 19.6398 64.4038 19.2116 64.7229 18.7079C65.0587 18.2041 65.3526 17.7171 65.6045 17.2469C65.8732 16.76 66.0663 16.3905 66.1838 16.1387C66.251 16.0043 66.3014 15.9288 66.335 15.912C66.3685 15.8784 66.4189 15.8616 66.4861 15.8616C66.5868 15.8616 66.6372 15.9288 66.6372 16.0631C66.6372 16.147 66.612 16.2394 66.5616 16.3402C66.3601 16.7264 66.1167 17.1882 65.8312 17.7255C65.5625 18.2629 65.2519 18.7918 64.8992 19.3124C64.5466 19.8161 64.1604 20.2444 63.7406 20.597C63.3207 20.9328 62.8674 21.1008 62.3804 21.1008C62.0445 21.1008 61.6919 20.9832 61.3225 20.7481C60.9698 20.513 60.7935 20.0764 60.7935 19.4383C60.7935 19.2536 60.8103 19.0605 60.8439 18.859C60.8775 18.6407 60.9363 18.4056 61.0202 18.1537C61.1546 17.8179 61.3141 17.4568 61.4988 17.0706C61.6835 16.6844 61.9858 16.1554 62.4056 15.4838C62.5231 15.299 62.5903 15.1563 62.6071 15.0556C62.6407 14.9548 62.6575 14.8708 62.6575 14.8037C62.6575 14.6022 62.5651 14.5014 62.3804 14.5014C62.2293 14.5014 62.0026 14.5854 61.7003 14.7533C61.4148 14.9212 61.0538 15.2151 60.6172 15.6349C60.1974 16.0379 59.6936 16.6088 59.1059 17.3477C58.535 18.0866 57.8717 19.178 57.116 20.6222C56.9985 20.8405 56.8641 20.958 56.713 20.9748C56.5787 20.9916 56.3856 21.0084 56.1337 21.0252C55.9658 21.042 55.8062 21.0504 55.6551 21.0504C55.504 21.0672 55.378 21.1175 55.2773 21.2015ZM67.9202 21.1008C67.2989 21.1008 66.7364 20.8992 66.2326 20.4962C65.7457 20.0932 65.5022 19.4803 65.5022 18.6575C65.5022 17.9018 65.6869 17.0958 66.0563 16.2394C66.4257 15.3662 66.8959 14.6022 67.4669 13.9473C67.9538 13.3763 68.4996 12.9062 69.1041 12.5367C69.7086 12.1673 70.2796 11.9826 70.8169 11.9826C71.1863 11.9826 71.5054 12.0833 71.7741 12.2848C72.0595 12.5031 72.2023 12.8138 72.2023 13.2168C72.2023 13.6366 72.0427 14.0984 71.7237 14.6022C71.4046 15.1059 70.9512 15.5761 70.3635 16.0127C70.1116 16.1974 69.7926 16.3737 69.4064 16.5417C69.0201 16.7096 68.6339 16.8523 68.2477 16.9699C67.8615 17.0706 67.5424 17.121 67.2905 17.121C67.2066 17.3225 67.1226 17.5912 67.0387 17.927C66.9715 18.2629 66.9379 18.6071 66.9379 18.9597C66.9379 19.3796 67.0219 19.7574 67.1898 20.0932C67.3577 20.4291 67.6684 20.597 68.1218 20.597C68.6759 20.597 69.1797 20.4375 69.6331 20.1184C70.0864 19.7994 70.4895 19.4047 70.8421 18.9346C71.1947 18.4476 71.4886 17.9606 71.7237 17.4736C71.9756 16.9867 72.1771 16.5753 72.3282 16.2394C72.429 16.0043 72.5633 15.8868 72.7312 15.8868C72.8152 15.8868 72.8572 15.9288 72.8572 16.0127C72.8572 16.0799 72.832 16.1638 72.7816 16.2646C72.5465 16.7684 72.2946 17.3057 72.0259 17.8766C71.7573 18.4308 71.4382 18.9597 71.0688 19.4635C70.6994 19.9505 70.2544 20.3451 69.7338 20.6474C69.23 20.9496 68.6255 21.1008 67.9202 21.1008ZM67.4669 16.6676C67.7019 16.6676 68.0966 16.5836 68.6507 16.4157C69.2049 16.231 69.7086 15.9455 70.162 15.5593C70.5986 15.1731 70.9344 14.7533 71.1695 14.2999C71.4046 13.8297 71.5222 13.4351 71.5222 13.1161C71.5222 12.7466 71.3878 12.5619 71.1192 12.5619C70.9177 12.5619 70.6406 12.6962 70.2879 12.9649C69.9353 13.2336 69.4987 13.687 68.9782 14.3251C68.6591 14.7281 68.3568 15.1647 68.0714 15.6349C67.7859 16.1051 67.5844 16.4493 67.4669 16.6676ZM86.6556 23.3173C85.01 23.3173 83.4987 23.0738 82.1217 22.5869C80.7616 22.0999 79.6617 21.3862 78.8221 20.4459C77.9825 19.4887 77.5207 18.3132 77.4367 16.9195C77.4031 16.3486 77.4955 15.7188 77.7138 15.0304C77.9321 14.3419 78.2343 13.6618 78.6206 12.9901C79.0236 12.3016 79.4938 11.6887 80.0311 11.1514C80.5853 10.5972 81.173 10.1774 81.7943 9.89195C81.8447 9.85836 81.9202 9.83317 82.021 9.81638C82.1385 9.79959 82.2225 9.79119 82.2729 9.79119C82.3736 9.79119 82.424 9.81638 82.424 9.86676C82.424 9.95072 82.2981 10.0851 82.0462 10.2698C81.3409 10.8239 80.7616 11.462 80.3082 12.1841C79.838 12.9062 79.4854 13.6786 79.2503 14.5014C79.0152 15.3242 78.8976 16.1554 78.8976 16.9951C78.8976 17.9858 79.1075 18.8422 79.5273 19.5643C79.9639 20.2695 80.5433 20.8489 81.2653 21.3023C81.9874 21.7724 82.8102 22.1167 83.7338 22.335C84.6574 22.5533 85.6229 22.6624 86.6305 22.6624C87.7555 22.6624 88.8638 22.5365 89.9553 22.2846C91.0636 22.0327 92.0711 21.6717 92.9779 21.2015C94.3717 20.4626 95.4716 19.5475 96.2776 18.456C97.1004 17.3645 97.5118 16.2814 97.5118 15.2067C97.5118 14.6357 97.3859 14.09 97.134 13.5694C96.8989 13.0489 96.5127 12.5787 95.9753 12.1589C95.5723 11.8398 95.0769 11.5376 94.4892 11.2521C93.9183 10.9666 93.3054 10.6896 92.6505 10.4209C92.0124 10.1522 91.3826 9.88355 90.7613 9.61488C90.14 9.32941 89.5943 9.02715 89.1241 8.7081C88.4524 8.25471 87.957 7.76773 87.638 7.24717C87.3357 6.72661 87.1846 6.20606 87.1846 5.6855C87.1846 5.06418 87.3609 4.45967 87.7135 3.87194C88.083 3.28421 88.5783 2.75526 89.1997 2.28507C89.8378 1.7981 90.5514 1.42027 91.3407 1.1516C92.0291 0.916507 92.7764 0.731792 93.5824 0.597454C94.4052 0.463117 95.2113 0.395949 96.0005 0.395949C96.6554 0.395949 97.2767 0.446325 97.8644 0.547078C98.469 0.631039 98.9979 0.790565 99.4513 1.02566C100.022 1.29433 100.459 1.65537 100.761 2.10875C101.063 2.54535 101.214 3.00714 101.214 3.49411C101.214 4.1658 100.912 4.75353 100.308 5.2573C100.089 5.42522 99.8459 5.58474 99.5773 5.73587C99.3086 5.87021 98.9895 5.98776 98.6201 6.08851C98.5529 6.1053 98.4774 6.1137 98.3934 6.1137C98.1919 6.1137 98.0911 6.05493 98.0911 5.93738C98.0911 5.87021 98.1415 5.80304 98.2423 5.73587C98.3598 5.65191 98.5277 5.60154 98.746 5.58474C99.2498 5.51757 99.6276 5.32446 99.8795 5.00541C100.148 4.68636 100.283 4.31693 100.283 3.89713C100.283 3.46053 100.131 3.03233 99.8291 2.61252C99.5437 2.17592 99.0987 1.81489 98.4942 1.52942C97.8896 1.22716 97.1172 1.07603 96.1768 1.07603C95.6395 1.07603 95.0434 1.13481 94.3885 1.25235C93.7504 1.3699 93.0535 1.56301 92.2978 1.83168C91.3743 2.15074 90.6018 2.62092 89.9805 3.24223C89.376 3.86354 89.0737 4.52683 89.0737 5.23211C89.0737 5.6687 89.2165 6.1137 89.5019 6.56709C89.8042 7.00369 90.2828 7.42349 90.9377 7.82651C91.4918 8.16235 92.1215 8.49819 92.8268 8.83404C93.5321 9.15309 94.2457 9.48054 94.9678 9.81638C95.6899 10.1354 96.3447 10.4797 96.9325 10.8491C97.856 11.42 98.5193 12.033 98.9224 12.6879C99.3254 13.3427 99.5269 14.0144 99.5269 14.7029C99.5269 15.5089 99.2834 16.3234 98.7964 17.1462C98.3262 17.9522 97.7049 18.7163 96.9325 19.4383C96.16 20.1436 95.312 20.7733 94.3885 21.3274C93.3138 21.9656 92.0963 22.4525 90.7361 22.7884C89.3928 23.141 88.0326 23.3173 86.6556 23.3173ZM107.19 21.0756C107.006 21.0924 106.796 21.0504 106.561 20.9496C106.326 20.8489 106.116 20.6642 105.931 20.3955C105.763 20.1268 105.679 19.749 105.679 19.262C105.679 18.859 105.755 18.372 105.906 17.8011C105.704 18.1201 105.444 18.5148 105.125 18.9849C104.806 19.4383 104.462 19.8413 104.092 20.194C103.773 20.4962 103.471 20.7145 103.185 20.8489C102.9 20.9832 102.64 21.0504 102.405 21.0504C101.968 21.0504 101.615 20.8573 101.347 20.471C101.078 20.068 100.944 19.5475 100.944 18.9094C100.944 18.2377 101.112 17.4736 101.447 16.6172C101.783 15.7608 102.329 14.8708 103.085 13.9473C103.572 13.3595 104.159 12.8894 104.848 12.5367C105.553 12.1673 106.242 11.9826 106.913 11.9826C107.3 11.9826 107.669 12.0497 108.022 12.1841C108.374 12.3016 108.685 12.5031 108.954 12.7886C109.071 12.9062 109.13 13.0405 109.13 13.1916C109.13 13.2924 109.088 13.3763 109.004 13.4435C108.92 13.5107 108.811 13.5275 108.677 13.4939C108.492 12.9062 108.097 12.6123 107.493 12.6123C107.207 12.6123 106.88 12.7046 106.51 12.8894C105.939 13.1916 105.343 13.687 104.722 14.3755C104.117 15.064 103.588 15.7776 103.135 16.5165C103.068 16.6172 102.959 16.8103 102.808 17.0958C102.673 17.3813 102.539 17.7003 102.405 18.053C102.27 18.4056 102.178 18.7498 102.128 19.0857C102.111 19.1864 102.102 19.262 102.102 19.3124C102.102 19.346 102.102 19.4047 102.102 19.4887C102.102 20.0428 102.312 20.3199 102.732 20.3199C103.236 20.3199 103.807 19.9505 104.445 19.2116C104.881 18.6743 105.276 18.1117 105.629 17.524C105.981 16.9363 106.342 16.3066 106.712 15.6349C106.964 15.1815 107.199 14.8037 107.417 14.5014C107.635 14.1992 107.946 14.048 108.349 14.048C108.534 14.048 108.719 14.0732 108.903 14.1236C109.088 14.174 109.281 14.1824 109.483 14.1488C109.348 14.2831 109.164 14.535 108.928 14.9044C108.71 15.2739 108.475 15.6937 108.223 16.1638C107.971 16.634 107.745 17.1126 107.543 17.5996C107.342 18.0866 107.199 18.5064 107.115 18.859C107.098 18.9597 107.073 19.1025 107.039 19.2872C107.022 19.4719 107.014 19.6062 107.014 19.6902C107.014 20.1604 107.148 20.3955 107.417 20.3955C107.686 20.3955 107.971 20.236 108.274 19.9169C108.593 19.5978 108.903 19.2032 109.205 18.7331C109.508 18.2629 109.785 17.7927 110.037 17.3225C110.289 16.8355 110.49 16.4409 110.641 16.1387C110.708 15.9707 110.809 15.8868 110.943 15.8868C111.027 15.8868 111.069 15.9455 111.069 16.0631C111.069 16.1135 111.044 16.2058 110.994 16.3402C110.792 16.76 110.549 17.2385 110.263 17.7759C109.978 18.2965 109.667 18.8086 109.331 19.3124C108.996 19.7994 108.643 20.2108 108.274 20.5466C107.921 20.8657 107.56 21.042 107.19 21.0756ZM108.237 21.1259C108.859 19.9337 109.446 18.7414 110 17.5492C110.555 16.3402 111.117 15.1983 111.688 14.1236C112.024 13.5191 112.301 13.0993 112.519 12.8642C112.754 12.6123 113.065 12.4863 113.451 12.4863C113.586 12.4863 113.728 12.5115 113.879 12.5619C114.031 12.5955 114.182 12.6123 114.333 12.6123C114.434 12.6123 114.509 12.6039 114.56 12.5871C114.324 12.7214 114.022 13.0573 113.653 13.5946C113.283 14.1152 112.906 14.7197 112.519 15.4082C112.133 16.0967 111.789 16.7432 111.487 17.3477C111.806 16.9615 112.133 16.5753 112.469 16.189C112.822 15.8028 113.208 15.4334 113.628 15.0807C113.997 14.7617 114.383 14.4175 114.786 14.048C115.206 13.6618 115.617 13.3344 116.021 13.0657C116.424 12.797 116.776 12.6627 117.078 12.6627C117.196 12.6627 117.272 12.6711 117.305 12.6879C117.624 12.8222 117.784 13.0405 117.784 13.3427C117.784 13.4435 117.742 13.5946 117.658 13.7961C117.439 14.3671 117.154 14.9548 116.801 15.5593C116.465 16.147 116.146 16.7432 115.844 17.3477C116.096 17.0454 116.407 16.676 116.776 16.2394C117.162 15.8028 117.549 15.4166 117.935 15.0807C118.304 14.7449 118.774 14.3923 119.345 14.0228C119.916 13.6534 120.479 13.3344 121.033 13.0657C121.587 12.797 122.032 12.6627 122.368 12.6627C122.486 12.6627 122.569 12.6711 122.62 12.6879C122.62 12.6879 122.527 12.8558 122.343 13.1916C122.158 13.5107 121.923 13.9389 121.637 14.4762C121.369 14.9968 121.092 15.5593 120.806 16.1638C120.521 16.7516 120.261 17.3225 120.025 17.8766C119.807 18.414 119.664 18.8674 119.597 19.2368C119.547 19.4551 119.522 19.6566 119.522 19.8413C119.522 20.11 119.572 20.2863 119.673 20.3703C119.774 20.4543 119.883 20.4962 120 20.4962C120.336 20.4962 120.68 20.3199 121.033 19.9673C121.386 19.6146 121.721 19.1948 122.041 18.7079C122.376 18.2041 122.67 17.7171 122.922 17.2469C123.174 16.76 123.359 16.3905 123.476 16.1387C123.577 15.9539 123.678 15.8616 123.779 15.8616C123.879 15.8616 123.93 15.9288 123.93 16.0631C123.93 16.147 123.904 16.2394 123.854 16.3402C123.653 16.7264 123.409 17.1882 123.124 17.7255C122.855 18.2629 122.544 18.7918 122.192 19.3124C121.839 19.8161 121.444 20.2444 121.008 20.597C120.588 20.9328 120.135 21.1008 119.648 21.1008C119.295 21.1008 118.934 20.9832 118.565 20.7481C118.212 20.513 118.036 20.0764 118.036 19.4383C118.036 19.0857 118.111 18.6575 118.262 18.1537C118.38 17.8179 118.556 17.4317 118.791 16.9951C119.043 16.5585 119.345 16.0547 119.698 15.4838C119.866 15.1983 119.95 14.9716 119.95 14.8037C119.95 14.6022 119.849 14.5014 119.648 14.5014C119.48 14.5014 119.245 14.5854 118.942 14.7533C118.657 14.9212 118.296 15.2151 117.859 15.6349C117.591 15.8868 117.272 16.2394 116.902 16.6928C116.549 17.1294 116.188 17.608 115.819 18.1285C115.45 18.6491 115.131 19.1613 114.862 19.665C114.593 20.1688 114.417 20.6138 114.333 21C114.081 21 113.879 20.8992 113.728 20.6977C113.577 20.4794 113.502 20.2276 113.502 19.9421C113.502 19.8917 113.502 19.8413 113.502 19.791C113.502 19.7406 113.51 19.6818 113.527 19.6146C113.611 19.0941 113.745 18.6071 113.93 18.1537C114.115 17.7003 114.324 17.2301 114.56 16.7432C114.744 16.3905 114.929 16.0127 115.114 15.6097C115.298 15.1899 115.391 14.8708 115.391 14.6525C115.391 14.5182 115.34 14.451 115.24 14.451C115.122 14.451 114.929 14.5434 114.66 14.7281C114.392 14.896 114.022 15.1983 113.552 15.6349C113.132 16.0379 112.62 16.6172 112.016 17.3729C111.428 18.1285 110.781 19.2032 110.076 20.597C109.975 20.7817 109.858 20.8992 109.723 20.9496C109.589 20.9832 109.379 21 109.094 21C108.909 21 108.758 21 108.64 21C108.506 21.0168 108.372 21.0588 108.237 21.1259ZM124.227 21C124.042 21 123.815 20.958 123.546 20.8741C123.295 20.7901 123.068 20.639 122.866 20.4207C122.682 20.1856 122.589 19.8413 122.589 19.3879C122.589 18.9513 122.69 18.5315 122.892 18.1285C123.11 17.7087 123.311 17.3057 123.496 16.9195C123.446 16.9195 123.387 16.9027 123.32 16.8691C123.269 16.8355 123.244 16.7852 123.244 16.718C123.244 16.6508 123.261 16.5836 123.295 16.5165C123.362 16.3821 123.437 16.2394 123.521 16.0883C123.605 15.9371 123.681 15.7776 123.748 15.6097C124 15.0891 124.252 14.5938 124.504 14.1236C124.756 13.6366 124.974 13.2084 125.159 12.839C125.343 12.4696 125.662 12.2848 126.116 12.2848H127.677C127.392 12.5031 127.132 12.7466 126.897 13.0153C126.678 13.2672 126.401 13.7374 126.065 14.4258C126.065 14.4258 126.007 14.5434 125.889 14.7785C125.771 15.0136 125.62 15.3158 125.436 15.6853C125.268 16.0379 125.091 16.3989 124.907 16.7684C124.739 17.1378 124.596 17.4484 124.478 17.7003C124.26 18.1705 124.117 18.5483 124.05 18.8338C123.983 19.1025 123.95 19.3544 123.95 19.5895C123.95 20.1436 124.134 20.4207 124.504 20.4207C124.907 20.4207 125.394 20.0932 125.965 19.4383C126.435 18.8842 126.897 18.2209 127.35 17.4484C127.803 16.676 128.232 15.8784 128.635 15.0556C129.054 14.2327 129.424 13.4939 129.743 12.839C129.928 12.4696 130.255 12.2848 130.725 12.2848H132.111C131.859 12.4863 131.649 12.6795 131.481 12.8642C131.313 13.0321 131.145 13.2672 130.977 13.5694C130.826 13.8549 130.616 14.2663 130.347 14.8037C130.129 15.2571 129.894 15.744 129.642 16.2646C129.407 16.7684 129.197 17.2469 129.012 17.7003C128.828 18.1537 128.71 18.5231 128.66 18.8086C128.643 18.9765 128.626 19.1025 128.609 19.1864C128.593 19.2704 128.584 19.3628 128.584 19.4635C128.584 19.7826 128.635 20.0093 128.735 20.1436C128.853 20.2779 128.987 20.3451 129.138 20.3451C129.541 20.3451 129.944 20.1184 130.347 19.665C130.767 19.2116 131.162 18.6575 131.531 18.0026C131.917 17.3477 132.245 16.7264 132.514 16.1387C132.614 15.9539 132.707 15.8616 132.791 15.8616C132.891 15.8616 132.942 15.9204 132.942 16.0379C132.942 16.1219 132.908 16.2226 132.841 16.3402C132.656 16.7432 132.43 17.205 132.161 17.7255C131.892 18.2461 131.59 18.7582 131.254 19.262C130.918 19.7658 130.549 20.1856 130.146 20.5214C129.743 20.8405 129.306 21 128.836 21C128.416 21 128.072 20.8489 127.803 20.5466C127.535 20.2276 127.4 19.7826 127.4 19.2116C127.4 18.7582 127.484 18.2713 127.652 17.7507C127.367 18.2545 127.039 18.7582 126.67 19.262C126.3 19.7658 125.906 20.1856 125.486 20.5214C125.066 20.8405 124.646 21 124.227 21ZM134.261 21.1008C133.64 21.1008 133.077 20.8992 132.573 20.4962C132.086 20.0932 131.843 19.4803 131.843 18.6575C131.843 17.9018 132.028 17.0958 132.397 16.2394C132.766 15.3662 133.237 14.6022 133.808 13.9473C134.295 13.3763 134.84 12.9062 135.445 12.5367C136.049 12.1673 136.62 11.9826 137.158 11.9826C137.527 11.9826 137.846 12.0833 138.115 12.2848C138.4 12.5031 138.543 12.8138 138.543 13.2168C138.543 13.6366 138.383 14.0984 138.064 14.6022C137.745 15.1059 137.292 15.5761 136.704 16.0127C136.452 16.1974 136.133 16.3737 135.747 16.5417C135.361 16.7096 134.975 16.8523 134.588 16.9699C134.202 17.0706 133.883 17.121 133.631 17.121C133.547 17.3225 133.463 17.5912 133.379 17.927C133.312 18.2629 133.279 18.6071 133.279 18.9597C133.279 19.3796 133.363 19.7574 133.531 20.0932C133.698 20.4291 134.009 20.597 134.462 20.597C135.017 20.597 135.52 20.4375 135.974 20.1184C136.427 19.7994 136.83 19.4047 137.183 18.9346C137.535 18.4476 137.829 17.9606 138.064 17.4736C138.316 16.9867 138.518 16.5753 138.669 16.2394C138.77 16.0043 138.904 15.8868 139.072 15.8868C139.156 15.8868 139.198 15.9288 139.198 16.0127C139.198 16.0799 139.173 16.1638 139.122 16.2646C138.887 16.7684 138.635 17.3057 138.367 17.8766C138.098 18.4308 137.779 18.9597 137.41 19.4635C137.04 19.9505 136.595 20.3451 136.075 20.6474C135.571 20.9496 134.966 21.1008 134.261 21.1008ZM133.808 16.6676C134.043 16.6676 134.437 16.5836 134.991 16.4157C135.546 16.231 136.049 15.9455 136.503 15.5593C136.939 15.1731 137.275 14.7533 137.51 14.2999C137.745 13.8297 137.863 13.4351 137.863 13.1161C137.863 12.7466 137.729 12.5619 137.46 12.5619C137.258 12.5619 136.981 12.6962 136.629 12.9649C136.276 13.2336 135.839 13.687 135.319 14.3251C135 14.7281 134.698 15.1647 134.412 15.6349C134.127 16.1051 133.925 16.4493 133.808 16.6676ZM139.98 21.0756C139.275 21.0756 138.796 20.8909 138.544 20.5214C138.292 20.1352 138.166 19.6818 138.166 19.1613C138.166 18.6239 138.242 18.0698 138.393 17.4988C138.544 16.9279 138.679 16.4493 138.796 16.0631C139.065 15.1227 139.401 14.1236 139.804 13.0657C140.223 11.991 140.677 10.9415 141.164 9.91714C141.668 8.87602 142.163 7.94405 142.65 7.12123C143.036 6.46634 143.448 5.97936 143.884 5.66031C144.337 5.32446 144.732 5.15654 145.068 5.15654C145.337 5.15654 145.547 5.2573 145.698 5.4588C145.866 5.64352 145.95 5.92898 145.95 6.31521C145.95 6.58388 145.899 6.90293 145.798 7.27236C145.714 7.64179 145.563 8.0616 145.345 8.53178C144.757 9.84157 144.052 11.1514 143.229 12.4612C142.423 13.771 141.399 14.9968 140.156 16.1387C140.089 16.357 139.997 16.6172 139.879 16.9195C139.778 17.205 139.686 17.4988 139.602 17.8011C139.501 18.2545 139.451 18.6407 139.451 18.9597C139.451 19.4803 139.552 19.8749 139.753 20.1436C139.972 20.3955 140.232 20.5214 140.534 20.5214C140.803 20.5214 141.088 20.4291 141.39 20.2444C141.693 20.0428 141.978 19.7574 142.247 19.3879C142.65 18.8002 143.011 18.2041 143.33 17.5996C143.666 16.9783 143.918 16.4997 144.086 16.1638C144.186 15.9791 144.296 15.8868 144.413 15.8868C144.497 15.8868 144.539 15.9371 144.539 16.0379C144.539 16.1219 144.514 16.2142 144.463 16.315C144.312 16.6508 144.111 17.0874 143.859 17.6248C143.624 18.1453 143.322 18.6743 142.952 19.2116C142.6 19.7322 142.171 20.1772 141.668 20.5466C141.181 20.8992 140.618 21.0756 139.98 21.0756ZM140.358 15.3326C140.962 14.7113 141.55 13.9976 142.121 13.1916C142.692 12.3688 143.221 11.5208 143.708 10.6476C144.212 9.75761 144.631 8.918 144.967 8.12876C145.085 7.87688 145.177 7.59981 145.244 7.29755C145.328 6.99529 145.37 6.74341 145.37 6.5419C145.37 6.30681 145.311 6.18926 145.194 6.18926C145.127 6.18926 145.026 6.25643 144.892 6.39077C144.757 6.50832 144.581 6.71822 144.363 7.02048C144.044 7.44028 143.691 8.01122 143.305 8.73328C142.935 9.45535 142.558 10.2278 142.171 11.0506C141.785 11.8734 141.432 12.6711 141.113 13.4435C140.794 14.1992 140.542 14.8289 140.358 15.3326ZM144.662 21.1008C143.839 21.1008 143.252 20.8909 142.899 20.471C142.563 20.0344 142.395 19.5811 142.395 19.1109C142.395 18.7247 142.488 18.372 142.672 18.053C142.874 17.7339 143.109 17.566 143.378 17.5492C143.713 16.8943 144.074 16.1806 144.461 15.4082C144.864 14.6357 145.233 13.8885 145.569 13.1664C145.804 12.6795 146.098 12.2093 146.451 11.7559C146.82 11.3025 147.223 11.0422 147.66 10.975H147.911C148.046 10.975 148.163 10.9834 148.264 11.0002C148.382 11.017 148.499 11.0506 148.617 11.101C148.801 11.1849 148.894 11.3109 148.894 11.4788C148.894 11.5796 148.835 11.6299 148.718 11.6299C148.667 11.6299 148.6 11.6048 148.516 11.5544C148.314 11.4704 148.138 11.4284 147.987 11.4284C147.886 11.4284 147.794 11.4536 147.71 11.504C147.391 11.6719 147.164 11.907 147.03 12.2093C146.912 12.5115 146.854 12.8306 146.854 13.1664C146.854 13.4351 146.879 13.7122 146.929 13.9976C146.996 14.2663 147.072 14.5098 147.156 14.7281C147.341 15.1983 147.534 15.6601 147.735 16.1135C147.953 16.5669 148.063 17.0538 148.063 17.5744C148.063 18.0782 147.895 18.6155 147.559 19.1864C147.223 19.7406 146.795 20.1856 146.274 20.5214L146.451 20.5466C146.535 20.5634 146.593 20.5718 146.627 20.5718C146.66 20.5718 146.686 20.5718 146.702 20.5718C147.089 20.5718 147.45 20.4626 147.786 20.2444C148.138 20.0093 148.449 19.7238 148.718 19.3879C148.986 19.0521 149.288 18.5819 149.624 17.9774C149.977 17.3729 150.313 16.7348 150.632 16.0631C150.682 15.9791 150.741 15.9371 150.808 15.9371C150.892 15.9371 150.951 15.9707 150.984 16.0379C151.035 16.0883 151.043 16.1554 151.01 16.2394C150.791 16.7096 150.539 17.2218 150.254 17.7759C149.985 18.3132 149.675 18.8338 149.322 19.3376C148.969 19.8245 148.558 20.2276 148.088 20.5466C147.634 20.8489 147.122 21 146.551 21C146.417 21 146.274 20.9916 146.123 20.9748C145.972 20.958 145.821 20.9244 145.67 20.8741C145.502 20.9412 145.325 20.9916 145.141 21.0252C144.973 21.0756 144.813 21.1008 144.662 21.1008ZM145.418 20.3451C145.703 20.11 145.955 19.7658 146.173 19.3124C146.409 18.859 146.526 18.2629 146.526 17.524C146.526 16.8691 146.459 16.1722 146.325 15.4334C146.19 14.6945 146.123 14.0396 146.123 13.4687C146.123 13.3511 146.123 13.2504 146.123 13.1664C146.14 13.0657 146.157 12.9733 146.173 12.8894C145.955 13.3427 145.703 13.8717 145.418 14.4762C145.132 15.064 144.847 15.6349 144.561 16.189C144.276 16.7432 144.032 17.2134 143.831 17.5996C143.831 17.5996 143.873 17.608 143.957 17.6248C144.058 17.6248 144.15 17.6835 144.234 17.8011C144.318 17.9018 144.352 18.1117 144.335 18.4308C144.318 18.8506 144.41 19.2452 144.612 19.6146C144.83 19.9673 145.099 20.2108 145.418 20.3451ZM144.461 20.6977C144.561 20.6977 144.654 20.6893 144.738 20.6726C144.822 20.639 144.897 20.6138 144.964 20.597C144.713 20.4123 144.486 20.1688 144.284 19.8665C144.1 19.5475 143.99 19.1445 143.957 18.6575C143.655 18.9765 143.504 19.3208 143.504 19.6902C143.504 19.9589 143.587 20.194 143.755 20.3955C143.923 20.597 144.158 20.6977 144.461 20.6977ZM162.536 21.0756C162.351 21.0924 162.141 21.0504 161.906 20.9496C161.671 20.8489 161.461 20.6642 161.276 20.3955C161.109 20.1268 161.025 19.749 161.025 19.262C161.025 18.859 161.1 18.372 161.251 17.8011C161.05 18.1201 160.789 18.5148 160.47 18.9849C160.151 19.4383 159.807 19.8413 159.438 20.194C159.119 20.4962 158.816 20.7145 158.531 20.8489C158.245 20.9832 157.985 21.0504 157.75 21.0504C157.313 21.0504 156.961 20.8573 156.692 20.471C156.423 20.068 156.289 19.5475 156.289 18.9094C156.289 18.2377 156.457 17.4736 156.793 16.6172C157.129 15.7608 157.675 14.8708 158.43 13.9473C158.917 13.3595 159.505 12.8894 160.193 12.5367C160.899 12.1673 161.587 11.9826 162.259 11.9826C162.645 11.9826 163.014 12.0497 163.367 12.1841C163.72 12.3016 164.03 12.5031 164.299 12.7886C164.417 12.9062 164.475 13.0405 164.475 13.1916C164.475 13.2924 164.433 13.3763 164.349 13.4435C164.265 13.5107 164.156 13.5275 164.022 13.4939C163.837 12.9062 163.443 12.6123 162.838 12.6123C162.553 12.6123 162.225 12.7046 161.856 12.8894C161.285 13.1916 160.689 13.687 160.067 14.3755C159.463 15.064 158.934 15.7776 158.481 16.5165C158.413 16.6172 158.304 16.8103 158.153 17.0958C158.019 17.3813 157.884 17.7003 157.75 18.053C157.616 18.4056 157.523 18.7498 157.473 19.0857C157.456 19.1864 157.448 19.262 157.448 19.3124C157.448 19.346 157.448 19.4047 157.448 19.4887C157.448 20.0428 157.658 20.3199 158.078 20.3199C158.581 20.3199 159.152 19.9505 159.79 19.2116C160.227 18.6743 160.622 18.1117 160.974 17.524C161.327 16.9363 161.688 16.3066 162.057 15.6349C162.309 15.1815 162.544 14.8037 162.763 14.5014C162.981 14.1992 163.292 14.048 163.695 14.048C163.879 14.048 164.064 14.0732 164.249 14.1236C164.433 14.174 164.626 14.1824 164.828 14.1488C164.694 14.2831 164.509 14.535 164.274 14.9044C164.056 15.2739 163.82 15.6937 163.569 16.1638C163.317 16.634 163.09 17.1126 162.888 17.5996C162.687 18.0866 162.544 18.5064 162.46 18.859C162.443 18.9597 162.418 19.1025 162.385 19.2872C162.368 19.4719 162.36 19.6062 162.36 19.6902C162.36 20.1604 162.494 20.3955 162.763 20.3955C163.031 20.3955 163.317 20.236 163.619 19.9169C163.938 19.5978 164.249 19.2032 164.551 18.7331C164.853 18.2629 165.13 17.7927 165.382 17.3225C165.634 16.8355 165.836 16.4409 165.987 16.1387C166.054 15.9707 166.155 15.8868 166.289 15.8868C166.373 15.8868 166.415 15.9455 166.415 16.0631C166.415 16.1135 166.39 16.2058 166.339 16.3402C166.138 16.76 165.894 17.2385 165.609 17.7759C165.323 18.2965 165.013 18.8086 164.677 19.3124C164.341 19.7994 163.988 20.2108 163.619 20.5466C163.266 20.8657 162.905 21.042 162.536 21.0756ZM163.558 21.2015C164.162 19.9757 164.741 18.7666 165.296 17.5744C165.866 16.3653 166.446 15.2151 167.034 14.1236C167.369 13.5191 167.646 13.0993 167.865 12.8642C168.1 12.6123 168.411 12.4863 168.797 12.4863C168.931 12.4863 169.074 12.5115 169.225 12.5619C169.376 12.5955 169.527 12.6123 169.678 12.6123C169.779 12.6123 169.855 12.6039 169.905 12.5871C169.67 12.7214 169.368 13.0573 168.998 13.5946C168.629 14.1152 168.251 14.7197 167.865 15.4082C167.479 16.0967 167.134 16.7432 166.832 17.3477C167.151 16.9615 167.479 16.5753 167.814 16.189C168.167 15.8028 168.553 15.4334 168.973 15.0807C169.376 14.7281 169.855 14.3671 170.409 13.9976C170.98 13.6114 171.534 13.2924 172.071 13.0405C172.609 12.7886 173.037 12.6627 173.356 12.6627C173.473 12.6627 173.557 12.6711 173.608 12.6879C173.608 12.6879 173.515 12.8558 173.331 13.1916C173.146 13.5107 172.911 13.9389 172.625 14.4762C172.357 14.9968 172.08 15.5593 171.794 16.1638C171.509 16.7516 171.248 17.3225 171.013 17.8766C170.795 18.414 170.652 18.8674 170.585 19.2368C170.535 19.4551 170.51 19.6566 170.51 19.8413C170.51 20.11 170.56 20.2863 170.661 20.3703C170.761 20.4543 170.871 20.4962 170.988 20.4962C171.307 20.4962 171.643 20.3283 171.996 19.9925C172.348 19.6398 172.684 19.2116 173.003 18.7079C173.339 18.2041 173.633 17.7171 173.885 17.2469C174.153 16.76 174.347 16.3905 174.464 16.1387C174.531 16.0043 174.582 15.9288 174.615 15.912C174.649 15.8784 174.699 15.8616 174.766 15.8616C174.867 15.8616 174.917 15.9288 174.917 16.0631C174.917 16.147 174.892 16.2394 174.842 16.3402C174.64 16.7264 174.397 17.1882 174.111 17.7255C173.843 18.2629 173.532 18.7918 173.179 19.3124C172.827 19.8161 172.441 20.2444 172.021 20.597C171.601 20.9328 171.148 21.1008 170.661 21.1008C170.325 21.1008 169.972 20.9832 169.603 20.7481C169.25 20.513 169.074 20.0764 169.074 19.4383C169.074 19.2536 169.091 19.0605 169.124 18.859C169.158 18.6407 169.217 18.4056 169.3 18.1537C169.435 17.8179 169.594 17.4568 169.779 17.0706C169.964 16.6844 170.266 16.1554 170.686 15.4838C170.803 15.299 170.871 15.1563 170.887 15.0556C170.921 14.9548 170.938 14.8708 170.938 14.8037C170.938 14.6022 170.845 14.5014 170.661 14.5014C170.51 14.5014 170.283 14.5854 169.981 14.7533C169.695 14.9212 169.334 15.2151 168.897 15.6349C168.478 16.0379 167.974 16.6088 167.386 17.3477C166.815 18.0866 166.152 19.178 165.396 20.6222C165.279 20.8405 165.144 20.958 164.993 20.9748C164.859 20.9916 164.666 21.0084 164.414 21.0252C164.246 21.042 164.087 21.0504 163.935 21.0504C163.784 21.0672 163.658 21.1175 163.558 21.2015ZM179.979 21C179.525 21 179.148 20.7733 178.845 20.3199C178.761 20.1856 178.686 20.0093 178.619 19.791C178.551 19.5727 178.518 19.3292 178.518 19.0605C178.518 18.9094 178.526 18.7582 178.543 18.6071C178.56 18.4392 178.593 18.2713 178.644 18.1033C178.409 18.4728 178.132 18.8842 177.813 19.3376C177.51 19.7742 177.158 20.1604 176.755 20.4962C176.368 20.8153 175.932 20.9748 175.445 20.9748C175.277 20.9748 175.101 20.9496 174.916 20.8992C174.463 20.7649 174.135 20.5298 173.934 20.194C173.749 19.8581 173.656 19.4551 173.656 18.9849C173.656 18.4644 173.757 17.8934 173.959 17.2721C174.177 16.6508 174.446 16.0463 174.765 15.4586C175.101 14.8708 175.445 14.3671 175.798 13.9473C176.301 13.3595 176.881 12.8894 177.536 12.5367C178.19 12.1841 178.854 12.0078 179.525 12.0078C180.13 12.0078 180.701 12.1673 181.238 12.4863C181.49 12.0162 181.759 11.4956 182.044 10.9247C182.33 10.3369 182.615 9.75761 182.901 9.18667C183.186 8.61574 183.438 8.09518 183.656 7.625C183.875 7.13802 184.042 6.7686 184.16 6.51671C184.412 5.92898 184.647 5.55956 184.865 5.40843C185.1 5.2405 185.377 5.15654 185.697 5.15654C185.881 5.15654 186.083 5.18173 186.301 5.23211C186.536 5.26569 186.763 5.27409 186.981 5.2573C186.88 5.35805 186.67 5.65191 186.351 6.13889C186.049 6.60907 185.688 7.21359 185.268 7.95245C184.849 8.6913 184.395 9.50573 183.908 10.3957C183.438 11.2689 182.968 12.1589 182.498 13.0657C182.044 13.9557 181.616 14.8037 181.213 15.6097C180.827 16.3989 180.516 17.079 180.281 17.65C180.214 17.7843 180.113 18.0614 179.979 18.4812C179.861 18.8842 179.802 19.2368 179.802 19.5391C179.802 19.7574 179.853 19.9505 179.954 20.1184C180.054 20.2695 180.222 20.3451 180.457 20.3451C180.776 20.3451 181.095 20.1856 181.415 19.8665C181.75 19.5307 182.069 19.1277 182.372 18.6575C182.674 18.1705 182.943 17.7003 183.178 17.2469C183.413 16.7768 183.589 16.4073 183.707 16.1387C183.791 15.9539 183.891 15.8616 184.009 15.8616C184.11 15.8616 184.16 15.9371 184.16 16.0883C184.16 16.1051 184.16 16.1387 184.16 16.189C184.16 16.2226 184.143 16.2646 184.11 16.315C183.959 16.6676 183.749 17.1042 183.48 17.6248C183.228 18.1453 182.926 18.6659 182.573 19.1864C182.221 19.707 181.826 20.1436 181.389 20.4962C180.953 20.8321 180.483 21 179.979 21ZM175.621 20.2444C175.856 20.2444 176.15 20.1184 176.503 19.8665C176.855 19.5978 177.233 19.178 177.636 18.6071C178.106 17.9354 178.644 17.0958 179.248 16.0883C179.853 15.0807 180.449 14.0144 181.037 12.8894C180.818 12.6879 180.566 12.5871 180.281 12.5871C179.811 12.5871 179.282 12.8054 178.694 13.242C178.123 13.6786 177.561 14.2327 177.007 14.9044C176.469 15.5761 176.016 16.2562 175.646 16.9447C175.394 17.4149 175.21 17.8431 175.092 18.2293C174.991 18.6155 174.941 18.9513 174.941 19.2368C174.941 19.9085 175.168 20.2444 175.621 20.2444ZM12.9227 63.4204C11.361 63.4204 9.96728 63.1937 8.74145 62.7403C7.51562 62.287 6.55007 61.6237 5.84479 60.7505C5.13952 59.8941 4.78688 58.853 4.78688 57.6271C4.78688 57.1569 4.84566 56.6616 4.9632 56.141C5.06396 55.6372 5.23188 55.0999 5.46697 54.529C5.70206 53.9748 6.0547 53.4543 6.52488 52.9673C6.99506 52.4803 7.47364 52.0857 7.96061 51.7834C8.44759 51.4812 8.82541 51.33 9.09409 51.33H9.16965C9.32078 51.33 9.39635 51.3552 9.39635 51.4056C9.39635 51.4392 9.36276 51.4812 9.2956 51.5315C9.22843 51.5819 9.15286 51.6239 9.0689 51.6575C8.78343 51.775 8.4224 52.0269 7.9858 52.4131C7.5492 52.7826 7.1294 53.2527 6.72639 53.8237C6.34016 54.3778 6.0463 54.9907 5.84479 55.6624C5.69366 56.2166 5.6181 56.7455 5.6181 57.2493C5.6181 58.1561 5.84479 58.9453 6.29818 59.617C6.75157 60.2887 7.3477 60.8428 8.08656 61.2794C8.82541 61.7328 9.63984 62.0687 10.5298 62.287C11.4198 62.5053 12.293 62.6144 13.1494 62.6144C13.4853 62.6144 13.8127 62.5976 14.1318 62.564C14.4508 62.5472 14.7531 62.5053 15.0385 62.4381C16.5162 62.1022 17.868 61.5397 19.0939 60.7505C20.3365 59.978 21.47 59.0545 22.4943 57.9798C23.5186 56.9051 24.4422 55.7464 25.265 54.5038C26.1046 53.2779 26.8519 52.0353 27.5068 50.7759C28.1617 49.5165 28.7494 48.3158 29.2699 47.174C29.7905 46.0321 30.2439 45.0246 30.6301 44.1514C31.2346 42.8416 31.8056 41.6661 32.3429 40.625C32.8971 39.5671 33.3756 38.6771 33.7786 37.955C34.1985 37.233 34.5007 36.7292 34.6854 36.4437C33.8626 36.5781 32.9474 36.7964 31.9399 37.0986C30.9492 37.3841 29.9416 37.7619 28.9173 38.2321C27.9098 38.7023 26.961 39.2564 26.071 39.8945C25.1978 40.5326 24.459 41.2547 23.8544 42.0607C23.2667 42.8668 22.8889 43.7651 22.721 44.7559C22.7042 44.907 22.6874 45.0414 22.6706 45.1589C22.6706 45.2764 22.6706 45.4024 22.6706 45.5367C22.6706 46.2756 22.8385 46.8885 23.1744 47.3755C23.5102 47.8457 23.9888 48.0807 24.6101 48.0807C24.8788 48.0807 25.2146 48.0136 25.6176 47.8792C26.2893 47.6441 26.8015 47.3167 27.1541 46.8969C27.5235 46.4771 27.7838 46.0321 27.935 45.5619C28.0861 45.0917 28.1617 44.6803 28.1617 44.3277C28.1617 43.9079 28.0945 43.6308 27.9601 43.4965C27.8594 43.4461 27.809 43.3789 27.809 43.295C27.809 43.1438 27.9014 43.0683 28.0861 43.0683C28.2372 43.0683 28.3716 43.1438 28.4891 43.295C28.6402 43.6644 28.7158 44.0506 28.7158 44.4536C28.7158 45.0078 28.5731 45.5619 28.2876 46.1161C28.0189 46.6534 27.6495 47.132 27.1793 47.5518C26.7259 47.9716 26.2054 48.2822 25.6176 48.4838C25.1642 48.6517 24.6941 48.7356 24.2071 48.7356C23.2835 48.7356 22.5111 48.4334 21.8898 47.8289C21.2684 47.2075 20.9578 46.3847 20.9578 45.3604C20.9578 45.1085 20.983 44.8482 21.0334 44.5796C21.2181 43.4041 21.6715 42.3714 22.3935 41.4814C23.1156 40.5746 24.0056 39.7938 25.0635 39.1389C26.1214 38.4672 27.2465 37.9047 28.4387 37.4513C29.631 36.9979 30.8064 36.6368 31.9651 36.3682C33.1405 36.0827 34.1901 35.8812 35.1136 35.7637C35.1976 35.6461 35.3487 35.4446 35.567 35.1591C35.7853 34.8737 36.0372 34.5882 36.3227 34.3027C36.6081 34.0173 36.8936 33.8325 37.1791 33.7486C37.3638 33.6982 37.5401 33.673 37.708 33.673C37.9599 33.673 38.1698 33.7402 38.3377 33.8745C38.5057 33.9921 38.5896 34.1768 38.5896 34.4287C38.5896 34.9492 38.3629 35.3271 37.9095 35.5621C37.4729 35.7972 37.0112 35.9903 36.5242 36.1415C36.373 36.1415 36.1799 36.1751 35.9448 36.2422C35.7098 36.3094 35.5418 36.343 35.4411 36.343C34.6183 37.7535 33.9214 39.2061 33.3504 40.7006C32.7963 42.1951 32.2506 43.7484 31.7132 45.3604C31.1759 46.9557 30.5461 48.6013 29.8241 50.2973C29.102 51.9765 28.1617 53.7145 27.003 55.5113C26.2641 56.67 25.3993 57.7027 24.4086 58.6095C23.4179 59.5162 22.3767 60.2887 21.2852 60.9268C20.2105 61.5817 19.161 62.1022 18.1367 62.4885C17.1124 62.8747 16.1804 63.1266 15.3408 63.2441C14.921 63.3113 14.5096 63.3533 14.1066 63.3701C13.7036 63.4036 13.3089 63.4204 12.9227 63.4204ZM35.8945 35.7133C36.5829 35.5957 37.0447 35.453 37.2798 35.2851C37.5149 35.1004 37.6325 34.9324 37.6325 34.7813C37.6325 34.6973 37.5989 34.6302 37.5317 34.5798C37.4813 34.5126 37.431 34.479 37.3806 34.479C37.2798 34.4287 37.1371 34.479 36.9524 34.6302C36.7845 34.7813 36.5997 34.966 36.3982 35.1843C36.2135 35.3858 36.0456 35.5621 35.8945 35.7133ZM34.098 54.1008C33.4767 54.1008 32.9142 53.8992 32.4104 53.4962C31.9234 53.0932 31.6799 52.4803 31.6799 51.6575C31.6799 50.9018 31.8647 50.0958 32.2341 49.2394C32.6035 48.3662 33.0737 47.6022 33.6446 46.9473C34.1316 46.3763 34.6774 45.9062 35.2819 45.5367C35.8864 45.1673 36.4573 44.9826 36.9947 44.9826C37.3641 44.9826 37.6832 45.0833 37.9518 45.2848C38.2373 45.5031 38.38 45.8138 38.38 46.2168C38.38 46.6366 38.2205 47.0984 37.9015 47.6022C37.5824 48.1059 37.129 48.5761 36.5413 49.0127C36.2894 49.1974 35.9704 49.3737 35.5841 49.5417C35.1979 49.7096 34.8117 49.8523 34.4255 49.9699C34.0393 50.0706 33.7202 50.121 33.4683 50.121C33.3844 50.3225 33.3004 50.5912 33.2164 50.927C33.1493 51.2629 33.1157 51.6071 33.1157 51.9597C33.1157 52.3796 33.1996 52.7574 33.3676 53.0932C33.5355 53.4291 33.8461 53.597 34.2995 53.597C34.8537 53.597 35.3574 53.4375 35.8108 53.1184C36.2642 52.7994 36.6672 52.4047 37.0199 51.9346C37.3725 51.4476 37.6664 50.9606 37.9015 50.4736C38.1533 49.9867 38.3549 49.5753 38.506 49.2394C38.6067 49.0043 38.7411 48.8868 38.909 48.8868C38.993 48.8868 39.0349 48.9288 39.0349 49.0127C39.0349 49.0799 39.0098 49.1638 38.9594 49.2646C38.7243 49.7684 38.4724 50.3057 38.2037 50.8766C37.935 51.4308 37.616 51.9597 37.2466 52.4635C36.8771 52.9505 36.4321 53.3451 35.9116 53.6474C35.4078 53.9496 34.8033 54.1008 34.098 54.1008ZM33.6446 49.6676C33.8797 49.6676 34.2743 49.5836 34.8285 49.4157C35.3826 49.231 35.8864 48.9455 36.3398 48.5593C36.7764 48.1731 37.1122 47.7533 37.3473 47.2999C37.5824 46.8297 37.7 46.4351 37.7 46.1161C37.7 45.7466 37.5656 45.5619 37.2969 45.5619C37.0954 45.5619 36.8184 45.6962 36.4657 45.9649C36.1131 46.2336 35.6765 46.687 35.1559 47.3251C34.8369 47.7281 34.5346 48.1647 34.2492 48.6349C33.9637 49.1051 33.7622 49.4493 33.6446 49.6676ZM41.555 54.0252C41.2359 54.0252 40.9168 53.8992 40.5978 53.6474C40.2787 53.3787 40.1192 52.9505 40.1192 52.3628C40.1192 51.9094 40.2284 51.3888 40.4467 50.8011C40.6482 50.2301 40.9168 49.676 41.2527 49.1387C41.6053 48.6013 41.8572 48.1647 42.0083 47.8289C42.0587 47.6945 42.0839 47.577 42.0839 47.4762C42.0839 47.174 41.8908 46.9557 41.5046 46.8213C41.1351 46.687 40.6482 46.6114 40.0437 46.5946L39.7414 47.4258C39.5567 47.9632 39.2964 48.5929 38.9606 49.315C38.6415 50.037 38.2805 50.7339 37.8775 51.4056C37.4912 52.0773 37.0882 52.6146 36.6684 53.0177C36.6348 53.0512 36.5929 53.068 36.5425 53.068C36.4753 53.068 36.4333 53.0261 36.4165 52.9421C36.3829 52.8581 36.4165 52.7574 36.5173 52.6398C37.1722 51.7666 37.7599 50.8011 38.2805 49.7432C38.801 48.6685 39.2376 47.577 39.5903 46.4687C39.9597 45.3604 40.2284 44.3361 40.3963 43.3957C40.4467 43.127 40.539 42.9339 40.6734 42.8164C40.8077 42.682 40.9504 42.6149 41.1016 42.6149C41.3199 42.6149 41.5214 42.724 41.7061 42.9423C41.8908 43.1438 41.9832 43.4377 41.9832 43.8239C41.9832 43.8911 41.9748 43.9667 41.958 44.0506C41.958 44.1346 41.9496 44.2185 41.9328 44.3025C41.8656 44.6551 41.6641 44.991 41.3283 45.31C41.0092 45.6123 40.7489 45.839 40.5474 45.9901C40.7153 46.0069 40.8917 46.0237 41.0764 46.0405C41.2611 46.0405 41.4626 46.0405 41.6809 46.0405C42.4701 46.0405 43.251 45.9901 44.0234 45.8894C44.057 45.9901 44.0738 46.0657 44.0738 46.1161C44.0738 46.3344 44.0066 46.6114 43.8723 46.9473C43.7547 47.2831 43.6288 47.5854 43.4945 47.854C43.4273 48.0052 43.2929 48.2822 43.0914 48.6853C42.8899 49.0715 42.6716 49.5165 42.4365 50.0202C42.2015 50.5072 41.9999 50.9942 41.832 51.4812C41.6809 51.9513 41.6053 52.3544 41.6053 52.6902C41.6053 53.1268 41.7733 53.3451 42.1091 53.3451C42.361 53.3451 42.6381 53.1856 42.9403 52.8665C43.2426 52.5307 43.5364 52.1277 43.8219 51.6575C44.1242 51.1705 44.3928 50.7003 44.6279 50.2469C44.8798 49.7768 45.0729 49.4073 45.2073 49.1387C45.2744 48.9707 45.3668 48.8868 45.4843 48.8868C45.5515 48.8868 45.5851 48.9455 45.5851 49.0631C45.5851 49.1303 45.5599 49.231 45.5095 49.3653C45.3248 49.7516 45.1065 50.1882 44.8546 50.6751C44.6027 51.1621 44.3173 51.6407 43.9982 52.1109C43.696 52.5811 43.3601 52.9925 42.9907 53.3451C42.6381 53.6809 42.2518 53.8992 41.832 54C41.7816 54.0168 41.6893 54.0252 41.555 54.0252ZM46.9136 54.1008C46.2923 54.1008 45.7297 53.8992 45.226 53.4962C44.739 53.0932 44.4955 52.4803 44.4955 51.6575C44.4955 50.9018 44.6802 50.0958 45.0496 49.2394C45.4191 48.3662 45.8892 47.6022 46.4602 46.9473C46.9472 46.3763 47.4929 45.9062 48.0974 45.5367C48.7019 45.1673 49.2729 44.9826 49.8102 44.9826C50.1797 44.9826 50.4987 45.0833 50.7674 45.2848C51.0529 45.5031 51.1956 45.8138 51.1956 46.2168C51.1956 46.6366 51.0361 47.0984 50.717 47.6022C50.398 48.1059 49.9446 48.5761 49.3568 49.0127C49.105 49.1974 48.7859 49.3737 48.3997 49.5417C48.0135 49.7096 47.6272 49.8523 47.241 49.9699C46.8548 50.0706 46.5357 50.121 46.2839 50.121C46.1999 50.3225 46.1159 50.5912 46.032 50.927C45.9648 51.2629 45.9312 51.6071 45.9312 51.9597C45.9312 52.3796 46.0152 52.7574 46.1831 53.0932C46.351 53.4291 46.6617 53.597 47.1151 53.597C47.6692 53.597 48.173 53.4375 48.6264 53.1184C49.0798 52.7994 49.4828 52.4047 49.8354 51.9346C50.1881 51.4476 50.4819 50.9606 50.717 50.4736C50.9689 49.9867 51.1704 49.5753 51.3215 49.2394C51.4223 49.0043 51.5566 48.8868 51.7245 48.8868C51.8085 48.8868 51.8505 48.9288 51.8505 49.0127C51.8505 49.0799 51.8253 49.1638 51.7749 49.2646C51.5398 49.7684 51.2879 50.3057 51.0193 50.8766C50.7506 51.4308 50.4315 51.9597 50.0621 52.4635C49.6927 52.9505 49.2477 53.3451 48.7271 53.6474C48.2234 53.9496 47.6188 54.1008 46.9136 54.1008ZM46.4602 49.6676C46.6953 49.6676 47.0899 49.5836 47.644 49.4157C48.1982 49.231 48.7019 48.9455 49.1553 48.5593C49.5919 48.1731 49.9278 47.7533 50.1629 47.2999C50.398 46.8297 50.5155 46.4351 50.5155 46.1161C50.5155 45.7466 50.3812 45.5619 50.1125 45.5619C49.911 45.5619 49.6339 45.6962 49.2813 45.9649C48.9286 46.2336 48.492 46.687 47.9715 47.3251C47.6524 47.7281 47.3502 48.1647 47.0647 48.6349C46.7792 49.1051 46.5777 49.4493 46.4602 49.6676ZM49.0054 54.1259C49.6267 52.9337 50.2144 51.7414 50.7686 50.5492C51.3227 49.3402 51.8852 48.1983 52.4562 47.1236C52.792 46.5191 53.0691 46.0993 53.2874 45.8642C53.5225 45.6123 53.8331 45.4863 54.2194 45.4863C54.3537 45.4863 54.4964 45.5115 54.6476 45.5619C54.7987 45.5955 54.9498 45.6123 55.101 45.6123C55.2017 45.6123 55.2773 45.6039 55.3277 45.5871C55.0926 45.7214 54.7903 46.0573 54.4209 46.5946C54.0514 47.1152 53.6736 47.7197 53.2874 48.4082C52.9012 49.0967 52.5569 49.7432 52.2547 50.3477C52.5737 49.9615 52.9012 49.5753 53.237 49.189C53.5897 48.8028 53.9759 48.4334 54.3957 48.0807C54.7651 47.7617 55.1513 47.4175 55.5543 47.048C55.9742 46.6618 56.3856 46.3344 56.7886 46.0657C57.1916 45.797 57.5442 45.6627 57.8465 45.6627C57.964 45.6627 58.0396 45.6711 58.0732 45.6879C58.3922 45.8222 58.5518 46.0405 58.5518 46.3427C58.5518 46.4435 58.5098 46.5946 58.4258 46.7961C58.2075 47.3671 57.9221 47.9548 57.5694 48.5593C57.2336 49.147 56.9145 49.7432 56.6123 50.3477C56.8641 50.0454 57.1748 49.676 57.5442 49.2394C57.9304 48.8028 58.3167 48.4166 58.7029 48.0807C59.0723 47.7449 59.5425 47.3923 60.1134 47.0228C60.6844 46.6534 61.2469 46.3344 61.8011 46.0657C62.3552 45.797 62.8002 45.6627 63.136 45.6627C63.2536 45.6627 63.3375 45.6711 63.3879 45.6879C63.3879 45.6879 63.2956 45.8558 63.1108 46.1916C62.9261 46.5107 62.691 46.9389 62.4056 47.4762C62.1369 47.9968 61.8598 48.5593 61.5744 49.1638C61.2889 49.7516 61.0286 50.3225 60.7935 50.8766C60.5752 51.414 60.4325 51.8674 60.3653 52.2368C60.3149 52.4551 60.2898 52.6566 60.2898 52.8413C60.2898 53.11 60.3401 53.2863 60.4409 53.3703C60.5416 53.4543 60.6508 53.4962 60.7683 53.4962C61.1042 53.4962 61.4484 53.3199 61.8011 52.9673C62.1537 52.6146 62.4895 52.1948 62.8086 51.7079C63.1444 51.2041 63.4383 50.7171 63.6902 50.2469C63.9421 49.76 64.1268 49.3905 64.2443 49.1387C64.3451 48.9539 64.4458 48.8616 64.5466 48.8616C64.6473 48.8616 64.6977 48.9288 64.6977 49.0631C64.6977 49.147 64.6725 49.2394 64.6221 49.3402C64.4206 49.7264 64.1772 50.1882 63.8917 50.7255C63.623 51.2629 63.3124 51.7918 62.9597 52.3124C62.6071 52.8161 62.2125 53.2444 61.7759 53.597C61.3561 53.9328 60.9027 54.1008 60.4157 54.1008C60.0631 54.1008 59.702 53.9832 59.3326 53.7481C58.98 53.513 58.8036 53.0764 58.8036 52.4383C58.8036 52.0857 58.8792 51.6575 59.0303 51.1537C59.1479 50.8179 59.3242 50.4317 59.5593 49.9951C59.8112 49.5585 60.1134 49.0547 60.4661 48.4838C60.634 48.1983 60.718 47.9716 60.718 47.8037C60.718 47.6022 60.6172 47.5014 60.4157 47.5014C60.2478 47.5014 60.0127 47.5854 59.7104 47.7533C59.425 47.9212 59.0639 48.2151 58.6273 48.6349C58.3586 48.8868 58.0396 49.2394 57.6702 49.6928C57.3175 50.1294 56.9565 50.608 56.5871 51.1285C56.2176 51.6491 55.8986 52.1613 55.6299 52.665C55.3612 53.1688 55.1849 53.6138 55.101 54C54.8491 54 54.6476 53.8992 54.4964 53.6977C54.3453 53.4794 54.2697 53.2276 54.2697 52.9421C54.2697 52.8917 54.2697 52.8413 54.2697 52.791C54.2697 52.7406 54.2781 52.6818 54.2949 52.6146C54.3789 52.0941 54.5132 51.6071 54.6979 51.1537C54.8827 50.7003 55.0926 50.2301 55.3277 49.7432C55.5124 49.3905 55.6971 49.0127 55.8818 48.6097C56.0665 48.1899 56.1589 47.8708 56.1589 47.6525C56.1589 47.5182 56.1085 47.451 56.0077 47.451C55.8902 47.451 55.6971 47.5434 55.4284 47.7281C55.1597 47.896 54.7903 48.1983 54.3201 48.6349C53.9003 49.0379 53.3882 49.6172 52.7836 50.3729C52.1959 51.1285 51.5494 52.2032 50.8441 53.597C50.7434 53.7817 50.6258 53.8992 50.4915 53.9496C50.3572 53.9832 50.1473 54 49.8618 54C49.6771 54 49.5259 54 49.4084 54C49.2741 54.0168 49.1397 54.0588 49.0054 54.1259ZM60.7882 62.0351C59.915 62.0351 59.2937 61.8588 58.9243 61.5061C58.5548 61.1703 58.3701 60.7673 58.3701 60.2971C58.3701 60.0452 58.4037 59.8269 58.4709 59.6422C58.5381 59.4575 58.6388 59.2224 58.7731 58.9369C59.0082 58.4499 59.3357 58.0301 59.7555 57.6775C60.1753 57.3249 60.6287 57.0394 61.1157 56.8211C61.9889 56.4181 62.9796 56.0906 64.0879 55.8387C65.213 55.5869 66.2877 55.3098 67.312 55.0075C67.631 54.4534 67.9249 53.8237 68.1936 53.1184C68.4623 52.3963 68.7057 51.6995 68.924 51.0278C69.1423 50.3393 69.3187 49.7768 69.453 49.3402C69.2515 49.7096 68.9912 50.163 68.6722 50.7003C68.3699 51.2209 68.0257 51.7331 67.6394 52.2368C67.2532 52.7406 66.8334 53.1604 66.38 53.4962C65.9434 53.8321 65.4816 54 64.9947 54C64.8099 54 64.5833 53.958 64.3146 53.8741C64.0627 53.7901 63.836 53.639 63.6345 53.4207C63.4498 53.1856 63.3574 52.8413 63.3574 52.3879C63.3574 51.9513 63.4582 51.5315 63.6597 51.1285C63.878 50.7087 64.0795 50.3057 64.2642 49.9195C64.2138 49.9195 64.1551 49.9027 64.0879 49.8691C64.0375 49.8355 64.0123 49.7852 64.0123 49.718C64.0123 49.6508 64.0291 49.5836 64.0627 49.5165C64.1299 49.3821 64.2054 49.2394 64.2894 49.0883C64.3734 48.9371 64.4489 48.7776 64.5161 48.6097C64.768 48.0891 65.0199 47.5938 65.2717 47.1236C65.5236 46.6366 65.7419 46.2084 65.9266 45.839C66.1113 45.4696 66.4304 45.2848 66.8838 45.2848H68.4455C68.3279 45.3856 68.1768 45.5031 67.9921 45.6375C67.8242 45.755 67.6646 45.9397 67.5135 46.1916C67.0601 46.9641 66.6655 47.7113 66.3296 48.4334C65.9938 49.1387 65.6328 49.8943 65.2465 50.7003C65.0618 51.0866 64.9275 51.4392 64.8435 51.7582C64.7596 52.0773 64.7176 52.3544 64.7176 52.5895C64.7176 53.1436 64.9023 53.4207 65.2717 53.4207C65.6747 53.4207 66.1617 53.0932 66.7327 52.4383C67.2028 51.8842 67.673 51.2293 68.1432 50.4736C68.6302 49.7012 69.092 48.912 69.5286 48.1059C69.982 47.2831 70.3766 46.5275 70.7124 45.839C70.8971 45.4696 71.2246 45.2848 71.6948 45.2848H73.0801C72.5931 45.6207 72.2153 46.0573 71.9466 46.5946C71.6948 47.132 71.4093 47.8205 71.0902 48.6601C70.7376 49.5836 70.4018 50.5408 70.0827 51.5315C69.7804 52.5055 69.4362 53.4878 69.05 54.4786C69.6041 54.2939 70.2254 54.0084 70.9139 53.6222C71.6192 53.236 72.2153 52.6818 72.7023 51.9597C73.0885 51.3888 73.416 50.8431 73.6846 50.3225C73.9701 49.7852 74.1716 49.3989 74.2892 49.1638C74.3563 48.9959 74.4487 48.912 74.5662 48.912C74.6838 48.912 74.7425 48.9875 74.7425 49.1387C74.7425 49.2226 74.7174 49.315 74.667 49.4157C74.2304 50.2889 73.8358 51.0278 73.4831 51.6323C73.1473 52.22 72.7695 52.7322 72.3497 53.1688C71.9466 53.5886 71.4513 53.958 70.8635 54.2771C70.2758 54.6129 69.5286 54.9488 68.6218 55.2846C68.2188 56.0067 67.757 56.7539 67.2364 57.5264C66.7327 58.3156 66.1533 59.0461 65.4984 59.7178C64.8603 60.4062 64.1467 60.9604 63.3574 61.3802C62.585 61.8168 61.7286 62.0351 60.7882 62.0351ZM60.1837 61.5313C60.7378 61.5313 61.3088 61.3634 61.8965 61.0275C62.4842 60.6917 63.0552 60.2635 63.6093 59.7429C64.1634 59.2392 64.6672 58.7186 65.1206 58.1813C65.5908 57.6607 65.9686 57.1989 66.2541 56.7959C66.338 56.6784 66.4304 56.5272 66.5312 56.3425C66.6319 56.1578 66.7327 55.9815 66.8334 55.8136C66.0106 56.0319 65.1038 56.2669 64.1131 56.5188C63.1391 56.7875 62.2911 57.0814 61.5691 57.4004C60.763 57.7363 60.1333 58.2148 59.6799 58.8362C59.2097 59.4575 58.9747 60.0116 58.9747 60.4986C58.9747 60.8008 59.0754 61.0443 59.2769 61.229C59.4616 61.4306 59.7639 61.5313 60.1837 61.5313ZM87.7934 58.3576C86.6684 58.3576 85.5853 58.2065 84.5441 57.9042C83.5198 57.6019 82.6046 57.1569 81.7986 56.5692C81.0094 55.9983 80.3797 55.2846 79.9095 54.4282C79.4561 53.5886 79.2294 52.6146 79.2294 51.5064C79.2294 50.8179 79.3302 50.0958 79.5317 49.3402C79.6828 48.786 79.9515 48.2655 80.3377 47.7785C80.7239 47.2915 81.1353 46.8969 81.5719 46.5946C82.0085 46.2756 82.3612 46.1077 82.6298 46.0909C82.8313 46.0909 82.9321 46.1328 82.9321 46.2168C82.9321 46.3176 82.8481 46.4015 82.6802 46.4687C82.3947 46.5694 82.0673 46.8045 81.6979 47.174C81.3284 47.5434 80.9926 48.0052 80.6903 48.5593C80.4049 49.1135 80.2118 49.7348 80.111 50.4233C80.0606 50.7423 80.0354 51.053 80.0354 51.3552C80.0354 52.3292 80.2453 53.1604 80.6651 53.8489C81.0849 54.5374 81.6391 55.0915 82.3276 55.5113C83.0161 55.9479 83.7633 56.2586 84.5693 56.4433C85.3922 56.6448 86.2066 56.7455 87.0126 56.7455C87.7683 56.7455 88.4567 56.67 89.078 56.5188C90.858 56.1158 92.4113 55.5197 93.7379 54.7305C95.0645 53.958 96.1979 53.0596 97.1383 52.0353C98.0955 51.011 98.9015 49.9363 99.5564 48.8112C100.211 47.6693 100.749 46.5443 101.168 45.436C100.866 45.436 100.598 45.4696 100.362 45.5367C100.144 45.6039 99.909 45.7046 99.6571 45.839C99.6068 45.8558 99.5144 45.8894 99.3801 45.9397C99.2457 45.9733 99.145 45.9901 99.0778 45.9901C98.9267 45.9901 98.8511 45.9397 98.8511 45.839C98.8511 45.7718 98.8847 45.6795 98.9519 45.5619C99.0694 45.3772 99.2793 45.1841 99.5816 44.9826C99.8838 44.7643 100.203 44.6299 100.539 44.5796H101.496C101.815 43.7903 102.159 42.9759 102.529 42.1363C102.915 41.2799 103.284 40.4655 103.637 39.693C103.99 38.9206 104.309 38.2405 104.594 37.6528C104.88 37.065 105.089 36.6368 105.224 36.3682C104.3 36.4689 103.343 36.5613 102.352 36.6452C101.362 36.7124 100.388 36.83 99.4304 36.9979C98.4733 37.149 97.5665 37.4009 96.7101 37.7535C95.8369 38.1062 95.0561 38.6099 94.3676 39.2648C93.6959 39.9029 93.167 40.625 92.7807 41.431C92.3945 42.2203 92.2014 43.0431 92.2014 43.8995C92.2014 44.7223 92.4281 45.4024 92.8815 45.9397C93.3349 46.4771 93.931 46.7458 94.6699 46.7458C94.8378 46.7458 95.0141 46.729 95.1988 46.6954C95.3835 46.6618 95.5766 46.6114 95.7781 46.5443C96.1644 46.3931 96.5002 46.1496 96.7857 45.8138C97.0879 45.4779 97.3314 45.1001 97.5161 44.6803C97.7008 44.2605 97.8352 43.8491 97.9191 43.4461C98.0199 43.0431 98.0703 42.7156 98.0703 42.4637C98.0703 42.2622 98.0451 42.1279 97.9947 42.0607C97.9275 41.9768 97.894 41.8928 97.894 41.8088C97.894 41.6913 97.9443 41.6325 98.0451 41.6325C98.1626 41.6325 98.255 41.6997 98.3222 41.834C98.4229 42.0523 98.4901 42.2706 98.5237 42.4889C98.574 42.7072 98.5992 42.9255 98.5992 43.1438C98.5992 43.7148 98.4649 44.2689 98.1962 44.8063C97.9275 45.3268 97.5833 45.7802 97.1635 46.1664C96.7437 46.5527 96.2903 46.8381 95.8033 47.0228C95.585 47.1068 95.3583 47.174 95.1232 47.2243C94.8882 47.2579 94.6615 47.2747 94.4432 47.2747C93.7379 47.2747 93.0914 47.0984 92.5037 46.7458C91.9327 46.3763 91.4709 45.881 91.1183 45.2597C90.7657 44.6383 90.5893 43.9499 90.5893 43.1942C90.5893 42.1195 90.8328 41.1707 91.3198 40.3479C91.8068 39.5083 92.4701 38.7946 93.3097 38.2069C94.1661 37.6192 95.1232 37.1742 96.1812 36.8719C97.2055 36.5697 98.2634 36.3598 99.3549 36.2422C100.463 36.1247 101.546 36.0407 102.604 35.9903C103.679 35.9232 104.661 35.8476 105.551 35.7637C105.618 35.6629 105.753 35.4698 105.954 35.1843C106.173 34.8989 106.416 34.6134 106.685 34.3279C106.97 34.0257 107.247 33.8325 107.516 33.7486C107.701 33.6982 107.877 33.673 108.045 33.673C108.297 33.673 108.515 33.7402 108.7 33.8745C108.884 33.9921 108.977 34.1852 108.977 34.4539C108.977 34.8569 108.792 35.2011 108.423 35.4866C108.07 35.7553 107.65 35.9652 107.163 36.1163C106.693 36.2674 106.29 36.343 105.954 36.343C105.77 36.7124 105.551 37.1994 105.299 37.8039C105.047 38.3916 104.787 39.0381 104.518 39.7434C104.267 40.4319 104.015 41.1036 103.763 41.7585C103.511 42.4134 103.284 42.9927 103.083 43.4965C102.898 44.0002 102.764 44.3613 102.68 44.5796C103.822 44.5796 104.938 44.6132 106.03 44.6803C107.121 44.7475 108.12 44.8231 109.027 44.907C109.951 44.9742 110.706 45.0078 111.294 45.0078C111.361 44.8063 111.496 44.4452 111.697 43.9247C111.899 43.4041 112.151 42.7912 112.453 42.0859C112.755 41.3639 113.083 40.625 113.435 39.8693C113.805 39.0969 114.182 38.3664 114.569 37.678C114.972 36.9895 115.358 36.4102 115.727 35.94C116.114 35.4698 116.466 35.1759 116.785 35.0584C117.138 34.924 117.423 34.8401 117.642 34.8065C117.877 34.7561 118.053 34.7309 118.171 34.7309C118.271 34.7309 118.322 34.7477 118.322 34.7813C118.322 34.8317 118.204 34.9156 117.969 35.0332C117.852 35.0836 117.608 35.3606 117.239 35.8644C116.886 36.3514 116.458 37.0315 115.954 37.9047C115.45 38.7611 114.913 39.7938 114.342 41.0028C113.788 42.1951 113.259 43.5217 112.755 44.9826C113.024 44.9826 113.376 44.9742 113.813 44.9574C114.25 44.9406 114.569 44.8902 114.77 44.8063C114.837 44.7727 114.896 44.7559 114.946 44.7559C114.997 44.7559 115.039 44.7559 115.072 44.7559C115.173 44.7559 115.224 44.7811 115.224 44.8314C115.224 44.8986 115.14 44.991 114.972 45.1085C114.653 45.3436 114.258 45.5115 113.788 45.6123C113.318 45.713 112.889 45.7718 112.503 45.7886C112.419 46.0909 112.285 46.5191 112.1 47.0732C111.932 47.6106 111.748 48.2067 111.546 48.8616C111.361 49.5165 111.202 50.1714 111.067 50.8263C110.933 51.4644 110.866 52.0353 110.866 52.5391C110.866 53.1436 110.975 53.5634 111.193 53.7985C111.378 54 111.588 54.1008 111.823 54.1008C112.092 54.1008 112.352 54 112.604 53.7985C113.041 53.4794 113.444 53.068 113.813 52.5643C114.199 52.0437 114.552 51.498 114.871 50.927C115.207 50.3393 115.509 49.7768 115.778 49.2394C115.895 49.0043 116.013 48.8868 116.13 48.8868C116.214 48.8868 116.256 48.9455 116.256 49.0631C116.256 49.1638 116.223 49.2814 116.155 49.4157C115.803 50.1546 115.484 50.7927 115.198 51.33C114.913 51.8674 114.611 52.3628 114.292 52.8161C113.973 53.2527 113.569 53.7061 113.083 54.1763C112.831 54.4114 112.528 54.6129 112.176 54.7808C111.84 54.9656 111.487 55.0579 111.118 55.0579C110.799 55.0579 110.497 54.9823 110.211 54.8312C109.875 54.6465 109.632 54.3694 109.481 54C109.329 53.6138 109.254 53.1688 109.254 52.665C109.254 52.0941 109.321 51.4728 109.455 50.8011C109.607 50.1294 109.783 49.4745 109.984 48.8364C110.203 48.1815 110.413 47.5854 110.614 47.048C110.816 46.5107 110.967 46.0909 111.067 45.7886C110.782 45.7886 110.287 45.7802 109.581 45.7634C108.876 45.7298 108.078 45.7046 107.188 45.6879C106.315 45.6543 105.45 45.6207 104.594 45.5871C103.754 45.5367 103.049 45.5031 102.478 45.4863C101.958 47.0144 101.278 48.5005 100.438 49.9447C99.6152 51.372 98.6412 52.6734 97.5161 53.8489C96.3911 55.0243 95.14 55.9983 93.7631 56.7707C92.4029 57.56 90.9252 58.0553 89.3299 58.2568C89.162 58.2736 88.9185 58.2904 88.5995 58.3072C88.2804 58.3408 88.0117 58.3576 87.7934 58.3576ZM106.433 35.7133C107.071 35.6125 107.491 35.4782 107.692 35.3103C107.911 35.1255 108.02 34.966 108.02 34.8317C108.02 34.7309 107.986 34.647 107.919 34.5798C107.869 34.5126 107.81 34.479 107.743 34.479C107.675 34.4287 107.558 34.479 107.39 34.6302C107.222 34.7813 107.046 34.966 106.861 35.1843C106.693 35.3858 106.55 35.5621 106.433 35.7133ZM117.584 54.1008C116.962 54.1008 116.4 53.8992 115.896 53.4962C115.409 53.0932 115.165 52.4803 115.165 51.6575C115.165 50.9018 115.35 50.0958 115.72 49.2394C116.089 48.3662 116.559 47.6022 117.13 46.9473C117.617 46.3763 118.163 45.9062 118.767 45.5367C119.372 45.1673 119.943 44.9826 120.48 44.9826C120.85 44.9826 121.169 45.0833 121.437 45.2848C121.723 45.5031 121.866 45.8138 121.866 46.2168C121.866 46.6366 121.706 47.0984 121.387 47.6022C121.068 48.1059 120.615 48.5761 120.027 49.0127C119.775 49.1974 119.456 49.3737 119.07 49.5417C118.683 49.7096 118.297 49.8523 117.911 49.9699C117.525 50.0706 117.206 50.121 116.954 50.121C116.87 50.3225 116.786 50.5912 116.702 50.927C116.635 51.2629 116.601 51.6071 116.601 51.9597C116.601 52.3796 116.685 52.7574 116.853 53.0932C117.021 53.4291 117.332 53.597 117.785 53.597C118.339 53.597 118.843 53.4375 119.296 53.1184C119.75 52.7994 120.153 52.4047 120.505 51.9346C120.858 51.4476 121.152 50.9606 121.387 50.4736C121.639 49.9867 121.84 49.5753 121.992 49.2394C122.092 49.0043 122.227 48.8868 122.395 48.8868C122.478 48.8868 122.52 48.9288 122.52 49.0127C122.52 49.0799 122.495 49.1638 122.445 49.2646C122.21 49.7684 121.958 50.3057 121.689 50.8766C121.421 51.4308 121.102 51.9597 120.732 52.4635C120.363 52.9505 119.918 53.3451 119.397 53.6474C118.893 53.9496 118.289 54.1008 117.584 54.1008ZM117.13 49.6676C117.365 49.6676 117.76 49.5836 118.314 49.4157C118.868 49.231 119.372 48.9455 119.825 48.5593C120.262 48.1731 120.598 47.7533 120.833 47.2999C121.068 46.8297 121.185 46.4351 121.185 46.1161C121.185 45.7466 121.051 45.5619 120.782 45.5619C120.581 45.5619 120.304 45.6962 119.951 45.9649C119.599 46.2336 119.162 46.687 118.641 47.3251C118.322 47.7281 118.02 48.1647 117.735 48.6349C117.449 49.1051 117.248 49.4493 117.13 49.6676ZM119.65 54.2015C120.255 52.9757 120.834 51.7666 121.388 50.5744C121.959 49.3653 122.538 48.2151 123.126 47.1236C123.462 46.5191 123.739 46.0993 123.957 45.8642C124.192 45.6123 124.503 45.4863 124.889 45.4863C125.024 45.4863 125.166 45.5115 125.318 45.5619C125.469 45.5955 125.62 45.6123 125.771 45.6123C125.872 45.6123 125.947 45.6039 125.998 45.5871C125.763 45.7214 125.46 46.0573 125.091 46.5946C124.721 47.1152 124.344 47.7197 123.957 48.4082C123.571 49.0967 123.227 49.7432 122.925 50.3477C123.244 49.9615 123.571 49.5753 123.907 49.189C124.26 48.8028 124.646 48.4334 125.066 48.0807C125.469 47.7281 125.947 47.3671 126.501 46.9976C127.072 46.6114 127.626 46.2924 128.164 46.0405C128.701 45.7886 129.129 45.6627 129.448 45.6627C129.566 45.6627 129.65 45.6711 129.7 45.6879C129.7 45.6879 129.608 45.8558 129.423 46.1916C129.239 46.5107 129.003 46.9389 128.718 47.4762C128.449 47.9968 128.172 48.5593 127.887 49.1638C127.601 49.7516 127.341 50.3225 127.106 50.8766C126.888 51.414 126.745 51.8674 126.678 52.2368C126.627 52.4551 126.602 52.6566 126.602 52.8413C126.602 53.11 126.653 53.2863 126.753 53.3703C126.854 53.4543 126.963 53.4962 127.081 53.4962C127.4 53.4962 127.736 53.3283 128.088 52.9925C128.441 52.6398 128.777 52.2116 129.096 51.7079C129.432 51.2041 129.726 50.7171 129.977 50.2469C130.246 49.76 130.439 49.3905 130.557 49.1387C130.624 49.0043 130.674 48.9288 130.708 48.912C130.741 48.8784 130.792 48.8616 130.859 48.8616C130.96 48.8616 131.01 48.9288 131.01 49.0631C131.01 49.147 130.985 49.2394 130.935 49.3402C130.733 49.7264 130.49 50.1882 130.204 50.7255C129.935 51.2629 129.625 51.7918 129.272 52.3124C128.919 52.8161 128.533 53.2444 128.113 53.597C127.694 53.9328 127.24 54.1008 126.753 54.1008C126.417 54.1008 126.065 53.9832 125.695 53.7481C125.343 53.513 125.166 53.0764 125.166 52.4383C125.166 52.2536 125.183 52.0605 125.217 51.859C125.25 51.6407 125.309 51.4056 125.393 51.1537C125.527 50.8179 125.687 50.4568 125.872 50.0706C126.056 49.6844 126.359 49.1554 126.778 48.4838C126.896 48.299 126.963 48.1563 126.98 48.0556C127.014 47.9548 127.03 47.8708 127.03 47.8037C127.03 47.6022 126.938 47.5014 126.753 47.5014C126.602 47.5014 126.375 47.5854 126.073 47.7533C125.788 47.9212 125.427 48.2151 124.99 48.6349C124.57 49.0379 124.067 49.6088 123.479 50.3477C122.908 51.0866 122.245 52.178 121.489 53.6222C121.371 53.8405 121.237 53.958 121.086 53.9748C120.952 53.9916 120.758 54.0084 120.507 54.0252C120.339 54.042 120.179 54.0504 120.028 54.0504C119.877 54.0672 119.751 54.1175 119.65 54.2015ZM136.071 54C135.618 54 135.24 53.7733 134.938 53.3199C134.854 53.1856 134.778 53.0093 134.711 52.791C134.644 52.5727 134.61 52.3292 134.61 52.0605C134.61 51.9094 134.619 51.7582 134.636 51.6071C134.652 51.4392 134.686 51.2713 134.736 51.1033C134.501 51.4728 134.224 51.8842 133.905 52.3376C133.603 52.7742 133.25 53.1604 132.847 53.4962C132.461 53.8153 132.024 53.9748 131.537 53.9748C131.37 53.9748 131.193 53.9496 131.009 53.8992C130.555 53.7649 130.228 53.5298 130.026 53.194C129.841 52.8581 129.749 52.4551 129.749 51.9849C129.749 51.4644 129.85 50.8934 130.051 50.2721C130.27 49.6508 130.538 49.0463 130.857 48.4586C131.193 47.8708 131.537 47.3671 131.89 46.9473C132.394 46.3595 132.973 45.8894 133.628 45.5367C134.283 45.1841 134.946 45.0078 135.618 45.0078C136.223 45.0078 136.793 45.1673 137.331 45.4863C137.583 45.0162 137.851 44.4956 138.137 43.9247C138.422 43.3369 138.708 42.7576 138.993 42.1867C139.279 41.6157 139.531 41.0952 139.749 40.625C139.967 40.138 140.135 39.7686 140.253 39.5167C140.505 38.929 140.74 38.5596 140.958 38.4084C141.193 38.2405 141.47 38.1565 141.789 38.1565C141.974 38.1565 142.175 38.1817 142.394 38.2321C142.629 38.2657 142.855 38.2741 143.074 38.2573C142.973 38.358 142.763 38.6519 142.444 39.1389C142.142 39.6091 141.781 40.2136 141.361 40.9524C140.941 41.6913 140.488 42.5057 140.001 43.3957C139.531 44.2689 139.06 45.1589 138.59 46.0657C138.137 46.9557 137.709 47.8037 137.306 48.6097C136.919 49.3989 136.609 50.079 136.374 50.65C136.306 50.7843 136.206 51.0614 136.071 51.4812C135.954 51.8842 135.895 52.2368 135.895 52.5391C135.895 52.7574 135.945 52.9505 136.046 53.1184C136.147 53.2695 136.315 53.3451 136.55 53.3451C136.869 53.3451 137.188 53.1856 137.507 52.8665C137.843 52.5307 138.162 52.1277 138.464 51.6575C138.767 51.1705 139.035 50.7003 139.27 50.2469C139.505 49.7768 139.682 49.4073 139.799 49.1387C139.883 48.9539 139.984 48.8616 140.102 48.8616C140.202 48.8616 140.253 48.9371 140.253 49.0883C140.253 49.1051 140.253 49.1387 140.253 49.189C140.253 49.2226 140.236 49.2646 140.202 49.315C140.051 49.6676 139.841 50.1042 139.573 50.6248C139.321 51.1453 139.018 51.6659 138.666 52.1864C138.313 52.707 137.919 53.1436 137.482 53.4962C137.045 53.8321 136.575 54 136.071 54ZM131.714 53.2444C131.949 53.2444 132.243 53.1184 132.595 52.8665C132.948 52.5978 133.326 52.178 133.729 51.6071C134.199 50.9354 134.736 50.0958 135.341 49.0883C135.945 48.0807 136.542 47.0144 137.129 45.8894C136.911 45.6879 136.659 45.5871 136.374 45.5871C135.903 45.5871 135.375 45.8054 134.787 46.242C134.216 46.6786 133.653 47.2327 133.099 47.9044C132.562 48.5761 132.108 49.2562 131.739 49.9447C131.487 50.4149 131.302 50.8431 131.185 51.2293C131.084 51.6155 131.034 51.9513 131.034 52.2368C131.034 52.9085 131.26 53.2444 131.714 53.2444ZM141.591 54.1008C140.97 54.1008 140.407 53.8992 139.904 53.4962C139.417 53.0932 139.173 52.4803 139.173 51.6575C139.173 50.9018 139.358 50.0958 139.727 49.2394C140.097 48.3662 140.567 47.6022 141.138 46.9473C141.625 46.3763 142.171 45.9062 142.775 45.5367C143.38 45.1673 143.95 44.9826 144.488 44.9826C144.857 44.9826 145.176 45.0833 145.445 45.2848C145.73 45.5031 145.873 45.8138 145.873 46.2168C145.873 46.6366 145.714 47.0984 145.395 47.6022C145.076 48.1059 144.622 48.5761 144.034 49.0127C143.783 49.1974 143.464 49.3737 143.077 49.5417C142.691 49.7096 142.305 49.8523 141.919 49.9699C141.532 50.0706 141.213 50.121 140.961 50.121C140.878 50.3225 140.794 50.5912 140.71 50.927C140.642 51.2629 140.609 51.6071 140.609 51.9597C140.609 52.3796 140.693 52.7574 140.861 53.0932C141.029 53.4291 141.339 53.597 141.793 53.597C142.347 53.597 142.851 53.4375 143.304 53.1184C143.757 52.7994 144.16 52.4047 144.513 51.9346C144.866 51.4476 145.16 50.9606 145.395 50.4736C145.647 49.9867 145.848 49.5753 145.999 49.2394C146.1 49.0043 146.234 48.8868 146.402 48.8868C146.486 48.8868 146.528 48.9288 146.528 49.0127C146.528 49.0799 146.503 49.1638 146.453 49.2646C146.217 49.7684 145.966 50.3057 145.697 50.8766C145.428 51.4308 145.109 51.9597 144.74 52.4635C144.37 52.9505 143.925 53.3451 143.405 53.6474C142.901 53.9496 142.296 54.1008 141.591 54.1008ZM141.138 49.6676C141.373 49.6676 141.768 49.5836 142.322 49.4157C142.876 49.231 143.38 48.9455 143.833 48.5593C144.27 48.1731 144.605 47.7533 144.84 47.2999C145.076 46.8297 145.193 46.4351 145.193 46.1161C145.193 45.7466 145.059 45.5619 144.79 45.5619C144.589 45.5619 144.312 45.6962 143.959 45.9649C143.606 46.2336 143.17 46.687 142.649 47.3251C142.33 47.7281 142.028 48.1647 141.742 48.6349C141.457 49.1051 141.255 49.4493 141.138 49.6676ZM149.048 54.0252C148.729 54.0252 148.41 53.8992 148.091 53.6474C147.772 53.3787 147.612 52.9505 147.612 52.3628C147.612 51.9094 147.722 51.3888 147.94 50.8011C148.141 50.2301 148.41 49.676 148.746 49.1387C149.098 48.6013 149.35 48.1647 149.501 47.8289C149.552 47.6945 149.577 47.577 149.577 47.4762C149.577 47.174 149.384 46.9557 148.998 46.8213C148.628 46.687 148.141 46.6114 147.537 46.5946L147.235 47.4258C147.05 47.9632 146.79 48.5929 146.454 49.315C146.135 50.037 145.774 50.7339 145.371 51.4056C144.984 52.0773 144.581 52.6146 144.162 53.0177C144.128 53.0512 144.086 53.068 144.036 53.068C143.968 53.068 143.926 53.0261 143.91 52.9421C143.876 52.8581 143.91 52.7574 144.01 52.6398C144.665 51.7666 145.253 50.8011 145.774 49.7432C146.294 48.6685 146.731 47.577 147.083 46.4687C147.453 45.3604 147.722 44.3361 147.889 43.3957C147.94 43.127 148.032 42.9339 148.167 42.8164C148.301 42.682 148.444 42.6149 148.595 42.6149C148.813 42.6149 149.015 42.724 149.199 42.9423C149.384 43.1438 149.476 43.4377 149.476 43.8239C149.476 43.8911 149.468 43.9667 149.451 44.0506C149.451 44.1346 149.443 44.2185 149.426 44.3025C149.359 44.6551 149.157 44.991 148.821 45.31C148.502 45.6123 148.242 45.839 148.041 45.9901C148.208 46.0069 148.385 46.0237 148.57 46.0405C148.754 46.0405 148.956 46.0405 149.174 46.0405C149.963 46.0405 150.744 45.9901 151.517 45.8894C151.55 45.9901 151.567 46.0657 151.567 46.1161C151.567 46.3344 151.5 46.6114 151.365 46.9473C151.248 47.2831 151.122 47.5854 150.988 47.854C150.92 48.0052 150.786 48.2822 150.585 48.6853C150.383 49.0715 150.165 49.5165 149.93 50.0202C149.695 50.5072 149.493 50.9942 149.325 51.4812C149.174 51.9513 149.098 52.3544 149.098 52.6902C149.098 53.1268 149.266 53.3451 149.602 53.3451C149.854 53.3451 150.131 53.1856 150.433 52.8665C150.736 52.5307 151.03 52.1277 151.315 51.6575C151.617 51.1705 151.886 50.7003 152.121 50.2469C152.373 49.7768 152.566 49.4073 152.7 49.1387C152.768 48.9707 152.86 48.8868 152.977 48.8868C153.045 48.8868 153.078 48.9455 153.078 49.0631C153.078 49.1303 153.053 49.231 153.003 49.3653C152.818 49.7516 152.6 50.1882 152.348 50.6751C152.096 51.1621 151.81 51.6407 151.491 52.1109C151.189 52.5811 150.853 52.9925 150.484 53.3451C150.131 53.6809 149.745 53.8992 149.325 54C149.275 54.0168 149.182 54.0252 149.048 54.0252ZM153.198 54.1008C152.375 54.1008 151.787 53.8909 151.434 53.471C151.099 53.0344 150.931 52.5811 150.931 52.1109C150.931 51.7247 151.023 51.372 151.208 51.053C151.409 50.7339 151.644 50.566 151.913 50.5492C152.249 49.8943 152.61 49.1806 152.996 48.4082C153.399 47.6357 153.769 46.8885 154.104 46.1664C154.34 45.6795 154.633 45.2093 154.986 44.7559C155.355 44.3025 155.758 44.0422 156.195 43.975H156.447C156.581 43.975 156.699 43.9834 156.8 44.0002C156.917 44.017 157.035 44.0506 157.152 44.101C157.337 44.1849 157.429 44.3109 157.429 44.4788C157.429 44.5796 157.371 44.6299 157.253 44.6299C157.203 44.6299 157.135 44.6048 157.051 44.5544C156.85 44.4704 156.674 44.4284 156.523 44.4284C156.422 44.4284 156.329 44.4536 156.245 44.504C155.926 44.6719 155.7 44.907 155.565 45.2093C155.448 45.5115 155.389 45.8306 155.389 46.1664C155.389 46.4351 155.414 46.7122 155.465 46.9976C155.532 47.2663 155.607 47.5098 155.691 47.7281C155.876 48.1983 156.069 48.6601 156.271 49.1135C156.489 49.5669 156.598 50.0538 156.598 50.5744C156.598 51.0782 156.43 51.6155 156.094 52.1864C155.758 52.7406 155.33 53.1856 154.81 53.5214L154.986 53.5466C155.07 53.5634 155.129 53.5718 155.162 53.5718C155.196 53.5718 155.221 53.5718 155.238 53.5718C155.624 53.5718 155.985 53.4626 156.321 53.2444C156.674 53.0093 156.984 52.7238 157.253 52.3879C157.522 52.0521 157.824 51.5819 158.16 50.9774C158.512 50.3729 158.848 49.7348 159.167 49.0631C159.218 48.9791 159.276 48.9371 159.344 48.9371C159.428 48.9371 159.486 48.9707 159.52 49.0379C159.57 49.0883 159.579 49.1554 159.545 49.2394C159.327 49.7096 159.075 50.2218 158.789 50.7759C158.521 51.3132 158.21 51.8338 157.858 52.3376C157.505 52.8245 157.093 53.2276 156.623 53.5466C156.17 53.8489 155.658 54 155.087 54C154.952 54 154.81 53.9916 154.659 53.9748C154.507 53.958 154.356 53.9244 154.205 53.8741C154.037 53.9412 153.861 53.9916 153.676 54.0252C153.508 54.0756 153.349 54.1008 153.198 54.1008ZM153.953 53.3451C154.239 53.11 154.491 52.7658 154.709 52.3124C154.944 51.859 155.062 51.2629 155.062 50.524C155.062 49.8691 154.994 49.1722 154.86 48.4334C154.726 47.6945 154.659 47.0396 154.659 46.4687C154.659 46.3511 154.659 46.2504 154.659 46.1664C154.675 46.0657 154.692 45.9733 154.709 45.8894C154.491 46.3427 154.239 46.8717 153.953 47.4762C153.668 48.064 153.382 48.6349 153.097 49.189C152.811 49.7432 152.568 50.2134 152.366 50.5996C152.366 50.5996 152.408 50.608 152.492 50.6248C152.593 50.6248 152.686 50.6835 152.769 50.8011C152.853 50.9018 152.887 51.1117 152.87 51.4308C152.853 51.8506 152.946 52.2452 153.147 52.6146C153.366 52.9673 153.634 53.2108 153.953 53.3451ZM152.996 53.6977C153.097 53.6977 153.189 53.6893 153.273 53.6726C153.357 53.639 153.433 53.6138 153.5 53.597C153.248 53.4123 153.021 53.1688 152.82 52.8665C152.635 52.5475 152.526 52.1445 152.492 51.6575C152.19 51.9765 152.039 52.3208 152.039 52.6902C152.039 52.9589 152.123 53.194 152.291 53.3955C152.459 53.597 152.694 53.6977 152.996 53.6977ZM160.297 54C159.659 54 159.188 53.7901 158.886 53.3703C158.584 52.9337 158.433 52.4047 158.433 51.7834C158.433 51.0278 158.609 50.2385 158.962 49.4157C159.298 48.6433 159.726 47.938 160.246 47.2999C160.767 46.6618 161.329 46.1496 161.934 45.7634C162.538 45.3604 163.126 45.1589 163.697 45.1589C164.335 45.1589 164.805 45.3688 165.108 45.7886C165.41 46.2084 165.561 46.7374 165.561 47.3755C165.561 48.1479 165.385 48.9371 165.032 49.7432C164.831 50.1966 164.545 50.7003 164.176 51.2545C163.806 51.7918 163.386 52.2872 162.916 52.7406C163.017 52.9253 163.16 53.0848 163.344 53.2192C163.529 53.3367 163.781 53.3955 164.1 53.3955C164.503 53.3955 164.881 53.2276 165.234 52.8917C165.603 52.5559 165.939 52.1529 166.241 51.6827C166.543 51.1957 166.812 50.7087 167.047 50.2218C167.282 49.7348 167.475 49.3402 167.626 49.0379C167.677 48.9371 167.761 48.8868 167.878 48.8868C167.946 48.8868 167.996 48.9204 168.029 48.9875C168.063 49.0379 168.055 49.1219 168.004 49.2394C167.904 49.4913 167.736 49.8691 167.501 50.3729C167.265 50.8599 166.98 51.372 166.644 51.9094C166.308 52.4299 165.922 52.8749 165.485 53.2444C165.049 53.6138 164.562 53.7985 164.025 53.7985C163.655 53.7985 163.336 53.7397 163.067 53.6222C162.799 53.4878 162.58 53.3283 162.412 53.1436C162.06 53.4123 161.707 53.6222 161.355 53.7733C161.002 53.9244 160.649 54 160.297 54ZM160.674 53.4459C161.128 53.4459 161.615 53.2276 162.135 52.791C162.001 52.5895 161.9 52.3796 161.833 52.1613C161.766 51.943 161.732 51.7414 161.732 51.5567C161.732 51.2545 161.8 50.9942 161.934 50.7759C162.085 50.5576 162.312 50.4484 162.614 50.4484C162.832 50.4484 163.009 50.5324 163.143 50.7003C163.294 50.8515 163.37 51.0278 163.37 51.2293C163.37 51.2797 163.361 51.33 163.344 51.3804C163.344 51.414 163.336 51.456 163.319 51.5064C163.605 51.1201 163.873 50.6667 164.125 50.1462C164.679 48.9539 164.956 47.9716 164.956 47.1992C164.956 46.8129 164.881 46.5107 164.73 46.2924C164.579 46.0741 164.352 45.9649 164.05 45.9649C163.697 45.9649 163.311 46.1161 162.891 46.4183C162.488 46.7206 162.093 47.1236 161.707 47.6274C161.338 48.1311 161.01 48.6937 160.725 49.315C160.456 49.8859 160.238 50.44 160.07 50.9774C159.919 51.498 159.843 51.9513 159.843 52.3376C159.843 52.6734 159.91 52.9421 160.045 53.1436C160.179 53.3451 160.389 53.4459 160.674 53.4459ZM165.132 54.2015C165.736 52.9757 166.316 51.7666 166.87 50.5744C167.441 49.3653 168.02 48.2151 168.608 47.1236C168.944 46.5191 169.221 46.0993 169.439 45.8642C169.674 45.6123 169.985 45.4863 170.371 45.4863C170.505 45.4863 170.648 45.5115 170.799 45.5619C170.95 45.5955 171.101 45.6123 171.253 45.6123C171.353 45.6123 171.429 45.6039 171.479 45.5871C171.244 45.7214 170.942 46.0573 170.572 46.5946C170.203 47.1152 169.825 47.7197 169.439 48.4082C169.053 49.0967 168.709 49.7432 168.406 50.3477C168.725 49.9615 169.053 49.5753 169.389 49.189C169.741 48.8028 170.128 48.4334 170.547 48.0807C170.95 47.7281 171.429 47.3671 171.983 46.9976C172.554 46.6114 173.108 46.2924 173.645 46.0405C174.183 45.7886 174.611 45.6627 174.93 45.6627C175.048 45.6627 175.132 45.6711 175.182 45.6879C175.182 45.6879 175.09 45.8558 174.905 46.1916C174.72 46.5107 174.485 46.9389 174.2 47.4762C173.931 47.9968 173.654 48.5593 173.368 49.1638C173.083 49.7516 172.823 50.3225 172.588 50.8766C172.369 51.414 172.227 51.8674 172.159 52.2368C172.109 52.4551 172.084 52.6566 172.084 52.8413C172.084 53.11 172.134 53.2863 172.235 53.3703C172.336 53.4543 172.445 53.4962 172.562 53.4962C172.881 53.4962 173.217 53.3283 173.57 52.9925C173.923 52.6398 174.258 52.2116 174.577 51.7079C174.913 51.2041 175.207 50.7171 175.459 50.2469C175.728 49.76 175.921 49.3905 176.038 49.1387C176.106 49.0043 176.156 48.9288 176.189 48.912C176.223 48.8784 176.273 48.8616 176.341 48.8616C176.441 48.8616 176.492 48.9288 176.492 49.0631C176.492 49.147 176.467 49.2394 176.416 49.3402C176.215 49.7264 175.971 50.1882 175.686 50.7255C175.417 51.2629 175.106 51.7918 174.754 52.3124C174.401 52.8161 174.015 53.2444 173.595 53.597C173.175 53.9328 172.722 54.1008 172.235 54.1008C171.899 54.1008 171.546 53.9832 171.177 53.7481C170.824 53.513 170.648 53.0764 170.648 52.4383C170.648 52.2536 170.665 52.0605 170.698 51.859C170.732 51.6407 170.791 51.4056 170.875 51.1537C171.009 50.8179 171.169 50.4568 171.353 50.0706C171.538 49.6844 171.84 49.1554 172.26 48.4838C172.378 48.299 172.445 48.1563 172.462 48.0556C172.495 47.9548 172.512 47.8708 172.512 47.8037C172.512 47.6022 172.42 47.5014 172.235 47.5014C172.084 47.5014 171.857 47.5854 171.555 47.7533C171.269 47.9212 170.908 48.2151 170.472 48.6349C170.052 49.0379 169.548 49.6088 168.96 50.3477C168.39 51.0866 167.726 52.178 166.971 53.6222C166.853 53.8405 166.719 53.958 166.568 53.9748C166.433 53.9916 166.24 54.0084 165.988 54.0252C165.82 54.042 165.661 54.0504 165.51 54.0504C165.359 54.0672 165.233 54.1175 165.132 54.2015Z" fill="white"></path>
</svg>
