<?xml version="1.0" encoding="UTF-8"?>
<svg xmlns="http://www.w3.org/2000/svg" width="245" height="57" viewBox="0 0 245 57" fill="none">
  <path d="M8.13583 30.0245C6.57415 30.0245 5.1804 29.7978 3.95457 29.3444C2.72874 28.891 1.76318 28.2277 1.05791 27.3545C0.352637 26.4981 0 25.457 0 24.2312C0 23.761 0.0587728 23.2656 0.176318 22.7451C0.277072 22.2413 0.444994 21.7039 0.680085 21.133C0.915176 20.5789 1.26781 20.0583 1.73799 19.5713C2.20818 19.0844 2.68675 18.6897 3.17373 18.3875C3.6607 18.0852 4.03853 17.9341 4.3072 17.9341H4.38277C4.5339 17.9341 4.60946 17.9593 4.60946 18.0097C4.60946 18.0432 4.57588 18.0852 4.50871 18.1356C4.44154 18.186 4.36598 18.228 4.28202 18.2615C3.99655 18.3791 3.63552 18.631 3.19892 19.0172C2.76232 19.3866 2.34251 19.8568 1.9395 20.4277C1.55328 20.9819 1.25942 21.5948 1.05791 22.2665C0.90678 22.8206 0.831215 23.3496 0.831215 23.8533C0.831215 24.7601 1.05791 25.5494 1.5113 26.221C1.96469 26.8927 2.56081 27.4469 3.29967 27.8835C4.03853 28.3369 4.85295 28.6727 5.74294 28.891C6.63293 29.1093 7.50612 29.2185 8.36252 29.2185C8.69837 29.2185 9.02582 29.2017 9.34487 29.1681C9.66392 29.1513 9.96618 29.1093 10.2516 29.0421C11.7294 28.7063 13.0811 28.1438 14.307 27.3545C15.5496 26.5821 16.6831 25.6585 17.7074 24.5838C18.7317 23.5091 19.6553 22.3504 20.4781 21.1078C21.3177 19.882 22.065 18.6394 22.7199 17.3799C23.3748 16.1205 23.9625 14.9199 24.4831 13.778C25.0036 12.6361 25.457 11.6286 25.8432 10.7554C26.4477 9.44562 27.0187 8.27017 27.556 7.22905C28.1102 6.17114 28.5888 5.28115 28.9918 4.55909C29.4116 3.83702 29.7138 3.33326 29.8985 3.04779C29.0757 3.18213 28.1605 3.40042 27.153 3.70268C26.1623 3.98815 25.1547 4.36598 24.1304 4.83616C23.1229 5.30634 22.1741 5.86048 21.2841 6.49859C20.4109 7.13669 19.6721 7.85876 19.0676 8.66478C18.4798 9.47081 18.102 10.3692 17.9341 11.3599C17.9173 11.5111 17.9005 11.6454 17.8837 11.7629C17.8837 11.8805 17.8837 12.0064 17.8837 12.1408C17.8837 12.8796 18.0516 13.4925 18.3875 13.9795C18.7233 14.4497 19.2019 14.6848 19.8232 14.6848C20.0919 14.6848 20.4277 14.6176 20.8307 14.4833C21.5024 14.2482 22.0146 13.9207 22.3672 13.5009C22.7367 13.0811 22.9969 12.6361 23.1481 12.166C23.2992 11.6958 23.3748 11.2844 23.3748 10.9317C23.3748 10.5119 23.3076 10.2349 23.1733 10.1005C23.0725 10.0501 23.0221 9.98297 23.0221 9.89901C23.0221 9.74788 23.1145 9.67232 23.2992 9.67232C23.4503 9.67232 23.5847 9.74788 23.7022 9.89901C23.8533 10.2684 23.9289 10.6547 23.9289 11.0577C23.9289 11.6118 23.7862 12.166 23.5007 12.7201C23.232 13.2575 22.8626 13.736 22.3924 14.1558C21.939 14.5756 21.4185 14.8863 20.8307 15.0878C20.3774 15.2557 19.9072 15.3397 19.4202 15.3397C18.4966 15.3397 17.7242 15.0374 17.1029 14.4329C16.4816 13.8116 16.1709 12.9888 16.1709 11.9645C16.1709 11.7126 16.1961 11.4523 16.2465 11.1836C16.4312 10.0082 16.8846 8.97544 17.6066 8.08545C18.3287 7.17867 19.2187 6.39784 20.2766 5.74294C21.3345 5.07125 22.4596 4.50871 23.6518 4.05532C24.8441 3.60193 26.0195 3.2409 27.1782 2.97222C28.3537 2.68675 29.4032 2.48525 30.3267 2.3677C30.4107 2.25016 30.5618 2.04865 30.7801 1.76318C30.9984 1.47771 31.2503 1.19225 31.5358 0.906779C31.8213 0.621312 32.1067 0.436598 32.3922 0.352637C32.5769 0.30226 32.7532 0.277071 32.9211 0.277071C33.173 0.277071 33.3829 0.34424 33.5509 0.478578C33.7188 0.596123 33.8027 0.780838 33.8027 1.03272C33.8027 1.55328 33.576 1.9311 33.1227 2.1662C32.6861 2.40129 32.2243 2.5944 31.7373 2.74553C31.5862 2.74553 31.3931 2.77911 31.158 2.84628C30.9229 2.91345 30.7549 2.94703 30.6542 2.94703C29.8314 4.35758 29.1345 5.81011 28.5636 7.30462C28.0094 8.79912 27.4637 10.3524 26.9263 11.9645C26.389 13.5597 25.7593 15.2054 25.0372 16.9014C24.3151 18.5806 23.3748 20.3186 22.2161 22.1154C21.4772 23.274 20.6124 24.3067 19.6217 25.2135C18.631 26.1203 17.5898 26.8927 16.4984 27.5308C15.4237 28.1857 14.3741 28.7063 13.3498 29.0925C12.3255 29.4787 11.3935 29.7306 10.5539 29.8482C10.1341 29.9153 9.72269 29.9573 9.31968 29.9741C8.91667 30.0077 8.52205 30.0245 8.13583 30.0245ZM31.1076 2.31733C31.7961 2.19978 32.2579 2.05705 32.4929 1.88912C32.728 1.70441 32.8456 1.53649 32.8456 1.38536C32.8456 1.3014 32.812 1.23423 32.7448 1.18385C32.6944 1.11668 32.6441 1.0831 32.5937 1.0831C32.4929 1.03272 32.3502 1.0831 32.1655 1.23423C31.9976 1.38536 31.8129 1.57007 31.6114 1.78837C31.4266 1.98988 31.2587 2.1662 31.1076 2.31733Z" fill="white"></path>
  <path d="M29.3111 20.7048C28.6898 20.7048 28.1273 20.5033 27.6235 20.1003C27.1365 19.6973 26.8931 19.0844 26.8931 18.2615C26.8931 17.5059 27.0778 16.6999 27.4472 15.8435C27.8166 14.9703 28.2868 14.2062 28.8578 13.5513C29.3447 12.9804 29.8905 12.5102 30.495 12.1408C31.0995 11.7713 31.6704 11.5866 32.2078 11.5866C32.5772 11.5866 32.8963 11.6874 33.165 11.8889C33.4504 12.1072 33.5932 12.4178 33.5932 12.8209C33.5932 13.2407 33.4336 13.7024 33.1146 14.2062C32.7955 14.71 32.3421 15.1802 31.7544 15.6168C31.5025 15.8015 31.1835 15.9778 30.7973 16.1457C30.411 16.3136 30.0248 16.4564 29.6386 16.5739C29.2524 16.6747 28.9333 16.725 28.6814 16.725C28.5975 16.9266 28.5135 17.1952 28.4296 17.5311C28.3624 17.8669 28.3288 18.2112 28.3288 18.5638C28.3288 18.9836 28.4128 19.3614 28.5807 19.6973C28.7486 20.0331 29.0593 20.201 29.5126 20.201C30.0668 20.201 30.5706 20.0415 31.0239 19.7225C31.4773 19.4034 31.8803 19.0088 32.233 18.5386C32.5856 18.0516 32.8795 17.5647 33.1146 17.0777C33.3665 16.5907 33.568 16.1793 33.7191 15.8435C33.8199 15.6084 33.9542 15.4908 34.1221 15.4908C34.2061 15.4908 34.2481 15.5328 34.2481 15.6168C34.2481 15.6839 34.2229 15.7679 34.1725 15.8686C33.9374 16.3724 33.6855 16.9098 33.4168 17.4807C33.1482 18.0348 32.8291 18.5638 32.4597 19.0676C32.0903 19.5545 31.6453 19.9492 31.1247 20.2514C30.6209 20.5537 30.0164 20.7048 29.3111 20.7048ZM28.8578 16.2717C29.0928 16.2717 29.4875 16.1877 30.0416 16.0198C30.5957 15.8351 31.0995 15.5496 31.5529 15.1634C31.9895 14.7772 32.3253 14.3573 32.5604 13.904C32.7955 13.4338 32.9131 13.0392 32.9131 12.7201C32.9131 12.3507 32.7787 12.166 32.5101 12.166C32.3086 12.166 32.0315 12.3003 31.6788 12.569C31.3262 12.8377 30.8896 13.291 30.3691 13.9291C30.05 14.3322 29.7477 14.7688 29.4623 15.2389C29.1768 15.7091 28.9753 16.0534 28.8578 16.2717Z" fill="white"></path>
  <path d="M31.3778 20.8056C31.9823 19.5797 32.5616 18.3707 33.1158 17.1784C33.6867 15.9694 34.266 14.8191 34.8538 13.7276C35.1896 13.1231 35.4667 12.7033 35.685 12.4682C35.9201 12.2163 36.2307 12.0904 36.6169 12.0904C36.7513 12.0904 36.894 12.1156 37.0451 12.166C37.1963 12.1995 37.3474 12.2163 37.4985 12.2163C37.5993 12.2163 37.6748 12.2079 37.7252 12.1911C37.4901 12.3255 37.1879 12.6613 36.8184 13.1987C36.449 13.7192 36.0712 14.3238 35.685 15.0122C35.2987 15.7007 34.9545 16.3472 34.6522 16.9517C34.9713 16.5655 35.2987 16.1793 35.6346 15.7931C35.9872 15.4069 36.3735 15.0374 36.7933 14.6848C37.1963 14.3322 37.6748 13.9711 38.229 13.6017C38.7999 13.2155 39.3541 12.8964 39.8914 12.6445C40.4288 12.3927 40.857 12.2667 41.176 12.2667C41.2936 12.2667 41.3775 12.2751 41.4279 12.2919C41.4279 12.2919 41.3356 12.4598 41.1508 12.7957C40.9661 13.1147 40.731 13.5429 40.4456 14.0803C40.1769 14.6008 39.8998 15.1634 39.6143 15.7679C39.3289 16.3556 39.0686 16.9266 38.8335 17.4807C38.6152 18.018 38.4725 18.4714 38.4053 18.8409C38.3549 19.0592 38.3297 19.2607 38.3297 19.4454C38.3297 19.7141 38.3801 19.8904 38.4809 19.9743C38.5816 20.0583 38.6908 20.1003 38.8083 20.1003C39.1274 20.1003 39.4632 19.9324 39.8159 19.5965C40.1685 19.2439 40.5043 18.8157 40.8234 18.3119C41.1592 17.8081 41.4531 17.3212 41.705 16.851C41.9737 16.364 42.1668 15.9946 42.2843 15.7427C42.3515 15.6084 42.4019 15.5328 42.4354 15.516C42.469 15.4824 42.5194 15.4656 42.5866 15.4656C42.6873 15.4656 42.7377 15.5328 42.7377 15.6671C42.7377 15.7511 42.7125 15.8435 42.6621 15.9442C42.4606 16.3304 42.2171 16.7922 41.9317 17.3296C41.663 17.8669 41.3523 18.3959 40.9997 18.9164C40.6471 19.4202 40.2609 19.8484 39.841 20.201C39.4212 20.5369 38.9678 20.7048 38.4809 20.7048C38.145 20.7048 37.7924 20.5873 37.423 20.3522C37.0703 20.1171 36.894 19.6805 36.894 19.0424C36.894 18.8577 36.9108 18.6645 36.9444 18.463C36.978 18.2447 37.0367 18.0097 37.1207 17.7578C37.255 17.4219 37.4146 17.0609 37.5993 16.6747C37.784 16.2885 38.0863 15.7595 38.5061 15.0878C38.6236 14.9031 38.6908 14.7604 38.7076 14.6596C38.7412 14.5589 38.7579 14.4749 38.7579 14.4077C38.7579 14.2062 38.6656 14.1055 38.4809 14.1055C38.3297 14.1055 38.103 14.1894 37.8008 14.3573C37.5153 14.5253 37.1543 14.8191 36.7177 15.2389C36.2979 15.642 35.7941 16.2129 35.2064 16.9517C34.6355 17.6906 33.9722 18.7821 33.2165 20.2262C33.099 20.4445 32.9646 20.5621 32.8135 20.5789C32.6792 20.5957 32.4861 20.6124 32.2342 20.6292C32.0662 20.646 31.9067 20.6544 31.7556 20.6544C31.6045 20.6712 31.4785 20.7216 31.3778 20.8056Z" fill="white"></path>
  <path d="M39.8395 20.8056C40.444 19.5797 41.0233 18.3707 41.5775 17.1784C42.1484 15.9694 42.7277 14.8191 43.3155 13.7276C43.6513 13.1231 43.9284 12.7033 44.1467 12.4682C44.3818 12.2163 44.6924 12.0904 45.0786 12.0904C45.213 12.0904 45.3557 12.1156 45.5068 12.166C45.658 12.1995 45.8091 12.2163 45.9602 12.2163C46.061 12.2163 46.1366 12.2079 46.1869 12.1911C45.9518 12.3255 45.6496 12.6613 45.2801 13.1987C44.9107 13.7192 44.5329 14.3238 44.1467 15.0122C43.7605 15.7007 43.4162 16.3472 43.114 16.9517C43.433 16.5655 43.7605 16.1793 44.0963 15.7931C44.4489 15.4069 44.8352 15.0374 45.255 14.6848C45.658 14.3322 46.1366 13.9711 46.6907 13.6017C47.2616 13.2155 47.8158 12.8964 48.3531 12.6445C48.8905 12.3927 49.3187 12.2667 49.6377 12.2667C49.7553 12.2667 49.8392 12.2751 49.8896 12.2919C49.8896 12.2919 49.7973 12.4598 49.6125 12.7957C49.4278 13.1147 49.1927 13.5429 48.9073 14.0803C48.6386 14.6008 48.3615 15.1634 48.0761 15.7679C47.7906 16.3556 47.5303 16.9266 47.2952 17.4807C47.0769 18.018 46.9342 18.4714 46.867 18.8409C46.8166 19.0592 46.7915 19.2607 46.7915 19.4454C46.7915 19.7141 46.8418 19.8904 46.9426 19.9743C47.0433 20.0583 47.1525 20.1003 47.27 20.1003C47.5891 20.1003 47.9249 19.9324 48.2776 19.5965C48.6302 19.2439 48.966 18.8157 49.2851 18.3119C49.6209 17.8081 49.9148 17.3212 50.1667 16.851C50.4354 16.364 50.6285 15.9946 50.746 15.7427C50.8132 15.6084 50.8636 15.5328 50.8971 15.516C50.9307 15.4824 50.9811 15.4656 51.0483 15.4656C51.149 15.4656 51.1994 15.5328 51.1994 15.6671C51.1994 15.7511 51.1742 15.8435 51.1238 15.9442C50.9223 16.3304 50.6788 16.7922 50.3934 17.3296C50.1247 17.8669 49.814 18.3959 49.4614 18.9164C49.1088 19.4202 48.7226 19.8484 48.3027 20.201C47.8829 20.5369 47.4296 20.7048 46.9426 20.7048C46.6067 20.7048 46.2541 20.5873 45.8847 20.3522C45.532 20.1171 45.3557 19.6805 45.3557 19.0424C45.3557 18.8577 45.3725 18.6645 45.4061 18.463C45.4397 18.2447 45.4984 18.0097 45.5824 17.7578C45.7167 17.4219 45.8763 17.0609 46.061 16.6747C46.2457 16.2885 46.548 15.7595 46.9678 15.0878C47.0853 14.9031 47.1525 14.7604 47.1693 14.6596C47.2029 14.5589 47.2197 14.4749 47.2197 14.4077C47.2197 14.2062 47.1273 14.1055 46.9426 14.1055C46.7914 14.1055 46.5648 14.1894 46.2625 14.3573C45.977 14.5253 45.616 14.8191 45.1794 15.2389C44.7596 15.642 44.2558 16.2129 43.6681 16.9517C43.0972 17.6906 42.4339 18.7821 41.6782 20.2262C41.5607 20.4445 41.4263 20.5621 41.2752 20.5789C41.1409 20.5957 40.9478 20.6124 40.6959 20.6292C40.528 20.646 40.3684 20.6544 40.2173 20.6544C40.0662 20.6712 39.9402 20.7216 39.8395 20.8056Z" fill="white"></path>
  <path d="M56.1347 20.6796C55.95 20.6964 55.7401 20.6544 55.505 20.5537C55.2699 20.4529 55.06 20.2682 54.8753 19.9995C54.7074 19.7309 54.6234 19.353 54.6234 18.8661C54.6234 18.463 54.699 17.9761 54.8501 17.4051C54.6486 17.7242 54.3884 18.1188 54.0693 18.589C53.7502 19.0424 53.406 19.4454 53.0366 19.798C52.7175 20.1003 52.4153 20.3186 52.1298 20.4529C51.8443 20.5873 51.5841 20.6544 51.349 20.6544C50.9124 20.6544 50.5597 20.4613 50.2911 20.0751C50.0224 19.6721 49.888 19.1515 49.888 18.5134C49.888 17.8417 50.056 17.0777 50.3918 16.2213C50.7277 15.3649 51.2734 14.4749 52.029 13.5513C52.516 12.9636 53.1037 12.4934 53.7922 12.1408C54.4975 11.7713 55.186 11.5866 55.8577 11.5866C56.2439 11.5866 56.6133 11.6538 56.966 11.7881C57.3186 11.9057 57.6293 12.1072 57.8979 12.3927C58.0155 12.5102 58.0742 12.6445 58.0742 12.7957C58.0742 12.8964 58.0323 12.9804 57.9483 13.0476C57.8643 13.1147 57.7552 13.1315 57.6209 13.0979C57.4361 12.5102 57.0415 12.2163 56.437 12.2163C56.1515 12.2163 55.8241 12.3087 55.4547 12.4934C54.8837 12.7957 54.2876 13.291 53.6663 13.9795C53.0618 14.668 52.5328 15.3817 52.0794 16.1205C52.0123 16.2213 51.9031 16.4144 51.752 16.6999C51.6176 16.9853 51.4833 17.3044 51.349 17.657C51.2146 18.0097 51.1223 18.3539 51.0719 18.6897C51.0551 18.7905 51.0467 18.8661 51.0467 18.9164C51.0467 18.95 51.0467 19.0088 51.0467 19.0928C51.0467 19.6469 51.2566 19.924 51.6764 19.924C52.1802 19.924 52.7511 19.5545 53.3892 18.8157C53.8258 18.2783 54.2204 17.7158 54.5731 17.1281C54.9257 16.5403 55.2867 15.9106 55.6562 15.2389C55.908 14.7855 56.1431 14.4077 56.3614 14.1055C56.5797 13.8032 56.8904 13.6521 57.2934 13.6521C57.4781 13.6521 57.6628 13.6773 57.8475 13.7276C58.0323 13.778 58.2254 13.7864 58.4269 13.7528C58.2925 13.8872 58.1078 14.139 57.8727 14.5085C57.6544 14.8779 57.4193 15.2977 57.1675 15.7679C56.9156 16.2381 56.6889 16.7167 56.4874 17.2036C56.2859 17.6906 56.1431 18.1104 56.0592 18.463C56.0424 18.5638 56.0172 18.7065 55.9836 18.8912C55.9668 19.076 55.9584 19.2103 55.9584 19.2943C55.9584 19.7644 56.0928 19.9995 56.3614 19.9995C56.6301 19.9995 56.9156 19.84 57.2178 19.521C57.5369 19.2019 57.8476 18.8073 58.1498 18.3371C58.4521 17.8669 58.7291 17.3967 58.981 16.9266C59.2329 16.4396 59.4344 16.045 59.5855 15.7427C59.6527 15.5748 59.7535 15.4908 59.8878 15.4908C59.9718 15.4908 60.0137 15.5496 60.0137 15.6671C60.0137 15.7175 59.9886 15.8099 59.9382 15.9442C59.7367 16.364 59.4932 16.8426 59.2077 17.3799C58.9223 17.9005 58.6116 18.4127 58.2758 18.9164C57.9399 19.4034 57.5873 19.8148 57.2178 20.1507C56.8652 20.4697 56.5042 20.646 56.1347 20.6796Z" fill="white"></path>
  <path d="M73.8252 22.9214C72.1796 22.9214 70.6683 22.6779 69.2913 22.1909C67.9311 21.7039 66.8313 20.9903 65.9916 20.0499C65.152 19.0928 64.6902 17.9173 64.6063 16.5235C64.5727 15.9526 64.6651 15.3229 64.8834 14.6344C65.1017 13.9459 65.4039 13.2659 65.7901 12.5942C66.1932 11.9057 66.6633 11.2928 67.2007 10.7554C67.7548 10.2013 68.3426 9.78147 68.9639 9.496C69.0142 9.46241 69.0898 9.43723 69.1906 9.42043C69.3081 9.40364 69.3921 9.39525 69.4424 9.39525C69.5432 9.39525 69.5936 9.42043 69.5936 9.47081C69.5936 9.55477 69.4676 9.68911 69.2158 9.87382C68.5105 10.428 67.9311 11.0661 67.4778 11.7881C67.0076 12.5102 66.6549 13.2826 66.4198 14.1055C66.1848 14.9283 66.0672 15.7595 66.0672 16.5991C66.0672 17.5898 66.2771 18.4463 66.6969 19.1683C67.1335 19.8736 67.7128 20.4529 68.4349 20.9063C69.157 21.3765 69.9798 21.7207 70.9034 21.939C71.8269 22.1573 72.7925 22.2665 73.8 22.2665C74.9251 22.2665 76.0334 22.1405 77.1249 21.8887C78.2332 21.6368 79.2407 21.2757 80.1475 20.8056C81.5412 20.0667 82.6411 19.1515 83.4472 18.06C84.27 16.9685 84.6814 15.8854 84.6814 14.8107C84.6814 14.2398 84.5554 13.6941 84.3036 13.1735C84.0685 12.6529 83.6822 12.1828 83.1449 11.7629C82.7419 11.4439 82.2465 11.1416 81.6588 10.8562C81.0878 10.5707 80.4749 10.2936 79.82 10.025C79.1819 9.75628 78.5522 9.4876 77.9309 9.21893C77.3096 8.93346 76.7639 8.6312 76.2937 8.31215C75.622 7.85876 75.1266 7.37178 74.8076 6.85122C74.5053 6.33067 74.3542 5.81011 74.3542 5.28955C74.3542 4.66824 74.5305 4.06372 74.8831 3.47599C75.2526 2.88826 75.7479 2.35931 76.3692 1.88912C77.0073 1.40215 77.721 1.02433 78.5102 0.755649C79.1987 0.520558 79.946 0.335844 80.752 0.201506C81.5748 0.0671685 82.3808 0 83.1701 0C83.825 0 84.4463 0.0503765 85.034 0.15113C85.6385 0.235091 86.1675 0.394617 86.6209 0.629708C87.1918 0.898384 87.6284 1.25942 87.9307 1.71281C88.2329 2.1494 88.3841 2.61119 88.3841 3.09816C88.3841 3.76985 88.0818 4.35758 87.4773 4.86135C87.259 5.02927 87.0155 5.1888 86.7468 5.33993C86.4782 5.47426 86.1591 5.59181 85.7897 5.69256C85.7225 5.70935 85.6469 5.71775 85.563 5.71775C85.3615 5.71775 85.2607 5.65898 85.2607 5.54143C85.2607 5.47426 85.3111 5.40709 85.4118 5.33993C85.5294 5.25596 85.6973 5.20559 85.9156 5.18879C86.4194 5.12163 86.7972 4.92851 87.0491 4.60946C87.3178 4.29041 87.4521 3.92098 87.4521 3.50118C87.4521 3.06458 87.301 2.63638 86.9987 2.21657C86.7132 1.77997 86.2682 1.41894 85.6637 1.13347C85.0592 0.831215 84.2868 0.680085 83.3464 0.680085C82.8091 0.680085 82.2129 0.738858 81.558 0.856403C80.9199 0.973949 80.223 1.16706 79.4674 1.43573C78.5438 1.75479 77.7714 2.22497 77.1501 2.84628C76.5456 3.46759 76.2433 4.13088 76.2433 4.83616C76.2433 5.27276 76.386 5.71775 76.6715 6.17114C76.9738 6.60774 77.4523 7.02754 78.1072 7.43056C78.6614 7.7664 79.2911 8.10224 79.9964 8.43809C80.7016 8.75714 81.4153 9.08459 82.1374 9.42043C82.8594 9.73949 83.5143 10.0837 84.1021 10.4532C85.0256 11.0241 85.6889 11.637 86.0919 12.2919C86.4949 12.9468 86.6964 13.6185 86.6964 14.307C86.6964 15.113 86.453 15.9274 85.966 16.7502C85.4958 17.5563 84.8745 18.3203 84.1021 19.0424C83.3296 19.7476 82.4816 20.3774 81.558 20.9315C80.4833 21.5696 79.2659 22.0566 77.9057 22.3924C76.5623 22.7451 75.2022 22.9214 73.8252 22.9214Z" fill="white"></path>
  <path d="M93.4784 20.7804C93.025 20.73 92.6136 20.5201 92.2442 20.1507C91.8915 19.7644 91.6481 19.2523 91.5137 18.6142C91.4969 18.4966 91.4801 18.3959 91.4633 18.3119C91.4633 18.2112 91.4633 18.102 91.4633 17.9845C91.4633 17.3128 91.6145 16.7754 91.9167 16.3724C92.219 15.9526 92.4961 15.7343 92.7479 15.7175C93.0166 15.7343 93.3441 15.6755 93.7303 15.5412C94.1165 15.3901 94.4523 15.1886 94.7378 14.9367C95.2248 14.5505 95.4683 14.1558 95.4683 13.7528C95.4683 13.333 95.2248 13.1231 94.7378 13.1231C94.4691 13.1231 94.1249 13.2155 93.7051 13.4002C93.3021 13.5849 92.8319 13.904 92.2946 14.3573C91.6229 14.9283 90.926 15.6923 90.2039 16.6495C90.1032 16.8678 89.9856 17.1952 89.8513 17.6318C89.717 18.0516 89.5994 18.4882 89.4986 18.9416C89.4147 19.395 89.3727 19.7812 89.3727 20.1003C89.3727 20.3522 89.4147 20.5201 89.4986 20.6041H87.9118C87.7271 20.6041 87.6347 20.5285 87.6347 20.3774C87.6347 20.327 87.6431 20.285 87.6599 20.2514C87.6767 20.2178 87.6935 20.1507 87.7103 20.0499C87.9454 19.1767 88.256 18.3539 88.6422 17.5815C89.0285 16.809 89.4147 15.9946 89.8009 15.1382C89.2132 16.2297 88.6758 17.1952 88.1889 18.0348C87.7187 18.8577 87.3576 19.3866 87.1058 19.6217C87.0722 19.6553 87.0302 19.6721 86.9798 19.6721C86.9126 19.6721 86.8707 19.6301 86.8539 19.5461C86.8203 19.4622 86.8371 19.3782 86.9043 19.2943C87.2569 18.8241 87.6599 18.1776 88.1133 17.3548C88.5835 16.5319 89.0788 15.6168 89.5994 14.6092C90.12 13.5849 90.6489 12.5522 91.1863 11.5111C91.7236 10.4699 92.2442 9.4876 92.7479 8.56403C93.2685 7.64046 93.7387 6.85962 94.1585 6.22152C94.4607 5.76813 94.7462 5.44907 95.0149 5.26436C95.2836 5.06285 95.5606 4.9621 95.8461 4.9621H95.972C96.1232 4.9621 96.2911 4.98729 96.4758 5.03766C96.6773 5.08804 96.862 5.09644 97.03 5.06285C96.7109 5.31474 96.3247 5.72615 95.8713 6.29708C95.4179 6.86802 94.9393 7.5481 94.4356 8.33734C93.9318 9.12657 93.4196 9.96618 92.8991 10.8562C92.3953 11.7462 91.9167 12.6277 91.4633 13.5009C91.2954 13.8368 91.1359 14.1894 90.9848 14.5589C90.8336 14.9283 90.6909 15.2977 90.5566 15.6671C90.9092 15.2305 91.3122 14.7772 91.7656 14.307C92.219 13.8368 92.6892 13.4086 93.1761 13.0224C93.6799 12.6194 94.1753 12.3255 94.6623 12.1408C95.2164 11.9393 95.6782 11.8385 96.0476 11.8385C96.4338 11.8385 96.7109 11.9309 96.8788 12.1156C97.0635 12.3003 97.1559 12.5354 97.1559 12.8209C97.1559 13.1399 97.03 13.5261 96.7781 13.9795C96.5262 14.4161 96.182 14.7939 95.7454 15.113C95.3759 15.3649 94.9897 15.5832 94.5867 15.7679C94.1837 15.9526 93.7051 16.0702 93.151 16.1205C93.0502 16.3556 92.9746 16.5991 92.9243 16.851C92.8907 17.0861 92.8739 17.3212 92.8739 17.5563C92.8739 18.2112 93.025 18.7905 93.3273 19.2943C93.6295 19.7812 94.0241 20.0247 94.5111 20.0247C94.7462 20.0247 94.9981 19.9576 95.2668 19.8232C95.5522 19.6889 95.8461 19.4622 96.1484 19.1431C96.4842 18.8073 96.8201 18.3287 97.1559 17.7074C97.5085 17.0861 97.8612 16.406 98.2138 15.6671C98.281 15.5328 98.3565 15.4656 98.4405 15.4656C98.5413 15.4656 98.5916 15.5328 98.5916 15.6671C98.5916 15.7343 98.5664 15.8183 98.5161 15.919C98.0291 17.0441 97.5589 17.9425 97.1055 18.6142C96.6689 19.2691 96.2407 19.7644 95.8209 20.1003C95.4179 20.4193 95.0233 20.6208 94.6371 20.7048C94.2508 20.7888 93.8646 20.814 93.4784 20.7804Z" fill="white"></path>
  <path d="M100.915 10.3776C100.664 10.3776 100.454 10.2936 100.286 10.1257C100.135 9.94099 100.059 9.72269 100.059 9.47081C100.059 9.15176 100.185 8.87469 100.437 8.6396C100.689 8.4045 100.966 8.28696 101.268 8.28696C101.537 8.28696 101.755 8.37092 101.923 8.53884C102.091 8.70676 102.175 8.90827 102.175 9.14336C102.175 9.46241 102.049 9.74788 101.797 9.99977C101.545 10.2516 101.251 10.3776 100.915 10.3776ZM98.8752 20.6041C98.2539 20.6041 97.8173 20.4277 97.5654 20.0751C97.3135 19.7057 97.1876 19.2859 97.1876 18.8157C97.1876 18.5638 97.2128 18.3119 97.2631 18.06C97.3303 17.7914 97.4059 17.5479 97.4898 17.3296L99.1775 13.0224C99.2278 12.888 99.253 12.7705 99.253 12.6697C99.253 12.5018 99.211 12.3591 99.1271 12.2415C99.0431 12.1072 98.9843 12.0148 98.9508 11.9645L100.336 11.9141C100.588 11.8973 100.764 11.9309 100.865 12.0148C100.983 12.082 101.041 12.166 101.041 12.2667C101.041 12.3675 100.983 12.5522 100.865 12.8209L98.7744 17.7326C98.7744 17.7326 98.7241 17.8417 98.6233 18.06C98.5394 18.2615 98.489 18.3959 98.4722 18.463C98.4218 18.7149 98.3882 18.8745 98.3714 18.9416C98.3546 19.0088 98.3462 19.0508 98.3462 19.0676C98.3462 19.0844 98.3462 19.1515 98.3462 19.2691C98.3462 19.4874 98.3966 19.6721 98.4974 19.8232C98.6149 19.9743 98.808 20.0499 99.0767 20.0499C99.2446 20.0499 99.4377 19.9995 99.656 19.8988C99.8743 19.798 100.034 19.6973 100.135 19.5965C100.554 19.1599 100.966 18.589 101.369 17.8837C101.789 17.1616 102.175 16.448 102.528 15.7427C102.595 15.5748 102.679 15.4908 102.779 15.4908C102.863 15.4908 102.905 15.5496 102.905 15.6671C102.905 15.7343 102.88 15.8351 102.83 15.9694C102.662 16.322 102.452 16.7586 102.2 17.2792C101.948 17.7998 101.646 18.3203 101.293 18.8409C100.957 19.3446 100.588 19.7644 100.185 20.1003C99.782 20.4361 99.3454 20.6041 98.8752 20.6041Z" fill="white"></path>
  <path d="M100.129 20.8056C100.734 19.5797 101.313 18.3707 101.867 17.1784C102.438 15.9694 103.017 14.8191 103.605 13.7276C103.941 13.1231 104.218 12.7033 104.436 12.4682C104.671 12.2163 104.982 12.0904 105.368 12.0904C105.503 12.0904 105.645 12.1156 105.796 12.166C105.948 12.1995 106.099 12.2163 106.25 12.2163C106.351 12.2163 106.426 12.2079 106.477 12.1911C106.241 12.3255 105.939 12.6613 105.57 13.1987C105.2 13.7192 104.823 14.3238 104.436 15.0122C104.05 15.7007 103.706 16.3472 103.404 16.9517C103.723 16.5655 104.05 16.1793 104.386 15.7931C104.739 15.4069 105.125 15.0374 105.545 14.6848C105.948 14.3322 106.426 13.9711 106.98 13.6017C107.551 13.2155 108.105 12.8964 108.643 12.6445C109.18 12.3927 109.608 12.2667 109.927 12.2667C110.045 12.2667 110.129 12.2751 110.179 12.2919C110.179 12.2919 110.087 12.4598 109.902 12.7957C109.717 13.1147 109.482 13.5429 109.197 14.0803C108.928 14.6008 108.651 15.1634 108.366 15.7679C108.08 16.3556 107.82 16.9266 107.585 17.4807C107.367 18.018 107.224 18.4714 107.157 18.8409C107.106 19.0592 107.081 19.2607 107.081 19.4454C107.081 19.7141 107.131 19.8904 107.232 19.9743C107.333 20.0583 107.442 20.1003 107.56 20.1003C107.879 20.1003 108.215 19.9324 108.567 19.5965C108.92 19.2439 109.256 18.8157 109.575 18.3119C109.911 17.8081 110.204 17.3212 110.456 16.851C110.725 16.364 110.918 15.9946 111.036 15.7427C111.103 15.6084 111.153 15.5328 111.187 15.516C111.22 15.4824 111.271 15.4656 111.338 15.4656C111.439 15.4656 111.489 15.5328 111.489 15.6671C111.489 15.7511 111.464 15.8435 111.413 15.9442C111.212 16.3304 110.968 16.7922 110.683 17.3296C110.414 17.8669 110.104 18.3959 109.751 18.9164C109.398 19.4202 109.012 19.8484 108.592 20.201C108.173 20.5369 107.719 20.7048 107.232 20.7048C106.896 20.7048 106.544 20.5873 106.174 20.3522C105.822 20.1171 105.645 19.6805 105.645 19.0424C105.645 18.8577 105.662 18.6645 105.696 18.463C105.729 18.2447 105.788 18.0097 105.872 17.7578C106.006 17.4219 106.166 17.0609 106.351 16.6747C106.535 16.2885 106.838 15.7595 107.257 15.0878C107.375 14.9031 107.442 14.7604 107.459 14.6596C107.492 14.5589 107.509 14.4749 107.509 14.4077C107.509 14.2062 107.417 14.1055 107.232 14.1055C107.081 14.1055 106.854 14.1894 106.552 14.3573C106.267 14.5253 105.906 14.8191 105.469 15.2389C105.049 15.642 104.545 16.2129 103.958 16.9517C103.387 17.6906 102.723 18.7821 101.968 20.2262C101.85 20.4445 101.716 20.5621 101.565 20.5789C101.43 20.5957 101.237 20.6124 100.986 20.6292C100.818 20.646 100.658 20.6544 100.507 20.6544C100.356 20.6712 100.23 20.7216 100.129 20.8056Z" fill="white"></path>
  <path d="M108.591 20.8056C109.195 19.5797 109.775 18.3707 110.329 17.1784C110.9 15.9694 111.479 14.8191 112.067 13.7276C112.403 13.1231 112.68 12.7033 112.898 12.4682C113.133 12.2163 113.444 12.0904 113.83 12.0904C113.964 12.0904 114.107 12.1156 114.258 12.166C114.409 12.1995 114.56 12.2163 114.712 12.2163C114.812 12.2163 114.888 12.2079 114.938 12.1911C114.703 12.3255 114.401 12.6613 114.031 13.1987C113.662 13.7192 113.284 14.3238 112.898 15.0122C112.512 15.7007 112.168 16.3472 111.865 16.9517C112.184 16.5655 112.512 16.1793 112.848 15.7931C113.2 15.4069 113.586 15.0374 114.006 14.6848C114.409 14.3322 114.888 13.9711 115.442 13.6017C116.013 13.2155 116.567 12.8964 117.104 12.6445C117.642 12.3927 118.07 12.2667 118.389 12.2667C118.507 12.2667 118.591 12.2751 118.641 12.2919C118.641 12.2919 118.549 12.4598 118.364 12.7957C118.179 13.1147 117.944 13.5429 117.659 14.0803C117.39 14.6008 117.113 15.1634 116.827 15.7679C116.542 16.3556 116.282 16.9266 116.047 17.4807C115.828 18.018 115.686 18.4714 115.618 18.8409C115.568 19.0592 115.543 19.2607 115.543 19.4454C115.543 19.7141 115.593 19.8904 115.694 19.9743C115.795 20.0583 115.904 20.1003 116.021 20.1003C116.34 20.1003 116.676 19.9324 117.029 19.5965C117.382 19.2439 117.717 18.8157 118.036 18.3119C118.372 17.8081 118.666 17.3212 118.918 16.851C119.187 16.364 119.38 15.9946 119.497 15.7427C119.565 15.6084 119.615 15.5328 119.648 15.516C119.682 15.4824 119.732 15.4656 119.8 15.4656C119.9 15.4656 119.951 15.5328 119.951 15.6671C119.951 15.7511 119.926 15.8435 119.875 15.9442C119.674 16.3304 119.43 16.7922 119.145 17.3296C118.876 17.8669 118.565 18.3959 118.213 18.9164C117.86 19.4202 117.474 19.8484 117.054 20.201C116.634 20.5369 116.181 20.7048 115.694 20.7048C115.358 20.7048 115.005 20.5873 114.636 20.3522C114.283 20.1171 114.107 19.6805 114.107 19.0424C114.107 18.8577 114.124 18.6645 114.157 18.463C114.191 18.2447 114.25 18.0097 114.334 17.7578C114.468 17.4219 114.628 17.0609 114.812 16.6747C114.997 16.2885 115.299 15.7595 115.719 15.0878C115.837 14.9031 115.904 14.7604 115.921 14.6596C115.954 14.5589 115.971 14.4749 115.971 14.4077C115.971 14.2062 115.879 14.1055 115.694 14.1055C115.543 14.1055 115.316 14.1894 115.014 14.3573C114.728 14.5253 114.367 14.8191 113.931 15.2389C113.511 15.642 113.007 16.2129 112.419 16.9517C111.848 17.6906 111.185 18.7821 110.43 20.2262C110.312 20.4445 110.178 20.5621 110.027 20.5789C109.892 20.5957 109.699 20.6124 109.447 20.6292C109.279 20.646 109.12 20.6544 108.969 20.6544C108.818 20.6712 108.692 20.7216 108.591 20.8056Z" fill="white"></path>
  <path d="M121.234 20.7048C120.612 20.7048 120.05 20.5033 119.546 20.1003C119.059 19.6973 118.816 19.0844 118.816 18.2615C118.816 17.5059 119 16.6999 119.37 15.8435C119.739 14.9703 120.209 14.2062 120.78 13.5513C121.267 12.9804 121.813 12.5102 122.418 12.1408C123.022 11.7713 123.593 11.5866 124.13 11.5866C124.5 11.5866 124.819 11.6874 125.088 11.8889C125.373 12.1072 125.516 12.4178 125.516 12.8209C125.516 13.2407 125.356 13.7024 125.037 14.2062C124.718 14.71 124.265 15.1802 123.677 15.6168C123.425 15.8015 123.106 15.9778 122.72 16.1457C122.334 16.3136 121.947 16.4564 121.561 16.5739C121.175 16.6747 120.856 16.725 120.604 16.725C120.52 16.9266 120.436 17.1952 120.352 17.5311C120.285 17.8669 120.251 18.2112 120.251 18.5638C120.251 18.9836 120.335 19.3614 120.503 19.6973C120.671 20.0331 120.982 20.201 121.435 20.201C121.989 20.201 122.493 20.0415 122.947 19.7225C123.4 19.4034 123.803 19.0088 124.156 18.5386C124.508 18.0516 124.802 17.5647 125.037 17.0777C125.289 16.5907 125.491 16.1793 125.642 15.8435C125.742 15.6084 125.877 15.4908 126.045 15.4908C126.129 15.4908 126.171 15.5328 126.171 15.6168C126.171 15.6839 126.145 15.7679 126.095 15.8686C125.86 16.3724 125.608 16.9098 125.339 17.4807C125.071 18.0348 124.752 18.5638 124.382 19.0676C124.013 19.5545 123.568 19.9492 123.047 20.2514C122.544 20.5537 121.939 20.7048 121.234 20.7048ZM120.78 16.2717C121.015 16.2717 121.41 16.1877 121.964 16.0198C122.518 15.8351 123.022 15.5496 123.476 15.1634C123.912 14.7772 124.248 14.3573 124.483 13.904C124.718 13.4338 124.836 13.0392 124.836 12.7201C124.836 12.3507 124.701 12.166 124.433 12.166C124.231 12.166 123.954 12.3003 123.601 12.569C123.249 12.8377 122.812 13.291 122.292 13.9291C121.973 14.3322 121.67 14.7688 121.385 15.2389C121.099 15.7091 120.898 16.0534 120.78 16.2717Z" fill="white"></path>
  <path d="M128.691 20.6292C128.372 20.6292 128.053 20.5033 127.734 20.2514C127.414 19.9827 127.255 19.5545 127.255 18.9668C127.255 18.5134 127.364 17.9929 127.582 17.4051C127.784 16.8342 128.053 16.2801 128.388 15.7427C128.741 15.2054 128.993 14.7688 129.144 14.4329C129.194 14.2986 129.22 14.181 129.22 14.0803C129.22 13.778 129.027 13.5597 128.64 13.4254C128.271 13.291 127.784 13.2155 127.179 13.1987L126.877 14.0299C126.692 14.5672 126.432 15.197 126.096 15.919C125.777 16.6411 125.416 17.338 125.013 18.0097C124.627 18.6813 124.224 19.2187 123.804 19.6217C123.771 19.6553 123.729 19.6721 123.678 19.6721C123.611 19.6721 123.569 19.6301 123.552 19.5461C123.519 19.4622 123.552 19.3614 123.653 19.2439C124.308 18.3707 124.896 17.4051 125.416 16.3472C125.937 15.2725 126.373 14.181 126.726 13.0727C127.095 11.9645 127.364 10.9401 127.532 9.99977C127.582 9.73109 127.675 9.53798 127.809 9.42043C127.943 9.2861 128.086 9.21893 128.237 9.21893C128.456 9.21893 128.657 9.32808 128.842 9.54638C129.027 9.74788 129.119 10.0417 129.119 10.428C129.119 10.4951 129.111 10.5707 129.094 10.6547C129.094 10.7386 129.085 10.8226 129.069 10.9065C129.001 11.2592 128.8 11.595 128.464 11.9141C128.145 12.2163 127.885 12.443 127.683 12.5942C127.851 12.611 128.027 12.6277 128.212 12.6445C128.397 12.6445 128.598 12.6445 128.817 12.6445C129.606 12.6445 130.387 12.5942 131.159 12.4934C131.193 12.5942 131.21 12.6697 131.21 12.7201C131.21 12.9384 131.142 13.2155 131.008 13.5513C130.89 13.8872 130.765 14.1894 130.63 14.4581C130.563 14.6092 130.429 14.8863 130.227 15.2893C130.026 15.6755 129.807 16.1205 129.572 16.6243C129.337 17.1113 129.136 17.5982 128.968 18.0852C128.817 18.5554 128.741 18.9584 128.741 19.2943C128.741 19.7309 128.909 19.9492 129.245 19.9492C129.497 19.9492 129.774 19.7896 130.076 19.4706C130.378 19.1347 130.672 18.7317 130.958 18.2615C131.26 17.7746 131.529 17.3044 131.764 16.851C132.016 16.3808 132.209 16.0114 132.343 15.7427C132.41 15.5748 132.503 15.4908 132.62 15.4908C132.687 15.4908 132.721 15.5496 132.721 15.6671C132.721 15.7343 132.696 15.8351 132.645 15.9694C132.461 16.3556 132.242 16.7922 131.99 17.2792C131.738 17.7662 131.453 18.2447 131.134 18.7149C130.832 19.1851 130.496 19.5965 130.126 19.9492C129.774 20.285 129.388 20.5033 128.968 20.6041C128.917 20.6208 128.825 20.6292 128.691 20.6292Z" fill="white"></path>
  <path d="M146.537 22.9214C144.891 22.9214 143.38 22.6779 142.003 22.1909C140.643 21.7039 139.543 20.9903 138.703 20.0499C137.864 19.0928 137.402 17.9173 137.318 16.5235C137.284 15.9526 137.377 15.3229 137.595 14.6344C137.813 13.9459 138.116 13.2659 138.502 12.5942C138.905 11.9057 139.375 11.2928 139.912 10.7554C140.466 10.2013 141.054 9.78147 141.675 9.496C141.726 9.46241 141.801 9.43723 141.902 9.42043C142.02 9.40364 142.104 9.39525 142.154 9.39525C142.255 9.39525 142.305 9.42043 142.305 9.47081C142.305 9.55477 142.179 9.68911 141.927 9.87382C141.222 10.428 140.643 11.0661 140.189 11.7881C139.719 12.5102 139.367 13.2826 139.131 14.1055C138.896 14.9283 138.779 15.7595 138.779 16.5991C138.779 17.5898 138.989 18.4463 139.409 19.1683C139.845 19.8736 140.424 20.4529 141.147 20.9063C141.869 21.3765 142.691 21.7207 143.615 21.939C144.539 22.1573 145.504 22.2665 146.512 22.2665C147.637 22.2665 148.745 22.1405 149.837 21.8887C150.945 21.6368 151.952 21.2757 152.859 20.8056C154.253 20.0667 155.353 19.1515 156.159 18.06C156.982 16.9685 157.393 15.8854 157.393 14.8107C157.393 14.2398 157.267 13.6941 157.015 13.1735C156.78 12.6529 156.394 12.1828 155.857 11.7629C155.453 11.4439 154.958 11.1416 154.37 10.8562C153.799 10.5707 153.187 10.2936 152.532 10.025C151.894 9.75628 151.264 9.4876 150.643 9.21893C150.021 8.93346 149.475 8.6312 149.005 8.31215C148.334 7.85876 147.838 7.37178 147.519 6.85122C147.217 6.33067 147.066 5.81011 147.066 5.28955C147.066 4.66824 147.242 4.06372 147.595 3.47599C147.964 2.88826 148.46 2.35931 149.081 1.88912C149.719 1.40215 150.433 1.02433 151.222 0.755649C151.91 0.520558 152.658 0.335844 153.464 0.201506C154.286 0.0671685 155.092 0 155.882 0C156.537 0 157.158 0.0503765 157.746 0.15113C158.35 0.235091 158.879 0.394617 159.333 0.629708C159.903 0.898384 160.34 1.25942 160.642 1.71281C160.945 2.1494 161.096 2.61119 161.096 3.09816C161.096 3.76985 160.793 4.35758 160.189 4.86135C159.971 5.02927 159.727 5.1888 159.458 5.33993C159.19 5.47426 158.871 5.59181 158.501 5.69256C158.434 5.70935 158.359 5.71775 158.275 5.71775C158.073 5.71775 157.972 5.65898 157.972 5.54143C157.972 5.47426 158.023 5.40709 158.123 5.33993C158.241 5.25596 158.409 5.20559 158.627 5.18879C159.131 5.12163 159.509 4.92851 159.761 4.60946C160.029 4.29041 160.164 3.92098 160.164 3.50118C160.164 3.06458 160.013 2.63638 159.71 2.21657C159.425 1.77997 158.98 1.41894 158.375 1.13347C157.771 0.831215 156.998 0.680085 156.058 0.680085C155.521 0.680085 154.925 0.738858 154.27 0.856403C153.632 0.973949 152.935 1.16706 152.179 1.43573C151.255 1.75479 150.483 2.22497 149.862 2.84628C149.257 3.46759 148.955 4.13088 148.955 4.83616C148.955 5.27276 149.098 5.71775 149.383 6.17114C149.685 6.60774 150.164 7.02754 150.819 7.43056C151.373 7.7664 152.003 8.10224 152.708 8.43809C153.413 8.75714 154.127 9.08459 154.849 9.42043C155.571 9.73949 156.226 10.0837 156.814 10.4532C157.737 11.0241 158.401 11.637 158.804 12.2919C159.207 12.9468 159.408 13.6185 159.408 14.307C159.408 15.113 159.165 15.9274 158.678 16.7502C158.207 17.5563 157.586 18.3203 156.814 19.0424C156.041 19.7476 155.193 20.3774 154.27 20.9315C153.195 21.5696 151.978 22.0566 150.617 22.3924C149.274 22.7451 147.914 22.9214 146.537 22.9214Z" fill="white"></path>
  <path d="M163.722 20.7048C162.764 20.7048 162.093 20.4781 161.706 20.0247C161.32 19.5545 161.127 18.9836 161.127 18.3119C161.127 17.5731 161.295 16.7838 161.631 15.9442C161.984 15.1046 162.395 14.3741 162.865 13.7528C163.352 13.0979 163.889 12.5942 164.477 12.2415C165.065 11.8721 165.661 11.6874 166.266 11.6874C166.904 11.6874 167.374 11.8469 167.676 12.166C167.978 12.485 168.096 12.9132 168.029 13.4506C167.995 13.7864 167.836 14.1223 167.55 14.4581C167.265 14.7772 166.979 14.9367 166.694 14.9367C166.559 14.9367 166.442 14.8863 166.341 14.7855C166.475 14.6176 166.618 14.4161 166.769 14.181C166.92 13.9459 167.03 13.7192 167.097 13.5009C167.164 13.2994 167.198 13.0979 167.198 12.8964C167.198 12.4766 166.996 12.2667 166.593 12.2667C166.14 12.2667 165.661 12.5018 165.157 12.972C164.67 13.4254 164.242 13.9207 163.873 14.4581C163.722 14.6596 163.537 14.9787 163.319 15.4153C163.117 15.8351 162.932 16.3052 162.764 16.8258C162.596 17.3296 162.513 17.8249 162.513 18.3119C162.513 18.8157 162.622 19.2691 162.84 19.6721C163.075 20.0583 163.461 20.2514 163.999 20.2514C164.737 20.2514 165.367 20.0247 165.888 19.5713C166.425 19.1011 166.895 18.5218 167.298 17.8333C167.718 17.1449 168.096 16.4732 168.432 15.8183C168.533 15.6168 168.633 15.516 168.734 15.516C168.818 15.516 168.86 15.5832 168.86 15.7175C168.86 15.7847 168.835 15.8686 168.784 15.9694C168.381 16.8426 167.97 17.6402 167.55 18.3623C167.13 19.0844 166.618 19.6553 166.014 20.0751C165.426 20.4949 164.662 20.7048 163.722 20.7048Z" fill="white"></path>
  <path d="M173.639 20.6796C173.455 20.6964 173.245 20.6544 173.01 20.5537C172.774 20.4529 172.565 20.2682 172.38 19.9995C172.212 19.7309 172.128 19.353 172.128 18.8661C172.128 18.463 172.204 17.9761 172.355 17.4051C172.153 17.7242 171.893 18.1188 171.574 18.589C171.255 19.0424 170.911 19.4454 170.541 19.798C170.222 20.1003 169.92 20.3186 169.634 20.4529C169.349 20.5873 169.089 20.6544 168.853 20.6544C168.417 20.6544 168.064 20.4613 167.796 20.0751C167.527 19.6721 167.393 19.1515 167.393 18.5134C167.393 17.8417 167.56 17.0777 167.896 16.2213C168.232 15.3649 168.778 14.4749 169.534 13.5513C170.021 12.9636 170.608 12.4934 171.297 12.1408C172.002 11.7713 172.691 11.5866 173.362 11.5866C173.748 11.5866 174.118 11.6538 174.47 11.7881C174.823 11.9057 175.134 12.1072 175.402 12.3927C175.52 12.5102 175.579 12.6445 175.579 12.7957C175.579 12.8964 175.537 12.9804 175.453 13.0476C175.369 13.1147 175.26 13.1315 175.125 13.0979C174.941 12.5102 174.546 12.2163 173.942 12.2163C173.656 12.2163 173.329 12.3087 172.959 12.4934C172.388 12.7957 171.792 13.291 171.171 13.9795C170.566 14.668 170.037 15.3817 169.584 16.1205C169.517 16.2213 169.408 16.4144 169.257 16.6999C169.122 16.9853 168.988 17.3044 168.853 17.657C168.719 18.0097 168.627 18.3539 168.576 18.6897C168.56 18.7905 168.551 18.8661 168.551 18.9164C168.551 18.95 168.551 19.0088 168.551 19.0928C168.551 19.6469 168.761 19.924 169.181 19.924C169.685 19.924 170.256 19.5545 170.894 18.8157C171.33 18.2783 171.725 17.7158 172.078 17.1281C172.43 16.5403 172.791 15.9106 173.161 15.2389C173.413 14.7855 173.648 14.4077 173.866 14.1055C174.084 13.8032 174.395 13.6521 174.798 13.6521C174.983 13.6521 175.167 13.6773 175.352 13.7276C175.537 13.778 175.73 13.7864 175.931 13.7528C175.797 13.8872 175.612 14.139 175.377 14.5085C175.159 14.8779 174.924 15.2977 174.672 15.7679C174.42 16.2381 174.193 16.7167 173.992 17.2036C173.79 17.6906 173.648 18.1104 173.564 18.463C173.547 18.5638 173.522 18.7065 173.488 18.8912C173.471 19.076 173.463 19.2103 173.463 19.2943C173.463 19.7644 173.597 19.9995 173.866 19.9995C174.135 19.9995 174.42 19.84 174.722 19.521C175.041 19.2019 175.352 18.8073 175.654 18.3371C175.957 17.8669 176.234 17.3967 176.486 16.9266C176.737 16.4396 176.939 16.045 177.09 15.7427C177.157 15.5748 177.258 15.4908 177.392 15.4908C177.476 15.4908 177.518 15.5496 177.518 15.6671C177.518 15.7175 177.493 15.8099 177.443 15.9442C177.241 16.364 176.998 16.8426 176.712 17.3799C176.427 17.9005 176.116 18.4127 175.78 18.9164C175.444 19.4034 175.092 19.8148 174.722 20.1507C174.37 20.4697 174.009 20.646 173.639 20.6796Z" fill="white"></path>
  <path d="M174.661 20.8056C175.265 19.5797 175.845 18.3707 176.399 17.1784C176.97 15.9694 177.549 14.8191 178.137 13.7276C178.473 13.1231 178.75 12.7033 178.968 12.4682C179.203 12.2163 179.514 12.0904 179.9 12.0904C180.034 12.0904 180.177 12.1156 180.328 12.166C180.479 12.1995 180.631 12.2163 180.782 12.2163C180.882 12.2163 180.958 12.2079 181.008 12.1911C180.773 12.3255 180.471 12.6613 180.102 13.1987C179.732 13.7192 179.354 14.3238 178.968 15.0122C178.582 15.7007 178.238 16.3472 177.935 16.9517C178.255 16.5655 178.582 16.1793 178.918 15.7931C179.27 15.4069 179.657 15.0374 180.076 14.6848C180.479 14.3322 180.958 13.9711 181.512 13.6017C182.083 13.2155 182.637 12.8964 183.175 12.6445C183.712 12.3927 184.14 12.2667 184.459 12.2667C184.577 12.2667 184.661 12.2751 184.711 12.2919C184.711 12.2919 184.619 12.4598 184.434 12.7957C184.249 13.1147 184.014 13.5429 183.729 14.0803C183.46 14.6008 183.183 15.1634 182.898 15.7679C182.612 16.3556 182.352 16.9266 182.117 17.4807C181.898 18.018 181.756 18.4714 181.689 18.8409C181.638 19.0592 181.613 19.2607 181.613 19.4454C181.613 19.7141 181.663 19.8904 181.764 19.9743C181.865 20.0583 181.974 20.1003 182.092 20.1003C182.411 20.1003 182.746 19.9324 183.099 19.5965C183.452 19.2439 183.788 18.8157 184.107 18.3119C184.442 17.8081 184.736 17.3212 184.988 16.851C185.257 16.364 185.45 15.9946 185.568 15.7427C185.635 15.6084 185.685 15.5328 185.719 15.516C185.752 15.4824 185.803 15.4656 185.87 15.4656C185.971 15.4656 186.021 15.5328 186.021 15.6671C186.021 15.7511 185.996 15.8435 185.945 15.9442C185.744 16.3304 185.5 16.7922 185.215 17.3296C184.946 17.8669 184.636 18.3959 184.283 18.9164C183.93 19.4202 183.544 19.8484 183.124 20.201C182.704 20.5369 182.251 20.7048 181.764 20.7048C181.428 20.7048 181.076 20.5873 180.706 20.3522C180.354 20.1171 180.177 19.6805 180.177 19.0424C180.177 18.8577 180.194 18.6645 180.228 18.463C180.261 18.2447 180.32 18.0097 180.404 17.7578C180.538 17.4219 180.698 17.0609 180.882 16.6747C181.067 16.2885 181.369 15.7595 181.789 15.0878C181.907 14.9031 181.974 14.7604 181.991 14.6596C182.024 14.5589 182.041 14.4749 182.041 14.4077C182.041 14.2062 181.949 14.1055 181.764 14.1055C181.613 14.1055 181.386 14.1894 181.084 14.3573C180.799 14.5253 180.437 14.8191 180.001 15.2389C179.581 15.642 179.077 16.2129 178.49 16.9517C177.919 17.6906 177.255 18.7821 176.5 20.2262C176.382 20.4445 176.248 20.5621 176.097 20.5789C175.962 20.5957 175.769 20.6124 175.517 20.6292C175.349 20.646 175.19 20.6544 175.039 20.6544C174.888 20.6712 174.762 20.7216 174.661 20.8056Z" fill="white"></path>
  <path d="M186.775 20.6796C186.07 20.6796 185.591 20.4949 185.339 20.1255C185.087 19.7393 184.961 19.2859 184.961 18.7653C184.961 18.228 185.037 17.6738 185.188 17.1029C185.339 16.5319 185.474 16.0534 185.591 15.6671C185.86 14.7268 186.196 13.7276 186.599 12.6697C187.018 11.595 187.472 10.5455 187.959 9.52119C188.463 8.48007 188.958 7.5481 189.445 6.72528C189.831 6.07039 190.243 5.58341 190.679 5.26436C191.133 4.92852 191.527 4.76059 191.863 4.76059C192.132 4.76059 192.342 4.86135 192.493 5.06285C192.661 5.24757 192.745 5.53304 192.745 5.91926C192.745 6.18793 192.694 6.50698 192.593 6.87641C192.51 7.24584 192.358 7.66565 192.14 8.13583C191.552 9.44562 190.847 10.7554 190.024 12.0652C189.218 13.375 188.194 14.6008 186.951 15.7427C186.884 15.961 186.792 16.2213 186.674 16.5235C186.573 16.809 186.481 17.1029 186.397 17.4051C186.296 17.8585 186.246 18.2447 186.246 18.5638C186.246 19.0844 186.347 19.479 186.548 19.7476C186.767 19.9995 187.027 20.1255 187.329 20.1255C187.598 20.1255 187.883 20.0331 188.186 19.8484C188.488 19.6469 188.773 19.3614 189.042 18.992C189.445 18.4043 189.806 17.8081 190.125 17.2036C190.461 16.5823 190.713 16.1037 190.881 15.7679C190.981 15.5832 191.091 15.4908 191.208 15.4908C191.292 15.4908 191.334 15.5412 191.334 15.642C191.334 15.7259 191.309 15.8183 191.258 15.919C191.107 16.2549 190.906 16.6915 190.654 17.2288C190.419 17.7494 190.117 18.2783 189.747 18.8157C189.395 19.3362 188.966 19.7812 188.463 20.1507C187.976 20.5033 187.413 20.6796 186.775 20.6796ZM187.153 14.9367C187.757 14.3154 188.345 13.6017 188.916 12.7957C189.487 11.9729 190.016 11.1248 190.503 10.2516C191.007 9.36166 191.426 8.52205 191.762 7.73282C191.88 7.48093 191.972 7.20386 192.039 6.9016C192.123 6.59934 192.165 6.34746 192.165 6.14595C192.165 5.91086 192.107 5.79332 191.989 5.79332C191.922 5.79332 191.821 5.86048 191.687 5.99482C191.552 6.11237 191.376 6.32227 191.158 6.62453C190.839 7.04433 190.486 7.61527 190.1 8.33734C189.73 9.0594 189.353 9.83184 188.966 10.6547C188.58 11.4775 188.227 12.2751 187.908 13.0476C187.589 13.8032 187.338 14.4329 187.153 14.9367Z" fill="white"></path>
  <path d="M196.319 20.6796C196.134 20.6964 195.924 20.6544 195.689 20.5537C195.454 20.4529 195.244 20.2682 195.059 19.9995C194.891 19.7309 194.807 19.353 194.807 18.8661C194.807 18.463 194.883 17.9761 195.034 17.4051C194.832 17.7242 194.572 18.1188 194.253 18.589C193.934 19.0424 193.59 19.4454 193.22 19.798C192.901 20.1003 192.599 20.3186 192.314 20.4529C192.028 20.5873 191.768 20.6544 191.533 20.6544C191.096 20.6544 190.744 20.4613 190.475 20.0751C190.206 19.6721 190.072 19.1515 190.072 18.5134C190.072 17.8417 190.24 17.0777 190.576 16.2213C190.912 15.3649 191.457 14.4749 192.213 13.5513C192.7 12.9636 193.288 12.4934 193.976 12.1408C194.681 11.7713 195.37 11.5866 196.042 11.5866C196.428 11.5866 196.797 11.6538 197.15 11.7881C197.502 11.9057 197.813 12.1072 198.082 12.3927C198.199 12.5102 198.258 12.6445 198.258 12.7957C198.258 12.8964 198.216 12.9804 198.132 13.0476C198.048 13.1147 197.939 13.1315 197.805 13.0979C197.62 12.5102 197.225 12.2163 196.621 12.2163C196.335 12.2163 196.008 12.3087 195.639 12.4934C195.068 12.7957 194.471 13.291 193.85 13.9795C193.246 14.668 192.717 15.3817 192.263 16.1205C192.196 16.2213 192.087 16.4144 191.936 16.6999C191.801 16.9853 191.667 17.3044 191.533 17.657C191.398 18.0097 191.306 18.3539 191.256 18.6897C191.239 18.7905 191.231 18.8661 191.231 18.9164C191.231 18.95 191.231 19.0088 191.231 19.0928C191.231 19.6469 191.44 19.924 191.86 19.924C192.364 19.924 192.935 19.5545 193.573 18.8157C194.01 18.2783 194.404 17.7158 194.757 17.1281C195.11 16.5403 195.471 15.9106 195.84 15.2389C196.092 14.7855 196.327 14.4077 196.545 14.1055C196.764 13.8032 197.074 13.6521 197.477 13.6521C197.662 13.6521 197.847 13.6773 198.031 13.7276C198.216 13.778 198.409 13.7864 198.611 13.7528C198.476 13.8872 198.292 14.139 198.057 14.5085C197.838 14.8779 197.603 15.2977 197.351 15.7679C197.099 16.2381 196.873 16.7167 196.671 17.2036C196.47 17.6906 196.327 18.1104 196.243 18.463C196.226 18.5638 196.201 18.7065 196.167 18.8912C196.151 19.076 196.142 19.2103 196.142 19.2943C196.142 19.7644 196.277 19.9995 196.545 19.9995C196.814 19.9995 197.099 19.84 197.402 19.521C197.721 19.2019 198.031 18.8073 198.334 18.3371C198.636 17.8669 198.913 17.3967 199.165 16.9266C199.417 16.4396 199.618 16.045 199.769 15.7427C199.837 15.5748 199.937 15.4908 200.072 15.4908C200.156 15.4908 200.198 15.5496 200.198 15.6671C200.198 15.7175 200.172 15.8099 200.122 15.9442C199.921 16.364 199.677 16.8426 199.392 17.3799C199.106 17.9005 198.795 18.4127 198.46 18.9164C198.124 19.4034 197.771 19.8148 197.402 20.1507C197.049 20.4697 196.688 20.646 196.319 20.6796Z" fill="white"></path>
  <path d="M197.34 20.8056C197.945 19.5797 198.524 18.3707 199.078 17.1784C199.649 15.9694 200.229 14.8191 200.816 13.7276C201.152 13.1231 201.429 12.7033 201.648 12.4682C201.883 12.2163 202.193 12.0904 202.579 12.0904C202.714 12.0904 202.857 12.1156 203.008 12.166C203.159 12.1995 203.31 12.2163 203.461 12.2163C203.562 12.2163 203.637 12.2079 203.688 12.1911C203.453 12.3255 203.15 12.6613 202.781 13.1987C202.412 13.7192 202.034 14.3238 201.648 15.0122C201.261 15.7007 200.917 16.3472 200.615 16.9517C200.934 16.5655 201.261 16.1793 201.597 15.7931C201.95 15.4069 202.336 15.0374 202.756 14.6848C203.159 14.3322 203.637 13.9711 204.192 13.6017C204.762 13.2155 205.317 12.8964 205.854 12.6445C206.391 12.3927 206.82 12.2667 207.139 12.2667C207.256 12.2667 207.34 12.2751 207.39 12.2919C207.39 12.2919 207.298 12.4598 207.113 12.7957C206.929 13.1147 206.694 13.5429 206.408 14.0803C206.139 14.6008 205.862 15.1634 205.577 15.7679C205.291 16.3556 205.031 16.9266 204.796 17.4807C204.578 18.018 204.435 18.4714 204.368 18.8409C204.317 19.0592 204.292 19.2607 204.292 19.4454C204.292 19.7141 204.343 19.8904 204.443 19.9743C204.544 20.0583 204.653 20.1003 204.771 20.1003C205.09 20.1003 205.426 19.9324 205.778 19.5965C206.131 19.2439 206.467 18.8157 206.786 18.3119C207.122 17.8081 207.416 17.3212 207.668 16.851C207.936 16.364 208.129 15.9946 208.247 15.7427C208.314 15.6084 208.364 15.5328 208.398 15.516C208.432 15.4824 208.482 15.4656 208.549 15.4656C208.65 15.4656 208.7 15.5328 208.7 15.6671C208.7 15.7511 208.675 15.8435 208.625 15.9442C208.423 16.3304 208.18 16.7922 207.894 17.3296C207.626 17.8669 207.315 18.3959 206.962 18.9164C206.61 19.4202 206.223 19.8484 205.804 20.201C205.384 20.5369 204.93 20.7048 204.443 20.7048C204.108 20.7048 203.755 20.5873 203.385 20.3522C203.033 20.1171 202.857 19.6805 202.857 19.0424C202.857 18.8577 202.873 18.6645 202.907 18.463C202.941 18.2447 202.999 18.0097 203.083 17.7578C203.218 17.4219 203.377 17.0609 203.562 16.6747C203.747 16.2885 204.049 15.7595 204.469 15.0878C204.586 14.9031 204.653 14.7604 204.67 14.6596C204.704 14.5589 204.72 14.4749 204.72 14.4077C204.72 14.2062 204.628 14.1055 204.443 14.1055C204.292 14.1055 204.066 14.1894 203.763 14.3573C203.478 14.5253 203.117 14.8191 202.68 15.2389C202.26 15.642 201.757 16.2129 201.169 16.9517C200.598 17.6906 199.935 18.7821 199.179 20.2262C199.062 20.4445 198.927 20.5621 198.776 20.5789C198.642 20.5957 198.449 20.6124 198.197 20.6292C198.029 20.646 197.869 20.6544 197.718 20.6544C197.567 20.6712 197.441 20.7216 197.34 20.8056Z" fill="white"></path>
  <path d="M220.179 20.6796C219.994 20.6964 219.784 20.6544 219.549 20.5537C219.314 20.4529 219.104 20.2682 218.919 19.9995C218.751 19.7309 218.667 19.353 218.667 18.8661C218.667 18.463 218.743 17.9761 218.894 17.4051C218.693 17.7242 218.432 18.1188 218.113 18.589C217.794 19.0424 217.45 19.4454 217.08 19.798C216.761 20.1003 216.459 20.3186 216.174 20.4529C215.888 20.5873 215.628 20.6544 215.393 20.6544C214.956 20.6544 214.604 20.4613 214.335 20.0751C214.066 19.6721 213.932 19.1515 213.932 18.5134C213.932 17.8417 214.1 17.0777 214.436 16.2213C214.772 15.3649 215.317 14.4749 216.073 13.5513C216.56 12.9636 217.148 12.4934 217.836 12.1408C218.541 11.7713 219.23 11.5866 219.902 11.5866C220.288 11.5866 220.657 11.6538 221.01 11.7881C221.362 11.9057 221.673 12.1072 221.942 12.3927C222.059 12.5102 222.118 12.6445 222.118 12.7957C222.118 12.8964 222.076 12.9804 221.992 13.0476C221.908 13.1147 221.799 13.1315 221.665 13.0979C221.48 12.5102 221.085 12.2163 220.481 12.2163C220.195 12.2163 219.868 12.3087 219.499 12.4934C218.928 12.7957 218.331 13.291 217.71 13.9795C217.106 14.668 216.577 15.3817 216.123 16.1205C216.056 16.2213 215.947 16.4144 215.796 16.6999C215.662 16.9853 215.527 17.3044 215.393 17.657C215.259 18.0097 215.166 18.3539 215.116 18.6897C215.099 18.7905 215.091 18.8661 215.091 18.9164C215.091 18.95 215.091 19.0088 215.091 19.0928C215.091 19.6469 215.301 19.924 215.72 19.924C216.224 19.924 216.795 19.5545 217.433 18.8157C217.87 18.2783 218.264 17.7158 218.617 17.1281C218.97 16.5403 219.331 15.9106 219.7 15.2389C219.952 14.7855 220.187 14.4077 220.405 14.1055C220.624 13.8032 220.934 13.6521 221.337 13.6521C221.522 13.6521 221.707 13.6773 221.891 13.7276C222.076 13.778 222.269 13.7864 222.471 13.7528C222.336 13.8872 222.152 14.139 221.917 14.5085C221.698 14.8779 221.463 15.2977 221.211 15.7679C220.959 16.2381 220.733 16.7167 220.531 17.2036C220.33 17.6906 220.187 18.1104 220.103 18.463C220.086 18.5638 220.061 18.7065 220.028 18.8912C220.011 19.076 220.002 19.2103 220.002 19.2943C220.002 19.7644 220.137 19.9995 220.405 19.9995C220.674 19.9995 220.959 19.84 221.262 19.521C221.581 19.2019 221.891 18.8073 222.194 18.3371C222.496 17.8669 222.773 17.3967 223.025 16.9266C223.277 16.4396 223.478 16.045 223.629 15.7427C223.697 15.5748 223.797 15.4908 223.932 15.4908C224.016 15.4908 224.058 15.5496 224.058 15.6671C224.058 15.7175 224.032 15.8099 223.982 15.9442C223.781 16.364 223.537 16.8426 223.252 17.3799C222.966 17.9005 222.655 18.4127 222.32 18.9164C221.984 19.4034 221.631 19.8148 221.262 20.1507C220.909 20.4697 220.548 20.646 220.179 20.6796Z" fill="white"></path>
  <path d="M221.2 20.8056C221.805 19.5797 222.384 18.3707 222.938 17.1784C223.509 15.9694 224.089 14.8191 224.676 13.7276C225.012 13.1231 225.289 12.7033 225.508 12.4682C225.743 12.2163 226.053 12.0904 226.44 12.0904C226.574 12.0904 226.717 12.1156 226.868 12.166C227.019 12.1995 227.17 12.2163 227.321 12.2163C227.422 12.2163 227.497 12.2079 227.548 12.1911C227.313 12.3255 227.01 12.6613 226.641 13.1987C226.272 13.7192 225.894 14.3238 225.508 15.0122C225.121 15.7007 224.777 16.3472 224.475 16.9517C224.794 16.5655 225.121 16.1793 225.457 15.7931C225.81 15.4069 226.196 15.0374 226.616 14.6848C227.019 14.3322 227.497 13.9711 228.052 13.6017C228.622 13.2155 229.177 12.8964 229.714 12.6445C230.251 12.3927 230.68 12.2667 230.999 12.2667C231.116 12.2667 231.2 12.2751 231.25 12.2919C231.25 12.2919 231.158 12.4598 230.973 12.7957C230.789 13.1147 230.554 13.5429 230.268 14.0803C229.999 14.6008 229.722 15.1634 229.437 15.7679C229.151 16.3556 228.891 16.9266 228.656 17.4807C228.438 18.018 228.295 18.4714 228.228 18.8409C228.177 19.0592 228.152 19.2607 228.152 19.4454C228.152 19.7141 228.203 19.8904 228.303 19.9743C228.404 20.0583 228.513 20.1003 228.631 20.1003C228.95 20.1003 229.286 19.9324 229.638 19.5965C229.991 19.2439 230.327 18.8157 230.646 18.3119C230.982 17.8081 231.276 17.3212 231.528 16.851C231.796 16.364 231.989 15.9946 232.107 15.7427C232.174 15.6084 232.224 15.5328 232.258 15.516C232.292 15.4824 232.342 15.4656 232.409 15.4656C232.51 15.4656 232.56 15.5328 232.56 15.6671C232.56 15.7511 232.535 15.8435 232.485 15.9442C232.283 16.3304 232.04 16.7922 231.754 17.3296C231.486 17.8669 231.175 18.3959 230.822 18.9164C230.47 19.4202 230.083 19.8484 229.664 20.201C229.244 20.5369 228.79 20.7048 228.303 20.7048C227.968 20.7048 227.615 20.5873 227.246 20.3522C226.893 20.1171 226.717 19.6805 226.717 19.0424C226.717 18.8577 226.733 18.6645 226.767 18.463C226.801 18.2447 226.859 18.0097 226.943 17.7578C227.078 17.4219 227.237 17.0609 227.422 16.6747C227.607 16.2885 227.909 15.7595 228.329 15.0878C228.446 14.9031 228.513 14.7604 228.53 14.6596C228.564 14.5589 228.581 14.4749 228.581 14.4077C228.581 14.2062 228.488 14.1055 228.303 14.1055C228.152 14.1055 227.926 14.1894 227.623 14.3573C227.338 14.5253 226.977 14.8191 226.54 15.2389C226.12 15.642 225.617 16.2129 225.029 16.9517C224.458 17.6906 223.795 18.7821 223.039 20.2262C222.922 20.4445 222.787 20.5621 222.636 20.5789C222.502 20.5957 222.309 20.6124 222.057 20.6292C221.889 20.646 221.729 20.6544 221.578 20.6544C221.427 20.6712 221.301 20.7216 221.2 20.8056Z" fill="white"></path>
  <path d="M237.622 20.6041C237.168 20.6041 236.79 20.3774 236.488 19.924C236.404 19.7896 236.329 19.6133 236.261 19.395C236.194 19.1767 236.161 18.9332 236.161 18.6645C236.161 18.5134 236.169 18.3623 236.186 18.2112C236.203 18.0432 236.236 17.8753 236.287 17.7074C236.051 18.0768 235.774 18.4882 235.455 18.9416C235.153 19.3782 234.8 19.7644 234.397 20.1003C234.011 20.4193 233.575 20.5789 233.088 20.5789C232.92 20.5789 232.743 20.5537 232.559 20.5033C232.105 20.369 231.778 20.1339 231.576 19.798C231.392 19.4622 231.299 19.0592 231.299 18.589C231.299 18.0684 231.4 17.4975 231.602 16.8762C231.82 16.2549 232.089 15.6503 232.408 15.0626C232.743 14.4749 233.088 13.9711 233.44 13.5513C233.944 12.9636 234.523 12.4934 235.178 12.1408C235.833 11.7881 236.496 11.6118 237.168 11.6118C237.773 11.6118 238.344 11.7713 238.881 12.0904C239.133 11.6202 239.402 11.0997 239.687 10.5287C239.972 9.94099 240.258 9.36166 240.543 8.79073C240.829 8.21979 241.081 7.69923 241.299 7.22905C241.517 6.74208 241.685 6.37265 241.803 6.12076C242.055 5.53304 242.29 5.16361 242.508 5.01248C242.743 4.84455 243.02 4.76059 243.339 4.76059C243.524 4.76059 243.726 4.78578 243.944 4.83616C244.179 4.86974 244.406 4.87814 244.624 4.86135C244.523 4.9621 244.313 5.25596 243.994 5.74294C243.692 6.21312 243.331 6.81764 242.911 7.5565C242.491 8.29536 242.038 9.10978 241.551 9.99977C241.081 10.873 240.611 11.7629 240.14 12.6697C239.687 13.5597 239.259 14.4077 238.856 15.2137C238.47 16.003 238.159 16.6831 237.924 17.254C237.857 17.3883 237.756 17.6654 237.622 18.0852C237.504 18.4882 237.445 18.8409 237.445 19.1431C237.445 19.3614 237.496 19.5545 237.596 19.7225C237.697 19.8736 237.865 19.9492 238.1 19.9492C238.419 19.9492 238.738 19.7896 239.057 19.4706C239.393 19.1347 239.712 18.7317 240.014 18.2615C240.317 17.7746 240.585 17.3044 240.82 16.851C241.056 16.3808 241.232 16.0114 241.349 15.7427C241.433 15.558 241.534 15.4656 241.652 15.4656C241.752 15.4656 241.803 15.5412 241.803 15.6923C241.803 15.7091 241.803 15.7427 241.803 15.7931C241.803 15.8267 241.786 15.8686 241.752 15.919C241.601 16.2717 241.391 16.7083 241.123 17.2288C240.871 17.7494 240.569 18.2699 240.216 18.7905C239.863 19.311 239.469 19.7476 239.032 20.1003C238.595 20.4361 238.125 20.6041 237.622 20.6041ZM233.264 19.8484C233.499 19.8484 233.793 19.7225 234.146 19.4706C234.498 19.2019 234.876 18.7821 235.279 18.2112C235.749 17.5395 236.287 16.6999 236.891 15.6923C237.496 14.6848 238.092 13.6185 238.679 12.4934C238.461 12.2919 238.209 12.1911 237.924 12.1911C237.454 12.1911 236.925 12.4094 236.337 12.846C235.766 13.2826 235.203 13.8368 234.649 14.5085C234.112 15.1802 233.659 15.8603 233.289 16.5487C233.037 17.0189 232.853 17.4471 232.735 17.8333C232.634 18.2196 232.584 18.5554 232.584 18.8409C232.584 19.5126 232.811 19.8484 233.264 19.8484Z" fill="white"></path>
  <path d="M39.5533 56.7526C39.0496 56.7526 38.6298 56.5679 38.2939 56.1984C37.9749 55.829 37.8489 55.1321 37.9161 54.1078C37.9833 53.0499 38.3107 51.6897 38.8985 50.0273C39.4862 48.3649 40.2502 46.4086 41.1906 44.1584C41.4928 43.4364 41.7951 42.6303 42.0974 41.7403C42.4164 40.8504 42.6851 39.9604 42.9034 39.0704C43.1217 38.1636 43.2308 37.3492 43.2308 36.6271C43.2308 36.1234 43.1637 35.6868 43.0293 35.3173C42.9118 34.9311 42.6935 34.6456 42.3744 34.4609C42.005 34.2258 41.6104 34.0579 41.1906 33.9572C40.7708 33.8564 40.3258 33.806 39.8556 33.806C38.7977 33.806 37.681 34.0495 36.5056 34.5365C35.3469 35.0235 34.2218 35.6951 33.1303 36.5516C32.0556 37.3912 31.0901 38.3483 30.2337 39.423C29.3941 40.4977 28.756 41.6144 28.3194 42.7731C28.0675 43.4616 27.8828 44.1081 27.7652 44.7126C27.6477 45.3171 27.5889 45.8628 27.5889 46.3498C27.5889 47.2734 27.7568 48.0458 28.0927 48.6671C28.4453 49.2717 28.8987 49.725 29.4528 50.0273C30.0238 50.3128 30.6367 50.4555 31.2916 50.4555C31.9129 50.4555 32.5006 50.3464 33.0548 50.1281C33.7768 49.8594 34.4233 49.406 34.9943 48.7679C35.5652 48.1298 36.0186 47.4245 36.3544 46.6521C36.6903 45.8628 36.8582 45.1408 36.8582 44.4859C36.8582 43.9149 36.7071 43.4364 36.4048 43.0501C36.1193 42.6639 35.6408 42.4708 34.9691 42.4708C34.8683 42.4708 34.7676 42.4708 34.6668 42.4708C34.5829 42.4708 34.4821 42.4876 34.3646 42.5212C34.2974 42.538 34.2386 42.5464 34.1882 42.5464C34.1379 42.5464 34.0959 42.5464 34.0623 42.5464C33.9112 42.5464 33.8356 42.5128 33.8356 42.4456C33.8356 42.3449 33.9951 42.2357 34.3142 42.1182C34.8347 41.9503 35.3217 41.8663 35.7751 41.8663C36.5643 41.8663 37.1521 42.1014 37.5383 42.5716C37.9245 43.025 38.1176 43.6043 38.1176 44.3096C38.1176 45.0148 37.9245 45.7789 37.5383 46.6017C37.1521 47.4077 36.5811 48.1802 35.8255 48.919C35.0866 49.6579 34.1547 50.2624 33.0296 50.7326C32.4251 50.9845 31.8037 51.1104 31.1656 51.1104C30.2924 51.1104 29.4696 50.8837 28.6972 50.4303C27.9247 49.9769 27.295 49.3304 26.8081 48.4908C26.3211 47.6512 26.0776 46.6605 26.0776 45.5186C26.0776 44.9645 26.1448 44.3851 26.2791 43.7806C26.4134 43.1761 26.6233 42.538 26.9088 41.8663C27.463 40.5733 28.2186 39.3978 29.1758 38.3399C30.1329 37.2652 31.1992 36.3417 32.3747 35.5692C33.5669 34.78 34.7844 34.1755 36.027 33.7556C37.2696 33.3358 38.4535 33.1259 39.5785 33.1259C40.5693 33.1259 41.4677 33.3023 42.2737 33.6549C43.1637 34.0411 43.785 34.5953 44.1376 35.3173C44.5071 36.0226 44.6918 36.8202 44.6918 37.7102C44.6918 38.6842 44.5238 39.7253 44.188 40.8336C43.8689 41.9251 43.4743 42.9998 43.0042 44.0577C42.4836 45.2499 41.9714 46.4925 41.4677 47.7855C40.9639 49.0785 40.5273 50.3044 40.1579 51.463C39.7884 52.6217 39.5282 53.5873 39.377 54.3597C39.3434 54.5444 39.3183 54.7039 39.3015 54.8383C39.2847 54.9894 39.2763 55.1153 39.2763 55.2161C39.2763 55.8038 39.4694 56.0977 39.8556 56.0977C40.0907 56.0977 40.3678 55.9969 40.6868 55.7954C41.3081 55.426 41.9378 54.8719 42.5759 54.133C43.2141 53.3941 43.8438 52.5545 44.4651 51.6142C45.1032 50.657 45.7161 49.6831 46.3038 48.6923C46.8915 47.6848 47.4541 46.736 47.9914 45.846C48.5288 44.9561 49.0158 44.2004 49.4524 43.5791C49.721 43.2097 49.9729 42.941 50.208 42.7731C50.4431 42.5884 50.6446 42.496 50.8125 42.496C51.1652 42.496 51.3415 42.7647 51.3415 43.302C51.3415 43.6211 51.2659 44.0073 51.1148 44.4607C50.8965 45.0988 50.6026 45.8293 50.2332 46.6521C49.8638 47.4581 49.5195 48.2809 49.2005 49.1205C48.8814 49.9433 48.6715 50.7158 48.5708 51.4379C48.554 51.6226 48.5372 51.7905 48.5204 51.9416C48.5204 52.076 48.5204 52.2187 48.5204 52.3698C48.5204 53.243 48.6967 53.8643 49.0493 54.2338C49.402 54.62 49.8638 54.8131 50.4347 54.8131C51.0896 54.8131 51.8285 54.6032 52.6513 54.1834C53.4909 53.7636 54.3305 53.2094 55.1701 52.521C56.0097 51.8157 56.7654 51.0432 57.4371 50.2036C58.1255 49.364 58.6461 48.5244 58.9987 47.6848C59.385 46.7612 59.6788 45.8628 59.8803 44.9896C60.0818 44.1164 60.1826 43.3188 60.1826 42.5968C60.1826 41.4381 59.9307 40.4977 59.4269 39.7757C58.9232 39.0368 58.1339 38.6674 57.0592 38.6674C56.9753 38.6674 56.8829 38.6758 56.7822 38.6926C56.6814 38.6926 56.5723 38.701 56.4547 38.7178C56.0517 38.8185 55.7578 38.8689 55.5731 38.8689C55.3548 38.8689 55.2457 38.8185 55.2457 38.7178C55.2457 38.5834 55.4136 38.4323 55.7494 38.2644C56.0853 38.0964 56.4379 38.0461 56.8074 38.1132C57.6134 38.0461 58.369 38.2308 59.0743 38.6674C59.7964 39.0872 60.3757 39.7253 60.8123 40.5817C61.2489 41.4213 61.4672 42.4456 61.4672 43.6547C61.4672 44.276 61.4 44.9477 61.2657 45.6697C61.1313 46.3918 60.9047 47.1474 60.5856 47.9367C60.1658 48.9946 59.5781 49.9769 58.8224 50.8837C58.0668 51.7905 57.2188 52.5881 56.2784 53.2766C55.3548 53.9651 54.4061 54.494 53.4321 54.8635C52.475 55.2497 51.5766 55.4428 50.737 55.4428C49.7798 55.4428 48.9738 55.1405 48.3189 54.536C47.6808 53.9483 47.3617 52.9911 47.3617 51.6646C47.3617 51.1104 47.4121 50.5479 47.5129 49.9769C47.6136 49.406 47.7312 48.9022 47.8655 48.4656C47.58 48.9358 47.2022 49.5235 46.732 50.2288C46.2618 50.9173 45.7245 51.6394 45.12 52.395C44.5322 53.1507 43.9193 53.8559 43.2812 54.5108C42.6431 55.1825 42.005 55.7199 41.3669 56.1229C40.7288 56.5427 40.1243 56.7526 39.5533 56.7526Z" fill="white"></path>
  <path d="M64.7564 43.3776C64.5045 43.3776 64.2946 43.2936 64.1267 43.1257C63.9756 42.941 63.9 42.7227 63.9 42.4708C63.9 42.1518 64.026 41.8747 64.2779 41.6396C64.5297 41.4045 64.8068 41.287 65.1091 41.287C65.3777 41.287 65.596 41.3709 65.764 41.5388C65.9319 41.7068 66.0158 41.9083 66.0158 42.1434C66.0158 42.4624 65.8899 42.7479 65.638 42.9998C65.3861 43.2516 65.0923 43.3776 64.7564 43.3776ZM62.7162 53.604C62.0949 53.604 61.6583 53.4277 61.4064 53.0751C61.1545 52.7057 61.0286 52.2859 61.0286 51.8157C61.0286 51.5638 61.0537 51.3119 61.1041 51.06C61.1713 50.7914 61.2469 50.5479 61.3308 50.3296L63.0184 46.0224C63.0688 45.888 63.094 45.7705 63.094 45.6697C63.094 45.5018 63.052 45.3591 62.9681 45.2415C62.8841 45.1072 62.8253 45.0148 62.7917 44.9645L64.1771 44.9141C64.429 44.8973 64.6053 44.9309 64.7061 45.0148C64.8236 45.082 64.8824 45.166 64.8824 45.2667C64.8824 45.3675 64.8236 45.5522 64.7061 45.8209L62.6154 50.7326C62.6154 50.7326 62.565 50.8417 62.4643 51.06C62.3803 51.2615 62.33 51.3959 62.3132 51.463C62.2628 51.7149 62.2292 51.8745 62.2124 51.9416C62.1956 52.0088 62.1872 52.0508 62.1872 52.0676C62.1872 52.0844 62.1872 52.1515 62.1872 52.2691C62.1872 52.4874 62.2376 52.6721 62.3384 52.8232C62.4559 52.9743 62.649 53.0499 62.9177 53.0499C63.0856 53.0499 63.2787 52.9995 63.497 52.8988C63.7153 52.798 63.8748 52.6973 63.9756 52.5965C64.3954 52.1599 64.8068 51.589 65.2098 50.8837C65.6296 50.1616 66.0158 49.448 66.3685 48.7427C66.4357 48.5748 66.5196 48.4908 66.6204 48.4908C66.7043 48.4908 66.7463 48.5496 66.7463 48.6671C66.7463 48.7343 66.7211 48.8351 66.6707 48.9694C66.5028 49.322 66.2929 49.7586 66.041 50.2792C65.7892 50.7998 65.4869 51.3203 65.1343 51.8409C64.7984 52.3446 64.429 52.7644 64.026 53.1003C63.623 53.4361 63.1864 53.604 62.7162 53.604Z" fill="white"></path>
  <path d="M67.6224 53.6796C66.9171 53.6796 66.4385 53.4949 66.1867 53.1255C65.9348 52.7393 65.8088 52.2859 65.8088 51.7653C65.8088 51.228 65.8844 50.6738 66.0355 50.1029C66.1867 49.5319 66.321 49.0534 66.4385 48.6671C66.7072 47.7268 67.0431 46.7276 67.4461 45.6697C67.8659 44.595 68.3193 43.5455 68.8062 42.5212C69.31 41.4801 69.8054 40.5481 70.2924 39.7253C70.6786 39.0704 71.09 38.5834 71.5266 38.2644C71.98 37.9285 72.3746 37.7606 72.7104 37.7606C72.9791 37.7606 73.189 37.8613 73.3401 38.0629C73.5081 38.2476 73.592 38.533 73.592 38.9193C73.592 39.1879 73.5416 39.507 73.4409 39.8764C73.3569 40.2458 73.2058 40.6656 72.9875 41.1358C72.3998 42.4456 71.6945 43.7554 70.8717 45.0652C70.0657 46.375 69.0413 47.6008 67.7987 48.7427C67.7315 48.961 67.6392 49.2213 67.5216 49.5235C67.4209 49.809 67.3285 50.1029 67.2446 50.4051C67.1438 50.8585 67.0934 51.2447 67.0934 51.5638C67.0934 52.0844 67.1942 52.479 67.3957 52.7476C67.614 52.9995 67.8743 53.1255 68.1765 53.1255C68.4452 53.1255 68.7307 53.0331 69.0329 52.8484C69.3352 52.6469 69.6207 52.3614 69.8893 51.992C70.2923 51.4043 70.6534 50.8081 70.9724 50.2036C71.3083 49.5823 71.5602 49.1037 71.7281 48.7679C71.8288 48.5832 71.938 48.4908 72.0555 48.4908C72.1395 48.4908 72.1815 48.5412 72.1815 48.6419C72.1815 48.7259 72.1563 48.8183 72.1059 48.919C71.9548 49.2549 71.7533 49.6915 71.5014 50.2288C71.2663 50.7494 70.964 51.2783 70.5946 51.8157C70.242 52.3362 69.8138 52.7812 69.31 53.1507C68.823 53.5033 68.2605 53.6796 67.6224 53.6796ZM68.0002 47.9367C68.6047 47.3154 69.1925 46.6017 69.7634 45.7957C70.3343 44.9729 70.8633 44.1248 71.3503 43.2516C71.854 42.3617 72.2738 41.522 72.6097 40.7328C72.7272 40.4809 72.8196 40.2039 72.8867 39.9016C72.9707 39.5993 73.0127 39.3475 73.0127 39.146C73.0127 38.9109 72.9539 38.7933 72.8364 38.7933C72.7692 38.7933 72.6684 38.8605 72.5341 38.9948C72.3998 39.1124 72.2235 39.3223 72.0052 39.6245C71.6861 40.0443 71.3335 40.6153 70.9473 41.3373C70.5778 42.0594 70.2 42.8318 69.8138 43.6547C69.4276 44.4775 69.0749 45.2751 68.7559 46.0476C68.4368 46.8032 68.1849 47.4329 68.0002 47.9367Z" fill="white"></path>
  <path d="M72.3047 53.7048C71.4818 53.7048 70.8941 53.4949 70.5415 53.0751C70.2056 52.6385 70.0377 52.1851 70.0377 51.7149C70.0377 51.3287 70.1301 50.9761 70.3148 50.657C70.5163 50.338 70.7514 50.17 71.0201 50.1533C71.3559 49.4984 71.7169 48.7847 72.1032 48.0122C72.5062 47.2398 72.8756 46.4925 73.2114 45.7705C73.4465 45.2835 73.7404 44.8133 74.093 44.3599C74.4625 43.9065 74.8655 43.6463 75.3021 43.5791H75.554C75.6883 43.5791 75.8058 43.5875 75.9066 43.6043C76.0241 43.6211 76.1417 43.6547 76.2592 43.705C76.4439 43.789 76.5363 43.9149 76.5363 44.0829C76.5363 44.1836 76.4775 44.234 76.36 44.234C76.3096 44.234 76.2424 44.2088 76.1585 44.1584C75.957 44.0745 75.7807 44.0325 75.6295 44.0325C75.5288 44.0325 75.4364 44.0577 75.3524 44.1081C75.0334 44.276 74.8067 44.5111 74.6724 44.8133C74.5548 45.1156 74.496 45.4346 74.496 45.7705C74.496 46.0392 74.5212 46.3162 74.5716 46.6017C74.6388 46.8704 74.7143 47.1139 74.7983 47.3322C74.983 47.8023 75.1761 48.2641 75.3776 48.7175C75.5959 49.1709 75.7051 49.6579 75.7051 50.1784C75.7051 50.6822 75.5372 51.2196 75.2013 51.7905C74.8655 52.3446 74.4373 52.7896 73.9167 53.1255L74.093 53.1507C74.177 53.1675 74.2358 53.1758 74.2694 53.1758C74.3029 53.1758 74.3281 53.1758 74.3449 53.1758C74.7311 53.1758 75.0922 53.0667 75.428 52.8484C75.7807 52.6133 76.0913 52.3278 76.36 51.992C76.6287 51.6562 76.9309 51.186 77.2668 50.5815C77.6194 49.9769 77.9552 49.3388 78.2743 48.6671C78.3247 48.5832 78.3834 48.5412 78.4506 48.5412C78.5346 48.5412 78.5933 48.5748 78.6269 48.6419C78.6773 48.6923 78.6857 48.7595 78.6521 48.8435C78.4338 49.3136 78.1819 49.8258 77.8965 50.3799C77.6278 50.9173 77.3171 51.4379 76.9645 51.9416C76.6119 52.4286 76.2005 52.8316 75.7303 53.1507C75.2769 53.4529 74.7647 53.604 74.1938 53.604C74.0594 53.604 73.9167 53.5957 73.7656 53.5789C73.6145 53.5621 73.4633 53.5285 73.3122 53.4781C73.1443 53.5453 72.968 53.5957 72.7832 53.6292C72.6153 53.6796 72.4558 53.7048 72.3047 53.7048ZM73.0603 52.9492C73.3458 52.7141 73.5977 52.3698 73.816 51.9164C74.0511 51.463 74.1686 50.8669 74.1686 50.1281C74.1686 49.4732 74.1014 48.7763 73.9671 48.0374C73.8328 47.2986 73.7656 46.6437 73.7656 46.0727C73.7656 45.9552 73.7656 45.8544 73.7656 45.7705C73.7824 45.6697 73.7992 45.5774 73.816 45.4934C73.5977 45.9468 73.3458 46.4758 73.0603 47.0803C72.7748 47.668 72.4894 48.2389 72.2039 48.7931C71.9184 49.3472 71.675 49.8174 71.4734 50.2036C71.4734 50.2036 71.5154 50.212 71.5994 50.2288C71.7001 50.2288 71.7925 50.2876 71.8765 50.4051C71.9604 50.5059 71.994 50.7158 71.9772 51.0348C71.9604 51.4546 72.0528 51.8493 72.2543 52.2187C72.4726 52.5713 72.7413 52.8148 73.0603 52.9492ZM72.1032 53.3018C72.2039 53.3018 72.2963 53.2934 72.3802 53.2766C72.4642 53.243 72.5398 53.2178 72.6069 53.201C72.355 53.0163 72.1283 52.7728 71.9268 52.4706C71.7421 52.1515 71.633 51.7485 71.5994 51.2615C71.2971 51.5806 71.146 51.9248 71.146 52.2943C71.146 52.5629 71.23 52.798 71.3979 52.9995C71.5658 53.201 71.8009 53.3018 72.1032 53.3018Z" fill="white"></path>
  <path d="M79.4036 53.604C78.7655 53.604 78.2954 53.3941 77.9931 52.9743C77.6908 52.5377 77.5397 52.0088 77.5397 51.3875C77.5397 50.6318 77.716 49.8426 78.0687 49.0198C78.4045 48.2473 78.8327 47.5421 79.3533 46.904C79.8738 46.2659 80.4364 45.7537 81.0409 45.3675C81.6454 44.9645 82.2331 44.7629 82.8041 44.7629C83.4422 44.7629 83.9123 44.9729 84.2146 45.3927C84.5169 45.8125 84.668 46.3414 84.668 46.9795C84.668 47.752 84.4917 48.5412 84.139 49.3472C83.9375 49.8006 83.6521 50.3044 83.2826 50.8585C82.9132 51.3959 82.4934 51.8912 82.0232 52.3446C82.124 52.5293 82.2667 52.6889 82.4514 52.8232C82.6361 52.9408 82.888 52.9995 83.2071 52.9995C83.6101 52.9995 83.9879 52.8316 84.3406 52.4958C84.71 52.1599 85.0458 51.7569 85.3481 51.2867C85.6503 50.7997 85.919 50.3128 86.1541 49.8258C86.3892 49.3388 86.5823 48.9442 86.7334 48.6419C86.7838 48.5412 86.8678 48.4908 86.9853 48.4908C87.0525 48.4908 87.1029 48.5244 87.1365 48.5916C87.17 48.642 87.1616 48.7259 87.1113 48.8435C87.0105 49.0953 86.8426 49.4732 86.6075 49.9769C86.3724 50.4639 86.0869 50.9761 85.7511 51.5134C85.4153 52.034 85.029 52.479 84.5924 52.8484C84.1558 53.2178 83.6689 53.4025 83.1315 53.4025C82.7621 53.4025 82.443 53.3438 82.1744 53.2262C81.9057 53.0919 81.6874 52.9324 81.5195 52.7476C81.1668 53.0163 80.8142 53.2262 80.4615 53.3774C80.1089 53.5285 79.7563 53.604 79.4036 53.604ZM79.7815 53.0499C80.2349 53.0499 80.7218 52.8316 81.2424 52.395C81.108 52.1935 81.0073 51.9836 80.9401 51.7653C80.873 51.547 80.8394 51.3455 80.8394 51.1608C80.8394 50.8585 80.9065 50.5982 81.0409 50.3799C81.192 50.1616 81.4187 50.0525 81.721 50.0525C81.9393 50.0525 82.1156 50.1365 82.2499 50.3044C82.4011 50.4555 82.4766 50.6318 82.4766 50.8333C82.4766 50.8837 82.4682 50.9341 82.4514 50.9845C82.4514 51.0181 82.443 51.06 82.4262 51.1104C82.7117 50.7242 82.9804 50.2708 83.2323 49.7502C83.7864 48.558 84.0635 47.5756 84.0635 46.8032C84.0635 46.417 83.9879 46.1147 83.8368 45.8964C83.6857 45.6781 83.459 45.569 83.1567 45.569C82.8041 45.569 82.4178 45.7201 81.998 46.0224C81.595 46.3246 81.2004 46.7276 80.8142 47.2314C80.4448 47.7352 80.1173 48.2977 79.8318 48.919C79.5632 49.49 79.3449 50.0441 79.1769 50.5815C79.0258 51.102 78.9502 51.5554 78.9502 51.9416C78.9502 52.2775 79.0174 52.5461 79.1518 52.7476C79.2861 52.9492 79.496 53.0499 79.7815 53.0499Z" fill="white"></path>
  <path d="M84.2388 53.8056C84.8433 52.5797 85.4227 51.3707 85.9768 50.1784C86.5477 48.9694 87.1271 47.8191 87.7148 46.7276C88.0506 46.1231 88.3277 45.7033 88.546 45.4682C88.7811 45.2163 89.0918 45.0904 89.478 45.0904C89.6123 45.0904 89.7551 45.1156 89.9062 45.166C90.0573 45.1995 90.2084 45.2163 90.3596 45.2163C90.4603 45.2163 90.5359 45.2079 90.5863 45.1912C90.3512 45.3255 90.0489 45.6613 89.6795 46.1987C89.3101 46.7192 88.9322 47.3238 88.546 48.0122C88.1598 48.7007 87.8156 49.3472 87.5133 49.9517C87.8324 49.5655 88.1598 49.1793 88.4956 48.7931C88.8483 48.4069 89.2345 48.0374 89.6543 47.6848C90.0573 47.3322 90.5359 46.9711 91.09 46.6017C91.661 46.2155 92.2151 45.8964 92.7525 45.6445C93.2898 45.3927 93.718 45.2667 94.0371 45.2667C94.1546 45.2667 94.2386 45.2751 94.289 45.2919C94.289 45.2919 94.1966 45.4598 94.0119 45.7957C93.8272 46.1147 93.5921 46.5429 93.3066 47.0803C93.0379 47.6008 92.7609 48.1634 92.4754 48.7679C92.1899 49.3556 91.9296 49.9266 91.6946 50.4807C91.4763 51.018 91.3335 51.4714 91.2664 51.8409C91.216 52.0592 91.1908 52.2607 91.1908 52.4454C91.1908 52.7141 91.2412 52.8904 91.3419 52.9743C91.4427 53.0583 91.5518 53.1003 91.6694 53.1003C91.9884 53.1003 92.3243 52.9324 92.6769 52.5965C93.0295 52.2439 93.3654 51.8157 93.6844 51.3119C94.0203 50.8081 94.3141 50.3212 94.566 49.851C94.8347 49.364 95.0278 48.9946 95.1454 48.7427C95.2125 48.6084 95.2629 48.5328 95.2965 48.516C95.3301 48.4824 95.3804 48.4656 95.4476 48.4656C95.5484 48.4656 95.5987 48.5328 95.5987 48.6671C95.5987 48.7511 95.5736 48.8435 95.5232 48.9442C95.3217 49.3304 95.0782 49.7922 94.7927 50.3296C94.524 50.8669 94.2134 51.3959 93.8608 51.9164C93.5081 52.4202 93.1219 52.8484 92.7021 53.201C92.2823 53.5369 91.8289 53.7048 91.3419 53.7048C91.0061 53.7048 90.6534 53.5873 90.284 53.3522C89.9314 53.1171 89.7551 52.6805 89.7551 52.0424C89.7551 51.8577 89.7719 51.6645 89.8054 51.463C89.839 51.2447 89.8978 51.0097 89.9818 50.7578C90.1161 50.4219 90.2756 50.0609 90.4603 49.6747C90.645 49.2885 90.9473 48.7595 91.3671 48.0878C91.4847 47.9031 91.5518 47.7604 91.5686 47.6596C91.6022 47.5589 91.619 47.4749 91.619 47.4077C91.619 47.2062 91.5266 47.1055 91.3419 47.1055C91.1908 47.1055 90.9641 47.1894 90.6618 47.3573C90.3764 47.5253 90.0153 47.8191 89.5787 48.2389C89.1589 48.642 88.6552 49.2129 88.0674 49.9517C87.4965 50.6906 86.8332 51.7821 86.0776 53.2262C85.96 53.4445 85.8257 53.5621 85.6745 53.5789C85.5402 53.5957 85.3471 53.6124 85.0952 53.6292C84.9273 53.646 84.7678 53.6544 84.6166 53.6544C84.4655 53.6712 84.3396 53.7216 84.2388 53.8056Z" fill="white"></path>
  <path d="M134.608 56.5007C134.356 56.4671 134.012 56.4 133.575 56.2992C133.139 56.2152 132.694 56.0389 132.24 55.7702C131.787 55.5016 131.401 55.0902 131.082 54.536C130.763 53.9987 130.603 53.2766 130.603 52.3698C130.603 51.3287 130.813 50.1868 131.233 48.9442C131.669 47.6848 132.198 46.375 132.82 45.0148C133.441 43.6547 134.037 42.3113 134.608 40.9847C135.061 39.9268 135.288 39.1208 135.288 38.5666C135.288 38.0125 135.078 37.7354 134.658 37.7354C134.188 37.7354 133.483 38.1132 132.543 38.8689C131.619 39.6077 130.544 40.7328 129.318 42.2441C128.999 42.6471 128.588 43.2097 128.084 43.9317C127.58 44.637 127.043 45.4262 126.472 46.2994C125.901 47.1558 125.339 48.029 124.785 48.919C124.247 49.7922 123.769 50.5982 123.349 51.3371C122.946 52.076 122.652 52.6637 122.467 53.1003C122.249 53.6208 121.997 53.9735 121.712 54.1582C121.426 54.3597 121.157 54.4605 120.906 54.4605C120.687 54.4605 120.494 54.4017 120.326 54.2841C120.175 54.1666 120.1 54.0239 120.1 53.8559C120.1 53.7552 120.125 53.6712 120.175 53.604C120.276 53.4025 120.545 52.9156 120.981 52.1431C121.418 51.3707 121.913 50.3464 122.467 49.0702C123.021 47.7772 123.55 46.2826 124.054 44.5866C124.575 42.8738 124.961 40.9847 125.213 38.9193C125.246 38.6842 125.263 38.4323 125.263 38.1636C125.263 37.5759 125.162 37.1477 124.961 36.879C124.759 36.5935 124.491 36.4508 124.155 36.4508C123.785 36.4508 123.366 36.6103 122.895 36.9294C122.425 37.2484 121.947 37.7102 121.46 38.3147C120.62 39.3726 119.881 40.355 119.243 41.2618C118.605 42.1518 118.017 43.0417 117.48 43.9317C116.959 44.8217 116.439 45.7705 115.918 46.778C115.414 47.7855 114.877 48.919 114.306 50.1784C113.735 51.4211 113.08 52.8652 112.342 54.5108C112.224 54.7795 112.022 54.9726 111.737 55.0902C111.468 55.2077 111.216 55.2665 110.981 55.2665C110.746 55.2665 110.553 55.2161 110.402 55.1153C110.251 55.0146 110.201 54.8719 110.251 54.6871C110.687 54.0155 111.158 53.1675 111.661 52.1431C112.165 51.1188 112.669 50.0021 113.173 48.7931C113.693 47.5672 114.172 46.333 114.608 45.0904C115.062 43.831 115.448 42.6471 115.767 41.5388C116.086 40.4138 116.304 39.4398 116.422 38.617C116.456 38.3483 116.481 38.0964 116.498 37.8613C116.514 37.6263 116.523 37.3996 116.523 37.1813C116.523 35.8883 116.246 34.9647 115.692 34.4105C115.154 33.8564 114.457 33.5793 113.601 33.5793C112.879 33.5793 112.09 33.7473 111.233 34.0831C110.394 34.4022 109.537 34.8471 108.664 35.4181C107.808 35.989 106.985 36.6523 106.196 37.408C105.406 38.1468 104.709 38.9444 104.105 39.8008C103.5 40.6405 103.039 41.4969 102.72 42.3701C102.501 42.9914 102.333 43.5875 102.216 44.1584C102.115 44.7126 102.065 45.2331 102.065 45.7201C102.065 46.6605 102.233 47.4581 102.568 48.113C102.921 48.7679 103.383 49.2633 103.954 49.5991C104.542 49.935 105.171 50.1029 105.843 50.1029C106.078 50.1029 106.338 50.0777 106.624 50.0273C106.926 49.9601 107.178 49.893 107.379 49.8258C107.866 49.6411 108.337 49.3556 108.79 48.9694C109.243 48.5664 109.646 48.1046 109.999 47.584C110.352 47.0635 110.629 46.5345 110.83 45.9972C111.032 45.4598 111.132 44.9561 111.132 44.4859C111.132 43.9989 110.998 43.5959 110.729 43.2768C110.461 42.9578 110.033 42.7983 109.445 42.7983C109.378 42.7983 109.302 42.8067 109.218 42.8234C109.151 42.8234 109.075 42.8234 108.991 42.8234H108.916C108.798 42.8234 108.689 42.8067 108.588 42.7731C108.488 42.7227 108.437 42.6639 108.437 42.5968C108.437 42.5296 108.521 42.454 108.689 42.3701C108.874 42.2861 109.201 42.2441 109.672 42.2441C110.427 42.2441 110.99 42.4708 111.359 42.9242C111.745 43.3608 111.938 43.9233 111.938 44.6118C111.938 45.2331 111.771 45.9048 111.435 46.6269C111.099 47.3489 110.595 48.0374 109.923 48.6923C109.252 49.3472 108.404 49.8846 107.379 50.3044C106.775 50.5395 106.187 50.657 105.616 50.657C104.777 50.657 103.979 50.4471 103.223 50.0273C102.468 49.5907 101.855 48.9778 101.385 48.1886C100.914 47.3825 100.679 46.4338 100.679 45.3423C100.679 44.8553 100.73 44.3431 100.83 43.8058C100.948 43.2516 101.133 42.6807 101.385 42.093C101.939 40.8 102.686 39.6077 103.626 38.5162C104.584 37.408 105.641 36.4508 106.8 35.6448C107.959 34.822 109.134 34.1839 110.326 33.7305C111.519 33.2771 112.627 33.0504 113.651 33.0504C114.894 33.0504 115.918 33.4198 116.724 34.1587C117.547 34.8975 117.959 36.0898 117.959 37.7354C117.959 37.853 117.95 38.0125 117.933 38.214C117.933 38.3987 117.925 38.5414 117.908 38.6422C117.807 39.4986 117.631 40.355 117.379 41.2114C117.144 42.0678 116.884 42.8906 116.598 43.6799C116.548 43.8142 116.506 43.9569 116.472 44.1081C116.456 44.2424 116.447 44.3347 116.447 44.3851C116.447 44.4691 116.464 44.5111 116.498 44.5111C116.565 44.5111 116.699 44.3347 116.901 43.9821C117.287 43.2768 117.631 42.6639 117.933 42.1434C118.252 41.606 118.563 41.119 118.865 40.6824C119.168 40.2458 119.495 39.8008 119.848 39.3475C120.2 38.8941 120.603 38.3903 121.057 37.8362C121.577 37.2148 122.173 36.7195 122.845 36.35C123.517 35.9806 124.163 35.7959 124.785 35.7959C125.339 35.7959 125.809 35.9806 126.195 36.35C126.581 36.7195 126.774 37.3492 126.774 38.2392C126.774 38.3399 126.774 38.4239 126.774 38.4911C126.774 38.5582 126.766 38.659 126.749 38.7933C126.598 40.4054 126.279 41.9922 125.792 43.5539C125.305 45.0988 124.801 46.6605 124.281 48.2389C124.801 47.4329 125.507 46.4086 126.397 45.166C127.287 43.9233 128.261 42.6387 129.318 41.3121C130.611 39.7001 131.812 38.4911 132.92 37.685C134.029 36.879 134.944 36.476 135.666 36.476C136.573 36.476 137.026 37.0301 137.026 38.1384C137.026 38.5582 136.942 39.062 136.774 39.6497C136.623 40.2374 136.38 40.8588 136.044 41.5137C135.674 42.2525 135.263 43.1089 134.809 44.0829C134.373 45.04 133.953 46.0476 133.55 47.1055C133.147 48.1634 132.811 49.2045 132.543 50.2288C132.291 51.2364 132.165 52.1683 132.165 53.0247C132.165 53.9483 132.375 54.6955 132.794 55.2665C133.231 55.8542 133.978 56.1313 135.036 56.0977H135.187C135.439 56.0977 135.565 56.1481 135.565 56.2488C135.565 56.316 135.481 56.3832 135.313 56.4503C135.145 56.5175 134.91 56.5343 134.608 56.5007Z" fill="white"></path>
  <path d="M137.352 53.9819C137.083 53.9819 136.865 53.8979 136.697 53.73C136.529 53.5621 136.445 53.3522 136.445 53.1003C136.445 52.7644 136.571 52.479 136.823 52.2439C137.092 52.0088 137.377 51.8912 137.679 51.8912C137.948 51.8912 138.166 51.9752 138.334 52.1431C138.502 52.2943 138.586 52.4958 138.586 52.7476C138.586 53.0667 138.46 53.3522 138.208 53.604C137.956 53.8559 137.671 53.9819 137.352 53.9819Z" fill="white"></path>
  <path d="M154.826 55.9214C153.181 55.9214 151.669 55.6779 150.292 55.1909C148.932 54.7039 147.832 53.9903 146.993 53.0499C146.153 52.0928 145.691 50.9173 145.607 49.5235C145.574 48.9526 145.666 48.3229 145.884 47.6344C146.103 46.9459 146.405 46.2659 146.791 45.5942C147.194 44.9057 147.664 44.2928 148.202 43.7554C148.756 43.2013 149.344 42.7815 149.965 42.496C150.015 42.4624 150.091 42.4372 150.192 42.4204C150.309 42.4036 150.393 42.3952 150.444 42.3952C150.544 42.3952 150.595 42.4204 150.595 42.4708C150.595 42.5548 150.469 42.6891 150.217 42.8738C149.512 43.428 148.932 44.0661 148.479 44.7881C148.009 45.5102 147.656 46.2826 147.421 47.1055C147.186 47.9283 147.068 48.7595 147.068 49.5991C147.068 50.5898 147.278 51.4463 147.698 52.1683C148.135 52.8736 148.714 53.4529 149.436 53.9063C150.158 54.3765 150.981 54.7207 151.905 54.939C152.828 55.1573 153.794 55.2665 154.801 55.2665C155.926 55.2665 157.035 55.1405 158.126 54.8887C159.234 54.6368 160.242 54.2757 161.149 53.8056C162.542 53.0667 163.642 52.1515 164.448 51.06C165.271 49.9685 165.683 48.8854 165.683 47.8107C165.683 47.2398 165.557 46.6941 165.305 46.1735C165.07 45.6529 164.683 45.1828 164.146 44.7629C163.743 44.4439 163.248 44.1416 162.66 43.8562C162.089 43.5707 161.476 43.2936 160.821 43.025C160.183 42.7563 159.553 42.4876 158.932 42.2189C158.311 41.9335 157.765 41.6312 157.295 41.3121C156.623 40.8588 156.128 40.3718 155.809 39.8512C155.506 39.3307 155.355 38.8101 155.355 38.2895C155.355 37.6682 155.532 37.0637 155.884 36.476C156.254 35.8883 156.749 35.3593 157.37 34.8891C158.008 34.4022 158.722 34.0243 159.511 33.7556C160.2 33.5206 160.947 33.3358 161.753 33.2015C162.576 33.0672 163.382 33 164.171 33C164.826 33 165.447 33.0504 166.035 33.1511C166.64 33.2351 167.169 33.3946 167.622 33.6297C168.193 33.8984 168.63 34.2594 168.932 34.7128C169.234 35.1494 169.385 35.6112 169.385 36.0982C169.385 36.7699 169.083 37.3576 168.478 37.8613C168.26 38.0293 168.017 38.1888 167.748 38.3399C167.479 38.4743 167.16 38.5918 166.791 38.6926C166.724 38.7094 166.648 38.7178 166.564 38.7178C166.363 38.7178 166.262 38.659 166.262 38.5414C166.262 38.4743 166.312 38.4071 166.413 38.3399C166.531 38.256 166.698 38.2056 166.917 38.1888C167.421 38.1216 167.798 37.9285 168.05 37.6095C168.319 37.2904 168.453 36.921 168.453 36.5012C168.453 36.0646 168.302 35.6364 168 35.2166C167.714 34.78 167.269 34.4189 166.665 34.1335C166.06 33.8312 165.288 33.6801 164.348 33.6801C163.81 33.6801 163.214 33.7389 162.559 33.8564C161.921 33.9739 161.224 34.1671 160.469 34.4357C159.545 34.7548 158.773 35.225 158.151 35.8463C157.547 36.4676 157.244 37.1309 157.244 37.8362C157.244 38.2728 157.387 38.7177 157.673 39.1711C157.975 39.6077 158.453 40.0275 159.108 40.4306C159.663 40.7664 160.292 41.1022 160.997 41.4381C161.703 41.7571 162.416 42.0846 163.139 42.4204C163.861 42.7395 164.515 43.0837 165.103 43.4532C166.027 44.0241 166.69 44.637 167.093 45.2919C167.496 45.9468 167.698 46.6185 167.698 47.307C167.698 48.113 167.454 48.9274 166.967 49.7502C166.497 50.5563 165.876 51.3203 165.103 52.0424C164.331 52.7476 163.483 53.3774 162.559 53.9315C161.484 54.5696 160.267 55.0566 158.907 55.3924C157.563 55.7451 156.203 55.9214 154.826 55.9214Z" fill="white"></path>
  <path d="M172.011 53.7048C171.054 53.7048 170.382 53.4781 169.996 53.0247C169.61 52.5545 169.417 51.9836 169.417 51.3119C169.417 50.5731 169.585 49.7838 169.92 48.9442C170.273 48.1046 170.684 47.3741 171.155 46.7528C171.642 46.0979 172.179 45.5942 172.767 45.2415C173.354 44.8721 173.951 44.6874 174.555 44.6874C175.193 44.6874 175.663 44.8469 175.966 45.166C176.268 45.485 176.385 45.9132 176.318 46.4506C176.285 46.7864 176.125 47.1223 175.84 47.4581C175.554 47.7772 175.269 47.9367 174.983 47.9367C174.849 47.9367 174.731 47.8863 174.631 47.7855C174.765 47.6176 174.908 47.4161 175.059 47.181C175.21 46.9459 175.319 46.7192 175.386 46.5009C175.453 46.2994 175.487 46.0979 175.487 45.8964C175.487 45.4766 175.286 45.2667 174.883 45.2667C174.429 45.2667 173.951 45.5018 173.447 45.972C172.96 46.4254 172.532 46.9207 172.162 47.4581C172.011 47.6596 171.826 47.9787 171.608 48.4153C171.407 48.8351 171.222 49.3052 171.054 49.8258C170.886 50.3296 170.802 50.8249 170.802 51.3119C170.802 51.8157 170.911 52.2691 171.129 52.6721C171.365 53.0583 171.751 53.2514 172.288 53.2514C173.027 53.2514 173.657 53.0247 174.177 52.5713C174.715 52.1011 175.185 51.5218 175.588 50.8333C176.008 50.1449 176.385 49.4732 176.721 48.8183C176.822 48.6168 176.923 48.516 177.024 48.516C177.108 48.516 177.149 48.5832 177.149 48.7175C177.149 48.7847 177.124 48.8686 177.074 48.9694C176.671 49.8426 176.259 50.6402 175.84 51.3623C175.42 52.0844 174.908 52.6553 174.303 53.0751C173.715 53.4949 172.951 53.7048 172.011 53.7048Z" fill="white"></path>
  <path d="M181.929 53.6796C181.744 53.6964 181.534 53.6544 181.299 53.5537C181.064 53.4529 180.854 53.2682 180.669 52.9995C180.501 52.7309 180.417 52.353 180.417 51.8661C180.417 51.463 180.493 50.9761 180.644 50.4051C180.443 50.7242 180.182 51.1188 179.863 51.589C179.544 52.0424 179.2 52.4454 178.831 52.798C178.512 53.1003 178.209 53.3186 177.924 53.4529C177.638 53.5873 177.378 53.6544 177.143 53.6544C176.706 53.6544 176.354 53.4613 176.085 53.0751C175.816 52.6721 175.682 52.1515 175.682 51.5134C175.682 50.8417 175.85 50.0777 176.186 49.2213C176.522 48.3649 177.067 47.4749 177.823 46.5513C178.31 45.9636 178.898 45.4934 179.586 45.1408C180.292 44.7713 180.98 44.5866 181.652 44.5866C182.038 44.5866 182.407 44.6538 182.76 44.7881C183.113 44.9057 183.423 45.1072 183.692 45.3927C183.81 45.5102 183.868 45.6445 183.868 45.7957C183.868 45.8964 183.826 45.9804 183.742 46.0476C183.658 46.1147 183.549 46.1315 183.415 46.0979C183.23 45.5102 182.836 45.2163 182.231 45.2163C181.946 45.2163 181.618 45.3087 181.249 45.4934C180.678 45.7957 180.082 46.291 179.46 46.9795C178.856 47.668 178.327 48.3817 177.873 49.1205C177.806 49.2213 177.697 49.4144 177.546 49.6999C177.412 49.9853 177.277 50.3044 177.143 50.657C177.009 51.0097 176.916 51.3539 176.866 51.6897C176.849 51.7905 176.841 51.8661 176.841 51.9164C176.841 51.95 176.841 52.0088 176.841 52.0928C176.841 52.6469 177.051 52.924 177.47 52.924C177.974 52.924 178.545 52.5545 179.183 51.8157C179.62 51.2783 180.014 50.7158 180.367 50.1281C180.72 49.5403 181.081 48.9106 181.45 48.2389C181.702 47.7855 181.937 47.4077 182.155 47.1055C182.374 46.8032 182.684 46.6521 183.087 46.6521C183.272 46.6521 183.457 46.6773 183.642 46.7276C183.826 46.778 184.019 46.7864 184.221 46.7528C184.087 46.8872 183.902 47.139 183.667 47.5085C183.448 47.8779 183.213 48.2977 182.962 48.7679C182.71 49.2381 182.483 49.7167 182.281 50.2036C182.08 50.6906 181.937 51.1104 181.853 51.463C181.836 51.5638 181.811 51.7065 181.778 51.8912C181.761 52.076 181.752 52.2103 181.752 52.2943C181.752 52.7644 181.887 52.9995 182.155 52.9995C182.424 52.9995 182.71 52.84 183.012 52.521C183.331 52.2019 183.642 51.8073 183.944 51.3371C184.246 50.8669 184.523 50.3967 184.775 49.9266C185.027 49.4396 185.228 49.045 185.38 48.7427C185.447 48.5748 185.548 48.4908 185.682 48.4908C185.766 48.4908 185.808 48.5496 185.808 48.6671C185.808 48.7175 185.783 48.8099 185.732 48.9442C185.531 49.364 185.287 49.8426 185.002 50.3799C184.716 50.9005 184.406 51.4127 184.07 51.9164C183.734 52.4034 183.381 52.8148 183.012 53.1507C182.659 53.4697 182.298 53.646 181.929 53.6796Z" fill="white"></path>
  <path d="M182.95 53.8056C183.555 52.5797 184.134 51.3707 184.688 50.1784C185.259 48.9694 185.839 47.8191 186.426 46.7276C186.762 46.1231 187.039 45.7033 187.258 45.4682C187.493 45.2163 187.803 45.0904 188.19 45.0904C188.324 45.0904 188.467 45.1156 188.618 45.166C188.769 45.1995 188.92 45.2163 189.071 45.2163C189.172 45.2163 189.248 45.2079 189.298 45.1912C189.063 45.3255 188.761 45.6613 188.391 46.1987C188.022 46.7192 187.644 47.3238 187.258 48.0122C186.871 48.7007 186.527 49.3472 186.225 49.9517C186.544 49.5655 186.871 49.1793 187.207 48.7931C187.56 48.4069 187.946 48.0374 188.366 47.6848C188.769 47.3322 189.248 46.9711 189.802 46.6017C190.373 46.2155 190.927 45.8964 191.464 45.6445C192.001 45.3927 192.43 45.2667 192.749 45.2667C192.866 45.2667 192.95 45.2751 193.001 45.2919C193.001 45.2919 192.908 45.4598 192.724 45.7957C192.539 46.1147 192.304 46.5429 192.018 47.0803C191.75 47.6008 191.473 48.1634 191.187 48.7679C190.902 49.3556 190.641 49.9266 190.406 50.4807C190.188 51.018 190.045 51.4714 189.978 51.8409C189.928 52.0592 189.902 52.2607 189.902 52.4454C189.902 52.7141 189.953 52.8904 190.054 52.9743C190.154 53.0583 190.263 53.1003 190.381 53.1003C190.7 53.1003 191.036 52.9324 191.389 52.5965C191.741 52.2439 192.077 51.8157 192.396 51.3119C192.732 50.8081 193.026 50.3212 193.278 49.851C193.546 49.364 193.739 48.9946 193.857 48.7427C193.924 48.6084 193.975 48.5328 194.008 48.516C194.042 48.4824 194.092 48.4656 194.159 48.4656C194.26 48.4656 194.31 48.5328 194.31 48.6671C194.31 48.7511 194.285 48.8435 194.235 48.9442C194.033 49.3304 193.79 49.7922 193.504 50.3296C193.236 50.8669 192.925 51.3959 192.572 51.9164C192.22 52.4202 191.834 52.8484 191.414 53.201C190.994 53.5369 190.541 53.7048 190.054 53.7048C189.718 53.7048 189.365 53.5873 188.996 53.3522C188.643 53.1171 188.467 52.6805 188.467 52.0424C188.467 51.8577 188.484 51.6645 188.517 51.463C188.551 51.2447 188.609 51.0097 188.693 50.7578C188.828 50.4219 188.987 50.0609 189.172 49.6747C189.357 49.2885 189.659 48.7595 190.079 48.0878C190.196 47.9031 190.263 47.7604 190.28 47.6596C190.314 47.5589 190.331 47.4749 190.331 47.4077C190.331 47.2062 190.238 47.1055 190.054 47.1055C189.902 47.1055 189.676 47.1894 189.374 47.3573C189.088 47.5253 188.727 47.8191 188.29 48.2389C187.871 48.642 187.367 49.2129 186.779 49.9517C186.208 50.6906 185.545 51.7821 184.789 53.2262C184.672 53.4445 184.537 53.5621 184.386 53.5789C184.252 53.5957 184.059 53.6124 183.807 53.6292C183.639 53.646 183.479 53.6544 183.328 53.6544C183.177 53.6712 183.051 53.7216 182.95 53.8056Z" fill="white"></path>
  <path d="M195.064 53.6796C194.359 53.6796 193.881 53.4949 193.629 53.1255C193.377 52.7393 193.251 52.2859 193.251 51.7653C193.251 51.228 193.327 50.6738 193.478 50.1029C193.629 49.5319 193.763 49.0534 193.881 48.6671C194.149 47.7268 194.485 46.7276 194.888 45.6697C195.308 44.595 195.761 43.5455 196.248 42.5212C196.752 41.4801 197.247 40.5481 197.734 39.7253C198.121 39.0704 198.532 38.5834 198.969 38.2644C199.422 37.9285 199.817 37.7606 200.153 37.7606C200.421 37.7606 200.631 37.8613 200.782 38.0629C200.95 38.2476 201.034 38.533 201.034 38.9193C201.034 39.1879 200.984 39.507 200.883 39.8764C200.799 40.2458 200.648 40.6656 200.43 41.1358C199.842 42.4456 199.137 43.7554 198.314 45.0652C197.508 46.375 196.483 47.6008 195.241 48.7427C195.174 48.961 195.081 49.2213 194.964 49.5235C194.863 49.809 194.771 50.1029 194.687 50.4051C194.586 50.8585 194.536 51.2447 194.536 51.5638C194.536 52.0844 194.636 52.479 194.838 52.7476C195.056 52.9995 195.316 53.1255 195.619 53.1255C195.887 53.1255 196.173 53.0331 196.475 52.8484C196.777 52.6469 197.063 52.3614 197.331 51.992C197.734 51.4043 198.095 50.8081 198.415 50.2036C198.75 49.5823 199.002 49.1037 199.17 48.7679C199.271 48.5832 199.38 48.4908 199.498 48.4908C199.582 48.4908 199.624 48.5412 199.624 48.6419C199.624 48.7259 199.598 48.8183 199.548 48.919C199.397 49.2549 199.195 49.6915 198.943 50.2288C198.708 50.7494 198.406 51.2783 198.037 51.8157C197.684 52.3362 197.256 52.7812 196.752 53.1507C196.265 53.5033 195.703 53.6796 195.064 53.6796ZM195.442 47.9367C196.047 47.3154 196.635 46.6017 197.206 45.7957C197.776 44.9729 198.305 44.1248 198.792 43.2516C199.296 42.3617 199.716 41.522 200.052 40.7328C200.169 40.4809 200.262 40.2039 200.329 39.9016C200.413 39.5993 200.455 39.3475 200.455 39.146C200.455 38.9109 200.396 38.7933 200.278 38.7933C200.211 38.7933 200.111 38.8605 199.976 38.9948C199.842 39.1124 199.666 39.3223 199.447 39.6245C199.128 40.0443 198.776 40.6153 198.389 41.3373C198.02 42.0594 197.642 42.8318 197.256 43.6547C196.87 44.4775 196.517 45.2751 196.198 46.0476C195.879 46.8032 195.627 47.4329 195.442 47.9367Z" fill="white"></path>
  <path d="M204.608 53.6796C204.423 53.6964 204.214 53.6544 203.978 53.5537C203.743 53.4529 203.533 53.2682 203.349 52.9995C203.181 52.7309 203.097 52.353 203.097 51.8661C203.097 51.463 203.172 50.9761 203.324 50.4051C203.122 50.7242 202.862 51.1188 202.543 51.589C202.224 52.0424 201.879 52.4454 201.51 52.798C201.191 53.1003 200.889 53.3186 200.603 53.4529C200.318 53.5873 200.057 53.6544 199.822 53.6544C199.386 53.6544 199.033 53.4613 198.764 53.0751C198.496 52.6721 198.361 52.1515 198.361 51.5134C198.361 50.8417 198.529 50.0777 198.865 49.2213C199.201 48.3649 199.747 47.4749 200.502 46.5513C200.989 45.9636 201.577 45.4934 202.266 45.1408C202.971 44.7713 203.659 44.5866 204.331 44.5866C204.717 44.5866 205.087 44.6538 205.439 44.7881C205.792 44.9057 206.103 45.1072 206.371 45.3927C206.489 45.5102 206.548 45.6445 206.548 45.7957C206.548 45.8964 206.506 45.9804 206.422 46.0476C206.338 46.1147 206.229 46.1315 206.094 46.0979C205.91 45.5102 205.515 45.2163 204.91 45.2163C204.625 45.2163 204.297 45.3087 203.928 45.4934C203.357 45.7957 202.761 46.291 202.14 46.9795C201.535 47.668 201.006 48.3817 200.553 49.1205C200.486 49.2213 200.376 49.4144 200.225 49.6999C200.091 49.9853 199.957 50.3044 199.822 50.657C199.688 51.0097 199.596 51.3539 199.545 51.6897C199.528 51.7905 199.52 51.8661 199.52 51.9164C199.52 51.95 199.52 52.0088 199.52 52.0928C199.52 52.6469 199.73 52.924 200.15 52.924C200.654 52.924 201.224 52.5545 201.863 51.8157C202.299 51.2783 202.694 50.7158 203.046 50.1281C203.399 49.5403 203.76 48.9106 204.13 48.2389C204.381 47.7855 204.617 47.4077 204.835 47.1055C205.053 46.8032 205.364 46.6521 205.767 46.6521C205.951 46.6521 206.136 46.6773 206.321 46.7276C206.506 46.778 206.699 46.7864 206.9 46.7528C206.766 46.8872 206.581 47.139 206.346 47.5085C206.128 47.8779 205.893 48.2977 205.641 48.7679C205.389 49.2381 205.162 49.7167 204.961 50.2036C204.759 50.6906 204.617 51.1104 204.533 51.463C204.516 51.5638 204.491 51.7065 204.457 51.8912C204.44 52.076 204.432 52.2103 204.432 52.2943C204.432 52.7644 204.566 52.9995 204.835 52.9995C205.103 52.9995 205.389 52.84 205.691 52.521C206.01 52.2019 206.321 51.8073 206.623 51.3371C206.925 50.8669 207.203 50.3967 207.454 49.9266C207.706 49.4396 207.908 49.045 208.059 48.7427C208.126 48.5748 208.227 48.4908 208.361 48.4908C208.445 48.4908 208.487 48.5496 208.487 48.6671C208.487 48.7175 208.462 48.8099 208.412 48.9442C208.21 49.364 207.967 49.8426 207.681 50.3799C207.396 50.9005 207.085 51.4127 206.749 51.9164C206.413 52.4034 206.061 52.8148 205.691 53.1507C205.339 53.4697 204.978 53.646 204.608 53.6796Z" fill="white"></path>
  <path d="M205.63 53.8056C206.234 52.5797 206.814 51.3707 207.368 50.1784C207.939 48.9694 208.518 47.8191 209.106 46.7276C209.442 46.1231 209.719 45.7033 209.937 45.4682C210.172 45.2163 210.483 45.0904 210.869 45.0904C211.003 45.0904 211.146 45.1156 211.297 45.166C211.448 45.1995 211.599 45.2163 211.751 45.2163C211.851 45.2163 211.927 45.2079 211.977 45.1912C211.742 45.3255 211.44 45.6613 211.07 46.1987C210.701 46.7192 210.323 47.3238 209.937 48.0122C209.551 48.7007 209.207 49.3472 208.904 49.9517C209.223 49.5655 209.551 49.1793 209.887 48.7931C210.239 48.4069 210.625 48.0374 211.045 47.6848C211.448 47.3322 211.927 46.9711 212.481 46.6017C213.052 46.2155 213.606 45.8964 214.143 45.6445C214.681 45.3927 215.109 45.2667 215.428 45.2667C215.546 45.2667 215.63 45.2751 215.68 45.2919C215.68 45.2919 215.588 45.4598 215.403 45.7957C215.218 46.1147 214.983 46.5429 214.698 47.0803C214.429 47.6008 214.152 48.1634 213.866 48.7679C213.581 49.3556 213.321 49.9266 213.086 50.4807C212.867 51.018 212.725 51.4714 212.657 51.8409C212.607 52.0592 212.582 52.2607 212.582 52.4454C212.582 52.7141 212.632 52.8904 212.733 52.9743C212.834 53.0583 212.943 53.1003 213.06 53.1003C213.379 53.1003 213.715 52.9324 214.068 52.5965C214.421 52.2439 214.756 51.8157 215.075 51.3119C215.411 50.8081 215.705 50.3212 215.957 49.851C216.226 49.364 216.419 48.9946 216.536 48.7427C216.604 48.6084 216.654 48.5328 216.687 48.516C216.721 48.4824 216.771 48.4656 216.839 48.4656C216.939 48.4656 216.99 48.5328 216.99 48.6671C216.99 48.7511 216.965 48.8435 216.914 48.9442C216.713 49.3304 216.469 49.7922 216.184 50.3296C215.915 50.8669 215.604 51.3959 215.252 51.9164C214.899 52.4202 214.513 52.8484 214.093 53.201C213.673 53.5369 213.22 53.7048 212.733 53.7048C212.397 53.7048 212.044 53.5873 211.675 53.3522C211.322 53.1171 211.146 52.6805 211.146 52.0424C211.146 51.8577 211.163 51.6645 211.196 51.463C211.23 51.2447 211.289 51.0097 211.373 50.7578C211.507 50.4219 211.667 50.0609 211.851 49.6747C212.036 49.2885 212.338 48.7595 212.758 48.0878C212.876 47.9031 212.943 47.7604 212.96 47.6596C212.993 47.5589 213.01 47.4749 213.01 47.4077C213.01 47.2062 212.918 47.1055 212.733 47.1055C212.582 47.1055 212.355 47.1894 212.053 47.3573C211.767 47.5253 211.406 47.8191 210.97 48.2389C210.55 48.642 210.046 49.2129 209.458 49.9517C208.887 50.6906 208.224 51.7821 207.469 53.2262C207.351 53.4445 207.217 53.5621 207.066 53.5789C206.931 53.5957 206.738 53.6124 206.486 53.6292C206.318 53.646 206.159 53.6544 206.008 53.6544C205.856 53.6712 205.731 53.7216 205.63 53.8056Z" fill="white"></path>
</svg>
