<?xml version="1.0" encoding="UTF-8"?>
<svg xmlns="http://www.w3.org/2000/svg" width="396" height="144" viewBox="0 0 396 144" fill="none">
  <g clip-path="url(#clip0_3472_892)">
    <path d="M1.61687 91.3836H60.3574C60.7475 91.3766 61.1194 91.2162 61.3929 90.937C61.6661 90.6578 61.8193 90.282 61.8193 89.8907V58.0359C61.8193 57.6446 61.6661 57.269 61.3929 56.9896C61.1194 56.7105 60.7475 56.55 60.3574 56.543H38.1635C37.7733 56.5432 37.3987 56.3896 37.1203 56.1153C36.8419 55.8411 36.6821 55.4684 36.6752 55.0771V2.82968C36.6682 2.43841 36.5082 2.06553 36.23 1.79133C35.9516 1.51711 35.577 1.36352 35.1868 1.36359H1.61687C1.22915 1.36359 0.857303 1.51804 0.583148 1.79299C0.308995 2.06794 0.155029 2.44084 0.155029 2.82968V89.8907C0.154967 90.282 0.308111 90.6578 0.581526 90.937C0.854943 91.2162 1.22673 91.3766 1.61687 91.3836Z" fill="white"></path>
    <path d="M109.423 1.36359H75.8265C75.0045 1.36359 74.3381 2.03193 74.3381 2.85636V89.8907C74.3381 90.7152 75.0045 91.3836 75.8265 91.3836H109.423C110.245 91.3836 110.911 90.7152 110.911 89.8907V2.85636C110.911 2.03193 110.245 1.36359 109.423 1.36359Z" fill="white"></path>
    <path d="M196.204 45.2635V44.8636C199.536 44.1771 202.51 42.3086 204.58 39.601C206.65 36.8934 207.678 33.5281 207.474 30.1223V19.4597C207.474 11.7026 202.583 1.33307 187.486 1.33307H125.05C124.66 1.33301 124.286 1.48664 124.007 1.76085C123.729 2.03506 123.569 2.40792 123.562 2.79921V89.8603C123.562 90.2561 123.719 90.6359 123.998 90.9158C124.277 91.1958 124.656 91.353 125.05 91.353H187.486C190.091 91.5149 192.702 91.1351 195.154 90.2374C197.607 89.3399 199.848 87.9439 201.737 86.1367C203.626 84.3297 205.122 82.1508 206.132 79.7365C207.143 77.3222 207.645 74.7249 207.606 72.107V59.5514C207.606 51.6878 204.496 46.6231 196.204 45.2635ZM158.992 20.5526C158.992 19.8456 159.273 19.1676 159.771 18.6677C160.269 18.1678 160.945 17.887 161.65 17.887H166.435C166.963 17.825 167.498 17.8851 167.999 18.0627C168.5 18.2403 168.954 18.5306 169.327 18.9115C169.699 19.2923 169.979 19.7536 170.145 20.2598C170.312 20.766 170.361 21.304 170.289 21.8322V27.9899C170.361 28.5122 170.311 29.0442 170.142 29.5434C169.973 30.0427 169.69 30.4955 169.315 30.8658C168.941 31.2361 168.486 31.5134 167.986 31.6759C167.485 31.8384 166.954 31.8816 166.435 31.8018H161.65C160.945 31.8018 160.269 31.521 159.771 31.0211C159.273 30.5212 158.992 29.8432 158.992 29.1361V20.5526ZM170.607 64.403C170.607 66.5889 169.624 68.2149 166.594 68.2149H161.278C160.665 68.2149 160.077 67.9707 159.643 67.5356C159.209 67.1007 158.966 66.5109 158.966 65.8958V46.9962C158.966 46.3812 159.209 45.7912 159.643 45.3563C160.077 44.9214 160.665 44.677 161.278 44.677H166.594C169.624 44.677 170.607 46.5696 170.607 49.5819V64.403Z" fill="white"></path>
    <path d="M219.572 91.3832H253.195C253.59 91.3832 253.971 91.2261 254.248 90.9461C254.528 90.6661 254.684 90.2864 254.684 89.8904V71.8171C254.684 71.1879 254.935 70.5845 255.377 70.1395C255.821 69.6946 256.423 69.4448 257.051 69.4448H261.516C265.476 69.4448 267.177 71.3374 267.177 75.1758V89.8904C267.177 90.2819 267.331 90.6575 267.604 90.9366C267.878 91.216 268.248 91.3763 268.639 91.3832H299.844C300.037 91.3832 300.23 91.3446 300.409 91.2693C300.588 91.1938 300.75 91.0833 300.886 90.9445C301.022 90.8054 301.129 90.6408 301.201 90.4598C301.273 90.2788 301.308 90.0852 301.305 89.8904V67.0723C301.305 59.0752 299.683 54.1171 291.257 52.7575V52.3311C294.631 51.7108 297.658 49.8691 299.765 47.1561C301.873 44.4432 302.913 41.048 302.687 37.6165V19.7565C302.687 11.9727 297.929 1.09669 282.7 1.3366H219.572C219.184 1.33654 218.808 1.49017 218.53 1.76438C218.252 2.03859 218.092 2.41145 218.084 2.80274V89.8638C218.082 90.0622 218.117 90.259 218.191 90.4433C218.263 90.6275 218.372 90.7951 218.511 90.9366C218.649 91.0782 218.816 91.1905 218.997 91.2672C219.18 91.3437 219.375 91.3832 219.572 91.3832ZM254.684 26.7939C254.684 26.1622 254.933 25.5559 255.377 25.1068C255.819 24.6576 256.421 24.4019 257.051 24.3947H259.974C264.679 24.3947 267.018 25.1412 267.018 28.6597V35.3508C267.018 39.5891 265.289 40.0956 259.974 40.0956H257.051C256.738 40.0956 256.428 40.0335 256.14 39.9125C255.85 39.7915 255.589 39.6144 255.369 39.3912C255.149 39.1682 254.974 38.9035 254.857 38.6126C254.74 38.3217 254.682 38.0103 254.684 37.6966V26.7939Z" fill="white"></path>
    <path d="M361.129 91.3795H393.874C394.067 91.3795 394.26 91.3408 394.439 91.2653C394.618 91.1901 394.781 91.0796 394.916 90.9407C395.054 90.8017 395.161 90.6369 395.233 90.4561C395.305 90.275 395.34 90.0815 395.336 89.8867V22.8983C395.336 8.05034 389.78 0 370.324 0H337.951C318.521 0 312.807 7.99702 312.807 22.8983V89.8867C312.803 90.0815 312.838 90.275 312.91 90.4561C312.982 90.6369 313.089 90.8017 313.224 90.9407C313.362 91.0796 313.525 91.1901 313.703 91.2653C313.882 91.3408 314.074 91.3795 314.269 91.3795H346.987C347.378 91.3725 347.75 91.2121 348.023 90.9329C348.297 90.6538 348.449 90.2781 348.449 89.8867V69.2811C348.449 68.574 348.729 67.896 349.228 67.3961C349.726 66.8962 350.402 66.6152 351.108 66.6152H357.115C357.819 66.6152 358.495 66.8962 358.995 67.3961C359.492 67.896 359.772 68.574 359.772 69.2811V89.8867C359.772 90.2606 359.91 90.6215 360.16 90.8977C360.411 91.1742 360.757 91.3462 361.129 91.3795ZM357.089 48.8619H351.188C350.482 48.8619 349.806 48.5811 349.308 48.0812C348.809 47.5813 348.529 46.9033 348.529 46.1962V38.1993C348.529 35.5334 349.699 33.5608 352.543 33.5608H356.05C358.709 33.5608 359.905 35.6135 359.905 38.1993V46.1962C359.905 46.5601 359.831 46.9203 359.69 47.2546C359.546 47.5889 359.336 47.8903 359.071 48.14C358.808 48.3898 358.495 48.5827 358.154 48.7068C357.812 48.831 357.451 48.8839 357.089 48.8619Z" fill="white"></path>
    <path d="M26.0436 104.096H1.24496C1.10185 104.096 0.960167 104.125 0.827951 104.18C0.695737 104.234 0.57565 104.315 0.474456 104.416C0.373264 104.518 0.292938 104.638 0.238172 104.771C0.183407 104.904 0.155273 105.046 0.155273 105.189V142.322C0.155273 142.612 0.270089 142.89 0.474456 143.095C0.678826 143.3 0.955938 143.415 1.24496 143.415H15.0397C15.3312 143.415 15.6112 143.301 15.8199 143.097C16.0284 142.892 16.1491 142.614 16.1561 142.322V131.366C16.1561 131.204 16.2204 131.048 16.3351 130.933C16.4497 130.818 16.6053 130.753 16.7674 130.753H24.1831C24.4757 130.754 24.7582 130.645 24.9747 130.448C25.1912 130.251 25.3259 129.979 25.3526 129.687L26.3891 120.783C26.408 120.615 26.3909 120.445 26.3393 120.283C26.2877 120.122 26.2026 119.973 26.0895 119.848C25.9766 119.722 25.8382 119.621 25.6836 119.553C25.5292 119.484 25.3621 119.449 25.193 119.45H16.7674C16.6871 119.45 16.6076 119.435 16.5334 119.404C16.4592 119.373 16.3919 119.328 16.3351 119.271C16.2783 119.214 16.2334 119.146 16.2026 119.072C16.1719 118.998 16.1561 118.918 16.1561 118.837V113.213C16.1561 112.923 16.2709 112.645 16.4753 112.44C16.6796 112.235 16.9568 112.12 17.2458 112.12H26.0436C26.1868 112.12 26.3284 112.092 26.4606 112.037C26.5928 111.982 26.7131 111.901 26.8143 111.8C26.9154 111.698 26.9956 111.578 27.0505 111.445C27.1052 111.313 27.1334 111.17 27.1334 111.027V105.189C27.1334 105.046 27.1052 104.904 27.0505 104.771C26.9956 104.638 26.9154 104.518 26.8143 104.416C26.7131 104.315 26.5928 104.234 26.4606 104.18C26.3284 104.125 26.1868 104.096 26.0436 104.096Z" fill="white"></path>
    <path d="M58.2605 103.483H44.1468C35.6679 103.483 33.2227 107.001 33.2227 113.479V133.978C33.2227 140.483 35.6679 144.001 44.1468 144.001H58.3933C66.8987 144.001 69.3442 140.483 69.3442 133.978V113.479C69.2112 107.055 66.7659 103.483 58.2605 103.483ZM53.8482 124.488C53.871 124.751 53.8379 125.016 53.7511 125.265C53.6646 125.513 53.5262 125.741 53.3453 125.933C53.1645 126.124 52.9454 126.275 52.7021 126.375C52.4589 126.475 52.1973 126.523 51.9346 126.514H50.3664C50.1036 126.523 49.8419 126.475 49.5987 126.375C49.3556 126.275 49.1365 126.124 48.9555 125.933C48.7748 125.741 48.6364 125.513 48.5497 125.265C48.4631 125.016 48.43 124.751 48.4526 124.488V115.771C48.4339 115.511 48.4699 115.249 48.5583 115.004C48.6469 114.758 48.7857 114.533 48.9662 114.345C49.1465 114.157 49.3645 114.008 49.6057 113.91C49.8468 113.811 50.1059 113.764 50.3664 113.772H51.9346C52.1949 113.764 52.4541 113.811 52.6953 113.91C52.9365 114.008 53.1542 114.157 53.3348 114.345C53.5151 114.533 53.6541 114.758 53.7425 115.004C53.8309 115.249 53.8669 115.511 53.8482 115.771V124.488Z" fill="white"></path>
    <path d="M112.165 104.097H98.875C98.7319 104.097 98.5902 104.125 98.458 104.18C98.3258 104.235 98.2056 104.315 98.1044 104.417C98.0032 104.518 97.9228 104.639 97.8681 104.771C97.8135 104.904 97.7853 105.046 97.7853 105.19V132.353C97.804 132.617 97.7672 132.882 97.6773 133.131C97.5875 133.38 97.4467 133.607 97.2639 133.798C97.0809 133.989 96.8603 134.139 96.6158 134.239C96.3713 134.339 96.1088 134.387 95.845 134.379H94.6487C94.386 134.387 94.1244 134.34 93.8812 134.239C93.6382 134.139 93.419 133.988 93.2381 133.797C93.0573 133.606 92.919 133.378 92.8322 133.129C92.7454 132.88 92.7125 132.615 92.7352 132.353V105.19C92.7352 105.046 92.707 104.904 92.6521 104.771C92.5974 104.639 92.5172 104.518 92.4158 104.417C92.3147 104.315 92.1946 104.235 92.0624 104.18C91.9302 104.125 91.7885 104.097 91.6454 104.097H78.3556C78.2125 104.097 78.0708 104.125 77.9386 104.18C77.8064 104.235 77.6863 104.315 77.585 104.417C77.4838 104.518 77.4036 104.639 77.3489 104.771C77.294 104.904 77.2659 105.046 77.2659 105.19V133.979C77.2659 140.483 79.6846 144.002 88.19 144.002H102.33C110.836 144.002 113.281 140.483 113.281 133.979V105.19C113.281 105.044 113.252 104.899 113.196 104.765C113.139 104.631 113.057 104.509 112.953 104.407C112.849 104.305 112.725 104.225 112.59 104.172C112.455 104.119 112.31 104.093 112.165 104.097Z" fill="white"></path>
    <path d="M146.638 103.483H123.036C122.646 103.483 122.271 103.636 121.993 103.911C121.714 104.185 121.554 104.558 121.547 104.949V142.268C121.554 142.561 121.675 142.839 121.884 143.043C122.092 143.247 122.372 143.361 122.664 143.361H135.953C136.242 143.361 136.519 143.246 136.724 143.041C136.928 142.836 137.043 142.558 137.043 142.268V122.649C137.024 122.385 137.061 122.12 137.151 121.871C137.241 121.622 137.382 121.395 137.564 121.204C137.747 121.013 137.968 120.862 138.212 120.763C138.457 120.662 138.719 120.615 138.983 120.623H140.366C140.629 120.615 140.892 120.662 141.136 120.763C141.381 120.862 141.601 121.013 141.784 121.204C141.967 121.395 142.108 121.622 142.198 121.871C142.288 122.12 142.325 122.385 142.306 122.649V142.268C142.306 142.558 142.421 142.836 142.625 143.041C142.829 143.246 143.107 143.361 143.396 143.361H156.685C156.977 143.361 157.257 143.247 157.465 143.043C157.674 142.839 157.795 142.561 157.802 142.268V113.479C157.589 107.055 155.144 103.483 146.638 103.483Z" fill="white"></path>
    <path d="M193.285 104.09H167.158C167.015 104.09 166.873 104.118 166.741 104.173C166.608 104.228 166.488 104.309 166.387 104.41C166.286 104.512 166.206 104.632 166.151 104.765C166.096 104.897 166.068 105.039 166.068 105.183V142.316C166.068 142.606 166.183 142.884 166.387 143.089C166.592 143.294 166.869 143.409 167.158 143.409H193.285C200.01 143.409 203.04 139.597 203.04 131.893V115.579C203.04 107.902 200.01 103.957 193.285 104.09ZM187.039 126.802C187.039 127.761 186.428 128.481 185.099 128.481H182.441C182.315 128.481 182.191 128.456 182.075 128.408C181.959 128.36 181.853 128.289 181.764 128.2C181.676 128.111 181.605 128.005 181.557 127.889C181.509 127.772 181.484 127.647 181.484 127.521V115.046C181.484 114.92 181.509 114.795 181.557 114.679C181.605 114.562 181.676 114.457 181.764 114.367C181.853 114.278 181.959 114.208 182.075 114.159C182.191 114.111 182.315 114.086 182.441 114.086H185.099C186.428 114.086 187.039 114.753 187.039 115.926V126.802Z" fill="white"></path>
    <path d="M236.179 103.483H222.013C213.507 103.483 211.036 107.001 211.036 113.479V142.322C211.036 142.612 211.151 142.89 211.354 143.095C211.56 143.3 211.837 143.415 212.125 143.415H225.654C225.944 143.415 226.222 143.3 226.425 143.095C226.629 142.89 226.744 142.612 226.744 142.322V135.231C226.752 134.988 226.853 134.758 227.026 134.588C227.201 134.419 227.433 134.325 227.675 134.325H230.998C231.239 134.325 231.473 134.419 231.646 134.588C231.818 134.758 231.921 134.988 231.927 135.231V142.322C231.927 142.465 231.956 142.607 232.01 142.74C232.065 142.872 232.145 142.993 232.246 143.095C232.347 143.196 232.468 143.277 232.6 143.331C232.733 143.386 232.873 143.415 233.017 143.415H246.147C246.437 143.415 246.713 143.3 246.918 143.095C247.122 142.89 247.237 142.612 247.237 142.322V113.479C247.103 107.055 244.659 103.483 236.179 103.483ZM231.689 123.289C231.689 123.656 231.543 124.009 231.284 124.269C231.025 124.529 230.673 124.675 230.305 124.675H227.807C227.628 124.675 227.449 124.639 227.283 124.569C227.116 124.499 226.966 124.396 226.839 124.267C226.713 124.138 226.615 123.985 226.547 123.817C226.481 123.649 226.448 123.47 226.452 123.289V117.718C226.417 117.457 226.438 117.191 226.518 116.94C226.596 116.689 226.73 116.459 226.906 116.265C227.083 116.071 227.303 115.92 227.546 115.82C227.789 115.721 228.05 115.677 228.313 115.691H229.933C231.183 115.691 231.689 116.598 231.689 117.718V123.289Z" fill="white"></path>
    <path d="M284.053 104.097H253.859C253.713 104.093 253.569 104.119 253.434 104.172C253.298 104.225 253.175 104.305 253.07 104.407C252.967 104.509 252.885 104.631 252.827 104.765C252.772 104.899 252.743 105.044 252.743 105.19V115.186C252.743 115.317 252.768 115.448 252.819 115.569C252.87 115.691 252.946 115.801 253.039 115.893C253.134 115.985 253.245 116.057 253.368 116.105C253.489 116.153 253.621 116.176 253.752 116.172H259.892C260.155 116.172 260.408 116.275 260.597 116.459C260.786 116.643 260.895 116.894 260.901 117.158V142.322C260.901 142.466 260.93 142.608 260.986 142.741C261.039 142.873 261.119 142.994 261.222 143.095C261.323 143.197 261.442 143.277 261.576 143.332C261.707 143.387 261.849 143.415 261.991 143.415H275.919C276.207 143.409 276.48 143.291 276.682 143.088C276.885 142.884 277.003 142.61 277.009 142.322V117.158C277.009 116.897 277.114 116.646 277.297 116.461C277.482 116.276 277.732 116.172 277.994 116.172H284.16C284.421 116.172 284.67 116.068 284.855 115.883C285.04 115.698 285.143 115.447 285.143 115.186V105.19C285.143 105.046 285.114 104.904 285.06 104.771C285.005 104.639 284.925 104.518 284.824 104.417C284.723 104.315 284.602 104.235 284.47 104.18C284.339 104.125 284.197 104.097 284.053 104.097Z" fill="white"></path>
    <path d="M305.872 104.096H292.051C291.449 104.096 290.961 104.586 290.961 105.189V142.322C290.961 142.926 291.449 143.415 292.051 143.415H305.872C306.475 143.415 306.962 142.926 306.962 142.322V105.189C306.962 104.586 306.475 104.096 305.872 104.096Z" fill="white"></path>
    <path d="M340.934 103.483H326.688C318.184 103.483 315.764 107.001 315.764 113.479V133.978C315.764 140.483 318.184 144.001 326.688 144.001H340.934C349.44 144.001 351.885 140.483 351.885 133.978V113.479C351.885 107.055 349.44 103.483 340.934 103.483ZM334.663 128.834H333.094C332.831 128.842 332.57 128.794 332.327 128.694C332.083 128.594 331.865 128.443 331.684 128.252C331.503 128.06 331.363 127.833 331.277 127.584C331.19 127.335 331.158 127.07 331.18 126.807V117.611C331.158 117.346 331.19 117.079 331.279 116.828C331.367 116.577 331.509 116.348 331.692 116.156C331.875 115.964 332.099 115.814 332.344 115.716C332.591 115.617 332.856 115.573 333.121 115.585H334.663C334.926 115.577 335.189 115.624 335.432 115.724C335.677 115.824 335.899 115.975 336.082 116.166C336.265 116.357 336.405 116.584 336.495 116.833C336.583 117.082 336.62 117.347 336.602 117.611V126.807C336.62 127.072 336.583 127.337 336.495 127.586C336.405 127.835 336.265 128.062 336.082 128.253C335.899 128.444 335.677 128.594 335.432 128.694C335.189 128.794 334.926 128.842 334.663 128.834Z" fill="white"></path>
    <path d="M384.944 103.483H361.343C360.954 103.483 360.584 103.637 360.309 103.912C360.035 104.187 359.881 104.56 359.881 104.949V142.268C359.881 142.558 359.996 142.836 360.2 143.041C360.405 143.246 360.681 143.361 360.971 143.361H374.261C374.547 143.354 374.82 143.237 375.024 143.034C375.225 142.83 375.343 142.556 375.351 142.268V117.984C375.328 117.721 375.361 117.457 375.447 117.208C375.534 116.959 375.672 116.731 375.852 116.54C376.033 116.349 376.253 116.198 376.496 116.097C376.739 115.997 377.002 115.95 377.263 115.958H378.647C378.91 115.95 379.173 115.998 379.418 116.098C379.66 116.198 379.882 116.348 380.065 116.539C380.248 116.73 380.388 116.957 380.479 117.206C380.569 117.455 380.604 117.72 380.586 117.984V142.268C380.586 142.558 380.701 142.836 380.906 143.041C381.11 143.246 381.387 143.361 381.675 143.361H394.966C395.254 143.354 395.525 143.237 395.729 143.034C395.932 142.83 396.049 142.556 396.055 142.268V113.479C395.895 107.055 393.45 103.483 384.944 103.483Z" fill="white"></path>
  </g>
  <defs>
    <clipPath id="clip0_3472_892">
      <rect width="396" height="144" fill="white"></rect>
    </clipPath>
  </defs>
</svg>
