<?xml version="1.0" encoding="UTF-8"?>
<svg xmlns="http://www.w3.org/2000/svg" width="170" height="62" viewBox="0 0 170 62" fill="none">
  <path d="M9.43707 23.3173C7.79143 23.3173 6.28013 23.0738 4.90317 22.5869C3.543 22.0999 2.44311 21.3862 1.6035 20.4458C0.76389 19.4887 0.302104 18.3132 0.218143 16.9195C0.184558 16.3485 0.276915 15.7188 0.495214 15.0304C0.713513 14.3419 1.01577 13.6618 1.40199 12.9901C1.80501 12.3016 2.27519 11.6887 2.81254 11.1514C3.36668 10.5972 3.95441 10.1774 4.57572 9.89193C4.6261 9.85835 4.70166 9.83316 4.80242 9.81637C4.91996 9.79958 5.00392 9.79118 5.0543 9.79118C5.15505 9.79118 5.20543 9.81637 5.20543 9.86674C5.20543 9.95071 5.07949 10.085 4.82761 10.2698C4.12233 10.8239 3.543 11.462 3.08961 12.1841C2.61943 12.9061 2.26679 13.6786 2.0317 14.5014C1.79661 15.3242 1.67907 16.1554 1.67907 16.995C1.67907 17.9858 1.88897 18.8422 2.30877 19.5643C2.74537 20.2695 3.3247 20.8489 4.04677 21.3022C4.76883 21.7724 5.59165 22.1167 6.51522 22.335C7.4388 22.5533 8.40435 22.6624 9.41188 22.6624C10.537 22.6624 11.6452 22.5365 12.7367 22.2846C13.845 22.0327 14.8526 21.6717 15.7593 21.2015C17.1531 20.4626 18.253 19.5475 19.059 18.456C19.8818 17.3645 20.2932 16.2814 20.2932 15.2067C20.2932 14.6357 20.1673 14.09 19.9154 13.5694C19.6803 13.0489 19.2941 12.5787 18.7568 12.1589C18.3537 11.8398 17.8584 11.5376 17.2706 11.2521C16.6997 10.9666 16.0868 10.6896 15.4319 10.4209C14.7938 10.1522 14.1641 9.88354 13.5428 9.61486C12.9215 9.32939 12.3757 9.02713 11.9055 8.70808C11.2338 8.25469 10.7385 7.76772 10.4194 7.24716C10.1172 6.7266 9.96602 6.20604 9.96602 5.68548C9.96602 5.06417 10.1423 4.45965 10.495 3.87192C10.8644 3.2842 11.3598 2.75524 11.9811 2.28506C12.6192 1.79809 13.3329 1.42026 14.1221 1.15158C14.8106 0.916493 15.5578 0.731779 16.3639 0.597441C17.1867 0.463104 17.9927 0.395935 18.7819 0.395935C19.4368 0.395935 20.0581 0.446312 20.6459 0.547065C21.2504 0.631026 21.7794 0.790552 22.2327 1.02564C22.8037 1.29432 23.2403 1.65535 23.5425 2.10874C23.8448 2.54534 23.9959 3.00712 23.9959 3.4941C23.9959 4.16579 23.6937 4.75352 23.0891 5.25728C22.8708 5.4252 22.6274 5.58473 22.3587 5.73586C22.09 5.8702 21.771 5.98774 21.4015 6.0885C21.3344 6.10529 21.2588 6.11369 21.1748 6.11369C20.9733 6.11369 20.8726 6.05491 20.8726 5.93737C20.8726 5.8702 20.9229 5.80303 21.0237 5.73586C21.1412 5.6519 21.3092 5.60152 21.5275 5.58473C22.0312 5.51756 22.4091 5.32445 22.6609 5.0054C22.9296 4.68635 23.064 4.31692 23.064 3.89711C23.064 3.46051 22.9128 3.03231 22.6106 2.61251C22.3251 2.17591 21.8801 1.81488 21.2756 1.52941C20.6711 1.22715 19.8986 1.07602 18.9583 1.07602C18.4209 1.07602 17.8248 1.13479 17.1699 1.25234C16.5318 1.36988 15.8349 1.56299 15.0793 1.83167C14.1557 2.15072 13.3832 2.6209 12.7619 3.24222C12.1574 3.86353 11.8552 4.52682 11.8552 5.23209C11.8552 5.66869 11.9979 6.11369 12.2834 6.56708C12.5856 7.00367 13.0642 7.42348 13.7191 7.82649C14.2732 8.16234 14.9029 8.49818 15.6082 8.83402C16.3135 9.15308 17.0272 9.48052 17.7492 9.81637C18.4713 10.1354 19.1262 10.4797 19.7139 10.8491C20.6375 11.42 21.3008 12.0329 21.7038 12.6878C22.1068 13.3427 22.3083 14.0144 22.3083 14.7029C22.3083 15.5089 22.0648 16.3234 21.5778 17.1462C21.1077 17.9522 20.4863 18.7162 19.7139 19.4383C18.9415 20.1436 18.0935 20.7733 17.1699 21.3274C16.0952 21.9655 14.8777 22.4525 13.5176 22.7884C12.1742 23.141 10.814 23.3173 9.43707 23.3173Z" fill="white"></path>
  <path d="M25.3372 21C25.1525 21 24.9258 20.958 24.6571 20.874C24.4052 20.7901 24.1785 20.639 23.977 20.4207C23.7923 20.1856 23.7 19.8413 23.7 19.3879C23.7 18.9513 23.8007 18.5315 24.0022 18.1285C24.2205 17.7087 24.422 17.3057 24.6067 16.9195C24.5564 16.9195 24.4976 16.9027 24.4304 16.8691C24.38 16.8355 24.3549 16.7851 24.3549 16.718C24.3549 16.6508 24.3716 16.5836 24.4052 16.5165C24.4724 16.3821 24.548 16.2394 24.6319 16.0883C24.7159 15.9371 24.7915 15.7776 24.8586 15.6097C25.1105 15.0891 25.3624 14.5938 25.6143 14.1236C25.8662 13.6366 26.0845 13.2084 26.2692 12.839C26.4539 12.4695 26.7729 12.2848 27.2263 12.2848H28.788C28.5025 12.5031 28.2423 12.7466 28.0072 13.0153C27.7889 13.2672 27.5118 13.7374 27.1759 14.4258C27.1759 14.4258 27.1172 14.5434 26.9996 14.7785C26.8821 15.0136 26.731 15.3158 26.5462 15.6852C26.3783 16.0379 26.202 16.3989 26.0173 16.7683C25.8494 17.1378 25.7066 17.4484 25.5891 17.7003C25.3708 18.1705 25.228 18.5483 25.1609 18.8338C25.0937 19.1025 25.0601 19.3543 25.0601 19.5894C25.0601 20.1436 25.2448 20.4207 25.6143 20.4207C26.0173 20.4207 26.5043 20.0932 27.0752 19.4383C27.5454 18.8842 28.0072 18.2209 28.4606 17.4484C28.9139 16.676 29.3421 15.8784 29.7452 15.0555C30.165 14.2327 30.5344 13.4939 30.8534 12.839C31.0382 12.4695 31.3656 12.2848 31.8358 12.2848H33.2211C32.9693 12.4863 32.7594 12.6794 32.5914 12.8642C32.4235 13.0321 32.2556 13.2672 32.0877 13.5694C31.9365 13.8549 31.7266 14.2663 31.458 14.8037C31.2397 15.257 31.0046 15.744 30.7527 16.2646C30.5176 16.7683 30.3077 17.2469 30.123 17.7003C29.9383 18.1537 29.8207 18.5231 29.7703 18.8086C29.7536 18.9765 29.7368 19.1025 29.72 19.1864C29.7032 19.2704 29.6948 19.3627 29.6948 19.4635C29.6948 19.7825 29.7452 20.0092 29.8459 20.1436C29.9635 20.2779 30.0978 20.3451 30.2489 20.3451C30.6519 20.3451 31.055 20.1184 31.458 19.665C31.8778 19.2116 32.2724 18.6575 32.6418 18.0026C33.028 17.3477 33.3555 16.7264 33.6242 16.1386C33.7249 15.9539 33.8173 15.8616 33.9012 15.8616C34.002 15.8616 34.0524 15.9203 34.0524 16.0379C34.0524 16.1218 34.0188 16.2226 33.9516 16.3401C33.7669 16.7432 33.5402 17.2049 33.2715 17.7255C33.0028 18.2461 32.7006 18.7582 32.3647 19.262C32.0289 19.7658 31.6595 20.1856 31.2565 20.5214C30.8534 20.8405 30.4168 21 29.9467 21C29.5269 21 29.1826 20.8489 28.9139 20.5466C28.6453 20.2275 28.5109 19.7826 28.5109 19.2116C28.5109 18.7582 28.5949 18.2713 28.7628 17.7507C28.4773 18.2545 28.1499 18.7582 27.7805 19.262C27.411 19.7658 27.0164 20.1856 26.5966 20.5214C26.1768 20.8405 25.757 21 25.3372 21Z" fill="white"></path>
  <path d="M34.138 21.1007C33.3151 21.1007 32.7274 20.8908 32.3748 20.471C32.0389 20.0344 31.871 19.581 31.871 19.1109C31.871 18.7246 31.9634 18.372 32.1481 18.053C32.3496 17.7339 32.5847 17.566 32.8534 17.5492C33.1892 16.8943 33.5502 16.1806 33.9365 15.4082C34.3395 14.6357 34.7089 13.8885 35.0447 13.1664C35.2798 12.6794 35.5737 12.2093 35.9263 11.7559C36.2958 11.3025 36.6988 11.0422 37.1354 10.975H37.3873C37.5216 10.975 37.6391 10.9834 37.7399 11.0002C37.8574 11.017 37.975 11.0506 38.0925 11.101C38.2772 11.1849 38.3696 11.3109 38.3696 11.4788C38.3696 11.5796 38.3108 11.6299 38.1933 11.6299C38.1429 11.6299 38.0757 11.6047 37.9918 11.5544C37.7903 11.4704 37.614 11.4284 37.4628 11.4284C37.3621 11.4284 37.2697 11.4536 37.1857 11.504C36.8667 11.6719 36.64 11.907 36.5057 12.2093C36.3881 12.5115 36.3293 12.8306 36.3293 13.1664C36.3293 13.4351 36.3545 13.7122 36.4049 13.9976C36.4721 14.2663 36.5476 14.5098 36.6316 14.7281C36.8163 15.1983 37.0094 15.6601 37.2109 16.1135C37.4292 16.5668 37.5384 17.0538 37.5384 17.5744C37.5384 18.0781 37.3705 18.6155 37.0346 19.1864C36.6988 19.7406 36.2706 20.1856 35.75 20.5214L35.9263 20.5466C36.0103 20.5634 36.0691 20.5718 36.1027 20.5718C36.1362 20.5718 36.1614 20.5718 36.1782 20.5718C36.5644 20.5718 36.9255 20.4626 37.2613 20.2443C37.614 20.0092 37.9246 19.7238 38.1933 19.3879C38.462 19.0521 38.7642 18.5819 39.1001 17.9774C39.4527 17.3729 39.7885 16.7348 40.1076 16.0631C40.158 15.9791 40.2167 15.9371 40.2839 15.9371C40.3679 15.9371 40.4266 15.9707 40.4602 16.0379C40.5106 16.0883 40.519 16.1554 40.4854 16.2394C40.2671 16.7096 40.0152 17.2217 39.7298 17.7759C39.4611 18.3132 39.1504 18.8338 38.7978 19.3376C38.4452 19.8245 38.0338 20.2275 37.5636 20.5466C37.1102 20.8489 36.598 21 36.0271 21C35.8928 21 35.75 20.9916 35.5989 20.9748C35.4478 20.958 35.2966 20.9244 35.1455 20.874C34.9776 20.9412 34.8013 20.9916 34.6165 21.0252C34.4486 21.0756 34.2891 21.1007 34.138 21.1007ZM34.8936 20.3451C35.1791 20.11 35.431 19.7658 35.6493 19.3124C35.8844 18.859 36.0019 18.2629 36.0019 17.524C36.0019 16.8691 35.9347 16.1722 35.8004 15.4334C35.6661 14.6945 35.5989 14.0396 35.5989 13.4687C35.5989 13.3511 35.5989 13.2504 35.5989 13.1664C35.6157 13.0657 35.6325 12.9733 35.6493 12.8893C35.431 13.3427 35.1791 13.8717 34.8936 14.4762C34.6081 15.0639 34.3227 15.6349 34.0372 16.189C33.7517 16.7432 33.5083 17.2133 33.3067 17.5996C33.3067 17.5996 33.3487 17.608 33.4327 17.6248C33.5334 17.6248 33.6258 17.6835 33.7098 17.8011C33.7937 17.9018 33.8273 18.1117 33.8105 18.4308C33.7937 18.8506 33.8861 19.2452 34.0876 19.6146C34.3059 19.9673 34.5746 20.2108 34.8936 20.3451ZM33.9365 20.6977C34.0372 20.6977 34.1296 20.6893 34.2135 20.6725C34.2975 20.639 34.3731 20.6138 34.4402 20.597C34.1883 20.4123 33.9616 20.1688 33.7601 19.8665C33.5754 19.5475 33.4663 19.1444 33.4327 18.6575C33.1304 18.9765 32.9793 19.3208 32.9793 19.6902C32.9793 19.9589 33.0633 20.194 33.2312 20.3955C33.3991 20.597 33.6342 20.6977 33.9365 20.6977Z" fill="white"></path>
  <path d="M45.4686 21.0756C45.2839 21.0923 45.074 21.0504 44.8389 20.9496C44.6038 20.8489 44.3939 20.6641 44.2092 20.3955C44.0412 20.1268 43.9573 19.749 43.9573 19.262C43.9573 18.859 44.0328 18.372 44.184 17.8011C43.9825 18.1201 43.7222 18.5147 43.4031 18.9849C43.0841 19.4383 42.7398 19.8413 42.3704 20.194C42.0514 20.4962 41.7491 20.7145 41.4636 20.8489C41.1782 20.9832 40.9179 21.0504 40.6828 21.0504C40.2462 21.0504 39.8936 20.8573 39.6249 20.471C39.3562 20.068 39.2219 19.5475 39.2219 18.9094C39.2219 18.2377 39.3898 17.4736 39.7256 16.6172C40.0615 15.7608 40.6072 14.8708 41.3629 13.9473C41.8499 13.3595 42.4376 12.8893 43.1261 12.5367C43.8313 12.1673 44.5198 11.9826 45.1915 11.9826C45.5777 11.9826 45.9472 12.0497 46.2998 12.1841C46.6524 12.3016 46.9631 12.5031 47.2318 12.7886C47.3493 12.9061 47.4081 13.0405 47.4081 13.1916C47.4081 13.2924 47.3661 13.3763 47.2821 13.4435C47.1982 13.5107 47.089 13.5274 46.9547 13.4939C46.77 12.9061 46.3754 12.6123 45.7708 12.6123C45.4854 12.6123 45.1579 12.7046 44.7885 12.8893C44.2176 13.1916 43.6214 13.687 43.0001 14.3755C42.3956 15.0639 41.8666 15.7776 41.4133 16.5165C41.3461 16.6172 41.2369 16.8103 41.0858 17.0958C40.9515 17.3813 40.8171 17.7003 40.6828 18.053C40.5485 18.4056 40.4561 18.7498 40.4057 19.0857C40.3889 19.1864 40.3805 19.262 40.3805 19.3124C40.3805 19.346 40.3805 19.4047 40.3805 19.4887C40.3805 20.0428 40.5904 20.3199 41.0102 20.3199C41.514 20.3199 42.0849 19.9505 42.723 19.2116C43.1596 18.6743 43.5543 18.1117 43.9069 17.524C44.2595 16.9363 44.6206 16.3066 44.99 15.6349C45.2419 15.1815 45.477 14.8037 45.6953 14.5014C45.9136 14.1991 46.2242 14.048 46.6272 14.048C46.812 14.048 46.9967 14.0732 47.1814 14.1236C47.3661 14.1739 47.5592 14.1823 47.7607 14.1488C47.6264 14.2831 47.4417 14.535 47.2066 14.9044C46.9883 15.2738 46.7532 15.6936 46.5013 16.1638C46.2494 16.634 46.0227 17.1126 45.8212 17.5996C45.6197 18.0865 45.477 18.5063 45.393 18.859C45.3762 18.9597 45.351 19.1025 45.3174 19.2872C45.3007 19.4719 45.2923 19.6062 45.2923 19.6902C45.2923 20.1604 45.4266 20.3955 45.6953 20.3955C45.9639 20.3955 46.2494 20.2359 46.5517 19.9169C46.8707 19.5978 47.1814 19.2032 47.4836 18.733C47.7859 18.2629 48.063 17.7927 48.3149 17.3225C48.5667 16.8355 48.7682 16.4409 48.9194 16.1386C48.9865 15.9707 49.0873 15.8868 49.2216 15.8868C49.3056 15.8868 49.3476 15.9455 49.3476 16.0631C49.3476 16.1135 49.3224 16.2058 49.272 16.3401C49.0705 16.76 48.827 17.2385 48.5415 17.7759C48.2561 18.2964 47.9454 18.8086 47.6096 19.3124C47.2737 19.7993 46.9211 20.2108 46.5517 20.5466C46.199 20.8656 45.838 21.042 45.4686 21.0756Z" fill="white"></path>
  <path d="M46.4903 21.2015C47.0948 19.9757 47.6741 18.7666 48.2283 17.5744C48.7992 16.3653 49.3785 15.2151 49.9663 14.1236C50.3021 13.5191 50.5792 13.0992 50.7975 12.8642C51.0326 12.6123 51.3432 12.4863 51.7295 12.4863C51.8638 12.4863 52.0065 12.5115 52.1577 12.5619C52.3088 12.5955 52.4599 12.6123 52.611 12.6123C52.7118 12.6123 52.7874 12.6039 52.8377 12.5871C52.6026 12.7214 52.3004 13.0573 51.931 13.5946C51.5615 14.1152 51.1837 14.7197 50.7975 15.4082C50.4113 16.0967 50.067 16.7432 49.7648 17.3477C50.0838 16.9615 50.4113 16.5752 50.7471 16.189C51.0997 15.8028 51.486 15.4334 51.9058 15.0807C52.3088 14.7281 52.7874 14.3671 53.3415 13.9976C53.9124 13.6114 54.4666 13.2924 55.0039 13.0405C55.5413 12.7886 55.9695 12.6626 56.2885 12.6626C56.4061 12.6626 56.49 12.671 56.5404 12.6878C56.5404 12.6878 56.4481 12.8558 56.2634 13.1916C56.0786 13.5107 55.8435 13.9389 55.5581 14.4762C55.2894 14.9968 55.0123 15.5593 54.7269 16.1638C54.4414 16.7516 54.1811 17.3225 53.946 17.8766C53.7277 18.414 53.585 18.8674 53.5178 19.2368C53.4674 19.4551 53.4423 19.6566 53.4423 19.8413C53.4423 20.11 53.4926 20.2863 53.5934 20.3703C53.6941 20.4542 53.8033 20.4962 53.9208 20.4962C54.2399 20.4962 54.5757 20.3283 54.9284 19.9925C55.281 19.6398 55.6168 19.2116 55.9359 18.7078C56.2717 18.2041 56.5656 17.7171 56.8175 17.2469C57.0862 16.76 57.2793 16.3905 57.3968 16.1386C57.464 16.0043 57.5144 15.9287 57.548 15.9119C57.5815 15.8784 57.6319 15.8616 57.6991 15.8616C57.7998 15.8616 57.8502 15.9287 57.8502 16.0631C57.8502 16.147 57.825 16.2394 57.7747 16.3401C57.5731 16.7264 57.3297 17.1882 57.0442 17.7255C56.7755 18.2629 56.4649 18.7918 56.1122 19.3124C55.7596 19.8161 55.3734 20.2443 54.9536 20.597C54.5338 20.9328 54.0804 21.1007 53.5934 21.1007C53.2575 21.1007 52.9049 20.9832 52.5355 20.7481C52.1828 20.513 52.0065 20.0764 52.0065 19.4383C52.0065 19.2536 52.0233 19.0605 52.0569 18.859C52.0905 18.6407 52.1493 18.4056 52.2332 18.1537C52.3676 17.8179 52.5271 17.4568 52.7118 17.0706C52.8965 16.6844 53.1988 16.1554 53.6186 15.4837C53.7361 15.299 53.8033 15.1563 53.8201 15.0555C53.8537 14.9548 53.8705 14.8708 53.8705 14.8037C53.8705 14.6022 53.7781 14.5014 53.5934 14.5014C53.4423 14.5014 53.2156 14.5854 52.9133 14.7533C52.6278 14.9212 52.2668 15.2151 51.8302 15.6349C51.4104 16.0379 50.9066 16.6088 50.3189 17.3477C49.748 18.0865 49.0847 19.178 48.329 20.6222C48.2115 20.8405 48.0771 20.958 47.926 20.9748C47.7917 20.9916 47.5986 21.0084 47.3467 21.0252C47.1788 21.042 47.0192 21.0504 46.8681 21.0504C46.717 21.0672 46.591 21.1175 46.4903 21.2015Z" fill="white"></path>
  <path d="M76.205 22.612C75.4662 22.612 74.9456 22.3182 74.6433 21.7304C74.3411 21.1595 74.19 20.4878 74.19 19.7154C74.19 19.0269 74.2823 18.3468 74.467 17.6751C74.6685 17.0034 74.9036 16.4913 75.1723 16.1386C74.7189 16.676 74.1564 17.2889 73.4847 17.9774C72.813 18.6659 72.0741 19.3292 71.2681 19.9673C70.4621 20.6054 69.6309 21.1343 68.7745 21.5541C67.9181 21.9739 67.0701 22.1838 66.2304 22.1838C65.9786 22.1838 65.7267 22.1586 65.4748 22.1083C65.2397 22.0747 65.0046 22.0075 64.7695 21.9068C64.1482 21.6549 63.6864 21.2099 63.3842 20.5718C63.0819 19.9169 62.9308 19.1361 62.9308 18.2293C62.9308 17.2721 63.0903 16.2478 63.4094 15.1563C63.7452 14.048 64.2322 12.9229 64.8703 11.7811C65.1725 11.2269 65.5084 10.6812 65.8778 10.1438C66.264 9.58967 66.6754 9.06912 67.112 8.58214C66.5915 8.34705 66.1129 8.08677 65.6763 7.8013C65.2397 7.49904 64.8703 7.17159 64.568 6.81896C64.3665 6.58387 64.2154 6.3068 64.1146 5.98774C64.0139 5.66869 63.9635 5.35804 63.9635 5.05578C63.9635 4.51842 64.0894 4.16579 64.3413 3.99787C64.4253 3.86353 64.526 3.79636 64.6436 3.79636C64.7947 3.79636 64.8703 3.88872 64.8703 4.07343C64.8703 4.19098 64.8367 4.31692 64.7695 4.45126C64.6856 4.66955 64.6436 4.87106 64.6436 5.05578C64.6436 5.32445 64.7107 5.57633 64.8451 5.81142C64.9794 6.02972 65.139 6.23963 65.3237 6.44113C65.861 7.07924 66.5999 7.60819 67.5402 8.028C68.6149 6.85254 69.7904 5.76944 71.0666 4.7787C72.3596 3.77117 73.745 2.96514 75.2227 2.36062C76.7004 1.7561 78.2537 1.45384 79.8825 1.45384C81.2427 1.45384 82.309 1.7561 83.0814 2.36062C83.8539 2.94835 84.2401 3.7124 84.2401 4.65276C84.2401 5.10615 84.1058 5.60152 83.8371 6.13887C83.5684 6.65943 83.1318 7.17159 82.5273 7.67536C81.9228 8.16234 81.1167 8.59054 80.1092 8.95997C79.1185 9.3126 77.8842 9.55609 76.4065 9.69043C75.886 9.7408 75.4158 9.78278 74.996 9.81637C74.593 9.83316 74.1564 9.84156 73.6862 9.84156C72.813 9.84156 71.965 9.78278 71.1422 9.66524C70.3361 9.54769 69.5301 9.36298 68.7241 9.1111C68.4218 9.5309 68.0356 10.1018 67.5654 10.8239C67.112 11.546 66.6587 12.3184 66.2053 13.1412C65.7519 13.964 65.374 14.7449 65.0718 15.4837C64.8031 16.189 64.6016 16.8355 64.4673 17.4232C64.3329 17.9942 64.2658 18.5063 64.2658 18.9597C64.2658 19.7826 64.4589 20.4039 64.8451 20.8237C65.2313 21.2267 65.7519 21.4282 66.4068 21.4282C67.0449 21.4282 67.7669 21.2435 68.573 20.874C69.3958 20.5046 70.2522 19.9505 71.1422 19.2116C72.0322 18.4728 72.897 17.6415 73.7366 16.718C74.593 15.7944 75.3738 14.854 76.0791 13.8969C76.7844 12.9397 77.3553 12.0581 77.7919 11.2521C78.0774 10.7148 78.3544 10.3369 78.6231 10.1186C78.8918 9.88354 79.1185 9.76599 79.3032 9.76599C79.4879 9.76599 79.6306 9.84156 79.7314 9.99269C79.8321 10.127 79.8825 10.3117 79.8825 10.5468C79.8825 11.017 79.6726 11.4872 79.2528 11.9574C78.7826 12.4779 78.3208 13.116 77.8675 13.8717C77.4141 14.6273 77.0111 15.425 76.6584 16.2646C76.3058 17.1042 76.0539 17.927 75.9028 18.733C75.8524 19.0017 75.8188 19.2536 75.802 19.4887C75.7852 19.7238 75.7768 19.9337 75.7768 20.1184C75.7768 20.7397 75.8692 21.1847 76.0539 21.4534C76.2554 21.7221 76.5157 21.8564 76.8347 21.8564C77.221 21.8564 77.6659 21.6801 78.1697 21.3274C78.6735 20.9748 79.1605 20.5046 79.6306 19.9169C80.0337 19.3795 80.4199 18.8086 80.7893 18.2041C81.1755 17.5996 81.5282 16.9699 81.8472 16.315C81.8976 16.1974 81.9648 16.1135 82.0487 16.0631C82.1495 15.9959 82.2166 15.9623 82.2502 15.9623C82.3342 15.9623 82.3762 16.0127 82.3762 16.1135C82.3762 16.1806 82.351 16.2814 82.3006 16.4157C82.1495 16.7516 81.948 17.1546 81.6961 17.6248C81.4442 18.0949 81.1671 18.5819 80.8649 19.0857C80.5626 19.5726 80.2519 20.026 79.9329 20.4458C79.4963 21.0168 78.9422 21.5205 78.2705 21.9571C77.6156 22.3937 76.9271 22.612 76.205 22.612ZM73.4595 9.23704C74.3327 9.23704 75.3066 9.18666 76.3813 9.08591C77.7751 8.96836 78.9841 8.69129 80.0085 8.25469C81.0328 7.8181 81.822 7.26395 82.3762 6.59226C82.9303 5.92057 83.2074 5.17332 83.2074 4.3505C83.2074 3.61164 82.8967 3.0491 82.2754 2.66288C81.6709 2.27666 80.8984 2.08355 79.9581 2.08355C78.3964 2.08355 76.9691 2.39421 75.6761 3.01552C74.3999 3.62004 73.2244 4.41767 72.1497 5.40841C71.0918 6.39915 70.0843 7.46546 69.1271 8.60733C70.4033 9.02713 71.8474 9.23704 73.4595 9.23704Z" fill="white"></path>
  <path d="M87.4849 21C87.0315 21 86.6537 20.7733 86.3514 20.3199C86.2674 20.1856 86.1919 20.0092 86.1247 19.7909C86.0575 19.5726 86.0239 19.3292 86.0239 19.0605C86.0239 18.9094 86.0323 18.7582 86.0491 18.6071C86.0659 18.4392 86.0995 18.2713 86.1499 18.1033C85.9148 18.4728 85.6377 18.8842 85.3187 19.3376C85.0164 19.7742 84.6638 20.1604 84.2608 20.4962C83.8745 20.8153 83.4379 20.9748 82.951 20.9748C82.7831 20.9748 82.6067 20.9496 82.422 20.8992C81.9686 20.7649 81.6412 20.5298 81.4397 20.194C81.255 19.8581 81.1626 19.4551 81.1626 18.9849C81.1626 18.4644 81.2634 17.8934 81.4649 17.2721C81.6832 16.6508 81.9518 16.0463 82.2709 15.4586C82.6067 14.8708 82.951 14.3671 83.3036 13.9473C83.8074 13.3595 84.3867 12.8893 85.0416 12.5367C85.6965 12.1841 86.3598 12.0078 87.0315 12.0078C87.636 12.0078 88.2069 12.1673 88.7443 12.4863C88.9962 12.0161 89.2648 11.4956 89.5503 10.9247C89.8358 10.3369 90.1212 9.7576 90.4067 9.18666C90.6922 8.61573 90.9441 8.09517 91.1624 7.62498C91.3807 7.13801 91.5486 6.76858 91.6661 6.5167C91.918 5.92897 92.1531 5.55954 92.3714 5.40841C92.6065 5.24049 92.8836 5.15653 93.2026 5.15653C93.3873 5.15653 93.5888 5.18172 93.8071 5.23209C94.0422 5.26568 94.2689 5.27407 94.4872 5.25728C94.3865 5.35804 94.1766 5.6519 93.8575 6.13887C93.5553 6.60906 93.1942 7.21358 92.7744 7.95243C92.3546 8.69129 91.9012 9.50571 91.4143 10.3957C90.9441 11.2689 90.4739 12.1589 90.0037 13.0657C89.5503 13.9556 89.1221 14.8037 88.7191 15.6097C88.3329 16.3989 88.0222 17.079 87.7871 17.6499C87.72 17.7843 87.6192 18.0613 87.4849 18.4812C87.3673 18.8842 87.3086 19.2368 87.3086 19.5391C87.3086 19.7574 87.3589 19.9505 87.4597 20.1184C87.5604 20.2695 87.7284 20.3451 87.9634 20.3451C88.2825 20.3451 88.6016 20.1856 88.9206 19.8665C89.2565 19.5307 89.5755 19.1277 89.8778 18.6575C90.18 18.1705 90.4487 17.7003 90.6838 17.2469C90.9189 16.7767 91.0952 16.4073 91.2127 16.1386C91.2967 15.9539 91.3975 15.8616 91.515 15.8616C91.6158 15.8616 91.6661 15.9371 91.6661 16.0883C91.6661 16.1051 91.6661 16.1386 91.6661 16.189C91.6661 16.2226 91.6493 16.2646 91.6158 16.315C91.4646 16.6676 91.2547 17.1042 90.986 17.6248C90.7342 18.1453 90.4319 18.6659 90.0793 19.1864C89.7266 19.707 89.332 20.1436 88.8954 20.4962C88.4588 20.8321 87.9886 21 87.4849 21ZM83.1273 20.2443C83.3624 20.2443 83.6562 20.1184 84.0089 19.8665C84.3615 19.5978 84.7393 19.178 85.1424 18.6071C85.6125 17.9354 86.1499 17.0958 86.7544 16.0883C87.3589 15.0807 87.9551 14.0144 88.5428 12.8893C88.3245 12.6878 88.0726 12.5871 87.7871 12.5871C87.317 12.5871 86.788 12.8054 86.2003 13.242C85.6293 13.6786 85.0668 14.2327 84.5126 14.9044C83.9753 15.5761 83.5219 16.2562 83.1525 16.9447C82.9006 17.4148 82.7159 17.8431 82.5983 18.2293C82.4976 18.6155 82.4472 18.9513 82.4472 19.2368C82.4472 19.9085 82.6739 20.2443 83.1273 20.2443Z" fill="white"></path>
  <path d="M93.0047 21.1007C92.3833 21.1007 91.8208 20.8992 91.317 20.4962C90.8301 20.0932 90.5866 19.4803 90.5866 18.6575C90.5866 17.9018 90.7713 17.0958 91.1407 16.2394C91.5102 15.3662 91.9803 14.6022 92.5513 13.9473C93.0382 13.3763 93.584 12.9061 94.1885 12.5367C94.793 12.1673 95.364 11.9826 95.9013 11.9826C96.2707 11.9826 96.5898 12.0833 96.8585 12.2848C97.1439 12.5031 97.2867 12.8138 97.2867 13.2168C97.2867 13.6366 97.1271 14.0984 96.8081 14.6022C96.489 15.1059 96.0356 15.5761 95.4479 16.0127C95.196 16.1974 94.877 16.3737 94.4908 16.5417C94.1045 16.7096 93.7183 16.8523 93.3321 16.9699C92.9459 17.0706 92.6268 17.121 92.3749 17.121C92.291 17.3225 92.207 17.5912 92.1231 17.927C92.0559 18.2629 92.0223 18.6071 92.0223 18.9597C92.0223 19.3795 92.1063 19.7574 92.2742 20.0932C92.4421 20.4291 92.7528 20.597 93.2062 20.597C93.7603 20.597 94.2641 20.4374 94.7175 20.1184C95.1709 19.7993 95.5739 19.4047 95.9265 18.9345C96.2791 18.4476 96.573 17.9606 96.8081 17.4736C97.06 16.9866 97.2615 16.5752 97.4126 16.2394C97.5134 16.0043 97.6477 15.8868 97.8156 15.8868C97.8996 15.8868 97.9416 15.9287 97.9416 16.0127C97.9416 16.0799 97.9164 16.1638 97.866 16.2646C97.6309 16.7683 97.379 17.3057 97.1104 17.8766C96.8417 18.4308 96.5226 18.9597 96.1532 19.4635C95.7838 19.9505 95.3388 20.3451 94.8182 20.6474C94.3144 20.9496 93.7099 21.1007 93.0047 21.1007ZM92.5513 16.6676C92.7864 16.6676 93.181 16.5836 93.7351 16.4157C94.2893 16.231 94.793 15.9455 95.2464 15.5593C95.683 15.1731 96.0189 14.7533 96.254 14.2999C96.489 13.8297 96.6066 13.4351 96.6066 13.116C96.6066 12.7466 96.4723 12.5619 96.2036 12.5619C96.0021 12.5619 95.725 12.6962 95.3724 12.9649C95.0197 13.2336 94.5831 13.687 94.0626 14.3251C93.7435 14.7281 93.4413 15.1647 93.1558 15.6349C92.8703 16.1051 92.6688 16.4493 92.5513 16.6676Z" fill="white"></path>
  <path d="M98.7236 21.0756C98.0183 21.0756 97.5397 20.8908 97.2878 20.5214C97.036 20.1352 96.91 19.6818 96.91 19.1612C96.91 18.6239 96.9856 18.0697 97.1367 17.4988C97.2878 16.9279 97.4222 16.4493 97.5397 16.0631C97.8084 15.1227 98.1443 14.1236 98.5473 13.0657C98.9671 11.991 99.4205 10.9414 99.9074 9.91712C100.411 8.876 100.907 7.94404 101.394 7.12122C101.78 6.46632 102.191 5.97935 102.628 5.6603C103.081 5.32445 103.476 5.15653 103.812 5.15653C104.08 5.15653 104.29 5.25728 104.441 5.45879C104.609 5.6435 104.693 5.92897 104.693 6.31519C104.693 6.58387 104.643 6.90292 104.542 7.27235C104.458 7.64178 104.307 8.06158 104.089 8.53176C103.501 9.84156 102.796 11.1514 101.973 12.4611C101.167 13.7709 100.143 14.9968 98.8999 16.1386C98.8327 16.3569 98.7404 16.6172 98.6228 16.9195C98.5221 17.2049 98.4297 17.4988 98.3458 17.8011C98.245 18.2545 98.1946 18.6407 98.1946 18.9597C98.1946 19.4803 98.2954 19.8749 98.4969 20.1436C98.7152 20.3955 98.9755 20.5214 99.2777 20.5214C99.5464 20.5214 99.8319 20.4291 100.134 20.2443C100.436 20.0428 100.722 19.7574 100.991 19.3879C101.394 18.8002 101.755 18.2041 102.074 17.5996C102.409 16.9782 102.661 16.4997 102.829 16.1638C102.93 15.9791 103.039 15.8868 103.157 15.8868C103.241 15.8868 103.283 15.9371 103.283 16.0379C103.283 16.1218 103.257 16.2142 103.207 16.315C103.056 16.6508 102.854 17.0874 102.603 17.6248C102.367 18.1453 102.065 18.6743 101.696 19.2116C101.343 19.7322 100.915 20.1772 100.411 20.5466C99.9242 20.8992 99.3617 21.0756 98.7236 21.0756ZM99.1014 15.3326C99.7059 14.7113 100.294 13.9976 100.865 13.1916C101.436 12.3688 101.964 11.5208 102.451 10.6476C102.955 9.7576 103.375 8.91799 103.711 8.12875C103.828 7.87687 103.921 7.5998 103.988 7.29754C104.072 6.99528 104.114 6.74339 104.114 6.54189C104.114 6.3068 104.055 6.18925 103.938 6.18925C103.87 6.18925 103.77 6.25642 103.635 6.39076C103.501 6.5083 103.325 6.7182 103.106 7.02046C102.787 7.44027 102.435 8.01121 102.048 8.73327C101.679 9.45534 101.301 10.2278 100.915 11.0506C100.529 11.8734 100.176 12.671 99.8571 13.4435C99.538 14.1991 99.2861 14.8288 99.1014 15.3326Z" fill="white"></path>
  <path d="M100.459 21.1259C101.08 19.9337 101.668 18.7414 102.222 17.5492C102.776 16.3401 103.339 15.1983 103.91 14.1236C104.245 13.5191 104.523 13.0992 104.741 12.8642C104.976 12.6123 105.287 12.4863 105.673 12.4863C105.807 12.4863 105.95 12.5115 106.101 12.5619C106.252 12.5955 106.403 12.6123 106.554 12.6123C106.655 12.6123 106.731 12.6039 106.781 12.5871C106.546 12.7214 106.244 13.0573 105.874 13.5946C105.505 14.1152 105.127 14.7197 104.741 15.4082C104.355 16.0967 104.01 16.7432 103.708 17.3477C104.027 16.9615 104.355 16.5752 104.69 16.189C105.043 15.8028 105.429 15.4334 105.849 15.0807C106.219 14.7617 106.605 14.4174 107.008 14.048C107.428 13.6618 107.839 13.3343 108.242 13.0657C108.645 12.797 108.998 12.6626 109.3 12.6626C109.417 12.6626 109.493 12.671 109.527 12.6878C109.846 12.8222 110.005 13.0405 110.005 13.3427C110.005 13.4435 109.963 13.5946 109.879 13.7961C109.661 14.3671 109.375 14.9548 109.023 15.5593C108.687 16.147 108.368 16.7432 108.066 17.3477C108.318 17.0454 108.628 16.676 108.998 16.2394C109.384 15.8028 109.77 15.4166 110.156 15.0807C110.526 14.7449 110.996 14.3922 111.567 14.0228C112.138 13.6534 112.7 13.3343 113.254 13.0657C113.809 12.797 114.254 12.6626 114.589 12.6626C114.707 12.6626 114.791 12.671 114.841 12.6878C114.841 12.6878 114.749 12.8558 114.564 13.1916C114.38 13.5107 114.144 13.9389 113.859 14.4762C113.59 14.9968 113.313 15.5593 113.028 16.1638C112.742 16.7516 112.482 17.3225 112.247 17.8766C112.029 18.414 111.886 18.8674 111.819 19.2368C111.768 19.4551 111.743 19.6566 111.743 19.8413C111.743 20.11 111.794 20.2863 111.894 20.3703C111.995 20.4542 112.104 20.4962 112.222 20.4962C112.558 20.4962 112.902 20.3199 113.254 19.9673C113.607 19.6146 113.943 19.1948 114.262 18.7078C114.598 18.2041 114.892 17.7171 115.144 17.2469C115.395 16.76 115.58 16.3905 115.698 16.1386C115.799 15.9539 115.899 15.8616 116 15.8616C116.101 15.8616 116.151 15.9287 116.151 16.0631C116.151 16.147 116.126 16.2394 116.076 16.3401C115.874 16.7264 115.631 17.1882 115.345 17.7255C115.076 18.2629 114.766 18.7918 114.413 19.3124C114.061 19.8161 113.666 20.2443 113.229 20.597C112.809 20.9328 112.356 21.1007 111.869 21.1007C111.516 21.1007 111.155 20.9832 110.786 20.7481C110.433 20.513 110.257 20.0764 110.257 19.4383C110.257 19.0857 110.333 18.6575 110.484 18.1537C110.601 17.8179 110.778 17.4316 111.013 16.995C111.265 16.5584 111.567 16.0547 111.92 15.4837C112.087 15.1983 112.171 14.9716 112.171 14.8037C112.171 14.6022 112.071 14.5014 111.869 14.5014C111.701 14.5014 111.466 14.5854 111.164 14.7533C110.878 14.9212 110.517 15.2151 110.081 15.6349C109.812 15.8868 109.493 16.2394 109.124 16.6928C108.771 17.1294 108.41 17.608 108.041 18.1285C107.671 18.6491 107.352 19.1612 107.083 19.665C106.815 20.1688 106.638 20.6138 106.554 21C106.303 21 106.101 20.8992 105.95 20.6977C105.799 20.4794 105.723 20.2275 105.723 19.9421C105.723 19.8917 105.723 19.8413 105.723 19.7909C105.723 19.7406 105.732 19.6818 105.748 19.6146C105.832 19.0941 105.967 18.6071 106.151 18.1537C106.336 17.7003 106.546 17.2301 106.781 16.7432C106.966 16.3905 107.151 16.0127 107.335 15.6097C107.52 15.1899 107.612 14.8708 107.612 14.6525C107.612 14.5182 107.562 14.451 107.461 14.451C107.344 14.451 107.151 14.5434 106.882 14.7281C106.613 14.896 106.244 15.1983 105.774 15.6349C105.354 16.0379 104.842 16.6172 104.237 17.3729C103.649 18.1285 103.003 19.2032 102.298 20.597C102.197 20.7817 102.079 20.8992 101.945 20.9496C101.811 20.9832 101.601 21 101.315 21C101.131 21 100.979 21 100.862 21C100.727 21.0168 100.593 21.0588 100.459 21.1259Z" fill="white"></path>
  <path d="M121.083 21.0756C120.898 21.0923 120.688 21.0504 120.453 20.9496C120.218 20.8489 120.008 20.6641 119.823 20.3955C119.655 20.1268 119.571 19.749 119.571 19.262C119.571 18.859 119.647 18.372 119.798 17.8011C119.597 18.1201 119.336 18.5147 119.017 18.9849C118.698 19.4383 118.354 19.8413 117.985 20.194C117.666 20.4962 117.363 20.7145 117.078 20.8489C116.792 20.9832 116.532 21.0504 116.297 21.0504C115.86 21.0504 115.508 20.8573 115.239 20.471C114.97 20.068 114.836 19.5475 114.836 18.9094C114.836 18.2377 115.004 17.4736 115.34 16.6172C115.676 15.7608 116.221 14.8708 116.977 13.9473C117.464 13.3595 118.052 12.8893 118.74 12.5367C119.446 12.1673 120.134 11.9826 120.806 11.9826C121.192 11.9826 121.561 12.0497 121.914 12.1841C122.267 12.3016 122.577 12.5031 122.846 12.7886C122.963 12.9061 123.022 13.0405 123.022 13.1916C123.022 13.2924 122.98 13.3763 122.896 13.4435C122.812 13.5107 122.703 13.5274 122.569 13.4939C122.384 12.9061 121.99 12.6123 121.385 12.6123C121.1 12.6123 120.772 12.7046 120.403 12.8893C119.832 13.1916 119.236 13.687 118.614 14.3755C118.01 15.0639 117.481 15.7776 117.027 16.5165C116.96 16.6172 116.851 16.8103 116.7 17.0958C116.566 17.3813 116.431 17.7003 116.297 18.053C116.163 18.4056 116.07 18.7498 116.02 19.0857C116.003 19.1864 115.995 19.262 115.995 19.3124C115.995 19.346 115.995 19.4047 115.995 19.4887C115.995 20.0428 116.205 20.3199 116.624 20.3199C117.128 20.3199 117.699 19.9505 118.337 19.2116C118.774 18.6743 119.168 18.1117 119.521 17.524C119.874 16.9363 120.235 16.3066 120.604 15.6349C120.856 15.1815 121.091 14.8037 121.309 14.5014C121.528 14.1991 121.838 14.048 122.241 14.048C122.426 14.048 122.611 14.0732 122.796 14.1236C122.98 14.1739 123.173 14.1823 123.375 14.1488C123.241 14.2831 123.056 14.535 122.821 14.9044C122.602 15.2738 122.367 15.6936 122.115 16.1638C121.864 16.634 121.637 17.1126 121.435 17.5996C121.234 18.0865 121.091 18.5063 121.007 18.859C120.99 18.9597 120.965 19.1025 120.932 19.2872C120.915 19.4719 120.906 19.6062 120.906 19.6902C120.906 20.1604 121.041 20.3955 121.309 20.3955C121.578 20.3955 121.864 20.2359 122.166 19.9169C122.485 19.5978 122.796 19.2032 123.098 18.733C123.4 18.2629 123.677 17.7927 123.929 17.3225C124.181 16.8355 124.382 16.4409 124.534 16.1386C124.601 15.9707 124.701 15.8868 124.836 15.8868C124.92 15.8868 124.962 15.9455 124.962 16.0631C124.962 16.1135 124.937 16.2058 124.886 16.3401C124.685 16.76 124.441 17.2385 124.156 17.7759C123.87 18.2964 123.56 18.8086 123.224 19.3124C122.888 19.7993 122.535 20.2108 122.166 20.5466C121.813 20.8656 121.452 21.042 121.083 21.0756Z" fill="white"></path>
  <path d="M122.104 21.2015C122.709 19.9757 123.288 18.7666 123.842 17.5744C124.413 16.3653 124.993 15.2151 125.58 14.1236C125.916 13.5191 126.193 13.0992 126.412 12.8642C126.647 12.6123 126.957 12.4863 127.344 12.4863C127.478 12.4863 127.621 12.5115 127.772 12.5619C127.923 12.5955 128.074 12.6123 128.225 12.6123C128.326 12.6123 128.402 12.6039 128.452 12.5871C128.217 12.7214 127.915 13.0573 127.545 13.5946C127.176 14.1152 126.798 14.7197 126.412 15.4082C126.025 16.0967 125.681 16.7432 125.379 17.3477C125.698 16.9615 126.025 16.5752 126.361 16.189C126.714 15.8028 127.1 15.4334 127.52 15.0807C127.923 14.7281 128.402 14.3671 128.956 13.9976C129.527 13.6114 130.081 13.2924 130.618 13.0405C131.155 12.7886 131.584 12.6626 131.903 12.6626C132.02 12.6626 132.104 12.671 132.155 12.6878C132.155 12.6878 132.062 12.8558 131.878 13.1916C131.693 13.5107 131.458 13.9389 131.172 14.4762C130.904 14.9968 130.627 15.5593 130.341 16.1638C130.056 16.7516 129.795 17.3225 129.56 17.8766C129.342 18.414 129.199 18.8674 129.132 19.2368C129.082 19.4551 129.056 19.6566 129.056 19.8413C129.056 20.11 129.107 20.2863 129.208 20.3703C129.308 20.4542 129.417 20.4962 129.535 20.4962C129.854 20.4962 130.19 20.3283 130.543 19.9925C130.895 19.6398 131.231 19.2116 131.55 18.7078C131.886 18.2041 132.18 17.7171 132.432 17.2469C132.7 16.76 132.893 16.3905 133.011 16.1386C133.078 16.0043 133.129 15.9287 133.162 15.9119C133.196 15.8784 133.246 15.8616 133.313 15.8616C133.414 15.8616 133.464 15.9287 133.464 16.0631C133.464 16.147 133.439 16.2394 133.389 16.3401C133.187 16.7264 132.944 17.1882 132.658 17.7255C132.39 18.2629 132.079 18.7918 131.726 19.3124C131.374 19.8161 130.988 20.2443 130.568 20.597C130.148 20.9328 129.695 21.1007 129.208 21.1007C128.872 21.1007 128.519 20.9832 128.15 20.7481C127.797 20.513 127.621 20.0764 127.621 19.4383C127.621 19.2536 127.637 19.0605 127.671 18.859C127.705 18.6407 127.763 18.4056 127.847 18.1537C127.982 17.8179 128.141 17.4568 128.326 17.0706C128.511 16.6844 128.813 16.1554 129.233 15.4837C129.35 15.299 129.417 15.1563 129.434 15.0555C129.468 14.9548 129.485 14.8708 129.485 14.8037C129.485 14.6022 129.392 14.5014 129.208 14.5014C129.056 14.5014 128.83 14.5854 128.527 14.7533C128.242 14.9212 127.881 15.2151 127.444 15.6349C127.025 16.0379 126.521 16.6088 125.933 17.3477C125.362 18.0865 124.699 19.178 123.943 20.6222C123.826 20.8405 123.691 20.958 123.54 20.9748C123.406 20.9916 123.213 21.0084 122.961 21.0252C122.793 21.042 122.633 21.0504 122.482 21.0504C122.331 21.0672 122.205 21.1175 122.104 21.2015Z" fill="white"></path>
  <path d="M144.943 21.0756C144.758 21.0923 144.548 21.0504 144.313 20.9496C144.078 20.8489 143.868 20.6641 143.683 20.3955C143.515 20.1268 143.431 19.749 143.431 19.262C143.431 18.859 143.507 18.372 143.658 17.8011C143.457 18.1201 143.196 18.5147 142.877 18.9849C142.558 19.4383 142.214 19.8413 141.845 20.194C141.526 20.4962 141.223 20.7145 140.938 20.8489C140.652 20.9832 140.392 21.0504 140.157 21.0504C139.72 21.0504 139.368 20.8573 139.099 20.471C138.83 20.068 138.696 19.5475 138.696 18.9094C138.696 18.2377 138.864 17.4736 139.2 16.6172C139.536 15.7608 140.081 14.8708 140.837 13.9473C141.324 13.3595 141.912 12.8893 142.6 12.5367C143.306 12.1673 143.994 11.9826 144.666 11.9826C145.052 11.9826 145.421 12.0497 145.774 12.1841C146.127 12.3016 146.437 12.5031 146.706 12.7886C146.824 12.9061 146.882 13.0405 146.882 13.1916C146.882 13.2924 146.84 13.3763 146.756 13.4435C146.672 13.5107 146.563 13.5274 146.429 13.4939C146.244 12.9061 145.85 12.6123 145.245 12.6123C144.96 12.6123 144.632 12.7046 144.263 12.8893C143.692 13.1916 143.096 13.687 142.474 14.3755C141.87 15.0639 141.341 15.7776 140.887 16.5165C140.82 16.6172 140.711 16.8103 140.56 17.0958C140.426 17.3813 140.291 17.7003 140.157 18.053C140.023 18.4056 139.93 18.7498 139.88 19.0857C139.863 19.1864 139.855 19.262 139.855 19.3124C139.855 19.346 139.855 19.4047 139.855 19.4887C139.855 20.0428 140.065 20.3199 140.484 20.3199C140.988 20.3199 141.559 19.9505 142.197 19.2116C142.634 18.6743 143.028 18.1117 143.381 17.524C143.734 16.9363 144.095 16.3066 144.464 15.6349C144.716 15.1815 144.951 14.8037 145.169 14.5014C145.388 14.1991 145.698 14.048 146.101 14.048C146.286 14.048 146.471 14.0732 146.656 14.1236C146.84 14.1739 147.033 14.1823 147.235 14.1488C147.101 14.2831 146.916 14.535 146.681 14.9044C146.462 15.2738 146.227 15.6936 145.976 16.1638C145.724 16.634 145.497 17.1126 145.295 17.5996C145.094 18.0865 144.951 18.5063 144.867 18.859C144.85 18.9597 144.825 19.1025 144.792 19.2872C144.775 19.4719 144.766 19.6062 144.766 19.6902C144.766 20.1604 144.901 20.3955 145.169 20.3955C145.438 20.3955 145.724 20.2359 146.026 19.9169C146.345 19.5978 146.656 19.2032 146.958 18.733C147.26 18.2629 147.537 17.7927 147.789 17.3225C148.041 16.8355 148.242 16.4409 148.394 16.1386C148.461 15.9707 148.562 15.8868 148.696 15.8868C148.78 15.8868 148.822 15.9455 148.822 16.0631C148.822 16.1135 148.797 16.2058 148.746 16.3401C148.545 16.76 148.301 17.2385 148.016 17.7759C147.73 18.2964 147.42 18.8086 147.084 19.3124C146.748 19.7993 146.395 20.2108 146.026 20.5466C145.673 20.8656 145.312 21.042 144.943 21.0756Z" fill="white"></path>
  <path d="M145.964 21.2015C146.569 19.9757 147.148 18.7666 147.702 17.5744C148.273 16.3653 148.853 15.2151 149.44 14.1236C149.776 13.5191 150.053 13.0992 150.272 12.8642C150.507 12.6123 150.817 12.4863 151.204 12.4863C151.338 12.4863 151.481 12.5115 151.632 12.5619C151.783 12.5955 151.934 12.6123 152.085 12.6123C152.186 12.6123 152.262 12.6039 152.312 12.5871C152.077 12.7214 151.775 13.0573 151.405 13.5946C151.036 14.1152 150.658 14.7197 150.272 15.4082C149.885 16.0967 149.541 16.7432 149.239 17.3477C149.558 16.9615 149.885 16.5752 150.221 16.189C150.574 15.8028 150.96 15.4334 151.38 15.0807C151.783 14.7281 152.262 14.3671 152.816 13.9976C153.387 13.6114 153.941 13.2924 154.478 13.0405C155.015 12.7886 155.444 12.6626 155.763 12.6626C155.88 12.6626 155.964 12.671 156.015 12.6878C156.015 12.6878 155.922 12.8558 155.738 13.1916C155.553 13.5107 155.318 13.9389 155.032 14.4762C154.764 14.9968 154.487 15.5593 154.201 16.1638C153.916 16.7516 153.655 17.3225 153.42 17.8766C153.202 18.414 153.059 18.8674 152.992 19.2368C152.942 19.4551 152.916 19.6566 152.916 19.8413C152.916 20.11 152.967 20.2863 153.068 20.3703C153.168 20.4542 153.277 20.4962 153.395 20.4962C153.714 20.4962 154.05 20.3283 154.403 19.9925C154.755 19.6398 155.091 19.2116 155.41 18.7078C155.746 18.2041 156.04 17.7171 156.292 17.2469C156.56 16.76 156.753 16.3905 156.871 16.1386C156.938 16.0043 156.989 15.9287 157.022 15.9119C157.056 15.8784 157.106 15.8616 157.173 15.8616C157.274 15.8616 157.324 15.9287 157.324 16.0631C157.324 16.147 157.299 16.2394 157.249 16.3401C157.047 16.7264 156.804 17.1882 156.518 17.7255C156.25 18.2629 155.939 18.7918 155.586 19.3124C155.234 19.8161 154.848 20.2443 154.428 20.597C154.008 20.9328 153.555 21.1007 153.068 21.1007C152.732 21.1007 152.379 20.9832 152.01 20.7481C151.657 20.513 151.481 20.0764 151.481 19.4383C151.481 19.2536 151.498 19.0605 151.531 18.859C151.565 18.6407 151.623 18.4056 151.707 18.1537C151.842 17.8179 152.001 17.4568 152.186 17.0706C152.371 16.6844 152.673 16.1554 153.093 15.4837C153.21 15.299 153.277 15.1563 153.294 15.0555C153.328 14.9548 153.345 14.8708 153.345 14.8037C153.345 14.6022 153.252 14.5014 153.068 14.5014C152.916 14.5014 152.69 14.5854 152.387 14.7533C152.102 14.9212 151.741 15.2151 151.304 15.6349C150.885 16.0379 150.381 16.6088 149.793 17.3477C149.222 18.0865 148.559 19.178 147.803 20.6222C147.686 20.8405 147.551 20.958 147.4 20.9748C147.266 20.9916 147.073 21.0084 146.821 21.0252C146.653 21.042 146.493 21.0504 146.342 21.0504C146.191 21.0672 146.065 21.1175 145.964 21.2015Z" fill="white"></path>
  <path d="M162.386 21C161.932 21 161.554 20.7733 161.252 20.3199C161.168 20.1856 161.093 20.0092 161.026 19.7909C160.958 19.5726 160.925 19.3292 160.925 19.0605C160.925 18.9094 160.933 18.7582 160.95 18.6071C160.967 18.4392 161 18.2713 161.051 18.1033C160.816 18.4728 160.539 18.8842 160.219 19.3376C159.917 19.7742 159.565 20.1604 159.162 20.4962C158.775 20.8153 158.339 20.9748 157.852 20.9748C157.684 20.9748 157.508 20.9496 157.323 20.8992C156.869 20.7649 156.542 20.5298 156.34 20.194C156.156 19.8581 156.063 19.4551 156.063 18.9849C156.063 18.4644 156.164 17.8934 156.366 17.2721C156.584 16.6508 156.853 16.0463 157.172 15.4586C157.508 14.8708 157.852 14.3671 158.204 13.9473C158.708 13.3595 159.288 12.8893 159.942 12.5367C160.597 12.1841 161.261 12.0078 161.932 12.0078C162.537 12.0078 163.108 12.1673 163.645 12.4863C163.897 12.0161 164.166 11.4956 164.451 10.9247C164.737 10.3369 165.022 9.7576 165.308 9.18666C165.593 8.61573 165.845 8.09517 166.063 7.62498C166.281 7.13801 166.449 6.76858 166.567 6.5167C166.819 5.92897 167.054 5.55954 167.272 5.40841C167.507 5.24049 167.784 5.15653 168.103 5.15653C168.288 5.15653 168.49 5.18172 168.708 5.23209C168.943 5.26568 169.17 5.27407 169.388 5.25728C169.287 5.35804 169.077 5.6519 168.758 6.13887C168.456 6.60906 168.095 7.21358 167.675 7.95243C167.255 8.69129 166.802 9.50571 166.315 10.3957C165.845 11.2689 165.375 12.1589 164.905 13.0657C164.451 13.9556 164.023 14.8037 163.62 15.6097C163.234 16.3989 162.923 17.079 162.688 17.6499C162.621 17.7843 162.52 18.0613 162.386 18.4812C162.268 18.8842 162.209 19.2368 162.209 19.5391C162.209 19.7574 162.26 19.9505 162.361 20.1184C162.461 20.2695 162.629 20.3451 162.864 20.3451C163.183 20.3451 163.502 20.1856 163.821 19.8665C164.157 19.5307 164.476 19.1277 164.779 18.6575C165.081 18.1705 165.35 17.7003 165.585 17.2469C165.82 16.7767 165.996 16.4073 166.114 16.1386C166.198 15.9539 166.298 15.8616 166.416 15.8616C166.517 15.8616 166.567 15.9371 166.567 16.0883C166.567 16.1051 166.567 16.1386 166.567 16.189C166.567 16.2226 166.55 16.2646 166.517 16.315C166.365 16.6676 166.156 17.1042 165.887 17.6248C165.635 18.1453 165.333 18.6659 164.98 19.1864C164.627 19.707 164.233 20.1436 163.796 20.4962C163.36 20.8321 162.889 21 162.386 21ZM158.028 20.2443C158.263 20.2443 158.557 20.1184 158.91 19.8665C159.262 19.5978 159.64 19.178 160.043 18.6071C160.513 17.9354 161.051 17.0958 161.655 16.0883C162.26 15.0807 162.856 14.0144 163.444 12.8893C163.225 12.6878 162.973 12.5871 162.688 12.5871C162.218 12.5871 161.689 12.8054 161.101 13.242C160.53 13.6786 159.968 14.2327 159.413 14.9044C158.876 15.5761 158.423 16.2562 158.053 16.9447C157.801 17.4148 157.617 17.8431 157.499 18.2293C157.398 18.6155 157.348 18.9513 157.348 19.2368C157.348 19.9085 157.575 20.2443 158.028 20.2443Z" fill="white"></path>
  <path d="M29.3861 56.5944C28.7648 56.5944 28.1267 56.5272 27.4718 56.3929C26.8337 56.2585 26.1956 56.057 25.5575 55.7884C24.5164 55.335 23.6768 54.7388 23.0387 54C22.4006 53.2779 21.9388 52.4551 21.6533 51.5315C21.3678 50.608 21.2251 49.6424 21.2251 48.6349C21.2251 47.577 21.351 46.5191 21.6029 45.4611C21.8716 44.4032 22.241 43.3957 22.7112 42.4385C23.1814 41.4646 23.7104 40.5998 24.2981 39.8441C24.1805 39.4075 24.0798 38.9038 23.9958 38.3328C23.9287 37.7619 23.8951 37.1826 23.8951 36.5949C23.8951 35.7049 23.9958 34.8569 24.1973 34.0508C24.2645 33.8157 24.382 33.6982 24.55 33.6982C24.6675 33.6982 24.7263 33.7822 24.7263 33.9501C24.7263 34.0508 24.7179 34.1264 24.7011 34.1768C24.6675 34.4287 24.6339 34.6889 24.6003 34.9576C24.5835 35.2263 24.5752 35.5034 24.5752 35.7888C24.5752 36.3598 24.6087 36.9223 24.6759 37.4764C24.7431 38.0306 24.8186 38.5427 24.9026 39.0129C26.1284 37.4177 27.5306 36.2338 29.1091 35.4614C30.7043 34.6721 32.3751 34.2775 34.1215 34.2775C34.5749 34.2775 35.0115 34.3027 35.4313 34.3531C36.7747 34.5042 37.8746 34.8401 38.731 35.3606C39.5874 35.8644 40.2171 36.4857 40.6201 37.2246C41.0399 37.9634 41.2498 38.7443 41.2498 39.5671C41.2498 40.3731 41.0651 41.1707 40.6957 41.96C40.3263 42.7492 39.7889 43.4713 39.0836 44.1262C38.3784 44.7643 37.5136 45.2848 36.4892 45.6878C35.4817 46.0741 34.3398 46.2672 33.0636 46.2672C32.7781 46.2672 32.4927 46.2588 32.2072 46.242C31.9217 46.2252 31.6111 46.1916 31.2752 46.1412C29.9487 45.9397 28.7396 45.5115 27.6481 44.8566C26.5566 44.2017 25.675 43.1942 25.0034 41.834C24.869 42.0019 24.6843 42.3462 24.4492 42.8667C24.2141 43.3705 23.979 43.9834 23.7439 44.7055C23.5088 45.4276 23.3073 46.2168 23.1394 47.0732C22.9715 47.9128 22.8875 48.7608 22.8875 49.6172C22.8875 50.44 22.9967 51.2377 23.215 52.0101C23.4333 52.7658 23.8111 53.429 24.3485 54C24.8858 54.5877 25.6163 55.0243 26.5398 55.3098C26.9932 55.4441 27.4634 55.5449 27.9504 55.612C28.4374 55.6792 28.9327 55.7128 29.4365 55.7128C30.4104 55.7128 31.376 55.5869 32.3332 55.335C33.2903 55.0831 34.1803 54.7137 35.0031 54.2267C36.0946 53.5886 36.9342 52.8497 37.522 52.0101C38.1097 51.1537 38.6554 50.1965 39.1592 49.1386C39.2264 48.9707 39.3187 48.8868 39.4363 48.8868C39.5202 48.8868 39.5622 48.9455 39.5622 49.0631C39.5622 49.147 39.5286 49.2478 39.4615 49.3653C39.1088 50.1042 38.7562 50.7843 38.4035 51.4056C38.0509 52.0101 37.6395 52.5726 37.1693 53.0932C36.6991 53.6138 36.103 54.1259 35.3809 54.6297C34.5581 55.2006 33.6346 55.6708 32.6102 56.0402C31.5859 56.4097 30.5112 56.5944 29.3861 56.5944ZM32.9125 45.6123C34.0712 45.6123 35.0955 45.4443 35.9855 45.1085C36.8755 44.7559 37.6227 44.3025 38.2272 43.7483C38.8485 43.1774 39.3103 42.5477 39.6126 41.8592C39.9316 41.1707 40.0912 40.4739 40.0912 39.7686C40.0912 39.0801 39.9316 38.4252 39.6126 37.8039C39.2935 37.1826 38.8066 36.6536 38.1517 36.217C37.5136 35.7636 36.6907 35.4698 35.6832 35.3354C35.3138 35.2851 34.9443 35.2599 34.5749 35.2599C33.433 35.2599 32.308 35.5034 31.1997 35.9903C30.1082 36.4605 29.0755 37.1322 28.1015 38.0054C27.1276 38.8618 26.2628 39.8693 25.5071 41.028C26.0948 42.4889 26.9177 43.5636 27.9756 44.2521C29.0503 44.9406 30.2761 45.3688 31.6531 45.5367C32.0897 45.5871 32.5095 45.6123 32.9125 45.6123Z" fill="white"></path>
  <path d="M40.3649 54.0756C39.6596 54.0756 39.181 53.8908 38.9291 53.5214C38.6773 53.1352 38.5513 52.6818 38.5513 52.1612C38.5513 51.6239 38.6269 51.0697 38.778 50.4988C38.9291 49.9279 39.0635 49.4493 39.181 49.0631C39.4497 48.1227 39.7856 47.1236 40.1886 46.0657C40.6084 44.991 41.0618 43.9414 41.5487 42.9171C42.0525 41.876 42.5479 40.944 43.0348 40.1212C43.4211 39.4663 43.8325 38.9793 44.2691 38.6603C44.7225 38.3244 45.1171 38.1565 45.4529 38.1565C45.7216 38.1565 45.9315 38.2573 46.0826 38.4588C46.2506 38.6435 46.3345 38.929 46.3345 39.3152C46.3345 39.5839 46.2841 39.9029 46.1834 40.2723C46.0994 40.6418 45.9483 41.0616 45.73 41.5318C45.1423 42.8416 44.437 44.1514 43.6142 45.4611C42.8082 46.7709 41.7838 47.9968 40.5412 49.1386C40.474 49.3569 40.3817 49.6172 40.2641 49.9195C40.1634 50.2049 40.071 50.4988 39.9871 50.8011C39.8863 51.2545 39.8359 51.6407 39.8359 51.9597C39.8359 52.4803 39.9367 52.8749 40.1382 53.1436C40.3565 53.3955 40.6168 53.5214 40.919 53.5214C41.1877 53.5214 41.4732 53.429 41.7754 53.2443C42.0777 53.0428 42.3632 52.7574 42.6318 52.3879C43.0348 51.8002 43.3959 51.2041 43.7149 50.5996C44.0508 49.9783 44.3027 49.4997 44.4706 49.1638C44.5713 48.9791 44.6805 48.8868 44.798 48.8868C44.882 48.8868 44.924 48.9371 44.924 49.0379C44.924 49.1218 44.8988 49.2142 44.8484 49.315C44.6973 49.6508 44.4958 50.0874 44.2439 50.6248C44.0088 51.1453 43.7065 51.6743 43.3371 52.2116C42.9845 52.7322 42.5563 53.1772 42.0525 53.5466C41.5655 53.8992 41.003 54.0756 40.3649 54.0756ZM40.7427 48.3326C41.3472 47.7113 41.935 46.9976 42.5059 46.1916C43.0768 45.3688 43.6058 44.5208 44.0928 43.6476C44.5965 42.7576 45.0163 41.918 45.3522 41.1287C45.4697 40.8769 45.5621 40.5998 45.6292 40.2975C45.7132 39.9953 45.7552 39.7434 45.7552 39.5419C45.7552 39.3068 45.6964 39.1893 45.5789 39.1893C45.5117 39.1893 45.4109 39.2564 45.2766 39.3908C45.1423 39.5083 44.966 39.7182 44.7477 40.0205C44.4286 40.4403 44.076 41.0112 43.6897 41.7333C43.3203 42.4553 42.9425 43.2278 42.5563 44.0506C42.17 44.8734 41.8174 45.671 41.4984 46.4435C41.1793 47.1991 40.9274 47.8288 40.7427 48.3326Z" fill="white"></path>
  <path d="M49.9085 54.0756C49.7238 54.0923 49.5139 54.0504 49.2788 53.9496C49.0437 53.8489 48.8338 53.6641 48.6491 53.3955C48.4812 53.1268 48.3972 52.749 48.3972 52.262C48.3972 51.859 48.4728 51.372 48.6239 50.8011C48.4224 51.1201 48.1621 51.5147 47.8431 51.9849C47.524 52.4383 47.1798 52.8413 46.8103 53.194C46.4913 53.4962 46.189 53.7145 45.9036 53.8489C45.6181 53.9832 45.3578 54.0504 45.1227 54.0504C44.6861 54.0504 44.3335 53.8573 44.0648 53.471C43.7961 53.068 43.6618 52.5475 43.6618 51.9094C43.6618 51.2377 43.8297 50.4736 44.1656 49.6172C44.5014 48.7608 45.0472 47.8708 45.8028 46.9473C46.2898 46.3595 46.8775 45.8893 47.566 45.5367C48.2713 45.1673 48.9597 44.9826 49.6314 44.9826C50.0177 44.9826 50.3871 45.0497 50.7397 45.1841C51.0924 45.3016 51.403 45.5031 51.6717 45.7886C51.7892 45.9061 51.848 46.0405 51.848 46.1916C51.848 46.2924 51.806 46.3763 51.7221 46.4435C51.6381 46.5107 51.529 46.5275 51.3946 46.4939C51.2099 45.9061 50.8153 45.6123 50.2108 45.6123C49.9253 45.6123 49.5978 45.7046 49.2284 45.8893C48.6575 46.1916 48.0614 46.687 47.44 47.3755C46.8355 48.0639 46.3066 48.7776 45.8532 49.5165C45.786 49.6172 45.6769 49.8103 45.5257 50.0958C45.3914 50.3813 45.2571 50.7003 45.1227 51.053C44.9884 51.4056 44.896 51.7498 44.8456 52.0857C44.8289 52.1864 44.8205 52.262 44.8205 52.3124C44.8205 52.346 44.8205 52.4047 44.8205 52.4887C44.8205 53.0428 45.0304 53.3199 45.4502 53.3199C45.9539 53.3199 46.5249 52.9505 47.163 52.2116C47.5996 51.6743 47.9942 51.1117 48.3468 50.524C48.6995 49.9363 49.0605 49.3066 49.4299 48.6349C49.6818 48.1815 49.9169 47.8037 50.1352 47.5014C50.3535 47.1991 50.6642 47.048 51.0672 47.048C51.2519 47.048 51.4366 47.0732 51.6213 47.1236C51.806 47.1739 51.9991 47.1823 52.2006 47.1488C52.0663 47.2831 51.8816 47.535 51.6465 47.9044C51.4282 48.2738 51.1931 48.6936 50.9412 49.1638C50.6893 49.634 50.4626 50.1126 50.2611 50.5996C50.0596 51.0865 49.9169 51.5063 49.8329 51.859C49.8161 51.9597 49.791 52.1025 49.7574 52.2872C49.7406 52.4719 49.7322 52.6062 49.7322 52.6902C49.7322 53.1604 49.8665 53.3955 50.1352 53.3955C50.4039 53.3955 50.6893 53.2359 50.9916 52.9169C51.3107 52.5978 51.6213 52.2032 51.9236 51.733C52.2258 51.2629 52.5029 50.7927 52.7548 50.3225C53.0067 49.8355 53.2082 49.4409 53.3593 49.1386C53.4265 48.9707 53.5272 48.8868 53.6616 48.8868C53.7455 48.8868 53.7875 48.9455 53.7875 49.0631C53.7875 49.1134 53.7623 49.2058 53.7119 49.3401C53.5104 49.76 53.2669 50.2385 52.9815 50.7759C52.696 51.2964 52.3854 51.8086 52.0495 52.3124C51.7137 52.7993 51.361 53.2108 50.9916 53.5466C50.639 53.8656 50.2779 54.042 49.9085 54.0756Z" fill="white"></path>
  <path d="M54.1291 54C53.9444 54 53.7177 53.958 53.449 53.874C53.1972 53.7901 52.9705 53.639 52.769 53.4207C52.5842 53.1856 52.4919 52.8413 52.4919 52.3879C52.4919 51.9513 52.5926 51.5315 52.7941 51.1285C53.0124 50.7087 53.2139 50.3057 53.3987 49.9195C53.3483 49.9195 53.2895 49.9027 53.2223 49.8691C53.172 49.8355 53.1468 49.7851 53.1468 49.718C53.1468 49.6508 53.1636 49.5836 53.1972 49.5165C53.2643 49.3821 53.3399 49.2394 53.4239 49.0883C53.5078 48.9371 53.5834 48.7776 53.6505 48.6097C53.9024 48.0891 54.1543 47.5938 54.4062 47.1236C54.6581 46.6366 54.8764 46.2084 55.0611 45.839C55.2458 45.4695 55.5649 45.2848 56.0182 45.2848H57.5799C57.2945 45.5031 57.0342 45.7466 56.7991 46.0153C56.5808 46.2672 56.3037 46.7374 55.9679 47.4258C55.9679 47.4258 55.9091 47.5434 55.7916 47.7785C55.674 48.0136 55.5229 48.3158 55.3382 48.6852C55.1702 49.0379 54.9939 49.3989 54.8092 49.7683C54.6413 50.1378 54.4986 50.4484 54.381 50.7003C54.1627 51.1705 54.02 51.5483 53.9528 51.8338C53.8856 52.1025 53.8521 52.3543 53.8521 52.5894C53.8521 53.1436 54.0368 53.4207 54.4062 53.4207C54.8092 53.4207 55.2962 53.0932 55.8671 52.4383C56.3373 51.8842 56.7991 51.2209 57.2525 50.4484C57.7059 49.676 58.1341 48.8784 58.5371 48.0555C58.9569 47.2327 59.3263 46.4939 59.6454 45.839C59.8301 45.4695 60.1575 45.2848 60.6277 45.2848H62.0131C61.7612 45.4863 61.5513 45.6794 61.3834 45.8642C61.2154 46.0321 61.0475 46.2672 60.8796 46.5694C60.7285 46.8549 60.5186 47.2663 60.2499 47.8037C60.0316 48.257 59.7965 48.744 59.5446 49.2646C59.3095 49.7683 59.0996 50.2469 58.9149 50.7003C58.7302 51.1537 58.6126 51.5231 58.5623 51.8086C58.5455 51.9765 58.5287 52.1025 58.5119 52.1864C58.4951 52.2704 58.4867 52.3627 58.4867 52.4635C58.4867 52.7825 58.5371 53.0092 58.6378 53.1436C58.7554 53.2779 58.8897 53.3451 59.0408 53.3451C59.4439 53.3451 59.8469 53.1184 60.2499 52.665C60.6697 52.2116 61.0643 51.6575 61.4337 51.0026C61.82 50.3477 62.1474 49.7264 62.4161 49.1386C62.5168 48.9539 62.6092 48.8616 62.6932 48.8616C62.7939 48.8616 62.8443 48.9203 62.8443 49.0379C62.8443 49.1218 62.8107 49.2226 62.7435 49.3401C62.5588 49.7432 62.3321 50.2049 62.0634 50.7255C61.7948 51.2461 61.4925 51.7582 61.1567 52.262C60.8208 52.7658 60.4514 53.1856 60.0484 53.5214C59.6454 53.8405 59.2088 54 58.7386 54C58.3188 54 57.9745 53.8489 57.7059 53.5466C57.4372 53.2275 57.3029 52.7826 57.3029 52.2116C57.3029 51.7582 57.3868 51.2712 57.5547 50.7507C57.2693 51.2545 56.9418 51.7582 56.5724 52.262C56.203 52.7658 55.8083 53.1856 55.3885 53.5214C54.9687 53.8405 54.5489 54 54.1291 54Z" fill="white"></path>
  <path d="M67.9418 54C67.4884 54 67.1106 53.7733 66.8083 53.3199C66.7243 53.1856 66.6488 53.0092 66.5816 52.7909C66.5144 52.5726 66.4809 52.3292 66.4809 52.0605C66.4809 51.9094 66.4892 51.7582 66.506 51.6071C66.5228 51.4392 66.5564 51.2713 66.6068 51.1033C66.3717 51.4728 66.0946 51.8842 65.7756 52.3376C65.4733 52.7742 65.1207 53.1604 64.7177 53.4962C64.3314 53.8153 63.8948 53.9748 63.4079 53.9748C63.24 53.9748 63.0636 53.9496 62.8789 53.8992C62.4255 53.7649 62.0981 53.5298 61.8966 53.194C61.7119 52.8581 61.6195 52.4551 61.6195 51.9849C61.6195 51.4644 61.7203 50.8934 61.9218 50.2721C62.1401 49.6508 62.4087 49.0463 62.7278 48.4586C63.0636 47.8708 63.4079 47.3671 63.7605 46.9473C64.2643 46.3595 64.8436 45.8893 65.4985 45.5367C66.1534 45.1841 66.8167 45.0078 67.4884 45.0078C68.0929 45.0078 68.6638 45.1673 69.2012 45.4863C69.4531 45.0161 69.7217 44.4956 70.0072 43.9247C70.2927 43.3369 70.5781 42.7576 70.8636 42.1867C71.1491 41.6157 71.401 41.0952 71.6193 40.625C71.8376 40.138 72.0055 39.7686 72.123 39.5167C72.3749 38.929 72.61 38.5595 72.8283 38.4084C73.0634 38.2405 73.3405 38.1565 73.6595 38.1565C73.8442 38.1565 74.0457 38.1817 74.264 38.2321C74.4991 38.2657 74.7258 38.2741 74.9441 38.2573C74.8434 38.358 74.6335 38.6519 74.3144 39.1389C74.0122 39.6091 73.6511 40.2136 73.2313 40.9524C72.8115 41.6913 72.3581 42.5057 71.8712 43.3957C71.401 44.2689 70.9308 45.1589 70.4606 46.0657C70.0072 46.9556 69.579 47.8037 69.176 48.6097C68.7898 49.3989 68.4791 50.079 68.244 50.6499C68.1769 50.7843 68.0761 51.0613 67.9418 51.4812C67.8242 51.8842 67.7655 52.2368 67.7655 52.5391C67.7655 52.7574 67.8158 52.9505 67.9166 53.1184C68.0173 53.2695 68.1853 53.3451 68.4203 53.3451C68.7394 53.3451 69.0585 53.1856 69.3775 52.8665C69.7134 52.5307 70.0324 52.1277 70.3347 51.6575C70.6369 51.1705 70.9056 50.7003 71.1407 50.2469C71.3758 49.7767 71.5521 49.4073 71.6696 49.1386C71.7536 48.9539 71.8544 48.8616 71.9719 48.8616C72.0727 48.8616 72.123 48.9371 72.123 49.0883C72.123 49.1051 72.123 49.1386 72.123 49.189C72.123 49.2226 72.1062 49.2646 72.0727 49.315C71.9215 49.6676 71.7116 50.1042 71.4429 50.6248C71.1911 51.1453 70.8888 51.6659 70.5362 52.1864C70.1835 52.707 69.7889 53.1436 69.3523 53.4962C68.9157 53.8321 68.4455 54 67.9418 54ZM63.5842 53.2443C63.8193 53.2443 64.1131 53.1184 64.4658 52.8665C64.8184 52.5978 65.1962 52.178 65.5993 51.6071C66.0694 50.9354 66.6068 50.0958 67.2113 49.0883C67.8158 48.0807 68.412 47.0144 68.9997 45.8893C68.7814 45.6878 68.5295 45.5871 68.244 45.5871C67.7739 45.5871 67.2449 45.8054 66.6572 46.242C66.0862 46.6786 65.5237 47.2327 64.9696 47.9044C64.4322 48.5761 63.9788 49.2562 63.6094 49.9447C63.3575 50.4148 63.1728 50.8431 63.0552 51.2293C62.9545 51.6155 62.9041 51.9513 62.9041 52.2368C62.9041 52.9085 63.1308 53.2443 63.5842 53.2443Z" fill="white"></path>
  <path d="M74.4943 43.7735C74.2424 43.7735 74.0325 43.6896 73.8646 43.5216C73.7134 43.3369 73.6379 43.1186 73.6379 42.8667C73.6379 42.5477 73.7638 42.2706 74.0157 42.0355C74.2676 41.8004 74.5447 41.6829 74.8469 41.6829C75.1156 41.6829 75.3339 41.7669 75.5018 41.9348C75.6697 42.1027 75.7537 42.3042 75.7537 42.5393C75.7537 42.8584 75.6278 43.1438 75.3759 43.3957C75.124 43.6476 74.8301 43.7735 74.4943 43.7735ZM72.454 54C71.8327 54 71.3961 53.8237 71.1442 53.471C70.8924 53.1016 70.7664 52.6818 70.7664 52.2116C70.7664 51.9597 70.7916 51.7079 70.842 51.456C70.9091 51.1873 70.9847 50.9438 71.0687 50.7255L72.7563 46.4183C72.8067 46.284 72.8318 46.1664 72.8318 46.0657C72.8318 45.8977 72.7899 45.755 72.7059 45.6375C72.6219 45.5031 72.5632 45.4108 72.5296 45.3604L73.9149 45.31C74.1668 45.2932 74.3431 45.3268 74.4439 45.4108C74.5614 45.4779 74.6202 45.5619 74.6202 45.6627C74.6202 45.7634 74.5614 45.9481 74.4439 46.2168L72.3533 51.1285C72.3533 51.1285 72.3029 51.2377 72.2021 51.456C72.1182 51.6575 72.0678 51.7918 72.051 51.859C72.0006 52.1109 71.967 52.2704 71.9503 52.3376C71.9335 52.4047 71.9251 52.4467 71.9251 52.4635C71.9251 52.4803 71.9251 52.5475 71.9251 52.665C71.9251 52.8833 71.9754 53.068 72.0762 53.2191C72.1937 53.3703 72.3869 53.4458 72.6555 53.4458C72.8235 53.4458 73.0166 53.3955 73.2349 53.2947C73.4532 53.194 73.6127 53.0932 73.7134 52.9925C74.1332 52.5559 74.5447 51.9849 74.9477 51.2796C75.3675 50.5576 75.7537 49.8439 76.1063 49.1386C76.1735 48.9707 76.2575 48.8868 76.3582 48.8868C76.4422 48.8868 76.4842 48.9455 76.4842 49.0631C76.4842 49.1302 76.459 49.231 76.4086 49.3653C76.2407 49.718 76.0308 50.1546 75.7789 50.6751C75.527 51.1957 75.2247 51.7162 74.8721 52.2368C74.5363 52.7406 74.1668 53.1604 73.7638 53.4962C73.3608 53.8321 72.9242 54 72.454 54Z" fill="white"></path>
  <path d="M77.3099 54C76.6718 54 76.2016 53.7901 75.8993 53.3703C75.5971 52.9337 75.4459 52.4047 75.4459 51.7834C75.4459 51.0278 75.6222 50.2385 75.9749 49.4157C76.3107 48.6433 76.7389 47.938 77.2595 47.2999C77.78 46.6618 78.3426 46.1496 78.9471 45.7634C79.5516 45.3604 80.1394 45.1589 80.7103 45.1589C81.3484 45.1589 81.8186 45.3688 82.1208 45.7886C82.4231 46.2084 82.5742 46.7374 82.5742 47.3755C82.5742 48.1479 82.3979 48.9371 82.0453 49.7432C81.8438 50.1966 81.5583 50.7003 81.1889 51.2545C80.8194 51.7918 80.3996 52.2872 79.9295 52.7406C80.0302 52.9253 80.1729 53.0848 80.3577 53.2191C80.5424 53.3367 80.7942 53.3955 81.1133 53.3955C81.5163 53.3955 81.8941 53.2275 82.2468 52.8917C82.6162 52.5559 82.9521 52.1528 83.2543 51.6827C83.5566 51.1957 83.8252 50.7087 84.0603 50.2217C84.2954 49.7348 84.4885 49.3401 84.6397 49.0379C84.69 48.9371 84.774 48.8868 84.8915 48.8868C84.9587 48.8868 85.0091 48.9203 85.0427 48.9875C85.0763 49.0379 85.0679 49.1218 85.0175 49.2394C84.9167 49.4913 84.7488 49.8691 84.5137 50.3729C84.2786 50.8598 83.9932 51.372 83.6573 51.9094C83.3215 52.4299 82.9353 52.8749 82.4987 53.2443C82.0621 53.6138 81.5751 53.7985 81.0377 53.7985C80.6683 53.7985 80.3493 53.7397 80.0806 53.6222C79.8119 53.4878 79.5936 53.3283 79.4257 53.1436C79.073 53.4123 78.7204 53.6222 78.3678 53.7733C78.0151 53.9244 77.6625 54 77.3099 54ZM77.6877 53.4458C78.1411 53.4458 78.6281 53.2275 79.1486 52.7909C79.0143 52.5894 78.9135 52.3795 78.8464 52.1612C78.7792 51.9429 78.7456 51.7414 78.7456 51.5567C78.7456 51.2545 78.8128 50.9942 78.9471 50.7759C79.0982 50.5576 79.3249 50.4484 79.6272 50.4484C79.8455 50.4484 80.0218 50.5324 80.1561 50.7003C80.3073 50.8514 80.3828 51.0278 80.3828 51.2293C80.3828 51.2796 80.3744 51.33 80.3577 51.3804C80.3577 51.414 80.3493 51.456 80.3325 51.5063C80.6179 51.1201 80.8866 50.6667 81.1385 50.1462C81.6926 48.9539 81.9697 47.9716 81.9697 47.1991C81.9697 46.8129 81.8941 46.5107 81.743 46.2924C81.5919 46.0741 81.3652 45.9649 81.0629 45.9649C80.7103 45.9649 80.3241 46.116 79.9043 46.4183C79.5012 46.7206 79.1066 47.1236 78.7204 47.6273C78.351 48.1311 78.0235 48.6936 77.7381 49.315C77.4694 49.8859 77.2511 50.44 77.0832 50.9774C76.932 51.4979 76.8565 51.9513 76.8565 52.3376C76.8565 52.6734 76.9236 52.9421 77.058 53.1436C77.1923 53.3451 77.4022 53.4458 77.6877 53.4458Z" fill="white"></path>
  <path d="M110.048 61.6069C109.897 61.6069 109.863 61.4893 109.947 61.2542C110.048 61.0359 110.14 60.8344 110.224 60.6497C110.375 60.3474 110.451 59.8773 110.451 59.2392C110.451 58.685 110.35 58.0889 110.149 57.4508C109.947 56.8127 109.552 56.2334 108.965 55.7128C108.159 54.9739 107.252 54.3862 106.244 53.9496C105.237 53.513 104.179 53.1604 103.071 52.8917C101.979 52.623 100.896 52.3879 99.8213 52.1864C99.1664 53.0932 98.4612 53.9076 97.7055 54.6297C96.9667 55.3518 96.1774 55.9059 95.3378 56.2921C94.8676 56.5104 94.4143 56.6699 93.9777 56.7707C93.5411 56.8882 93.1296 56.947 92.7434 56.947C91.8031 56.947 91.0306 56.6951 90.4261 56.1914C89.8384 55.7044 89.5445 55.1251 89.5445 54.4534C89.5445 53.8153 89.83 53.194 90.4009 52.5894C90.9886 51.9681 91.9542 51.456 93.2976 51.053C93.8349 50.9018 94.431 50.7927 95.0859 50.7255C95.7408 50.6415 96.4209 50.5996 97.1262 50.5996C97.5628 50.5996 97.991 50.6164 98.4108 50.6499C98.8474 50.6667 99.2504 50.7171 99.6198 50.8011C100.107 50.0622 100.56 49.2982 100.98 48.5089C101.4 47.7029 101.836 46.8297 102.29 45.8893C100.963 45.9229 99.8129 45.7298 98.839 45.31C97.865 44.8734 97.1094 44.2941 96.5721 43.572C96.0515 42.85 95.7912 42.0775 95.7912 41.2547C95.7912 40.583 95.9843 39.9281 96.3705 39.29C96.7568 38.6351 97.3613 38.0474 98.1841 37.5268C99.0237 36.9895 100.09 36.5697 101.383 36.2674C101.467 36.2338 101.543 36.217 101.61 36.217C101.694 36.217 101.769 36.217 101.836 36.217C102.088 36.217 102.214 36.2674 102.214 36.3682C102.214 36.5361 101.946 36.6536 101.408 36.7208C100.535 36.8215 99.7626 37.1322 99.0909 37.6528C98.436 38.1733 97.9238 38.7946 97.5544 39.5167C97.2018 40.2388 97.0254 40.9692 97.0254 41.7081C97.0254 42.3462 97.1766 42.9423 97.4788 43.4965C97.7811 44.0506 98.2597 44.504 98.9146 44.8566C99.5695 45.1925 100.417 45.3604 101.459 45.3604C101.828 45.3604 102.223 45.3352 102.642 45.2848C102.71 45.1505 102.819 44.8818 102.97 44.4788C103.138 44.059 103.323 43.5888 103.524 43.0683C103.726 42.5477 103.919 42.0439 104.103 41.557C104.305 41.07 104.464 40.667 104.582 40.3479C104.716 40.0121 104.783 39.8441 104.783 39.8441C105.556 37.913 106.345 36.4017 107.151 35.3102C107.974 34.202 108.763 33.4211 109.519 32.9677C110.291 32.5143 110.98 32.2876 111.584 32.2876C112.239 32.2876 112.777 32.4808 113.196 32.867C113.633 33.2532 113.868 33.6898 113.902 34.1768C113.918 34.3279 113.927 34.4371 113.927 34.5042C113.927 34.5714 113.927 34.6554 113.927 34.7561C113.927 35.7468 113.725 36.7376 113.322 37.7283C112.936 38.7191 112.39 39.6594 111.685 40.5494C110.997 41.4394 110.199 42.2454 109.292 42.9675C108.402 43.6896 107.445 44.2941 106.421 44.7811C105.413 45.268 104.389 45.6039 103.348 45.7886C103.096 46.2924 102.869 46.7457 102.668 47.1488C102.483 47.535 102.273 47.9548 102.038 48.4082C101.803 48.8616 101.492 49.4409 101.106 50.1462C100.988 50.3645 100.896 50.524 100.829 50.6248C100.778 50.7087 100.695 50.843 100.577 51.0278C101.417 51.2293 102.332 51.5147 103.323 51.8842C104.313 52.2368 105.287 52.665 106.244 53.1688C107.218 53.6557 108.083 54.1931 108.839 54.7808C109.779 55.5029 110.442 56.3173 110.829 57.2241C111.232 58.1309 111.433 58.9285 111.433 59.617C111.433 60.104 111.358 60.4734 111.206 60.7253C110.988 61.0947 110.77 61.3298 110.552 61.4305C110.333 61.5481 110.165 61.6069 110.048 61.6069ZM103.7 45.1085C104.842 44.8566 105.959 44.4032 107.05 43.7483C108.142 43.0766 109.124 42.2706 109.997 41.3303C110.871 40.3731 111.567 39.3404 112.088 38.2321C112.609 37.107 112.869 35.9651 112.869 34.8065C112.869 34.521 112.793 34.2859 112.642 34.1012C112.491 33.9165 112.273 33.8241 111.987 33.8241C111.601 33.8241 111.106 34.0424 110.501 34.479C109.897 34.8988 109.208 35.6125 108.436 36.62C107.663 37.6108 106.832 38.9793 105.942 40.7257C105.942 40.7257 105.825 40.944 105.589 41.3806C105.371 41.8172 105.086 42.3714 104.733 43.0431C104.397 43.698 104.053 44.3864 103.7 45.1085ZM92.3908 56.2166C92.7602 56.2166 93.1548 56.1662 93.5746 56.0654C94.0112 55.9647 94.4646 55.8051 94.9348 55.5868C96.3454 54.8984 97.6467 53.7061 98.839 52.0101C98.4528 51.9261 98.0498 51.8674 97.63 51.8338C97.2102 51.7834 96.7819 51.7582 96.3454 51.7582C95.892 51.7582 95.4218 51.7834 94.9348 51.8338C94.4646 51.8842 94.0028 51.9765 93.5494 52.1109C92.4244 52.4131 91.5596 52.7993 90.9551 53.2695C90.3673 53.7397 90.0735 54.2183 90.0735 54.7053C90.0735 55.1251 90.2834 55.4777 90.7032 55.7632C91.123 56.0654 91.6855 56.2166 92.3908 56.2166Z" fill="white"></path>
  <path d="M110.371 54.0756C109.665 54.0756 109.187 53.8908 108.935 53.5214C108.683 53.1352 108.557 52.6818 108.557 52.1612C108.557 51.6239 108.633 51.0697 108.784 50.4988C108.935 49.9279 109.069 49.4493 109.187 49.0631C109.456 48.1227 109.791 47.1236 110.194 46.0657C110.614 44.991 111.068 43.9414 111.555 42.9171C112.058 41.876 112.554 40.944 113.041 40.1212C113.427 39.4663 113.838 38.9793 114.275 38.6603C114.728 38.3244 115.123 38.1565 115.459 38.1565C115.727 38.1565 115.937 38.2573 116.088 38.4588C116.256 38.6435 116.34 38.929 116.34 39.3152C116.34 39.5839 116.29 39.9029 116.189 40.2723C116.105 40.6418 115.954 41.0616 115.736 41.5318C115.148 42.8416 114.443 44.1514 113.62 45.4611C112.814 46.7709 111.79 47.9968 110.547 49.1386C110.48 49.3569 110.388 49.6172 110.27 49.9195C110.169 50.2049 110.077 50.4988 109.993 50.8011C109.892 51.2545 109.842 51.6407 109.842 51.9597C109.842 52.4803 109.943 52.8749 110.144 53.1436C110.362 53.3955 110.623 53.5214 110.925 53.5214C111.194 53.5214 111.479 53.429 111.781 53.2443C112.084 53.0428 112.369 52.7574 112.638 52.3879C113.041 51.8002 113.402 51.2041 113.721 50.5996C114.057 49.9783 114.308 49.4997 114.476 49.1638C114.577 48.9791 114.686 48.8868 114.804 48.8868C114.888 48.8868 114.93 48.9371 114.93 49.0379C114.93 49.1218 114.905 49.2142 114.854 49.315C114.703 49.6508 114.502 50.0874 114.25 50.6248C114.015 51.1453 113.712 51.6743 113.343 52.2116C112.99 52.7322 112.562 53.1772 112.058 53.5466C111.571 53.8992 111.009 54.0756 110.371 54.0756ZM110.749 48.3326C111.353 47.7113 111.941 46.9976 112.512 46.1916C113.083 45.3688 113.612 44.5208 114.099 43.6476C114.602 42.7576 115.022 41.918 115.358 41.1287C115.476 40.8769 115.568 40.5998 115.635 40.2975C115.719 39.9953 115.761 39.7434 115.761 39.5419C115.761 39.3068 115.702 39.1893 115.585 39.1893C115.518 39.1893 115.417 39.2564 115.282 39.3908C115.148 39.5083 114.972 39.7182 114.753 40.0205C114.434 40.4403 114.082 41.0112 113.696 41.7333C113.326 42.4553 112.948 43.2278 112.562 44.0506C112.176 44.8734 111.823 45.671 111.504 46.4435C111.185 47.1991 110.933 47.8288 110.749 48.3326Z" fill="white"></path>
  <path d="M119.914 54.0756C119.73 54.0923 119.52 54.0504 119.285 53.9496C119.05 53.8489 118.84 53.6641 118.655 53.3955C118.487 53.1268 118.403 52.749 118.403 52.262C118.403 51.859 118.479 51.372 118.63 50.8011C118.428 51.1201 118.168 51.5147 117.849 51.9849C117.53 52.4383 117.186 52.8413 116.816 53.194C116.497 53.4962 116.195 53.7145 115.909 53.8489C115.624 53.9832 115.364 54.0504 115.129 54.0504C114.692 54.0504 114.339 53.8573 114.071 53.471C113.802 53.068 113.668 52.5475 113.668 51.9094C113.668 51.2377 113.836 50.4736 114.171 49.6172C114.507 48.7608 115.053 47.8708 115.809 46.9473C116.296 46.3595 116.883 45.8893 117.572 45.5367C118.277 45.1673 118.966 44.9826 119.637 44.9826C120.023 44.9826 120.393 45.0497 120.746 45.1841C121.098 45.3016 121.409 45.5031 121.678 45.7886C121.795 45.9061 121.854 46.0405 121.854 46.1916C121.854 46.2924 121.812 46.3763 121.728 46.4435C121.644 46.5107 121.535 46.5275 121.4 46.4939C121.216 45.9061 120.821 45.6123 120.217 45.6123C119.931 45.6123 119.604 45.7046 119.234 45.8893C118.663 46.1916 118.067 46.687 117.446 47.3755C116.841 48.0639 116.312 48.7776 115.859 49.5165C115.792 49.6172 115.683 49.8103 115.532 50.0958C115.397 50.3813 115.263 50.7003 115.129 51.053C114.994 51.4056 114.902 51.7498 114.851 52.0857C114.835 52.1864 114.826 52.262 114.826 52.3124C114.826 52.346 114.826 52.4047 114.826 52.4887C114.826 53.0428 115.036 53.3199 115.456 53.3199C115.96 53.3199 116.531 52.9505 117.169 52.2116C117.605 51.6743 118 51.1117 118.353 50.524C118.705 49.9363 119.066 49.3066 119.436 48.6349C119.688 48.1815 119.923 47.8037 120.141 47.5014C120.359 47.1991 120.67 47.048 121.073 47.048C121.258 47.048 121.442 47.0732 121.627 47.1236C121.812 47.1739 122.005 47.1823 122.206 47.1488C122.072 47.2831 121.887 47.535 121.652 47.9044C121.434 48.2738 121.199 48.6936 120.947 49.1638C120.695 49.634 120.468 50.1126 120.267 50.5996C120.065 51.0865 119.923 51.5063 119.839 51.859C119.822 51.9597 119.797 52.1025 119.763 52.2872C119.746 52.4719 119.738 52.6062 119.738 52.6902C119.738 53.1604 119.872 53.3955 120.141 53.3955C120.41 53.3955 120.695 53.2359 120.997 52.9169C121.316 52.5978 121.627 52.2032 121.929 51.733C122.232 51.2629 122.509 50.7927 122.761 50.3225C123.013 49.8355 123.214 49.4409 123.365 49.1386C123.432 48.9707 123.533 48.8868 123.667 48.8868C123.751 48.8868 123.793 48.9455 123.793 49.0631C123.793 49.1134 123.768 49.2058 123.718 49.3401C123.516 49.76 123.273 50.2385 122.987 50.7759C122.702 51.2964 122.391 51.8086 122.055 52.3124C121.72 52.7993 121.367 53.2108 120.997 53.5466C120.645 53.8656 120.284 54.042 119.914 54.0756Z" fill="white"></path>
  <path d="M120.936 54.2015C121.541 52.9757 122.12 51.7666 122.674 50.5744C123.245 49.3653 123.824 48.2151 124.412 47.1236C124.748 46.5191 125.025 46.0992 125.243 45.8642C125.478 45.6123 125.789 45.4863 126.175 45.4863C126.31 45.4863 126.452 45.5115 126.603 45.5619C126.755 45.5955 126.906 45.6123 127.057 45.6123C127.158 45.6123 127.233 45.6039 127.283 45.5871C127.048 45.7214 126.746 46.0573 126.377 46.5946C126.007 47.1152 125.629 47.7197 125.243 48.4082C124.857 49.0967 124.513 49.7432 124.211 50.3477C124.53 49.9615 124.857 49.5752 125.193 49.189C125.545 48.8028 125.932 48.4334 126.352 48.0807C126.755 47.7281 127.233 47.3671 127.787 46.9976C128.358 46.6114 128.912 46.2924 129.45 46.0405C129.987 45.7886 130.415 45.6627 130.734 45.6627C130.852 45.6627 130.936 45.671 130.986 45.6878C130.986 45.6878 130.894 45.8558 130.709 46.1916C130.524 46.5107 130.289 46.9389 130.004 47.4762C129.735 47.9968 129.458 48.5593 129.173 49.1638C128.887 49.7516 128.627 50.3225 128.392 50.8766C128.173 51.414 128.031 51.8674 127.964 52.2368C127.913 52.4551 127.888 52.6566 127.888 52.8413C127.888 53.11 127.938 53.2863 128.039 53.3703C128.14 53.4542 128.249 53.4962 128.367 53.4962C128.686 53.4962 129.021 53.3283 129.374 52.9925C129.727 52.6398 130.063 52.2116 130.382 51.7078C130.717 51.2041 131.011 50.7171 131.263 50.2469C131.532 49.76 131.725 49.3905 131.843 49.1386C131.91 49.0043 131.96 48.9287 131.994 48.9119C132.027 48.8784 132.078 48.8616 132.145 48.8616C132.246 48.8616 132.296 48.9287 132.296 49.0631C132.296 49.147 132.271 49.2394 132.22 49.3401C132.019 49.7264 131.775 50.1882 131.49 50.7255C131.221 51.2629 130.911 51.7918 130.558 52.3124C130.205 52.8161 129.819 53.2443 129.399 53.597C128.98 53.9328 128.526 54.1007 128.039 54.1007C127.703 54.1007 127.351 53.9832 126.981 53.7481C126.629 53.513 126.452 53.0764 126.452 52.4383C126.452 52.2536 126.469 52.0605 126.503 51.859C126.536 51.6407 126.595 51.4056 126.679 51.1537C126.813 50.8179 126.973 50.4568 127.158 50.0706C127.342 49.6844 127.645 49.1554 128.064 48.4837C128.182 48.299 128.249 48.1563 128.266 48.0555C128.299 47.9548 128.316 47.8708 128.316 47.8037C128.316 47.6022 128.224 47.5014 128.039 47.5014C127.888 47.5014 127.661 47.5854 127.359 47.7533C127.074 47.9212 126.713 48.2151 126.276 48.6349C125.856 49.0379 125.352 49.6088 124.765 50.3477C124.194 51.0865 123.53 52.178 122.775 53.6222C122.657 53.8405 122.523 53.958 122.372 53.9748C122.237 53.9916 122.044 54.0084 121.792 54.0252C121.625 54.042 121.465 54.0504 121.314 54.0504C121.163 54.0672 121.037 54.1175 120.936 54.2015Z" fill="white"></path>
  <path d="M133 54C132.362 54 131.891 53.7901 131.589 53.3703C131.287 52.9337 131.136 52.4047 131.136 51.7834C131.136 51.0278 131.312 50.2385 131.665 49.4157C132.001 48.6433 132.429 47.938 132.949 47.2999C133.47 46.6618 134.032 46.1496 134.637 45.7634C135.241 45.3604 135.829 45.1589 136.4 45.1589C137.038 45.1589 137.508 45.3688 137.811 45.7886C138.113 46.2084 138.264 46.7374 138.264 47.3755C138.264 48.1479 138.088 48.9371 137.735 49.7432C137.534 50.1966 137.248 50.7003 136.879 51.2545C136.509 51.7918 136.089 52.2872 135.619 52.7406C135.72 52.9253 135.863 53.0848 136.047 53.2191C136.232 53.3367 136.484 53.3955 136.803 53.3955C137.206 53.3955 137.584 53.2275 137.937 52.8917C138.306 52.5559 138.642 52.1528 138.944 51.6827C139.246 51.1957 139.515 50.7087 139.75 50.2217C139.985 49.7348 140.178 49.3401 140.329 49.0379C140.38 48.9371 140.464 48.8868 140.581 48.8868C140.649 48.8868 140.699 48.9203 140.732 48.9875C140.766 49.0379 140.758 49.1218 140.707 49.2394C140.607 49.4913 140.439 49.8691 140.204 50.3729C139.968 50.8598 139.683 51.372 139.347 51.9094C139.011 52.4299 138.625 52.8749 138.188 53.2443C137.752 53.6138 137.265 53.7985 136.728 53.7985C136.358 53.7985 136.039 53.7397 135.77 53.6222C135.502 53.4878 135.283 53.3283 135.115 53.1436C134.763 53.4123 134.41 53.6222 134.058 53.7733C133.705 53.9244 133.352 54 133 54ZM133.378 53.4458C133.831 53.4458 134.318 53.2275 134.838 52.7909C134.704 52.5894 134.603 52.3795 134.536 52.1612C134.469 51.9429 134.435 51.7414 134.435 51.5567C134.435 51.2545 134.503 50.9942 134.637 50.7759C134.788 50.5576 135.015 50.4484 135.317 50.4484C135.535 50.4484 135.712 50.5324 135.846 50.7003C135.997 50.8514 136.073 51.0278 136.073 51.2293C136.073 51.2796 136.064 51.33 136.047 51.3804C136.047 51.414 136.039 51.456 136.022 51.5063C136.308 51.1201 136.576 50.6667 136.828 50.1462C137.382 48.9539 137.66 47.9716 137.66 47.1991C137.66 46.8129 137.584 46.5107 137.433 46.2924C137.282 46.0741 137.055 45.9649 136.753 45.9649C136.4 45.9649 136.014 46.116 135.594 46.4183C135.191 46.7206 134.796 47.1236 134.41 47.6273C134.041 48.1311 133.713 48.6936 133.428 49.315C133.159 49.8859 132.941 50.44 132.773 50.9774C132.622 51.4979 132.546 51.9513 132.546 52.3376C132.546 52.6734 132.613 52.9421 132.748 53.1436C132.882 53.3451 133.092 53.4458 133.378 53.4458Z" fill="white"></path>
  <path d="M140.807 54.1007C139.984 54.1007 139.397 53.8908 139.044 53.471C138.708 53.0344 138.54 52.581 138.54 52.1109C138.54 51.7246 138.632 51.372 138.817 51.053C139.019 50.7339 139.254 50.566 139.522 50.5492C139.858 49.8943 140.219 49.1806 140.606 48.4082C141.009 47.6357 141.378 46.8885 141.714 46.1664C141.949 45.6794 142.243 45.2093 142.595 44.7559C142.965 44.3025 143.368 44.0422 143.804 43.975H144.056C144.191 43.975 144.308 43.9834 144.409 44.0002C144.527 44.017 144.644 44.0506 144.762 44.101C144.946 44.1849 145.039 44.3109 145.039 44.4788C145.039 44.5796 144.98 44.6299 144.862 44.6299C144.812 44.6299 144.745 44.6047 144.661 44.5544C144.459 44.4704 144.283 44.4284 144.132 44.4284C144.031 44.4284 143.939 44.4536 143.855 44.504C143.536 44.6719 143.309 44.907 143.175 45.2093C143.057 45.5115 142.998 45.8306 142.998 46.1664C142.998 46.4351 143.024 46.7122 143.074 46.9976C143.141 47.2663 143.217 47.5098 143.301 47.7281C143.485 48.1983 143.679 48.6601 143.88 49.1134C144.098 49.5668 144.208 50.0538 144.208 50.5744C144.208 51.0781 144.04 51.6155 143.704 52.1864C143.368 52.7406 142.94 53.1856 142.419 53.5214L142.595 53.5466C142.679 53.5634 142.738 53.5718 142.772 53.5718C142.805 53.5718 142.831 53.5718 142.847 53.5718C143.234 53.5718 143.595 53.4626 143.93 53.2443C144.283 53.0092 144.594 52.7238 144.862 52.3879C145.131 52.0521 145.433 51.5819 145.769 50.9774C146.122 50.3729 146.458 49.7348 146.777 49.0631C146.827 48.9791 146.886 48.9371 146.953 48.9371C147.037 48.9371 147.096 48.9707 147.129 49.0379C147.18 49.0883 147.188 49.1554 147.155 49.2394C146.936 49.7096 146.684 50.2217 146.399 50.7759C146.13 51.3132 145.82 51.8338 145.467 52.3376C145.114 52.8245 144.703 53.2275 144.233 53.5466C143.779 53.8489 143.267 54 142.696 54C142.562 54 142.419 53.9916 142.268 53.9748C142.117 53.958 141.966 53.9244 141.815 53.874C141.647 53.9412 141.47 53.9916 141.286 54.0252C141.118 54.0755 140.958 54.1007 140.807 54.1007ZM141.563 53.3451C141.848 53.11 142.1 52.7658 142.318 52.3124C142.553 51.859 142.671 51.2629 142.671 50.524C142.671 49.8691 142.604 49.1722 142.47 48.4334C142.335 47.6945 142.268 47.0396 142.268 46.4687C142.268 46.3511 142.268 46.2504 142.268 46.1664C142.285 46.0657 142.302 45.9733 142.318 45.8893C142.1 46.3427 141.848 46.8717 141.563 47.4762C141.277 48.0639 140.992 48.6349 140.706 49.189C140.421 49.7432 140.177 50.2133 139.976 50.5996C139.976 50.5996 140.018 50.608 140.102 50.6248C140.203 50.6248 140.295 50.6835 140.379 50.8011C140.463 50.9018 140.496 51.1117 140.48 51.4308C140.463 51.8506 140.555 52.2452 140.757 52.6146C140.975 52.9673 141.244 53.2108 141.563 53.3451ZM140.606 53.6977C140.706 53.6977 140.799 53.6893 140.883 53.6725C140.967 53.639 141.042 53.6138 141.109 53.597C140.857 53.4123 140.631 53.1688 140.429 52.8665C140.245 52.5475 140.135 52.1444 140.102 51.6575C139.8 51.9765 139.648 52.3208 139.648 52.6902C139.648 52.9589 139.732 53.194 139.9 53.3955C140.068 53.597 140.303 53.6977 140.606 53.6977Z" fill="white"></path>
</svg>
