<?xml version="1.0" encoding="utf-8"?>
<!-- Generator: Adobe Illustrator 25.0.0, SVG Export Plug-In . SVG Version: 6.00 Build 0)  -->
<svg version="1.1" id="图层_1" xmlns="http://www.w3.org/2000/svg" xmlns:xlink="http://www.w3.org/1999/xlink" x="0px" y="0px"
	 viewBox="0 0 651.97 76.54" style="enable-background:new 0 0 651.97 76.54;" xml:space="preserve">
<style type="text/css">
	.st0{fill:#FDFDFD;}
</style>
<g id="XMLID_14_">
	<g>
		<path class="st0" d="M341.58,14.45v6.44l7.43,8.94c-2.17,1.12-8.41,4.86-10.5,11.68c-0.01,0.03-0.7,1.78-0.7,4.38
			c0,2.36,0.56,5.4,2.74,8.45c4.53,6.39,14.72,8.91,22.71,5.62c0.08-0.02,2.57-0.86,7.08-4.82l4.23,5.03h11.15l-31.88-38.03h22.77
			v-7.69H341.58z M347.42,50.06c-1.17-1.65-1.48-3.29-1.48-4.56c0-1.43,0.39-2.39,0.39-2.41c1.39-4.73,6.79-7,7.48-7.34l11.67,13.66
			c-0.28,0.36-1.72,2.2-5.43,3.78C355.57,55.11,350.02,53.73,347.42,50.06 M360.24,53.66L360.24,53.66"/>
	</g>
	<polygon id="XMLID_10_" class="st0" points="304.81,21.83 272.19,21.83 272.19,32.22 294.16,32.22 294.16,40.13 272.19,40.13 
		272.19,51.69 305.33,51.69 305.33,59.59 262.44,59.59 262.44,14.45 304.81,14.45 	"/>
	<polygon id="XMLID_9_" class="st0" points="595.67,14.45 595.67,59.59 638.58,59.59 638.58,51.69 605.43,51.69 605.43,40.13 
		627.39,40.13 627.39,32.22 605.43,32.22 605.43,21.83 638.07,21.83 638.07,14.45 	"/>
	<g>
		<path id="XMLID_8_" class="st0" d="M45.07,14.94L34.79,45.25L24.23,15.03h-9.27l16,44.38h7.31c0,0,10.36-31.31,10.86-32.79
			c0.5,1.46,11.26,32.79,11.26,32.79h6.93l15.52-44.38h-8.91L63.9,45.23l-10.3-30.29H45.07"/>
	</g>
	<polygon id="XMLID_7_" class="st0" points="139.32,31.96 139.32,14.45 149.18,14.45 149.18,59.59 139.32,59.59 139.32,40.39 
		111.7,40.39 111.7,59.59 101.86,59.59 101.86,14.45 111.7,14.45 111.7,31.96 	"/>
	<rect id="XMLID_6_" x="171.87" y="14.45" class="st0" width="9.71" height="45.14"/>
	<polygon id="XMLID_5_" class="st0" points="227.17,59.59 217.37,59.59 217.37,22.46 199.44,22.46 199.44,14.45 245.1,14.45 
		245.1,22.46 227.17,22.46 	"/>
	<g>
		<path id="XMLID_4_" class="st0" d="M416.84,20.74c-4.16,4.18-6.36,9.83-6.36,16.36c0,16,12.57,23.16,25.01,23.16
			c9.64,0,17.99-5.74,18.07-5.8l0.14-0.08l-3.73-6.71l-0.17,0.13c-0.06,0.04-5.35,4.26-14.3,4.26c-7.76,0-16.12-4.76-16.12-15.19
			c0-10.19,8.12-15.51,16.12-15.51c7.41,0,14.22,3.77,14.3,3.81l0.16,0.08l3.6-7.26c0,0-7.51-4.35-18.06-4.35
			C428.06,13.64,421.44,16.14,416.84,20.74"/>
		<path class="st0" d="M493.08,26.13l6.54,15.96h-13.21L493.08,26.13z M478.4,59.59l4.48-9.67h20.42l4.71,9.67h12.24l-23.91-45.14
			h-7.24l-22.42,45.14H478.4"/>
		<path id="XMLID_1_" class="st0" d="M534.76,55.22l3.15-7.27c0,0,7.29,4.65,16.36,4.77c3.76,0.03,13.82-0.81,13.89-6.03
			c0.11-10.47-34.9,2.29-34.67-18.72c0.08-7.15,6.8-14.17,21.02-14.02c11.93,0.12,20.03,4.75,20.03,4.75l-3.57,6.89
			c0,0-7.32-4.16-16.26-4.25c-5.08-0.07-11.36,1.31-11.38,5.1c-0.1,10.88,34.85-1.43,34.63,19.19
			c-0.11,11.81-14.3,14.53-23.59,14.48C540.87,60,534.76,55.22,534.76,55.22"/>
	</g>
</g>
</svg>
