<svg width="196" height="54" viewBox="0 0 196 54" fill="none" xmlns="http://www.w3.org/2000/svg">
<g clip-path="url(#clip0_2342_933)">
<path d="M52.4581 0C52.4738 0.0109072 52.4887 0.0279511 52.5065 0.0313596C53.0883 0.13975 53.0883 0.139748 53.1067 0.75464C53.1101 0.873255 53.1121 0.992555 53.1121 1.11117C53.1121 18.3922 53.1121 35.6732 53.1121 52.9543C53.1121 53.1588 53.1121 53.3708 53.1039 53.5787C53.0944 53.8773 52.9902 53.9802 52.6911 53.9918C52.5248 53.998 52.3586 54 52.1931 54H0.484501C0.0362237 54 0.00761024 53.968 0.00761024 53.5092C0.00761024 35.8818 0.00761024 18.2547 0.00761024 0.627845C0.00761024 0.384479 -0.0605127 0.10021 0.276036 0H52.4581ZM23.4699 12.6939L23.4638 12.7866C23.1818 12.7866 22.8997 12.7941 22.6184 12.7866C22.2859 12.7757 21.9371 12.7184 21.6693 12.9713C21.108 13.5051 20.4989 14.0082 20.0343 14.6211C19.1044 15.8481 18.1949 17.0752 17.1239 18.1877C16.6695 18.6581 16.2852 19.2102 15.9242 19.7597C15.326 20.6752 15.5495 21.5587 16.4692 22.1006C16.7049 22.237 16.9386 22.3822 17.1845 22.4994C17.286 22.5505 17.4036 22.5593 17.5115 22.524C17.8397 22.3726 18.156 22.1966 18.4578 21.9977C19.2547 21.4418 20.1987 21.1355 21.17 21.1176C22.3997 21.0835 23.519 20.757 24.3188 19.7065C24.4551 19.5313 24.6445 19.4372 24.8856 19.5381C24.5055 20.1339 24.0681 20.6193 23.4332 20.937C22.5475 21.3801 22.1435 22.2404 21.7886 23.1266C21.4479 23.976 21.0923 24.8213 20.6985 25.6489C20.4138 26.244 20.0506 26.7996 19.7311 27.3777C19.5227 27.7546 19.3333 28.1643 19.4852 28.5918C19.8258 29.5461 20.2026 30.4882 20.58 31.4283C20.7469 31.8435 21.0828 31.9975 21.5181 31.9955C23.2276 31.9873 24.9367 31.9862 26.6454 31.9921C27.065 31.9921 27.4091 31.8591 27.6502 31.4978C27.7483 31.3506 27.8485 31.204 27.9405 31.052C29.5026 28.4663 30.4782 25.6836 30.7105 22.6446C30.8325 21.0536 30.7589 19.4816 30.3447 17.9355C29.8099 15.9395 28.8275 14.2345 27.1883 12.9638C26.5997 12.5071 25.9675 12.1049 25.4 11.6229C24.9231 11.2201 24.4728 10.8397 23.8133 10.8431C23.7678 10.8454 23.7224 10.8373 23.6806 10.8193C23.6388 10.8013 23.6016 10.7739 23.5721 10.7392C23.5425 10.7046 23.5213 10.6636 23.5101 10.6194C23.4989 10.5752 23.498 10.5291 23.5074 10.4845C23.6314 9.97597 23.8072 9.48173 23.9625 8.98137L24.0817 8.99364C24.1071 9.07426 24.1246 9.15713 24.1342 9.2411C24.1403 9.54854 24.1383 9.85462 24.1342 10.1634C24.1342 10.3454 24.1151 10.5452 24.3495 10.5881C24.5838 10.6311 24.8264 10.6181 24.9483 10.3475C25.0335 10.1593 25.0921 9.9562 25.1949 9.77895C25.3127 9.59711 25.441 9.4223 25.5792 9.25541L25.7154 9.30449C25.7102 9.49837 25.6943 9.69182 25.6677 9.88394C25.6194 10.1396 25.5315 10.3877 25.4811 10.6427C25.4422 10.8322 25.4375 11.0319 25.6657 11.1144C25.8939 11.1969 26.0383 11.0694 26.1569 10.8935C26.3545 10.599 26.5391 10.295 26.753 10.0135C26.8211 9.92484 26.9649 9.89689 27.0739 9.84099C27.0739 9.96779 27.1011 10.1069 27.0603 10.2193C26.9179 10.6065 26.7435 10.9808 26.5956 11.3659C26.5077 11.5957 26.6563 11.7388 26.8232 11.8547C26.9901 11.9706 27.1338 11.9038 27.2571 11.762C27.4513 11.5398 27.6414 11.3128 27.8471 11.1014C27.9909 10.9535 28.1578 10.8288 28.3145 10.6924L28.4187 10.7695C28.2143 11.1785 28.0208 11.5875 27.8056 11.989C27.6993 12.1833 27.6182 12.3517 27.7695 12.5582C28.0168 12.8991 28.2211 12.9039 28.5311 12.6121C28.9085 12.2556 29.3071 11.9147 29.6975 11.5739L29.8228 11.687C29.6586 11.9318 29.4897 12.1738 29.3309 12.4226C29.1361 12.728 28.9365 13.0313 28.7696 13.3517C28.7321 13.4233 28.788 13.5958 28.8568 13.6639C29.023 13.8296 29.2158 13.8828 29.4188 13.6844C29.5341 13.5773 29.6628 13.4856 29.8017 13.4117C30.1362 13.2243 30.4775 13.0491 30.8161 12.8664L30.8679 12.9488C30.793 13.0618 30.7108 13.1697 30.6219 13.272C30.3467 13.5528 30.0663 13.8287 29.7806 14.0996C29.4733 14.3913 29.4747 14.6108 29.7976 14.8856C30.019 15.0744 30.2472 15.0144 30.4789 14.9094C30.9755 14.6851 31.4742 14.4649 31.9722 14.2434L32.0404 14.3368C31.8966 14.4861 31.7678 14.6551 31.6064 14.7806C31.2814 15.0328 30.9326 15.2537 30.6049 15.5025C30.3801 15.6729 30.3815 15.8979 30.5027 16.1392C30.6063 16.3437 30.7521 16.4944 30.9871 16.4207C31.4402 16.2789 31.8864 16.116 32.3313 15.949C32.5316 15.874 32.7039 15.8631 32.8913 16.0778C32.6392 16.2033 32.4082 16.3246 32.1725 16.4344C31.8632 16.5782 31.5485 16.707 31.2405 16.8536C31.1564 16.8855 31.0859 16.9458 31.0413 17.024C30.9966 17.1023 30.9806 17.1936 30.996 17.2824C31.0491 17.6976 31.2719 17.8884 31.6827 17.8578C31.7896 17.8503 31.8959 17.8346 32.0015 17.8169C32.4362 17.7439 32.8415 17.7971 33.0916 17.9709C32.9614 18.033 32.8429 18.1004 32.7169 18.1482C32.4798 18.2368 32.24 18.3227 31.9988 18.3936C31.5764 18.517 31.4184 18.7453 31.4756 19.1789C31.5062 19.4086 31.6193 19.5313 31.8646 19.5252C32.2257 19.5156 32.5874 19.5116 32.9478 19.5252C33.1263 19.5327 33.3028 19.5934 33.4806 19.6247V19.7004C33.0398 19.8026 32.5997 19.9049 32.1582 20.0071C31.9334 20.0583 31.714 20.1026 31.699 20.408C31.682 20.7577 31.7876 20.9533 32.0996 21.0386C32.3333 21.0999 32.5765 21.1067 32.8163 21.1565C33.0316 21.2001 33.2421 21.2662 33.454 21.3221L33.4315 21.4142C33.1951 21.4585 32.9587 21.5055 32.7209 21.5505C32.4716 21.5935 32.2216 21.6344 31.9715 21.6712C31.6309 21.7209 31.4722 21.8832 31.4769 22.1818C31.4803 22.4653 31.5893 22.5628 31.9668 22.5853C32.4346 22.6024 32.8814 22.7842 33.2285 23.0986H32.0431C31.905 23.0912 31.768 23.1265 31.6506 23.1997C31.5332 23.2728 31.4412 23.3804 31.387 23.5077C31.2385 23.8206 31.2569 23.9167 31.5757 24.0619C31.8946 24.2071 32.2488 24.3162 32.5792 24.4586C32.6719 24.4982 32.738 24.6018 32.8163 24.6754C32.7087 24.7211 32.6004 24.8036 32.492 24.8049C32.1609 24.8049 31.8298 24.7702 31.4987 24.7647C31.1479 24.7586 31.0035 24.8854 30.981 25.1874C30.9585 25.4894 31.0695 25.5718 31.4143 25.6611C31.8053 25.7634 32.1848 25.912 32.5724 26.0409L32.5445 26.1683C32.0492 26.1683 31.5546 26.1738 31.0593 26.1683C30.797 26.1642 30.7037 26.2508 30.7071 26.5146C30.7105 26.7784 30.906 26.8555 31.0845 26.9543C31.3729 27.1166 31.6604 27.2795 31.947 27.4431C31.9368 27.4772 31.9259 27.5113 31.915 27.546C31.5492 27.5201 31.1833 27.4779 30.8175 27.4779C30.6867 27.4779 30.4768 27.5501 30.4448 27.6415C30.4258 27.7168 30.424 27.7955 30.4396 27.8716C30.4551 27.9477 30.4877 28.0194 30.5347 28.0812C30.671 28.2271 30.8842 28.2918 31.0484 28.4138C31.2027 28.5391 31.3505 28.6722 31.4912 28.8126L31.4381 28.9347C31.268 28.9095 31.0993 28.8756 30.9326 28.8331C30.6921 28.7601 30.4557 28.6681 30.222 28.5788C30.0769 28.5236 29.9379 28.4779 29.8494 28.6633C29.7608 28.8488 29.7704 29.0192 29.927 29.1473C30.0615 29.2445 30.2029 29.3315 30.3501 29.4078C30.6015 29.5591 30.7487 29.7629 30.703 30.0492C30.5102 29.964 30.3297 29.8815 30.1464 29.8045C29.9723 29.7243 29.7929 29.656 29.6096 29.6C29.5305 29.5789 29.3957 29.6 29.3486 29.66C29.1545 29.8938 29.2294 30.1447 29.5081 30.3649C29.6428 30.4854 29.7693 30.6147 29.8869 30.7521C29.8657 30.7855 29.8439 30.8202 29.8228 30.8509C29.6832 30.8339 29.5428 30.8236 29.4052 30.7964C29.3016 30.7701 29.1997 30.7375 29.1 30.6989C28.8411 30.6116 28.7008 30.7568 28.5781 30.9593C28.4466 31.1774 28.6394 31.2252 28.7457 31.3254C28.8677 31.4392 28.9814 31.5626 29.1 31.6805C29.5769 32.1577 30.2343 32.125 30.6669 31.6062C30.7343 31.5214 30.7973 31.4331 30.8556 31.3417C31.7719 29.9783 32.4225 28.4786 33.0262 26.9502C33.8348 24.8976 34.2136 22.7544 34.264 20.558C34.296 19.1693 34.0392 17.8059 33.6386 16.4732C32.9573 14.2073 31.7822 12.276 29.9305 10.8029C28.463 9.63512 26.8061 8.83821 25.0321 8.28467C24.5123 8.12243 23.985 7.98473 23.455 7.86202C23.1661 7.79385 23.0203 7.91178 23.0271 8.18583C23.0435 8.84435 22.9638 9.51105 23.2172 10.1518C23.3453 10.4763 23.2492 10.5984 22.9093 10.5984C22.6572 10.5984 22.4038 10.552 22.1517 10.5561C21.8383 10.5609 21.7593 10.687 21.8192 10.9965C21.8676 11.2893 21.9838 11.5667 22.1585 11.8065C22.3332 12.0464 22.5616 12.2419 22.8255 12.3776C23.0326 12.4873 23.2533 12.5869 23.4699 12.6939ZM23.1804 44.5755C24.8609 44.5755 26.5414 44.5755 28.2218 44.5755C28.3585 44.5763 28.4951 44.5674 28.6306 44.5489C29.068 44.4876 29.1531 44.3288 28.9637 43.9279C28.7137 43.3982 28.322 42.9892 27.8839 42.6163C27.2231 42.0532 26.8531 41.3409 26.8361 40.4526C26.8266 39.9434 26.6317 39.7941 26.1153 39.8002C25.2086 39.8118 24.3018 39.7927 23.3957 39.7791C22.7948 39.7702 22.1823 39.7989 21.824 40.362C21.4908 40.8855 21.014 41.2052 20.5248 41.5208C19.958 41.8869 19.3666 42.2128 18.7951 42.572C18.3359 42.8611 17.9251 43.2101 17.6478 43.6955C17.239 44.4099 17.3344 44.5762 18.1458 44.5762L23.1804 44.5755ZM25.6616 46.1912C28.3574 46.1912 31.0539 46.198 33.7497 46.1796C33.9997 46.1668 34.2388 46.073 34.4309 45.9123C34.7566 45.6397 34.619 45.1679 34.2075 45.0725C34.006 45.0297 33.8003 45.0103 33.5943 45.0145C28.3985 45.0114 23.202 45.0114 18.0048 45.0145C17.7125 45.0145 17.4134 45.0145 17.1321 45.0786C16.9533 45.129 16.8004 45.2455 16.7042 45.4045C16.6784 45.4506 16.6623 45.5016 16.6568 45.5542C16.6514 45.6069 16.6567 45.66 16.6725 45.7105C16.6884 45.761 16.7143 45.8077 16.7488 45.8478C16.7833 45.8879 16.8256 45.9205 16.8732 45.9437C17.1103 46.0596 17.3773 46.1789 17.6321 46.1809C20.3088 46.1966 22.9849 46.1905 25.6616 46.1912ZM32.0478 44.5748C32.4879 44.5748 32.9274 44.5803 33.3668 44.5748C33.736 44.5687 33.8634 44.4153 33.7354 44.069C33.6417 43.8322 33.5068 43.6138 33.3368 43.4241C32.8388 42.857 32.2311 42.4289 31.5805 42.0553C30.7384 41.5686 29.8903 41.075 29.2771 40.2992C28.8554 39.7675 28.3009 39.7996 27.7408 39.7948C27.5044 39.7948 27.4227 39.9448 27.4193 40.1902C27.4084 41.0484 27.7218 41.7417 28.356 42.3082C29.0073 42.8904 29.6627 43.4712 30.1062 44.251C30.2534 44.5094 30.515 44.5728 30.7875 44.5742C31.2078 44.5776 31.6282 44.5748 32.0478 44.5748ZM25.6228 32.3329C24.1866 32.3329 22.7505 32.3329 21.3144 32.3329C21.1786 32.3313 21.0431 32.3481 20.9118 32.3827C20.6331 32.459 20.4819 32.714 20.503 33.0221C20.5241 33.3302 20.7285 33.408 20.9888 33.4114C21.0862 33.4114 21.1836 33.4155 21.2817 33.4155C23.7343 33.4155 26.1869 33.4155 28.6394 33.4155C29.1661 33.4155 29.6947 33.4223 30.2193 33.38C30.3849 33.3671 30.6281 33.2355 30.6737 33.1026C30.6952 33.0066 30.694 32.9069 30.6704 32.8114C30.6467 32.716 30.6012 32.6273 30.5375 32.5524C30.393 32.4161 30.1396 32.3431 29.9325 32.3404C28.495 32.3247 27.0589 32.3329 25.6228 32.3329ZM25.6282 39.4662C26.6249 39.4662 27.6216 39.4826 28.6176 39.4546C28.888 39.4399 29.15 39.3554 29.3779 39.2092C29.4513 39.1624 29.5111 39.0971 29.5514 39.0199C29.5916 38.9426 29.6109 38.8562 29.6073 38.7692C29.6037 38.6822 29.5774 38.5976 29.5309 38.524C29.4845 38.4504 29.4195 38.3902 29.3425 38.3496C29.1593 38.2401 28.952 38.1773 28.7389 38.1669C26.7074 38.146 24.6756 38.1389 22.6436 38.1458C22.3728 38.1564 22.1087 38.2324 21.8737 38.3673C21.5849 38.5275 21.5331 39.0204 21.7729 39.1519C22.04 39.2971 22.3452 39.443 22.6388 39.4539C23.6341 39.4887 24.6315 39.4662 25.6282 39.4662ZM25.6527 33.9404C24.6179 33.9404 23.583 33.9342 22.5482 33.9451C22.3347 33.9462 22.123 33.9848 21.9228 34.059C21.8185 34.0961 21.7312 34.1698 21.6772 34.2665C21.6231 34.3632 21.6061 34.4762 21.6291 34.5846C21.6687 34.8232 21.7995 35.0072 22.0522 35.057C22.1576 35.0761 22.2646 35.085 22.3717 35.0836C24.3433 35.0931 26.3147 35.1013 28.2859 35.1081C28.5684 35.1064 28.8506 35.0893 29.1313 35.057C29.4311 35.0243 29.5789 34.8593 29.5905 34.5798C29.6055 34.2267 29.4849 34.0515 29.162 33.9847C29.0189 33.9554 28.8733 33.9403 28.7273 33.9397C27.7027 33.9383 26.6774 33.9404 25.6527 33.9404ZM24.5695 37.6215C25.1254 37.6215 25.6814 37.6215 26.238 37.6215C26.4601 37.6215 26.5915 37.5234 26.6024 37.2943C26.6215 36.8989 26.6494 36.5036 26.6426 36.1088C26.6372 35.768 26.5166 35.6405 26.2087 35.6364C25.1068 35.6214 24.0052 35.6135 22.9038 35.6126C22.7233 35.6126 22.5073 35.6351 22.4998 35.8975C22.4876 36.342 22.4821 36.7871 22.4896 37.2316C22.4944 37.5118 22.6579 37.627 22.9311 37.6229C23.4774 37.6147 24.0238 37.6208 24.5695 37.6208V37.6215ZM28.7593 36.674H28.7791C28.7791 36.447 28.8091 36.2145 28.7682 35.9923C28.7423 35.8525 28.6319 35.6514 28.5236 35.6201C28.2879 35.5519 28.0263 35.5601 27.7742 35.5758C27.5222 35.5914 27.3982 35.7653 27.3982 36.0182C27.3982 36.4715 27.4023 36.9248 27.4077 37.3816C27.4077 37.6406 27.5392 37.7906 27.7981 37.7981C27.9916 37.8063 28.1857 37.7981 28.3792 37.7981C28.6238 37.8049 28.7416 37.6713 28.7532 37.4422C28.7689 37.1873 28.7593 36.933 28.7593 36.6733V36.674Z" fill="white"/>
<path d="M22.6477 15.7534C22.3507 15.9483 22.0686 16.1194 21.8029 16.313C21.5263 16.5176 21.232 16.5462 20.9595 16.3696C20.8423 16.2933 20.7551 16.0901 20.7449 15.9395C20.7136 15.4105 20.7285 15.4098 21.2279 15.2823C21.2633 15.2735 21.2926 15.2414 21.4085 15.1644C21.2534 15.1411 21.1 15.1079 20.9493 15.0649C20.8198 15.0185 20.6693 14.9681 20.5896 14.8685C20.5398 14.8072 20.5657 14.6095 20.6291 14.5481C20.6924 14.4868 20.8566 14.4554 20.9697 14.4697C21.668 14.5604 22.3568 15.101 22.6477 15.7534Z" fill="white"/>
<path d="M20.3525 28.7786C20.7947 29.2857 21.1619 29.7616 21.587 30.176C21.9276 30.508 22.3405 30.7643 22.72 31.0568C22.8106 31.125 22.9196 31.1931 22.9734 31.2886C22.9891 31.3318 22.9953 31.3778 22.9914 31.4236C22.9875 31.4694 22.9737 31.5138 22.9509 31.5538C22.9243 31.5994 22.7997 31.6281 22.739 31.6069C21.649 31.2197 20.8035 30.5632 20.435 29.403C20.3771 29.2217 20.3825 29.0192 20.3525 28.7786Z" fill="white"/>
<path d="M82.793 31.5953C80.5053 31.5619 78.5623 30.3001 77.8777 28.3232C76.8612 25.3837 78.3832 22.2636 81.5102 21.5853C83.6705 21.1169 85.8649 21.678 87.2404 23.5458C89.1534 26.1431 88.233 30.5176 84.1358 31.4167C83.6964 31.5135 83.2413 31.5374 82.793 31.5953ZM82.8557 30.2612C85.0712 30.2612 86.7274 28.6477 86.7308 26.4867C86.7308 24.398 85.0603 22.7721 82.9068 22.7721C80.6532 22.7721 79.0426 24.3352 79.0385 26.5289C79.0345 28.6729 80.6586 30.2606 82.8557 30.2612Z" fill="white"/>
<path d="M105.776 31.386V21.5852C105.904 21.5798 106.015 21.5696 106.126 21.5709C107.407 21.5832 108.689 21.5627 109.968 21.6173C112.488 21.7257 114.157 23.132 114.689 25.3557C115.331 28.0341 113.695 30.6573 111.006 31.2865C110.799 31.3423 110.587 31.3747 110.372 31.3833C108.845 31.3901 107.319 31.386 105.776 31.386ZM107.207 22.7728V30.1351C108.106 30.1351 108.987 30.1419 109.864 30.1351C110.502 30.1378 111.127 29.9593 111.667 29.6204C113.102 28.6974 113.575 27.3299 113.296 25.7102C113.053 24.2534 112.12 23.299 110.716 23.0107C109.588 22.7803 108.401 22.8423 107.208 22.7728H107.207Z" fill="white"/>
<path d="M148.001 21.4918C149.364 21.577 150.715 21.5498 152.02 21.7713C153.463 22.016 154.222 23.5103 153.77 24.8819C153.56 25.52 153.076 25.8956 152.456 26.2051C152.57 26.2494 152.642 26.2848 152.719 26.3067C153.987 26.6666 154.731 27.5692 154.732 28.7533C154.732 29.9558 153.957 30.9279 152.692 31.2694C152.354 31.3622 152.006 31.413 151.656 31.4207C150.476 31.4398 149.296 31.4296 148.113 31.4296C148.074 31.425 148.035 31.417 147.998 31.4058L148.001 21.4918ZM149.436 26.9999V30.1282C150.253 30.1282 151.046 30.1623 151.835 30.1187C152.634 30.0744 153.213 29.4909 153.285 28.7553C153.319 28.3947 153.214 28.0348 152.993 27.7485C152.771 27.4622 152.449 27.2711 152.091 27.214C151.225 27.0688 150.339 27.0667 149.436 26.9999ZM149.428 22.8061V25.7838C149.982 25.8758 151.063 25.7947 151.489 25.6331C152.142 25.385 152.47 24.8417 152.411 24.1061C152.356 23.4244 152.02 23.0154 151.29 22.9138C150.689 22.8279 150.073 22.8395 149.428 22.8061Z" fill="white"/>
<path d="M141.032 26.2181C141.198 26.2692 141.326 26.306 141.452 26.3476C142.626 26.7362 143.314 27.6169 143.323 28.7335C143.331 29.8754 142.631 30.827 141.456 31.2047C141.07 31.3301 140.668 31.4001 140.262 31.4126C139.104 31.4419 137.946 31.4269 136.793 31.4283C136.739 31.4283 136.685 31.4187 136.615 31.4119V21.6159C136.647 21.5989 136.667 21.5784 136.687 21.5791C137.908 21.6098 139.146 21.528 140.347 21.7011C142.375 21.9922 142.804 23.9112 142.267 25.098C142.023 25.6379 141.559 25.9379 141.032 26.2181ZM137.998 30.1269C138.842 30.1269 139.646 30.1569 140.448 30.1181C141.175 30.0833 141.784 29.4977 141.848 28.859C141.93 28.0477 141.519 27.3558 140.709 27.2174C139.823 27.0668 138.917 27.0681 137.998 27.002V30.1269ZM137.981 22.8055V25.8152C138.723 25.8295 139.423 25.8615 140.093 25.6243C140.698 25.4103 141.061 24.8124 141.019 24.1532C140.975 23.4715 140.605 23.0168 139.892 22.9146C139.284 22.8273 138.658 22.8403 137.981 22.8055Z" fill="white"/>
<path d="M94.9053 31.4188H93.521V21.5703C93.8937 21.5703 94.2656 21.5546 94.6362 21.5703C95.4817 21.614 96.3435 21.586 97.1672 21.7482C98.3805 21.9875 99.0999 22.8683 99.2185 24.0258C99.3404 25.2147 98.8233 26.1261 97.7033 26.6967C97.6734 26.7117 97.6454 26.7301 97.5943 26.7601C98.6632 27.5502 99.2485 28.705 99.944 29.7752C100.296 30.3151 100.665 30.8428 101.062 31.4263C100.517 31.4263 100.005 31.4379 99.4951 31.4147C99.4065 31.4106 99.307 31.2695 99.243 31.172C98.6299 30.247 98.0344 29.3103 97.4097 28.3941C97.2196 28.116 96.9573 27.8869 96.7223 27.6442C96.2727 27.1739 95.6908 27.1248 95.0872 27.1412C94.8393 27.148 94.9074 27.3334 94.9074 27.4636C94.9026 28.6559 94.9074 29.8495 94.9074 31.0398L94.9053 31.4188ZM94.9251 25.9557C95.5662 25.8875 96.1889 25.8725 96.7877 25.745C97.3681 25.621 97.7578 24.9952 97.7789 24.3455C97.7901 24.0484 97.7085 23.7552 97.5455 23.5066C97.3825 23.258 97.1462 23.0664 96.8694 22.9583C96.242 22.7278 95.588 22.7585 94.9251 22.7824V25.9557Z" fill="white"/>
<path d="M132.346 31.4324C131.881 31.4324 131.473 31.4447 131.066 31.4222C130.979 31.4174 130.862 31.3029 130.82 31.2109C130.449 30.4113 130.083 29.6089 129.735 28.799C129.641 28.5816 129.53 28.4943 129.286 28.4971C128.095 28.5116 126.903 28.5116 125.712 28.4971C125.462 28.4971 125.355 28.587 125.268 28.8031C124.945 29.5994 124.602 30.3867 124.279 31.1816C124.205 31.3643 124.113 31.4474 123.906 31.4379C123.533 31.4202 123.156 31.4324 122.748 31.4324C122.783 31.3254 122.802 31.2436 122.835 31.1673C124.155 28.0696 125.474 24.9713 126.79 21.8723C126.901 21.6085 127.036 21.5478 127.307 21.5178C127.807 21.4626 128.026 21.6603 128.223 22.1102C129.538 25.1247 130.887 28.1242 132.224 31.1291C132.258 31.2068 132.289 31.292 132.346 31.4324ZM129.015 27.253L127.427 23.6938C126.921 24.9209 126.446 26.0736 125.96 27.253H129.015Z" fill="white"/>
<path d="M160.853 25.8336H164.844V27.0954H160.851V30.1733H165.123V31.4003H159.44V21.5839H164.982V22.8218H160.856L160.853 25.8336Z" fill="white"/>
<path d="M177.313 22.8219H173.872V31.4113H172.46V22.8164H169.102V21.5948H177.313V22.8219Z" fill="white"/>
<path d="M186.049 22.7987V31.4065H184.619V22.8055H181.28V21.5948H189.467V22.8008L186.049 22.7987Z" fill="white"/>
<path d="M69.3235 21.5703V30.142H73.7409V31.4113H67.9235V31.0432C67.9235 28.0151 67.9283 24.987 67.916 21.9582C67.916 21.6433 68.0025 21.5403 68.3146 21.5649C68.6388 21.5901 68.9665 21.5703 69.3235 21.5703Z" fill="white"/>
<path d="M196 23.0413C196 23.3139 195.946 23.5837 195.84 23.835C195.734 24.0862 195.58 24.3138 195.385 24.5043C195.19 24.6948 194.959 24.8445 194.706 24.9445C194.452 25.0444 194.181 25.0927 193.909 25.0864C192.762 25.0721 191.877 24.1436 191.892 22.9732C191.9 22.4347 192.121 21.9213 192.505 21.5444C192.889 21.1675 193.407 20.9575 193.945 20.9601C194.217 20.9596 194.487 21.0133 194.738 21.1181C194.989 21.2228 195.217 21.3765 195.408 21.5702C195.599 21.7639 195.75 21.9937 195.852 22.2462C195.953 22.4988 196.004 22.7691 196 23.0413ZM195.648 23.0236C195.735 22.2887 195.054 21.3037 193.937 21.2894C193.004 21.2771 192.218 22.1013 192.226 23.0379C192.23 23.4896 192.411 23.9217 192.73 24.2407C193.05 24.5597 193.482 24.7398 193.934 24.7422C194.16 24.745 194.384 24.7026 194.593 24.6173C194.802 24.5321 194.993 24.4058 195.152 24.2459C195.312 24.086 195.438 23.8957 195.524 23.6863C195.609 23.4768 195.651 23.2524 195.648 23.0263V23.0236Z" fill="white"/>
<path d="M193.143 21.8961C193.574 21.9166 193.986 21.8961 194.379 21.9725C194.547 22.0052 194.749 22.2186 194.799 22.389C194.844 22.5451 194.731 22.7701 194.638 22.9343C194.579 23.0366 194.425 23.0843 194.328 23.1464L194.972 24.0885C194.64 24.2166 194.491 24.0673 194.359 23.8199C194.184 23.4831 194.031 23.0898 193.48 23.2063V24.115H193.139L193.143 21.8961ZM193.492 22.2261V22.9037C193.723 22.8866 193.944 22.9091 194.137 22.8437C194.262 22.8007 194.341 22.631 194.444 22.5178C194.327 22.421 194.224 22.2745 194.092 22.2383C193.914 22.1892 193.713 22.2261 193.492 22.2261Z" fill="white"/>
</g>
<defs>
<clipPath id="clip0_2342_933">
<rect width="196" height="54" fill="white"/>
</clipPath>
</defs>
</svg>
