<svg enable-background="new 0 0 296.1 13.6" viewBox="0 0 296.1 13.6" xmlns="http://www.w3.org/2000/svg" xmlns:xlink="http://www.w3.org/1999/xlink"><mask id="a" height="11.2" maskUnits="userSpaceOnUse" width="244.1" x="26" y="1.2"><circle clip-rule="evenodd" cx="31.8" cy="6.4" fill="url(#b)" fill-rule="evenodd" r="232.1"/></mask><radialGradient id="b" cx="31.8365" cy="6.431" gradientUnits="userSpaceOnUse" r="232.1132"><stop offset=".4327" stop-color="#fff"/><stop offset=".974"/></radialGradient><mask id="c" height="11.2" maskUnits="userSpaceOnUse" width="244.1" x="26" y="1.2"><circle clip-rule="evenodd" cx="31.8" cy="6.4" fill="url(#d)" fill-rule="evenodd" r="46.6"/></mask><radialGradient id="d" cx="31.8365" cy="6.431" gradientUnits="userSpaceOnUse" r="46.5909"><stop offset="0" stop-color="#fff"/><stop offset=".974"/></radialGradient><g fill="#bf924d"><path d="m264.5 2.4c2.4 0 4.4 2 4.4 4.4s-2 4.4-4.4 4.4c-1 0-1.9-.3-2.6-.9-.4-.3-.8-.7-1.3-1.1-1-.9-2.2-1.8-3.4-2.4 1.3-.6 2.4-1.6 3.4-2.4.5-.4.9-.7 1.3-1.1.7-.5 1.6-.9 2.6-.9m-38.8 0c1 0 1.9.3 2.6.9.4.3.8.7 1.3 1.1 1 .9 2.2 1.8 3.4 2.4-1.3.6-2.4 1.6-3.4 2.4-.5.4-.9.7-1.3 1.1-.8.6-1.7.9-2.6.9-1 0-1.9-.3-2.6-.9-.4-.3-.8-.7-1.3-1.1-1-.9-2.2-1.8-3.4-2.4 1.3-.6 2.4-1.6 3.4-2.4.5-.4.9-.7 1.3-1.1.7-.5 1.6-.9 2.6-.9m-38.8 0c1 0 1.9.3 2.6.9.4.3.8.7 1.3 1.1 1 .9 2.2 1.8 3.4 2.4-1.3.6-2.4 1.6-3.4 2.4-.5.4-.9.7-1.3 1.1-.8.6-1.7.9-2.6.9s-1.9-.3-2.6-.9c-.4-.3-.8-.7-1.3-1.1-1-.9-2.2-1.8-3.4-2.4 1.3-.6 2.4-1.6 3.4-2.4.5-.4.9-.7 1.3-1.1.7-.5 1.6-.9 2.6-.9m-38.8 0c1 0 1.9.3 2.6.9.4.3.8.7 1.3 1.1 1 .9 2.2 1.8 3.4 2.4-1.3.6-2.4 1.6-3.4 2.4-.5.4-.9.7-1.3 1.1-.8.6-1.7.9-2.6.9-1 0-1.9-.3-2.6-.9-.4-.3-.8-.7-1.3-1.1-1-.9-2.2-1.8-3.4-2.4 1.3-.6 2.4-1.6 3.4-2.4.5-.4.9-.7 1.3-1.1.7-.5 1.6-.9 2.6-.9m-38.9 0c1 0 1.9.3 2.6.9.4.3.8.7 1.3 1.1 1 .9 2.2 1.8 3.4 2.4-1.3.6-2.4 1.6-3.4 2.4-.5.4-.9.7-1.3 1.1-.8.6-1.7.9-2.6.9s-1.9-.3-2.6-.9c-.4-.3-.8-.7-1.3-1.1-1-.9-2.2-1.8-3.4-2.4 1.3-.6 2.4-1.6 3.4-2.4.5-.4.9-.7 1.3-1.1.8-.5 1.7-.9 2.6-.9m-38.8 0c1 0 1.9.3 2.6.9.4.3.8.7 1.3 1.1 1 .9 2.2 1.8 3.4 2.4-1.3.6-2.4 1.6-3.4 2.4-.5.4-.9.7-1.3 1.1-.8.6-1.7.9-2.6.9-1 0-1.9-.3-2.6-.9-.4-.3-.8-.7-1.3-1.1-1-.9-2.2-1.8-3.4-2.4 1.3-.6 2.4-1.6 3.4-2.4.5-.4.9-.7 1.3-1.1.8-.5 1.7-.9 2.6-.9m-38.8 0c1 0 1.9.3 2.6.9.4.3.8.7 1.3 1.1 1 .9 2.2 1.8 3.4 2.4-1.3.6-2.4 1.6-3.4 2.4-.5.4-.9.7-1.3 1.1-.8.6-1.7.9-2.6.9-2.4 0-4.4-2-4.4-4.4s2-4.4 4.4-4.4m232.9-1.2c-1.3 0-2.5.4-3.4 1.1-2.1 1.6-4.2 4-6.9 4h-18.3c-2.6 0-4.8-2.4-6.9-4-.9-.7-2.1-1.1-3.4-1.1s-2.5.4-3.4 1.1c-2.1 1.6-4.2 4-6.9 4h-18.3c-2.6 0-4.8-2.4-6.9-4-.9-.7-2.1-1.1-3.4-1.1s-2.5.4-3.4 1.1c-2.1 1.6-4.2 4-6.9 4h-18.3c-2.6 0-4.8-2.4-6.9-4-.9-.7-2.1-1.1-3.4-1.1s-2.5.4-3.4 1.1c-2.1 1.6-4.2 4-6.9 4h-18.3c-2.6 0-4.8-2.4-6.9-4-.9-.7-2.1-1.1-3.4-1.1s-2.5.4-3.4 1.1c-2.1 1.6-4.2 4-6.9 4h-17.9c-2.6 0-4.8-2.4-6.9-4-.9-.7-2.1-1.1-3.4-1.1s-2.5.4-3.4 1.1c-2.1 1.6-4.2 4-6.9 4h-18.2c-2.6 0-4.8-2.4-6.9-4-.9-.7-2.1-1.1-3.4-1.1-3.1 0-5.6 2.5-5.6 5.6s2.5 5.6 5.6 5.6c1.3 0 2.5-.4 3.4-1.1 2.1-1.6 4.2-4 6.9-4h18.3c2.6 0 4.8 2.4 6.9 4 .9.7 2.1 1.1 3.4 1.1s2.5-.4 3.4-1.1c2.1-1.6 4.2-4 6.9-4h18.2c2.6 0 4.8 2.4 6.9 4 .9.7 2.1 1.1 3.4 1.1s2.5-.4 3.4-1.1c2.1-1.6 4.2-4 6.9-4h18.3c2.6 0 4.8 2.4 6.9 4 .9.7 2.1 1.1 3.4 1.1s2.5-.4 3.4-1.1c2.1-1.6 4.2-4 6.9-4h18.3c2.6 0 4.8 2.4 6.9 4 .9.7 2.1 1.1 3.4 1.1s2.5-.4 3.4-1.1c2.1-1.6 4.2-4 6.9-4h18.3c2.6 0 4.8 2.4 6.9 4 .9.7 2.1 1.1 3.4 1.1s2.5-.4 3.4-1.1c2.1-1.6 4.2-4 6.9-4h18.3c2.6 0 4.8 2.4 6.9 4 .9.7 2.1 1.1 3.4 1.1 3.1 0 5.6-2.5 5.6-5.6s-2.9-5.6-6-5.6z" opacity=".2"/><path d="m264.5 2.2c2.5 0 4.6 2.1 4.6 4.6s-2.1 4.6-4.6 4.6c-1 0-2-.3-2.8-.9-.4-.3-.9-.7-1.3-1.1-1.2-1-2.4-2-3.8-2.6 1.4-.6 2.7-1.7 3.8-2.6.5-.4.9-.7 1.3-1.1.8-.6 1.8-.9 2.8-.9m-38.8 0c1 0 2 .3 2.8.9.4.3.9.7 1.3 1.1 1.2 1 2.4 2 3.8 2.6-1.4.6-2.7 1.7-3.8 2.6-.5.4-.9.7-1.3 1.1-.8.6-1.8.9-2.8.9s-2-.3-2.8-.9c-.4-.3-.9-.7-1.3-1.1-1.2-1-2.4-2-3.8-2.6 1.4-.6 2.7-1.7 3.8-2.6.5-.4.9-.7 1.3-1.1.8-.6 1.8-.9 2.8-.9m-38.8 0c1 0 2 .3 2.8.9.4.3.9.7 1.3 1.1 1.2 1 2.4 2 3.8 2.6-1.4.6-2.7 1.7-3.8 2.6-.5.4-.9.7-1.3 1.1-.8.6-1.8.9-2.8.9s-2-.3-2.8-.9c-.4-.3-.9-.7-1.3-1.1-1.2-1-2.4-2-3.8-2.6 1.4-.6 2.7-1.7 3.8-2.6.5-.4.9-.7 1.3-1.1.8-.6 1.7-.9 2.8-.9m-38.8 0c1 0 2 .3 2.8.9.4.3.9.7 1.3 1.1 1.2 1 2.4 2 3.8 2.6-1.4.6-2.7 1.7-3.8 2.6-.5.4-.9.7-1.3 1.1-.8.6-1.8.9-2.8.9s-2-.3-2.8-.9c-.4-.3-.9-.7-1.3-1.1-1.2-1-2.4-2-3.8-2.6 1.4-.6 2.7-1.7 3.8-2.6.5-.4.9-.7 1.3-1.1.8-.6 1.7-.9 2.8-.9m-38.9 0c1 0 2 .3 2.8.9.4.3.9.7 1.3 1.1 1.2 1 2.4 2 3.8 2.6-1.4.6-2.7 1.7-3.8 2.6-.5.4-.9.7-1.3 1.1-.8.6-1.8.9-2.8.9s-2-.3-2.8-.9c-.4-.3-.9-.7-1.3-1.1-1.2-1-2.4-2-3.8-2.6 1.4-.6 2.7-1.7 3.8-2.6.5-.4.9-.7 1.3-1.1.9-.6 1.8-.9 2.8-.9m-38.8 0c1 0 2 .3 2.8.9.4.3.9.7 1.3 1.1 1.2 1 2.4 2 3.8 2.6-1.4.6-2.7 1.7-3.8 2.6-.5.4-.9.7-1.3 1.1-.8.6-1.8.9-2.8.9s-2-.3-2.8-.9c-.4-.3-.9-.7-1.3-1.1-1.2-1-2.4-2-3.8-2.6 1.4-.6 2.7-1.7 3.8-2.6.5-.4.9-.7 1.3-1.1.9-.6 1.8-.9 2.8-.9m-38.8 0c1 0 2 .3 2.8.9.4.3.9.7 1.3 1.1 1.2 1 2.4 2 3.8 2.6-1.4.6-2.7 1.7-3.8 2.6-.5.4-.9.7-1.3 1.1-.8.6-1.8.9-2.8.9-2.5 0-4.6-2.1-4.6-4.6s2.1-4.6 4.6-4.6m232.9-1c-1.3 0-2.5.4-3.4 1.1-2.1 1.6-4.2 4-6.9 4h-18.3c-2.6 0-4.8-2.4-6.9-4-.9-.7-2.1-1.1-3.4-1.1s-2.5.4-3.4 1.1c-2.1 1.6-4.2 4-6.9 4h-18.3c-2.6 0-4.8-2.4-6.9-4-.9-.7-2.1-1.1-3.4-1.1s-2.5.4-3.4 1.1c-2.1 1.6-4.2 4-6.9 4h-18.3c-2.6 0-4.8-2.4-6.9-4-.9-.7-2.1-1.1-3.4-1.1s-2.5.4-3.4 1.1c-2.1 1.6-4.2 4-6.9 4h-18.3c-2.6 0-4.8-2.4-6.9-4-.9-.7-2.1-1.1-3.4-1.1s-2.5.4-3.4 1.1c-2.1 1.6-4.2 4-6.9 4h-17.9c-2.6 0-4.8-2.4-6.9-4-.9-.7-2.1-1.1-3.4-1.1s-2.5.4-3.4 1.1c-2.1 1.6-4.2 4-6.9 4h-18.2c-2.6 0-4.8-2.4-6.9-4-.9-.7-2.1-1.1-3.4-1.1-3.1 0-5.6 2.5-5.6 5.6s2.5 5.6 5.6 5.6c1.3 0 2.5-.4 3.4-1.1 2.1-1.6 4.2-4 6.9-4h18.3c2.6 0 4.8 2.4 6.9 4 .9.7 2.1 1.1 3.4 1.1s2.5-.4 3.4-1.1c2.1-1.6 4.2-4 6.9-4h18.2c2.6 0 4.8 2.4 6.9 4 .9.7 2.1 1.1 3.4 1.1s2.5-.4 3.4-1.1c2.1-1.6 4.2-4 6.9-4h18.3c2.6 0 4.8 2.4 6.9 4 .9.7 2.1 1.1 3.4 1.1s2.5-.4 3.4-1.1c2.1-1.6 4.2-4 6.9-4h18.3c2.6 0 4.8 2.4 6.9 4 .9.7 2.1 1.1 3.4 1.1s2.5-.4 3.4-1.1c2.1-1.6 4.2-4 6.9-4h18.3c2.6 0 4.8 2.4 6.9 4 .9.7 2.1 1.1 3.4 1.1s2.5-.4 3.4-1.1c2.1-1.6 4.2-4 6.9-4h18.3c2.6 0 4.8 2.4 6.9 4 .9.7 2.1 1.1 3.4 1.1 3.1 0 5.6-2.5 5.6-5.6s-2.9-5.6-6-5.6z" opacity=".2"/><path d="m264.5 1.9c2.7 0 4.9 2.2 4.9 4.9s-2.2 4.9-4.9 4.9c-1.1 0-2.1-.3-2.9-1-.4-.3-.9-.7-1.3-1.1-1.3-1.1-2.8-2.3-4.4-2.8 1.7-.5 3.1-1.7 4.4-2.8.5-.4.9-.7 1.3-1.1.8-.6 1.8-1 2.9-1m-38.8 0c1.1 0 2.1.3 2.9 1 .4.3.9.7 1.3 1.1 1.3 1.1 2.8 2.3 4.4 2.8-1.7.5-3.1 1.7-4.4 2.8-.5.4-.9.7-1.3 1.1-.9.6-1.9 1-2.9 1-1.1 0-2.1-.3-2.9-1-.4-.3-.9-.7-1.3-1.1-1.3-1.1-2.8-2.3-4.4-2.8 1.7-.5 3.1-1.7 4.4-2.8.5-.4.9-.7 1.3-1.1.8-.6 1.8-1 2.9-1m-38.8 0c1.1 0 2.1.3 2.9 1 .4.3.9.7 1.3 1.1 1.3 1.1 2.8 2.3 4.4 2.8-1.7.5-3.1 1.7-4.4 2.8-.5.4-.9.7-1.3 1.1-.9.6-1.9 1-2.9 1s-2.1-.3-2.9-1c-.4-.3-.9-.7-1.3-1.1-1.3-1.1-2.8-2.3-4.4-2.8 1.7-.5 3.1-1.7 4.4-2.8.5-.4.9-.7 1.3-1.1.8-.6 1.8-1 2.9-1m-38.8 0c1.1 0 2.1.3 2.9 1 .4.3.9.7 1.3 1.1 1.3 1.1 2.8 2.3 4.4 2.8-1.7.5-3.1 1.7-4.4 2.8-.5.4-.9.7-1.3 1.1-.9.6-1.9 1-2.9 1-1.1 0-2.1-.3-2.9-1-.4-.3-.9-.7-1.3-1.1-1.3-1.1-2.8-2.3-4.4-2.8 1.7-.5 3.1-1.7 4.4-2.8.5-.4.9-.7 1.3-1.1.8-.6 1.8-1 2.9-1m-38.9 0c1.1 0 2.1.3 2.9 1 .4.3.9.7 1.3 1.1 1.3 1.1 2.8 2.3 4.4 2.8-1.7.5-3.1 1.7-4.4 2.8-.5.4-.9.7-1.3 1.1-.9.6-1.9 1-2.9 1s-2.1-.3-2.9-1c-.4-.3-.9-.7-1.3-1.1-1.3-1.1-2.8-2.3-4.4-2.8 1.7-.5 3.1-1.7 4.4-2.8.5-.4.9-.7 1.3-1.1.9-.6 1.9-1 2.9-1m-38.8 0c1.1 0 2.1.3 2.9 1 .4.3.9.7 1.3 1.1 1.3 1.1 2.8 2.3 4.4 2.8-1.7.5-3.1 1.7-4.4 2.8-.5.4-.9.7-1.3 1.1-.9.6-1.9 1-2.9 1s-2.1-.3-2.9-1c-.4-.3-.9-.7-1.3-1.1-1.3-1.1-2.8-2.3-4.4-2.8 1.7-.5 3.1-1.7 4.4-2.8.5-.4.9-.7 1.3-1.1.9-.6 1.9-1 2.9-1m-38.8 0c1.1 0 2.1.3 2.9 1 .5.4.9.7 1.4 1.1 1.3 1.1 2.8 2.3 4.4 2.8-1.7.5-3.1 1.7-4.4 2.8-.5.4-.9.7-1.3 1.1-.9.6-1.9 1-2.9 1-2.7 0-4.9-2.2-4.9-4.9s2.2-4.9 4.8-4.9m232.9-.7c-1.3 0-2.5.4-3.4 1.1-2.1 1.6-4.2 4-6.9 4h-18.3c-2.6 0-4.8-2.4-6.9-4-.9-.7-2.1-1.1-3.4-1.1s-2.5.4-3.4 1.1c-2.1 1.6-4.2 4-6.9 4h-18.3c-2.6 0-4.8-2.4-6.9-4-.9-.7-2.1-1.1-3.4-1.1s-2.5.4-3.4 1.1c-2.1 1.6-4.2 4-6.9 4h-18.3c-2.6 0-4.8-2.4-6.9-4-.9-.7-2.1-1.1-3.4-1.1s-2.5.4-3.4 1.1c-2.1 1.6-4.2 4-6.9 4h-18.3c-2.6 0-4.8-2.4-6.9-4-.9-.7-2.1-1.1-3.4-1.1s-2.5.4-3.4 1.1c-2.1 1.6-4.2 4-6.9 4h-17.9c-2.6 0-4.8-2.4-6.9-4-.9-.7-2.1-1.1-3.4-1.1s-2.5.4-3.4 1.1c-2.1 1.6-4.2 4-6.9 4h-18.2c-2.6 0-4.8-2.4-6.9-4-.9-.7-2.1-1.1-3.4-1.1-3.1 0-5.6 2.5-5.6 5.6s2.5 5.6 5.6 5.6c1.3 0 2.5-.4 3.4-1.1 2.1-1.6 4.2-4 6.9-4h18.3c2.6 0 4.8 2.4 6.9 4 .9.7 2.1 1.1 3.4 1.1s2.5-.4 3.4-1.1c2.1-1.6 4.2-4 6.9-4h18.2c2.6 0 4.8 2.4 6.9 4 .9.7 2.1 1.1 3.4 1.1s2.5-.4 3.4-1.1c2.1-1.6 4.2-4 6.9-4h18.3c2.6 0 4.8 2.4 6.9 4 .9.7 2.1 1.1 3.4 1.1s2.5-.4 3.4-1.1c2.1-1.6 4.2-4 6.9-4h18.3c2.6 0 4.8 2.4 6.9 4 .9.7 2.1 1.1 3.4 1.1s2.5-.4 3.4-1.1c2.1-1.6 4.2-4 6.9-4h18.3c2.6 0 4.8 2.4 6.9 4 .9.7 2.1 1.1 3.4 1.1s2.5-.4 3.4-1.1c2.1-1.6 4.2-4 6.9-4h18.3c2.6 0 4.8 2.4 6.9 4 .9.7 2.1 1.1 3.4 1.1 3.1 0 5.6-2.5 5.6-5.6s-2.9-5.6-6-5.6z" opacity=".2"/><path d="m264.5 1.7c2.8 0 5.1 2.3 5.1 5.1s-2.3 5.1-5.1 5.1c-1.1 0-2.2-.4-3.1-1-.4-.3-.9-.7-1.3-1.1-1.8-1.5-3.6-3-5.8-3h-18.3c-2.3 0-4.1 1.5-5.8 3-.5.4-.9.7-1.3 1.1-.9.7-2 1-3.1 1s-2.2-.4-3.1-1c-.4-.3-.9-.7-1.3-1.1-1.8-1.5-3.6-3-5.8-3h-18.3c-2.3 0-4.1 1.5-5.8 3-.5.4-.9.7-1.3 1.1-.9.7-2 1-3.1 1s-2.2-.4-3.1-1c-.4-.3-.9-.7-1.3-1.1-1.8-1.5-3.6-3-5.8-3h-18.3c-2.3 0-4.1 1.5-5.8 3-.5.4-.9.7-1.3 1.1-.9.7-2 1-3.1 1s-2.2-.4-3.1-1c-.4-.3-.9-.7-1.3-1.1-1.8-1.5-3.6-3-5.8-3h-18.3c-2.3 0-4.1 1.5-5.8 3-.5.4-.9.7-1.3 1.1-.9.7-2 1-3.1 1s-2.2-.4-3.1-1c-.4-.3-.9-.7-1.3-1.1-1.8-1.5-3.6-3-5.8-3h-18.8c-2.3 0-4.1 1.5-5.8 3-.5.4-.9.7-1.3 1.1-.9.7-2 1-3.1 1s-2.2-.4-3.1-1c-.4-.3-.9-.7-1.3-1.1-1.8-1.5-3.6-3-5.8-3h-18.4c-2.3 0-4.1 1.5-5.8 3-.5.4-.9.7-1.3 1.1-.9.7-2 1-3.1 1-2.8 0-5.1-2.3-5.1-5.1s2.3-5.1 5.1-5.1c1.1 0 2.2.4 3.1 1 .4.3.9.7 1.3 1.1 1.8 1.5 3.6 3 5.8 3h18.3c2.3 0 4.1-1.5 5.8-3 .5-.4.9-.7 1.3-1.1.9-.7 2-1 3.1-1s2.2.4 3.1 1c.4.3.9.7 1.3 1.1 1.8 1.5 3.6 3 5.8 3h18.4c2.3 0 4.1-1.5 5.8-3 .5-.4.9-.7 1.3-1.1.9-.7 2-1 3.1-1s2.2.4 3.1 1c.4.3.9.7 1.3 1.1 1.8 1.5 3.6 3 5.8 3h18.3c2.3 0 4.1-1.5 5.8-3 .5-.4.9-.7 1.3-1.1.9-.7 2-1 3.1-1s2.2.4 3.1 1c.4.3.9.7 1.3 1.1 1.8 1.5 3.6 3 5.8 3h18.3c2.3 0 4.1-1.5 5.8-3 .5-.4.9-.7 1.3-1.1.9-.7 2-1 3.1-1s2.2.4 3.1 1c.4.3.9.7 1.3 1.1 1.8 1.5 3.6 3 5.8 3h18.3c2.3 0 4.1-1.5 5.8-3 .5-.4.9-.7 1.3-1.1.9-.7 2-1 3.1-1s2.2.4 3.1 1c.4.3.9.7 1.3 1.1 1.8 1.5 3.6 3 5.8 3h18.3c2.3 0 4.1-1.5 5.8-3 .5-.4.9-.7 1.3-1.1 1.4-.6 2.4-1 3.6-1m0-.5c-1.3 0-2.5.4-3.4 1.1-2.1 1.6-4.2 4-6.9 4h-18.3c-2.6 0-4.8-2.4-6.9-4-.9-.7-2.1-1.1-3.4-1.1s-2.5.4-3.4 1.1c-2.1 1.6-4.2 4-6.9 4h-18.3c-2.6 0-4.8-2.4-6.9-4-.9-.7-2.1-1.1-3.4-1.1s-2.5.4-3.4 1.1c-2.1 1.6-4.2 4-6.9 4h-18.3c-2.6 0-4.8-2.4-6.9-4-.9-.7-2.1-1.1-3.4-1.1s-2.5.4-3.4 1.1c-2.1 1.6-4.2 4-6.9 4h-18.3c-2.6 0-4.8-2.4-6.9-4-.9-.7-2.1-1.1-3.4-1.1s-2.5.4-3.4 1.1c-2.1 1.6-4.2 4-6.9 4h-17.9c-2.6 0-4.8-2.4-6.9-4-.9-.7-2.1-1.1-3.4-1.1s-2.5.4-3.4 1.1c-2.1 1.6-4.2 4-6.9 4h-18.2c-2.6 0-4.8-2.4-6.9-4-.9-.7-2.1-1.1-3.4-1.1-3.1 0-5.6 2.5-5.6 5.6s2.5 5.6 5.6 5.6c1.3 0 2.5-.4 3.4-1.1 2.1-1.6 4.2-4 6.9-4h18.3c2.6 0 4.8 2.4 6.9 4 .9.7 2.1 1.1 3.4 1.1s2.5-.4 3.4-1.1c2.1-1.6 4.2-4 6.9-4h18.2c2.6 0 4.8 2.4 6.9 4 .9.7 2.1 1.1 3.4 1.1s2.5-.4 3.4-1.1c2.1-1.6 4.2-4 6.9-4h18.3c2.6 0 4.8 2.4 6.9 4 .9.7 2.1 1.1 3.4 1.1s2.5-.4 3.4-1.1c2.1-1.6 4.2-4 6.9-4h18.3c2.6 0 4.8 2.4 6.9 4 .9.7 2.1 1.1 3.4 1.1s2.5-.4 3.4-1.1c2.1-1.6 4.2-4 6.9-4h18.3c2.6 0 4.8 2.4 6.9 4 .9.7 2.1 1.1 3.4 1.1s2.5-.4 3.4-1.1c2.1-1.6 4.2-4 6.9-4h18.3c2.6 0 4.8 2.4 6.9 4 .9.7 2.1 1.1 3.4 1.1 3.1 0 5.6-2.5 5.6-5.6s-2.9-5.6-6-5.6z" opacity=".7"/><path d="m264.5 1.4c3 0 5.4 2.4 5.4 5.4s-2.4 5.4-5.4 5.4c-1.2 0-2.3-.4-3.2-1.1-.4-.3-.9-.7-1.3-1.1-1.7-1.4-3.5-2.9-5.7-2.9h-18.3c-2.2 0-4 1.5-5.7 2.9-.5.4-.9.7-1.3 1.1-.9.7-2.1 1.1-3.2 1.1-1.2 0-2.3-.4-3.2-1.1-.4-.3-.9-.7-1.3-1.1-1.7-1.4-3.5-2.9-5.7-2.9h-18.3c-2.2 0-4 1.5-5.7 2.9-.5.4-.9.7-1.3 1.1-.9.7-2.1 1.1-3.2 1.1s-2.3-.4-3.2-1.1c-.4-.3-.9-.7-1.3-1.1-1.7-1.4-3.5-2.9-5.7-2.9h-18.3c-2.2 0-4 1.5-5.7 2.9-.5.4-.9.7-1.3 1.1-.9.7-2.1 1.1-3.2 1.1-1.2 0-2.3-.4-3.2-1.1-.4-.3-.9-.7-1.3-1.1-1.7-1.4-3.5-2.9-5.7-2.9h-18.3c-2.2 0-4 1.5-5.7 2.9-.5.4-.9.7-1.3 1.1-.9.7-2.1 1.1-3.2 1.1-1.2 0-2.3-.4-3.2-1.1-.4-.3-.9-.7-1.3-1.1-1.7-1.4-3.5-2.9-5.7-2.9h-18.8c-2.2 0-4 1.5-5.7 2.9-.5.4-.9.7-1.3 1.1-.9.7-2.1 1.1-3.2 1.1-1.2 0-2.3-.4-3.2-1.1-.4-.3-.9-.7-1.3-1.1-1.7-1.4-3.5-2.9-5.7-2.9h-18.4c-2.2 0-4 1.5-5.7 2.9-.5.4-.9.7-1.3 1.1-.9.7-2.1 1.1-3.2 1.1-3 0-5.4-2.4-5.4-5.4s2.4-5.4 5.4-5.4c1.2 0 2.3.4 3.2 1.1.4.3.9.7 1.3 1.1 1.7 1.4 3.5 2.9 5.7 2.9h18.3c2.2 0 4-1.5 5.7-2.9.5-.4.9-.7 1.3-1.1.9-.7 2.1-1.1 3.2-1.1 1.2 0 2.3.4 3.2 1.1.4.3.9.7 1.3 1.1 1.7 1.4 3.5 2.9 5.7 2.9h18.4c2.2 0 4-1.5 5.7-2.9.5-.4.9-.7 1.3-1.1.9-.7 2.1-1.1 3.2-1.1 1.2 0 2.3.4 3.2 1.1.4.3.9.7 1.3 1.1 1.7 1.4 3.5 2.9 5.7 2.9h18.3c2.2 0 4-1.5 5.7-2.9.5-.4.9-.7 1.3-1.1.9-.7 2.1-1.1 3.2-1.1s2.3.4 3.2 1.1c.4.3.9.7 1.3 1.1 1.7 1.4 3.5 2.9 5.7 2.9h18.3c2.2 0 4-1.5 5.7-2.9.5-.4.9-.7 1.3-1.1.9-.7 2.1-1.1 3.2-1.1s2.3.4 3.2 1.1c.4.3.9.7 1.3 1.1 1.7 1.4 3.5 2.9 5.7 2.9h18.3c2.2 0 4-1.5 5.7-2.9.5-.4.9-.7 1.3-1.1.9-.7 2.1-1.1 3.2-1.1 1.2 0 2.3.4 3.2 1.1.4.3.9.7 1.3 1.1 1.7 1.4 3.5 2.9 5.7 2.9h18.3c2.2 0 4-1.5 5.7-2.9.5-.4.9-.7 1.3-1.1 1.4-.7 2.5-1.1 3.7-1.1m0-.2c-1.3 0-2.5.4-3.4 1.1-2.1 1.6-4.2 4-6.9 4h-18.3c-2.6 0-4.8-2.4-6.9-4-.9-.7-2.1-1.1-3.4-1.1s-2.5.4-3.4 1.1c-2.1 1.6-4.2 4-6.9 4h-18.3c-2.6 0-4.8-2.4-6.9-4-.9-.7-2.1-1.1-3.4-1.1s-2.5.4-3.4 1.1c-2.1 1.6-4.2 4-6.9 4h-18.3c-2.6 0-4.8-2.4-6.9-4-.9-.7-2.1-1.1-3.4-1.1s-2.5.4-3.4 1.1c-2.1 1.6-4.2 4-6.9 4h-18.3c-2.6 0-4.8-2.4-6.9-4-.9-.7-2.1-1.1-3.4-1.1s-2.5.4-3.4 1.1c-2.1 1.6-4.2 4-6.9 4h-17.9c-2.6 0-4.8-2.4-6.9-4-.9-.7-2.1-1.1-3.4-1.1s-2.5.4-3.4 1.1c-2.1 1.6-4.2 4-6.9 4h-18.2c-2.6 0-4.8-2.4-6.9-4-.9-.7-2.1-1.1-3.4-1.1-3.1 0-5.6 2.5-5.6 5.6s2.5 5.6 5.6 5.6c1.3 0 2.5-.4 3.4-1.1 2.1-1.6 4.2-4 6.9-4h18.3c2.6 0 4.8 2.4 6.9 4 .9.7 2.1 1.1 3.4 1.1s2.5-.4 3.4-1.1c2.1-1.6 4.2-4 6.9-4h18.2c2.6 0 4.8 2.4 6.9 4 .9.7 2.1 1.1 3.4 1.1s2.5-.4 3.4-1.1c2.1-1.6 4.2-4 6.9-4h18.3c2.6 0 4.8 2.4 6.9 4 .9.7 2.1 1.1 3.4 1.1s2.5-.4 3.4-1.1c2.1-1.6 4.2-4 6.9-4h18.3c2.6 0 4.8 2.4 6.9 4 .9.7 2.1 1.1 3.4 1.1s2.5-.4 3.4-1.1c2.1-1.6 4.2-4 6.9-4h18.3c2.6 0 4.8 2.4 6.9 4 .9.7 2.1 1.1 3.4 1.1s2.5-.4 3.4-1.1c2.1-1.6 4.2-4 6.9-4h18.3c2.6 0 4.8 2.4 6.9 4 .9.7 2.1 1.1 3.4 1.1 3.1 0 5.6-2.5 5.6-5.6s-2.9-5.6-6-5.6z" opacity=".7"/><path d="m264.5 2.4c2.4 0 4.4 2 4.4 4.4s-2 4.4-4.4 4.4c-1 0-1.9-.3-2.6-.9-.4-.3-.8-.7-1.3-1.1-1-.9-2.2-1.8-3.4-2.4 1.3-.6 2.4-1.6 3.4-2.4.5-.4.9-.7 1.3-1.1.7-.5 1.6-.9 2.6-.9m-38.8 0c1 0 1.9.3 2.6.9.4.3.8.7 1.3 1.1 1 .9 2.2 1.8 3.4 2.4-1.3.6-2.4 1.6-3.4 2.4-.5.4-.9.7-1.3 1.1-.8.6-1.7.9-2.6.9-1 0-1.9-.3-2.6-.9-.4-.3-.8-.7-1.3-1.1-1-.9-2.2-1.8-3.4-2.4 1.3-.6 2.4-1.6 3.4-2.4.5-.4.9-.7 1.3-1.1.7-.5 1.6-.9 2.6-.9m-38.8 0c1 0 1.9.3 2.6.9.4.3.8.7 1.3 1.1 1 .9 2.2 1.8 3.4 2.4-1.3.6-2.4 1.6-3.4 2.4-.5.4-.9.7-1.3 1.1-.8.6-1.7.9-2.6.9s-1.9-.3-2.6-.9c-.4-.3-.8-.7-1.3-1.1-1-.9-2.2-1.8-3.4-2.4 1.3-.6 2.4-1.6 3.4-2.4.5-.4.9-.7 1.3-1.1.7-.5 1.6-.9 2.6-.9m-38.8 0c1 0 1.9.3 2.6.9.4.3.8.7 1.3 1.1 1 .9 2.2 1.8 3.4 2.4-1.3.6-2.4 1.6-3.4 2.4-.5.4-.9.7-1.3 1.1-.8.6-1.7.9-2.6.9-1 0-1.9-.3-2.6-.9-.4-.3-.8-.7-1.3-1.1-1-.9-2.2-1.8-3.4-2.4 1.3-.6 2.4-1.6 3.4-2.4.5-.4.9-.7 1.3-1.1.7-.5 1.6-.9 2.6-.9m-38.9 0c1 0 1.9.3 2.6.9.4.3.8.7 1.3 1.1 1 .9 2.2 1.8 3.4 2.4-1.3.6-2.4 1.6-3.4 2.4-.5.4-.9.7-1.3 1.1-.8.6-1.7.9-2.6.9s-1.9-.3-2.6-.9c-.4-.3-.8-.7-1.3-1.1-1-.9-2.2-1.8-3.4-2.4 1.3-.6 2.4-1.6 3.4-2.4.5-.4.9-.7 1.3-1.1.8-.5 1.7-.9 2.6-.9m-38.8 0c1 0 1.9.3 2.6.9.4.3.8.7 1.3 1.1 1 .9 2.2 1.8 3.4 2.4-1.3.6-2.4 1.6-3.4 2.4-.5.4-.9.7-1.3 1.1-.8.6-1.7.9-2.6.9-1 0-1.9-.3-2.6-.9-.4-.3-.8-.7-1.3-1.1-1-.9-2.2-1.8-3.4-2.4 1.3-.6 2.4-1.6 3.4-2.4.5-.4.9-.7 1.3-1.1.8-.5 1.7-.9 2.6-.9m-38.8 0c1 0 1.9.3 2.6.9.4.3.8.7 1.3 1.1 1 .9 2.2 1.8 3.4 2.4-1.3.6-2.4 1.6-3.4 2.4-.5.4-.9.7-1.3 1.1-.8.6-1.7.9-2.6.9-2.4 0-4.4-2-4.4-4.4s2-4.4 4.4-4.4m232.9-1.2c-1.3 0-2.5.4-3.4 1.1-2.1 1.6-4.2 4-6.9 4h-18.3c-2.6 0-4.8-2.4-6.9-4-.9-.7-2.1-1.1-3.4-1.1s-2.5.4-3.4 1.1c-2.1 1.6-4.2 4-6.9 4h-18.3c-2.6 0-4.8-2.4-6.9-4-.9-.7-2.1-1.1-3.4-1.1s-2.5.4-3.4 1.1c-2.1 1.6-4.2 4-6.9 4h-18.3c-2.6 0-4.8-2.4-6.9-4-.9-.7-2.1-1.1-3.4-1.1s-2.5.4-3.4 1.1c-2.1 1.6-4.2 4-6.9 4h-18.3c-2.6 0-4.8-2.4-6.9-4-.9-.7-2.1-1.1-3.4-1.1s-2.5.4-3.4 1.1c-2.1 1.6-4.2 4-6.9 4h-17.9c-2.6 0-4.8-2.4-6.9-4-.9-.7-2.1-1.1-3.4-1.1s-2.5.4-3.4 1.1c-2.1 1.6-4.2 4-6.9 4h-18.2c-2.6 0-4.8-2.4-6.9-4-.9-.7-2.1-1.1-3.4-1.1-3.1 0-5.6 2.5-5.6 5.6s2.5 5.6 5.6 5.6c1.3 0 2.5-.4 3.4-1.1 2.1-1.6 4.2-4 6.9-4h18.3c2.6 0 4.8 2.4 6.9 4 .9.7 2.1 1.1 3.4 1.1s2.5-.4 3.4-1.1c2.1-1.6 4.2-4 6.9-4h18.2c2.6 0 4.8 2.4 6.9 4 .9.7 2.1 1.1 3.4 1.1s2.5-.4 3.4-1.1c2.1-1.6 4.2-4 6.9-4h18.3c2.6 0 4.8 2.4 6.9 4 .9.7 2.1 1.1 3.4 1.1s2.5-.4 3.4-1.1c2.1-1.6 4.2-4 6.9-4h18.3c2.6 0 4.8 2.4 6.9 4 .9.7 2.1 1.1 3.4 1.1s2.5-.4 3.4-1.1c2.1-1.6 4.2-4 6.9-4h18.3c2.6 0 4.8 2.4 6.9 4 .9.7 2.1 1.1 3.4 1.1s2.5-.4 3.4-1.1c2.1-1.6 4.2-4 6.9-4h18.3c2.6 0 4.8 2.4 6.9 4 .9.7 2.1 1.1 3.4 1.1 3.1 0 5.6-2.5 5.6-5.6s-2.9-5.6-6-5.6z" opacity=".2"/></g><g mask="url(#a)"><path clip-rule="evenodd" d="m264.5 12.4c-1.3 0-2.5-.4-3.4-1.1-2.1-1.6-4.2-4-6.9-4h-18.3c-2.6 0-4.8 2.4-6.9 4-.9.7-2.1 1.1-3.4 1.1s-2.5-.4-3.4-1.1c-2.1-1.6-4.2-4-6.9-4h-18.3c-2.6 0-4.8 2.4-6.9 4-.9.7-2.1 1.1-3.4 1.1s-2.5-.4-3.4-1.1c-2.1-1.6-4.2-4-6.9-4h-18.3c-2.6 0-4.8 2.4-6.9 4-.9.7-2.1 1.1-3.4 1.1s-2.5-.4-3.4-1.1c-2.1-1.6-4.2-4-6.9-4h-18.3c-2.6 0-4.8 2.4-6.9 4-.9.7-2.1 1.1-3.4 1.1s-2.5-.4-3.4-1.1c-2.1-1.6-4.2-4-6.9-4h-17.9c-2.6 0-4.8 2.4-6.9 4-.9.7-2.1 1.1-3.4 1.1s-2.4-.4-3.4-1.1c-2.1-1.6-4.2-4-6.9-4h-18.2c-2.6 0-4.8 2.4-6.9 4-.9.7-2.1 1.1-3.4 1.1-3.1 0-5.6-2.5-5.6-5.6s2.5-5.6 5.6-5.6c1.3 0 2.5.4 3.4 1.1 2.1 1.6 4.2 4 6.9 4h18.3c2.6 0 4.8-2.4 6.9-4 .9-.7 2.1-1.1 3.4-1.1s2.5.4 3.4 1.1c2.1 1.6 4.2 4 6.9 4h18.2c2.6 0 4.8-2.4 6.9-4 .9-.7 2.1-1.1 3.4-1.1s2.5.4 3.4 1.1c2.1 1.6 4.2 4 6.9 4h18.3c2.6 0 4.8-2.4 6.9-4 .9-.7 2.1-1.1 3.4-1.1s2.5.4 3.4 1.1c2.1 1.6 4.2 4 6.9 4h18.3c2.6 0 4.8-2.4 6.9-4 .9-.7 2.1-1.1 3.4-1.1s2.5.4 3.4 1.1c2.1 1.6 4.2 4 6.9 4h18.3c2.6 0 4.8-2.4 6.9-4 .9-.7 2.1-1.1 3.4-1.1s2.5.4 3.4 1.1c2.1 1.6 4.2 4 6.9 4h18.3c2.6 0 4.8-2.4 6.9-4 .9-.7 2.1-1.1 3.4-1.1 3.1 0 5.6 2.5 5.6 5.6s-2.9 5.6-6 5.6z" fill="#bf924d" fill-rule="evenodd"/></g><g mask="url(#c)"><path clip-rule="evenodd" d="m264.5 12.4c-1.3 0-2.5-.4-3.4-1.1-2.1-1.6-4.2-4-6.9-4h-18.3c-2.6 0-4.8 2.4-6.9 4-.9.7-2.1 1.1-3.4 1.1s-2.5-.4-3.4-1.1c-2.1-1.6-4.2-4-6.9-4h-18.3c-2.6 0-4.8 2.4-6.9 4-.9.7-2.1 1.1-3.4 1.1s-2.5-.4-3.4-1.1c-2.1-1.6-4.2-4-6.9-4h-18.3c-2.6 0-4.8 2.4-6.9 4-.9.7-2.1 1.1-3.4 1.1s-2.5-.4-3.4-1.1c-2.1-1.6-4.2-4-6.9-4h-18.3c-2.6 0-4.8 2.4-6.9 4-.9.7-2.1 1.1-3.4 1.1s-2.5-.4-3.4-1.1c-2.1-1.6-4.2-4-6.9-4h-17.9c-2.6 0-4.8 2.4-6.9 4-.9.7-2.1 1.1-3.4 1.1s-2.4-.4-3.4-1.1c-2.1-1.6-4.2-4-6.9-4h-18.2c-2.6 0-4.8 2.4-6.9 4-.9.7-2.1 1.1-3.4 1.1-3.1 0-5.6-2.5-5.6-5.6s2.5-5.6 5.6-5.6c1.3 0 2.5.4 3.4 1.1 2.1 1.6 4.2 4 6.9 4h18.3c2.6 0 4.8-2.4 6.9-4 .9-.7 2.1-1.1 3.4-1.1s2.5.4 3.4 1.1c2.1 1.6 4.2 4 6.9 4h18.2c2.6 0 4.8-2.4 6.9-4 .9-.7 2.1-1.1 3.4-1.1s2.5.4 3.4 1.1c2.1 1.6 4.2 4 6.9 4h18.3c2.6 0 4.8-2.4 6.9-4 .9-.7 2.1-1.1 3.4-1.1s2.5.4 3.4 1.1c2.1 1.6 4.2 4 6.9 4h18.3c2.6 0 4.8-2.4 6.9-4 .9-.7 2.1-1.1 3.4-1.1s2.5.4 3.4 1.1c2.1 1.6 4.2 4 6.9 4h18.3c2.6 0 4.8-2.4 6.9-4 .9-.7 2.1-1.1 3.4-1.1s2.5.4 3.4 1.1c2.1 1.6 4.2 4 6.9 4h18.3c2.6 0 4.8-2.4 6.9-4 .9-.7 2.1-1.1 3.4-1.1 3.1 0 5.6 2.5 5.6 5.6s-2.9 5.6-6 5.6z" fill="#d31f11" fill-rule="evenodd"/></g></svg>