<svg width="71" height="71" viewBox="0 0 71 71" fill="none" xmlns="http://www.w3.org/2000/svg">
<g clip-path="url(#clip0_1602_1140)">
<path d="M35.5143 0.00128333C45.7794 0.00128333 56.0445 0.00128333 66.3096 0.00128333C69.2688 0.00128333 70.9677 1.71309 70.9677 4.68206C70.9677 25.1783 70.9419 45.6745 70.9975 66.172C71.0053 69.038 69.0489 71.0078 66.2281 71.0013C45.6772 70.9544 25.1263 70.9513 4.57539 70.9922C1.81158 70.9922 -0.00767311 68.9012 -0.0012035 66.3882C0.0453776 45.7839 0.0540034 25.1796 0.0246745 4.57523C0.0246745 1.76649 1.74041 0.00780091 4.52493 0.0051954C14.8556 -0.00175261 25.1854 -0.00305918 35.5143 0.00128333ZM46.523 8.49913C46.994 9.72763 46.6149 10.7854 46.2008 11.8394C45.7492 12.9897 45.3067 14.1439 44.8603 15.2956C44.322 16.683 43.7864 18.0691 43.1924 19.6025C43.0346 19.2573 42.9337 19.0501 42.8431 18.8378C41.5647 15.7537 40.2889 12.6705 39.0157 9.58822C38.7323 8.90036 38.3027 8.49653 37.5095 8.49913C33.6498 8.51216 29.79 8.49913 25.9303 8.49913C25.7634 8.50993 25.5974 8.53169 25.4334 8.56427C26.4232 9.01372 26.572 9.81491 26.5707 10.7086C26.5707 14.5083 26.5707 18.308 26.5707 22.1077C26.5707 22.264 26.5449 22.4203 26.5216 22.6835C26.365 22.4907 26.2744 22.4008 26.2072 22.2927C24.2507 19.2064 22.2853 16.115 20.3573 13.0053C19.5176 11.6505 18.463 10.4077 18.1176 8.78443C18.0904 8.65415 17.8031 8.51214 17.6349 8.50953C16.385 8.48608 15.1338 8.49392 13.8826 8.50174C13.692 8.52235 13.5034 8.55805 13.3184 8.60854C14.2242 9.61036 14.1698 10.7711 14.1737 11.9162C14.1737 13.4587 14.1737 14.9999 14.1737 16.541C14.1737 18.7557 14.1828 20.9704 14.1659 23.1851C14.1569 24.3067 13.9615 25.3594 12.8099 25.9208C12.7905 25.93 12.7996 25.999 12.7879 26.1267C13.0079 26.1488 13.2317 26.1905 13.4543 26.1931C14.2733 26.2009 15.0937 26.1931 15.9127 26.1931C17.1717 26.2061 17.5845 26.9187 16.9647 28.0169C15.9779 29.7731 14.9858 31.5257 13.9887 33.2749C13.9084 33.4143 13.7998 33.5354 13.6717 33.7126C13.5073 33.4833 13.3831 33.3126 13.2602 33.1394C12.0413 31.4302 10.8496 29.7001 9.5971 28.0157C8.07286 25.9664 8.05086 25.9821 5.52384 25.9821H3.2543C3.88315 26.4654 4.39166 26.7833 4.807 27.1923C7.12711 29.4335 9.13811 31.9779 10.7862 34.7574C11.3931 35.7892 11.7515 36.8718 11.6648 38.0964C11.6238 38.8557 11.6216 39.6166 11.6583 40.3762C11.6958 41.5812 11.6091 42.7211 10.398 43.4806C10.8826 43.5624 11.3749 43.5882 11.8653 43.5575C13.8696 43.4272 14.4933 44.6779 14.4998 46.1526C14.5179 50.126 14.5179 54.0989 14.4998 58.0715C14.4998 58.9964 14.316 59.8836 13.6522 60.6001C13.563 60.6965 13.4685 60.9349 13.5099 60.9792C13.6248 61.0943 13.7777 61.1629 13.9395 61.172C16.9582 61.1798 19.9769 61.172 22.9969 61.172C23.4627 61.172 23.7086 60.9414 23.8018 60.4959C23.9311 59.8588 24.089 59.2257 24.2197 58.5887C24.2352 58.4314 24.2352 58.273 24.2197 58.1157C23.6853 58.4362 23.226 58.9143 22.7149 58.9795C21.4468 59.1397 20.1438 59.24 18.8784 59.1215C17.7384 59.012 17.4188 58.444 17.4188 57.282C17.4188 53.7211 17.4188 50.1603 17.4188 46.5994C17.4188 45.2446 17.5482 43.9444 18.9716 43.1836C18.7776 43.1087 18.5711 43.0724 18.3634 43.0768C17.5664 43.0885 16.7693 43.1276 15.971 43.1263C14.8478 43.1263 14.4415 42.7198 14.4351 41.5994C14.4273 40.014 14.426 38.4285 14.448 36.8444C14.4591 36.5693 14.5364 36.3011 14.6731 36.0627C16.4562 32.9153 18.2547 29.7783 20.0429 26.636C20.1827 26.3898 20.2732 26.1149 20.4311 25.745C19.6832 25.745 19.0802 25.7111 18.4824 25.7528C17.437 25.827 16.9207 25.4753 16.6011 24.2247C16.5186 23.8655 16.4799 23.4976 16.4859 23.129C16.4764 19.721 16.4764 16.3126 16.4859 12.9037C16.5017 12.7285 16.5285 12.5545 16.5662 12.3826L25.1371 25.9313C24.8485 26.0212 24.6506 26.0863 24.4513 26.1449C22.3526 26.7572 20.8891 28.099 20.2085 30.173C19.21 33.1624 19.2054 36.3978 20.1956 39.39C20.9163 41.6229 22.482 43.0455 24.7864 43.5171C25.5253 43.6695 25.8656 44.0955 26.0454 44.7287C26.1792 45.1638 26.2536 45.6152 26.2667 46.0705C26.2848 50.0864 26.2848 54.1028 26.2667 58.1196C26.2667 59.0225 26.0596 59.8836 25.4321 60.5949C25.3351 60.703 25.3234 60.8893 25.2729 61.0391C25.4266 61.0963 25.5864 61.1348 25.7491 61.1538C27.0629 61.1642 28.3762 61.1642 29.6891 61.1538C29.8858 61.1384 30.0812 61.1092 30.2739 61.0665C30.1924 60.8763 30.1743 60.7603 30.107 60.6913C29.3656 59.9096 29.1806 58.9534 29.1806 57.9295C29.1806 54.0212 29.1599 50.1129 29.2026 46.2047C29.2026 45.5338 29.4303 44.8433 29.6697 44.2076C29.781 43.9131 30.1368 43.6213 30.446 43.5093C32.4374 42.7889 33.7494 41.3962 34.4106 39.4173C35.3772 36.5213 35.3759 33.5654 34.6215 30.6264C34.1143 28.6514 32.9394 27.1832 31.0063 26.4028C30.7372 26.2934 30.4603 26.2022 30.1873 26.1019C30.2236 26.0597 30.2688 26.0261 30.3196 26.0036C30.3704 25.981 30.4255 25.9701 30.481 25.9716C32.1199 25.9716 33.7589 25.9716 35.3979 25.9716C37.0916 25.9716 37.7748 26.5422 37.7994 28.2267C37.8602 32.4372 37.8589 36.649 37.846 40.8634C37.846 41.4106 37.6428 41.9655 37.4876 42.5023C37.3582 42.9647 37.0515 43.2149 36.5223 43.1536C36.0712 43.1113 35.6179 43.0969 35.165 43.1106C35.0356 43.1106 34.8389 43.1589 34.7768 43.2527C34.7147 43.3465 34.8066 43.5406 34.8919 43.6331C35.5324 44.3313 35.7459 45.1781 35.7472 46.0914C35.755 50.1082 35.755 54.125 35.7472 58.1418C35.7472 59.0537 35.5493 59.9044 34.8997 60.5988C34.8091 60.6952 34.7949 60.8593 34.7444 60.9974C34.8958 61.0495 35.0472 61.1459 35.1999 61.1472C36.5559 61.1603 37.912 61.1603 39.268 61.1472C39.3974 61.1472 39.5941 61.0978 39.6562 61.004C39.7183 60.9102 39.6393 60.7082 39.5539 60.6196C38.8772 59.9122 38.6961 59.0238 38.6805 58.1001C38.6534 56.4717 38.6805 54.8432 38.6637 53.2148C38.6637 52.7771 38.8242 52.6572 39.2331 52.669C40.9682 52.7172 42.7046 52.7419 44.5304 52.7771C44.6986 52.0814 44.903 51.2398 45.0932 50.4543H38.7789V45.1742C40.8582 45.3879 42.9388 44.7834 44.9716 45.7331C45.1372 45.0231 45.3002 44.3548 45.4452 43.6825C45.5344 43.2683 45.3662 43.0755 44.9276 43.0976C44.2172 43.1341 43.5043 43.1497 42.7939 43.1602C41.3434 43.181 41.1869 43.052 40.8854 41.5969C40.8345 41.3426 40.8093 41.0837 40.8103 40.8243C40.8043 36.8292 40.8043 32.8341 40.8103 28.839C40.8103 28.0573 41.0432 27.7147 41.7821 27.5141C42.8467 27.2045 43.9792 27.2245 45.0324 27.5714C45.8204 27.8385 46.3768 28.3648 46.5204 29.2168C46.7973 30.87 45.5836 32.4997 43.9196 32.7472C42.9492 32.8919 42.8082 33.1224 43.1899 34.0226C44.313 36.6777 45.4529 39.3262 46.5696 41.9825C46.8633 42.6794 47.3459 43.1471 47.9929 43.5158C48.3241 43.7011 48.5893 43.9863 48.7511 44.3313C48.9696 44.8494 49.0912 45.4037 49.1095 45.9663C49.1419 50.0048 49.1393 54.0433 49.1302 58.0819C49.1302 58.9625 48.94 59.8041 48.3604 60.5141C48.2504 60.6444 48.2103 60.8437 48.1378 61.0091C48.3088 61.0738 48.4869 61.1176 48.6683 61.1394C51.7064 61.1524 54.7497 61.1499 57.784 61.1629C58.5228 61.1629 58.9045 60.918 59.0921 60.1767C59.2616 59.5045 59.3962 58.8232 59.5282 58.1418C59.537 57.9876 59.5248 57.8329 59.492 57.6819C59.3626 57.6963 59.3069 57.6819 59.2798 57.7067C57.4527 59.2114 55.3346 59.1397 53.1983 58.7775C52.3081 58.6303 52.0713 58.2174 52.0662 57.3093C52.0597 56.202 52.0662 55.0947 52.0662 53.9873C52.0662 53.5652 52.0662 53.1418 52.0662 52.6715C53.1207 52.6715 54.0678 52.6494 55.0124 52.6715C55.957 52.6937 56.886 52.7823 57.8849 52.8448C58.0712 52.0827 58.2809 51.2346 58.4749 50.4438H52.1347V45.1612C54.2218 45.3905 56.3063 44.7599 58.3184 45.7279C58.4335 45.2615 58.5422 44.8459 58.6393 44.4251C58.9408 43.1159 58.9395 43.1158 57.586 43.1328C56.142 43.1497 55.9117 42.9687 55.6451 41.5239C55.593 41.1791 55.5722 40.8303 55.583 40.4817C55.5779 38.4624 55.5779 36.4432 55.583 34.4239V33.6123C56.1814 34.3004 56.7293 35.0315 57.2224 35.7996C58.682 37.9709 60.1389 40.1469 61.5933 42.3277C61.9815 42.9035 62.4589 43.181 63.1641 43.1419C63.9599 43.0989 64.7595 43.1419 65.5579 43.1289C65.7778 43.1289 65.9978 43.0885 66.4002 43.0494C66.1621 42.7811 66.0508 42.6443 65.9279 42.5205C65.5786 42.1674 65.1632 41.8613 64.8798 41.4627C62.8889 38.6583 60.917 35.8404 58.964 33.0091C58.929 32.9215 58.9163 32.8265 58.9271 32.7328C58.938 32.639 58.972 32.5495 59.0262 32.4724C61.2051 30.358 63.4048 28.2241 65.6044 26.0824C65.6712 25.9816 65.7239 25.872 65.761 25.7567C64.8915 25.7567 64.0957 25.7919 63.3026 25.7476C62.4796 25.702 61.8663 25.9938 61.319 26.6113C59.611 28.5355 57.8681 30.431 56.1368 32.3343C55.9919 32.4919 55.8263 32.63 55.5766 32.8671C55.5766 31.1735 55.5766 29.6584 55.5766 28.1394C55.5766 27.432 55.6167 26.7507 56.1381 26.1944C56.2041 26.124 56.1795 25.9651 56.2106 25.7593H54.5764C56.8148 19.9673 59.008 14.286 61.2206 8.56297H57.6585C58.0699 9.61298 57.8176 10.5432 57.4709 11.4694C56.4073 14.312 55.3454 17.1559 54.2852 20.0011C54.2144 20.1573 54.1354 20.3095 54.0484 20.4571C53.8958 20.0519 53.7806 19.7523 53.6706 19.4501C52.4155 16.0082 51.1656 12.5637 49.8924 9.12834C49.8044 8.88863 49.5572 8.54603 49.3644 8.53301C48.4678 8.46396 47.5646 8.49913 46.523 8.49913Z" fill="white"/>
<path d="M43.521 25.7632C45.1487 21.4889 46.7234 17.3501 48.3732 13.0197L52.7454 25.6864L51.4903 25.844C52.7958 27.4373 52.396 29.2233 52.4193 30.9247C52.4607 34.265 52.4361 37.6065 52.4193 40.9468C52.4193 41.6985 52.3753 42.4541 51.8823 43.1706C48.6372 40.7892 47.7185 36.9982 45.7905 33.7908C46.3081 33.5941 46.739 33.4534 47.1491 33.2697C49.4057 32.2926 50.3102 29.407 49.0279 27.2901C48.3473 26.1671 47.2578 25.8284 46.0519 25.7672C45.2626 25.7307 44.4681 25.7632 43.521 25.7632Z" fill="white"/>
<path d="M37.1679 25.7671L37.6221 22.7708L37.481 22.6887C36.0952 23.9849 34.3911 23.951 32.6935 23.9315C31.9819 23.9224 31.2702 23.9315 30.5599 23.9315C29.953 23.9315 29.5247 23.6384 29.5247 23.0196C29.4937 21.2687 29.5131 19.5152 29.5131 17.6171L35.0873 17.8776C35.1714 17.1494 35.2658 16.3273 35.359 15.5261H29.5364C29.5364 14.213 29.4937 12.8529 29.5558 11.4967C29.5842 10.8949 30.1393 10.6083 30.6698 10.5848C32.0453 10.5301 33.4324 10.4545 34.7974 10.5848C35.8546 10.6812 36.5727 11.4798 36.9751 12.436C38.5278 16.128 40.0443 19.8383 41.5646 23.5459C41.6462 23.7701 41.6924 24.0056 41.7018 24.2442C41.8027 25.5469 41.5931 25.771 40.3393 25.7684C39.3029 25.7658 38.2742 25.7671 37.1679 25.7671Z" fill="white"/>
<path d="M22.8235 34.4135C22.9684 33.2866 23.0629 31.808 23.3618 30.375C24.0359 27.1337 26.6341 26.653 29.2711 27.518C30.2273 27.8307 30.807 28.6645 31.0606 29.6116C31.3556 30.715 31.6506 31.8523 31.6817 32.9818C31.7308 34.7939 31.5652 36.6125 31.4837 38.4273C31.4635 38.5996 31.4293 38.7699 31.3815 38.9366C30.7487 41.9121 28.8557 42.9322 25.7516 42.1818C24.4422 41.8652 23.8302 40.7957 23.4627 39.5841C23.3036 39.0893 23.1902 38.5808 23.1237 38.0651C23.0046 36.9695 22.9386 35.8661 22.8235 34.4135Z" fill="white"/>
</g>
<defs>
<clipPath id="clip0_1602_1140">
<rect width="71" height="71" fill="white"/>
</clipPath>
</defs>
</svg>
