<svg width="157" height="51" viewBox="0 0 157 51" fill="none" xmlns="http://www.w3.org/2000/svg">
<g clip-path="url(#clip0_2336_883)">
<path d="M83.1618 45.526V48.1109C83.1393 49.0235 83.2707 49.24 83.7734 49.24H83.9479L83.9254 49.5872H81.5897L81.6122 49.24C82.1581 49.2177 82.267 49.0441 82.267 48.1109V42.6593C82.267 41.7466 82.1581 41.5301 81.6328 41.5301H81.5897L81.6122 41.1811H86.8652C86.8877 41.3342 86.8877 41.3995 86.9102 41.5301L86.9534 41.8549L86.9965 42.1367C87.019 42.3551 87.019 42.398 87.0415 42.5716H86.5387C86.4731 41.9426 86.2761 41.7896 85.5782 41.7896H84.1805C83.372 41.7896 83.1768 41.9631 83.1768 42.7227V44.9157H86.4299L86.4074 45.5241L83.1618 45.526ZM91.7429 49.7402C94.0561 49.7402 95.3075 48.2471 95.3075 45.3954C95.3075 42.5436 94.0617 41.03 91.7429 41.03C89.4241 41.03 88.2047 42.551 88.2047 45.3954C88.2047 48.2397 89.4504 49.7402 91.7429 49.7402ZM91.7861 41.7037C93.5327 41.7037 94.3619 42.8758 94.3619 45.3954C94.3619 47.9579 93.5552 49.087 91.7204 49.087C89.9738 49.087 89.1446 47.9149 89.1446 45.3954C89.1446 42.8329 89.9738 41.7037 91.7861 41.7037ZM101.829 41.5301H101.894C102.418 41.5301 102.528 41.7466 102.528 42.6593V46.8511C102.528 47.7638 102.418 48.2192 102.091 48.5458C101.765 48.8724 101.108 49.0665 100.345 49.0665C99.5811 49.0665 98.9245 48.8705 98.5756 48.5458C98.2266 48.221 98.1384 47.7638 98.1384 46.8511V42.6593C98.1384 41.7261 98.2491 41.5731 98.795 41.5301L98.8157 41.1811H96.5888L96.5682 41.5301H96.6113C97.1122 41.5301 97.2435 41.7466 97.2435 42.6593V47.0676C97.2435 48.0456 97.5062 48.7473 98.0746 49.1523C98.5755 49.5256 99.4273 49.7402 100.345 49.7402C101.262 49.7402 102.157 49.5219 102.637 49.1523C103.117 48.7828 103.401 48.0232 103.401 47.0676V42.6593C103.401 41.7466 103.51 41.5731 104.056 41.5301L104.078 41.1811H101.894L101.829 41.5301ZM112.288 49.5648L112.265 49.5219C112.191 49.1869 112.161 48.8436 112.177 48.501V42.6593C112.177 41.7261 112.288 41.5731 112.834 41.5301L112.854 41.1811H110.716L110.693 41.5301H110.824C111.327 41.5301 111.457 41.7466 111.457 42.6593V46.5898C111.455 47.1618 111.529 47.7315 111.676 48.2845H111.567C111.363 47.7459 111.091 47.2349 110.759 46.7634L107.703 42.2468C107.614 42.1367 107.549 42.0285 107.483 41.9426C107.305 41.7177 107.165 41.4656 107.068 41.1961H105.496L105.476 41.5432H105.519C106.042 41.5432 106.151 41.7616 106.151 42.6723V48.124C106.151 49.0571 106.042 49.2326 105.496 49.255L105.476 49.6021H107.609L107.631 49.255H107.5C106.977 49.255 106.866 49.0366 106.866 48.124V44.0926C106.863 43.5254 106.82 42.9591 106.736 42.398L106.671 41.9426H106.78C106.994 42.6067 107.319 43.2305 107.74 43.7884L111.67 49.5741L112.288 49.5648ZM114.295 41.5301H114.34C114.864 41.5301 114.972 41.7466 114.972 42.6593V48.1109C114.972 49.0441 114.864 49.2177 114.318 49.24L114.295 49.5872H117.505C118.618 49.5872 119.229 49.4565 119.841 49.1094C120.91 48.501 121.501 47.1553 121.501 45.3954C121.527 44.4511 121.308 43.5161 120.867 42.6798C120.666 42.3229 120.391 42.0125 120.06 41.769C119.514 41.3547 118.946 41.2259 117.854 41.2259H114.318L114.295 41.5301ZM115.867 43.2229C115.867 42.0079 116.13 41.7896 117.593 41.7896C118.488 41.7896 119.143 41.9855 119.557 42.3327C120.169 42.8534 120.561 44.0124 120.561 45.33C120.561 46.4163 120.343 47.3289 119.884 47.9579C119.426 48.654 118.64 48.9582 117.374 48.9582C115.999 48.9582 115.89 48.8481 115.89 47.5454V43.2229H115.867ZM127.874 46.5824L128.572 48.473C128.619 48.6143 128.656 48.7591 128.681 48.906C128.681 49.0926 128.572 49.1897 128.332 49.2326L128.311 49.5797H130.078L130.101 49.2326C129.991 49.2283 129.886 49.1873 129.803 49.1161C129.719 49.045 129.662 48.9479 129.641 48.8406L129.555 48.654L127.065 42.2244C126.825 41.616 126.782 41.4424 126.76 41.2035H125.93C125.889 41.559 125.786 41.9046 125.625 42.2244L122.874 48.57C122.634 49.1299 122.591 49.1785 122.328 49.2438L122.306 49.5909H123.994L124.017 49.2438C123.799 49.2214 123.688 49.1131 123.688 48.9172C123.7 48.7741 123.737 48.6343 123.799 48.5047L124.563 46.616H127.87L127.874 46.5824ZM127.677 45.9963H124.839L125.996 43.2602C126.187 42.8359 126.291 42.3777 126.302 41.9127H126.411L126.388 42.021C126.392 42.4451 126.474 42.865 126.628 43.2602L127.677 45.9963ZM136.453 42.607L136.476 42.3681L136.498 41.8474L136.519 41.3043V41.1961H130.427V41.4573C130.427 41.8903 130.407 42.3681 130.384 42.6294H130.887L130.908 42.4988C130.996 41.8474 131.105 41.8045 132.131 41.8045H132.983V48.124C132.983 49.0571 132.874 49.2326 132.328 49.255L132.305 49.6021H134.532L134.555 49.255H134.511C133.986 49.255 133.877 49.0366 133.877 48.124V41.812H134.577C135.778 41.812 135.952 41.8978 135.952 42.4409V42.6593H136.453V42.607ZM140.035 49.2102H139.991C139.489 49.2102 139.357 48.9937 139.357 48.081V42.6369C139.357 41.7037 139.466 41.5507 140.012 41.5077L140.035 41.1606H137.813L137.791 41.5077H137.836C138.359 41.5077 138.468 41.7242 138.468 42.6369V48.0885C138.468 49.0217 138.359 49.1971 137.813 49.2176L137.791 49.5648H140.018L140.035 49.2102ZM144.837 49.7328C147.152 49.7328 148.402 48.2397 148.402 45.3879C148.402 42.5361 147.158 41.0225 144.837 41.0225C142.517 41.0225 141.301 42.5436 141.301 45.3879C141.301 48.2322 142.545 49.7328 144.837 49.7328ZM144.882 41.6962C146.629 41.6962 147.458 42.8683 147.458 45.3879C147.458 47.9504 146.65 49.0795 144.832 49.0795C143.085 49.0795 142.256 47.9075 142.256 45.3879C142.233 42.8254 143.042 41.6962 144.882 41.6962ZM156.431 49.5573L156.409 49.5144C156.335 49.1794 156.306 48.8361 156.323 48.4935V42.6518C156.323 41.7186 156.431 41.5656 156.977 41.5227L156.998 41.1737H154.859L154.837 41.5227H154.968C155.471 41.5227 155.602 41.7392 155.602 42.6518V46.5824C155.601 47.1569 155.675 47.7292 155.824 48.2845H155.715C155.51 47.7459 155.238 47.2349 154.906 46.7634L151.85 42.2468C151.762 42.1367 151.696 42.0285 151.632 41.9426C151.454 41.7177 151.313 41.4656 151.216 41.1961H149.646L149.623 41.5432H149.666C150.19 41.5432 150.3 41.7616 150.3 42.6723V48.124C150.3 49.0571 150.19 49.2326 149.646 49.255L149.623 49.6021H151.762L151.784 49.255H151.653C151.13 49.255 151.021 49.0366 151.021 48.124V44.0926C151.018 43.5254 150.974 42.9591 150.89 42.398L150.824 41.9426H150.933C151.148 42.6067 151.472 43.2305 151.893 43.7884L155.824 49.5741L156.431 49.5573ZM85.4112 10.209V9.66587L85.4319 9.2758V9.18808H81.1319V9.36165C81.1433 9.63805 81.1282 9.91489 81.0869 10.1884H81.4377L81.4584 10.1007C81.524 9.64534 81.5897 9.60055 82.3326 9.60055H82.9442V14.0966C82.9442 14.748 82.8785 14.8786 82.4846 14.901V15.1362H84.0567L84.0792 14.8973H84.0361C83.6609 14.8973 83.5764 14.7442 83.5764 14.0929V9.60055H84.0792C84.931 9.60055 85.0398 9.66587 85.0398 10.0578V10.1884H85.415L85.4112 10.209ZM91.1745 12.2284V14.119C91.1745 14.7703 91.1088 14.901 90.7167 14.9234V15.1623H92.2889L92.3095 14.9234H92.2664C91.9174 14.9234 91.8086 14.7703 91.8086 14.119V10.2314C91.8086 9.58002 91.8724 9.44937 92.2664 9.42698L92.2889 9.18808H90.6942L90.6717 9.42698H90.7167C91.0657 9.42698 91.1745 9.58002 91.1745 10.2314V11.7954H87.9439V10.2314C87.9439 9.58002 88.0096 9.44937 88.4017 9.42698L88.4242 9.18808H86.8295L86.8089 9.42698H86.852C87.2273 9.42698 87.3098 9.58002 87.3098 10.2314V14.0966C87.3098 14.748 87.2441 14.8786 86.852 14.901V15.1362H88.4242L88.4448 14.8973H88.4017C88.0527 14.8973 87.9439 14.7442 87.9646 14.0929V12.2078H91.1745V12.2284ZM97.5719 9.21048H93.8197L93.7991 9.44937H93.8422C94.2175 9.44937 94.3 9.60055 94.3 10.2519V14.119C94.3 14.7703 94.2343 14.901 93.8422 14.9234L93.8197 15.1623H97.8383C97.834 15.0591 97.8486 14.956 97.8814 14.8581L97.9246 14.6192C97.9557 14.4398 97.9701 14.258 97.9677 14.0761H97.5925C97.5287 14.6192 97.3317 14.748 96.5682 14.748H95.542C95.0617 14.748 94.9304 14.5968 94.9304 14.0537V12.2937H97.1816L97.2042 11.8607H94.9078V10.181C94.9078 9.72373 95.0167 9.63787 95.4707 9.63787H96.3862C97.1516 9.63787 97.2379 9.6808 97.3036 10.1362V10.181H97.6788C97.6788 10.0503 97.6563 9.87677 97.6356 9.6808L97.5906 9.44191L97.57 9.25527L97.5719 9.21048ZM105.802 14.0761C105.301 14.5968 104.907 14.7927 104.301 14.7927C103.035 14.7927 102.446 13.9883 102.446 12.2508C102.446 10.3844 103.057 9.55762 104.433 9.55762C105.196 9.55762 105.558 9.77412 105.699 10.3042H106.074C106.074 10.1306 106.052 9.99995 106.031 9.74426L105.986 9.48297L105.965 9.26647V9.22354C105.855 9.22522 105.746 9.21773 105.637 9.20115L105.354 9.18062L105.091 9.15822C104.851 9.13582 104.48 9.11529 104.305 9.11529C102.647 9.11529 101.795 10.2015 101.795 12.2881C101.795 14.2851 102.603 15.306 104.174 15.306C104.549 15.3234 104.923 15.2517 105.265 15.0969C105.607 14.9421 105.907 14.7086 106.14 14.4157L105.802 14.0761ZM111.43 13.0328L111.931 14.3803C111.968 14.4772 111.99 14.5791 111.997 14.6826C111.997 14.8133 111.931 14.8786 111.736 14.901V15.1362H113.002L113.023 14.8973C112.945 14.8943 112.869 14.8647 112.81 14.8135C112.751 14.7622 112.711 14.6924 112.697 14.6154L112.652 14.4624L110.89 9.91036C110.781 9.68373 110.707 9.44215 110.671 9.19368H110.081C110.044 9.44232 109.97 9.68395 109.86 9.91036L107.894 14.4064C107.719 14.7983 107.706 14.8413 107.502 14.8842L107.479 15.1455H108.68V14.8842C108.528 14.8637 108.462 14.7983 108.462 14.6677C108.468 14.5634 108.49 14.4607 108.528 14.3635L109.074 13.016H111.432L111.43 13.0328ZM111.276 12.6203H109.269L110.076 10.6662C110.208 10.3635 110.283 10.0388 110.295 9.70879H110.359V9.79651C110.362 10.0949 110.422 10.39 110.535 10.6662L111.276 12.6203ZM118.03 14.0537C117.965 14.5968 117.747 14.7274 117.004 14.7274H116.089C115.629 14.7274 115.498 14.5744 115.498 13.9454V10.2314C115.498 9.58002 115.586 9.42698 115.957 9.42698H116.023L116.044 9.18808H114.385L114.363 9.42698H114.406C114.781 9.42698 114.865 9.58002 114.865 10.2314V14.0966C114.865 14.748 114.8 14.8786 114.406 14.901L114.385 15.1399H118.293C118.289 15.0367 118.303 14.9337 118.336 14.8357L118.359 14.5744C118.402 14.2926 118.402 14.1843 118.424 14.0313H118.03V14.0537ZM121.437 14.901H121.392C121.043 14.901 120.934 14.748 120.934 14.0966V10.2314C120.934 9.58002 121 9.44937 121.392 9.42698L121.415 9.18808H119.822L119.799 9.42698H119.843C120.218 9.42698 120.302 9.58002 120.302 10.2314V14.0966C120.302 14.748 120.237 14.8786 119.843 14.901V15.1362H121.415L121.437 14.901ZM126.349 12.2732L126.371 11.8383H124.056V10.2836C124.056 9.74052 124.188 9.60988 124.756 9.60988H125.76C126.262 9.60988 126.392 9.71813 126.437 10.153H126.786C126.789 10.0511 126.781 9.94915 126.763 9.84877L126.743 9.66214L126.698 9.42324C126.68 9.34495 126.673 9.26455 126.677 9.18435H122.944L122.921 9.42324H122.964C123.34 9.42324 123.424 9.57442 123.424 10.2258V14.0929C123.424 14.7442 123.358 14.8749 122.964 14.8954V15.1343H124.625L124.645 14.8954H124.516C124.165 14.8954 124.056 14.7442 124.079 14.0929V12.2676H126.349V12.2732ZM130.628 15.2705C132.266 15.2705 133.138 14.2048 133.138 12.1854C133.138 10.1661 132.266 9.07983 130.628 9.07983C128.99 9.07983 128.118 10.1661 128.118 12.1854C128.118 14.2048 128.99 15.2705 130.628 15.2705ZM130.651 9.55762C131.894 9.55762 132.463 10.4049 132.463 12.1705C132.463 13.9715 131.9 14.7834 130.607 14.7834C129.362 14.7834 128.795 13.9361 128.795 12.1705C128.795 10.3676 129.358 9.55762 130.651 9.55762ZM135.628 12.4467H136.391C136.634 12.4606 136.877 12.4386 137.114 12.3814L137.877 13.923L137.986 14.1843L138.14 14.4885L138.314 14.8357L138.466 15.097L138.489 15.1399H139.34L139.361 14.901C139.121 14.8786 139.055 14.8357 138.903 14.5744L138.795 14.3877L138.663 14.1265L137.658 12.2358C137.936 12.154 138.185 11.9947 138.376 11.7767C138.629 11.4635 138.762 11.0714 138.751 10.67C138.771 10.2946 138.655 9.92471 138.425 9.62668C138.185 9.32246 137.791 9.21421 137.159 9.21421H134.495L134.472 9.4531H134.517C134.892 9.4531 134.975 9.60428 134.975 10.2556V14.1227C134.975 14.7741 134.909 14.9047 134.517 14.9271V15.166H136.176L136.198 14.9271H136.067C135.718 14.9271 135.609 14.7741 135.609 14.1227V12.443L135.628 12.4467ZM135.628 11.9895V10.4049C135.628 9.70879 135.782 9.60055 136.785 9.60055C137.075 9.58352 137.366 9.62806 137.637 9.73119C137.963 9.86183 138.14 10.209 138.14 10.6644C138.151 10.8661 138.111 11.0674 138.023 11.2496C137.935 11.4317 137.803 11.5887 137.637 11.7058C137.309 11.9242 136.982 11.9876 136.196 11.9876L135.628 11.9895ZM145.605 15.1362V15.1138C145.551 14.8687 145.529 14.6178 145.539 14.3672V10.2314C145.539 9.58002 145.605 9.44937 145.997 9.42698L146.019 9.18808H144.49V9.42698H144.578C144.927 9.42698 145.036 9.58002 145.036 10.2314V13.0309C145.034 13.4339 145.086 13.8355 145.188 14.2254H145.102C144.957 13.8428 144.768 13.4783 144.539 13.1392L142.378 9.92529C142.312 9.83757 142.269 9.77225 142.226 9.70693C142.097 9.55068 141.993 9.37489 141.92 9.18622H140.806L140.785 9.42511H140.828C141.203 9.42511 141.286 9.57815 141.286 10.2295V14.0947C141.286 14.7461 141.22 14.8767 140.828 14.8991V15.1362H142.329L142.352 14.8973H142.263C141.888 14.8973 141.806 14.7442 141.806 14.0929V11.2299C141.806 10.8566 141.761 10.4479 141.717 10.0354L141.674 9.70879H141.74C141.894 10.177 142.122 10.618 142.415 11.0152L145.188 15.1212H145.605V15.1362ZM149.098 14.8973H149.053C148.704 14.8973 148.595 14.7442 148.595 14.0929V10.2314C148.595 9.58002 148.661 9.44937 149.053 9.42698L149.075 9.18808H147.526L147.503 9.42698H147.546C147.922 9.42698 148.006 9.58002 148.006 10.2314V14.0966C148.006 14.748 147.94 14.8786 147.546 14.901V15.1362H149.119L149.098 14.8973ZM154.403 13.0309L154.904 14.3896C154.94 14.4868 154.962 14.5886 154.97 14.692C154.97 14.8226 154.904 14.8879 154.707 14.9103V15.1362H155.974L155.996 14.8973C155.917 14.8943 155.842 14.8649 155.782 14.8136C155.723 14.7624 155.682 14.6925 155.668 14.6154L155.625 14.4624L153.857 9.91036C153.748 9.68408 153.674 9.44236 153.638 9.19368H153.049C153.011 9.44173 152.938 9.6831 152.831 9.91036L150.865 14.4064C150.691 14.7983 150.678 14.8413 150.473 14.8842L150.451 15.1455H151.651V14.8842C151.499 14.8637 151.434 14.7983 151.434 14.6677C151.438 14.5633 151.46 14.4604 151.499 14.3635L152.045 13.016H154.403V13.0309ZM154.25 12.6184H152.24L153.049 10.6644C153.181 10.3616 153.255 10.0368 153.266 9.70693H153.332V9.79465C153.335 10.0928 153.395 10.3878 153.507 10.6644L154.25 12.6184Z" fill="white"/>
<path d="M90.5633 20.9386C90.6064 21.8513 90.6946 22.3291 91.0867 23.5889L93.2704 30.5821C93.6466 31.6467 93.8745 32.7575 93.9477 33.8837H94.1447C94.1447 33.753 94.1222 33.6224 94.1222 33.4712C94.1222 32.5809 94.231 31.9501 94.6249 30.5821L96.2402 24.6956L96.5235 23.6542C96.7111 22.9076 96.7637 22.6538 96.7637 22.4149C96.7637 21.855 96.576 21.6348 95.9776 21.5247L96.0226 20.9162H99.2307L99.1875 21.5247C98.4896 21.6553 98.2495 22.0472 97.7899 23.6112L95.0396 33.3835C94.9514 33.7101 94.8857 33.9714 94.8426 34.13C94.7563 34.4118 94.6906 34.6302 94.6681 34.7385L94.5818 35.2386L94.5593 35.3469L93.2273 35.3898C93.1925 35.0964 93.1341 34.8062 93.0528 34.522C92.899 33.9788 92.7695 33.544 92.7245 33.4133L90.537 26.9334C90.1205 25.7165 89.8598 24.2402 89.7509 22.3944H89.5765C89.5278 23.9438 89.2327 25.4758 88.7022 26.9334L86.5635 33.4059C86.3389 33.984 86.1986 34.5911 86.147 35.2088V35.317L84.6462 35.3823C84.6183 35.1252 84.5675 34.8709 84.4942 34.6227C84.4511 34.4044 84.406 34.2495 84.3854 34.1655L84.1659 33.3835L81.1567 21.59L80.6989 21.5471L80.7421 20.9162H83.9708L83.9051 21.5041H83.7963C83.1622 21.5471 82.8789 21.8083 82.8789 22.3291C82.897 22.6023 82.948 22.8724 83.0309 23.1335L83.1622 23.7195L84.7569 30.192C85.051 31.3011 85.2395 32.4352 85.3197 33.5794H85.5167C85.603 32.4727 85.8 31.5824 86.2671 30.192L88.4283 23.6112C88.8429 22.3515 89.0174 21.5695 89.0399 20.961H90.567L90.5633 20.9386ZM107.243 29.6918V29.1711C107.243 25.7389 105.93 24.132 103.095 24.132C100.039 24.132 98.3583 26.2391 98.3583 30.0614C98.3583 33.7754 99.7766 35.513 102.769 35.513C104.733 35.513 106.065 34.8392 107.2 33.2734L106.437 32.622C105.431 33.8818 104.405 34.4249 103.06 34.4249C101.99 34.4249 101.116 34.0124 100.621 33.2734C100.097 32.4708 99.9004 31.5153 99.9229 29.69L107.243 29.6918ZM105.671 28.7363H99.9304C100.214 26.31 101.152 25.2182 103.009 25.2182C104.776 25.2182 105.694 26.2391 105.694 28.2361L105.671 28.7363ZM111.808 34.6433H111.72C110.868 34.6433 110.671 34.27 110.671 32.7321V20.6997L110.693 19.9177C110.691 19.5695 110.713 19.2215 110.759 18.8763H110.256L108.161 19.0051L108.118 19.6135L108.204 19.6359C109.078 19.6788 109.23 19.9401 109.253 21.129V32.7265C109.253 34.3129 109.078 34.6171 108.161 34.6377L108.118 35.2256H111.763L111.808 34.6433ZM116.807 34.6433H116.719C115.868 34.6433 115.671 34.27 115.671 32.7321V20.6997L115.693 19.9177C115.691 19.5695 115.713 19.2215 115.759 18.8763H115.256L113.16 19.0051L113.117 19.6135L113.204 19.6359C114.078 19.6788 114.23 19.9401 114.252 21.129V32.7265C114.252 34.3129 114.078 34.6171 113.16 34.6377L113.117 35.2256H116.762L116.807 34.6433ZM120.67 30.039C121.11 29.1293 121.636 28.2637 122.242 27.4541C123.334 25.961 124.209 25.304 125.126 25.304C126.282 25.304 126.501 25.7165 126.501 27.8684V32.7321C126.501 34.3185 126.327 34.6227 125.387 34.6433L125.366 35.2312H129.011L129.054 34.6433H128.968C128.094 34.6433 127.897 34.27 127.897 32.7321V27.1331C127.897 24.9177 127.265 24.1357 125.475 24.1357C124.757 24.1382 124.056 24.3575 123.466 24.7647C123.024 25.1029 122.621 25.4892 122.265 25.9162C121.631 26.6982 121.348 27.1536 120.67 28.4582V25.1958C120.659 24.8892 120.683 24.5824 120.742 24.2813H120.021L118.188 24.4343L118.143 25.0427H118.231C119.106 25.1081 119.258 25.3675 119.28 26.562V32.7545C119.28 34.3409 119.106 34.6433 118.188 34.6657L118.143 35.2517H121.79L121.833 34.6657H121.747C120.873 34.6657 120.698 34.2924 120.698 32.7545V30.039H120.67ZM138.53 29.6918V29.1711C138.53 25.7389 137.217 24.132 134.382 24.132C131.326 24.132 129.643 26.2391 129.643 30.0614C129.643 33.7754 131.064 35.513 134.054 35.513C136.02 35.513 137.352 34.8392 138.487 33.2734L137.722 32.622C136.718 33.8818 135.692 34.4249 134.345 34.4249C133.274 34.4249 132.401 34.0124 131.906 33.2734C131.383 32.4708 131.186 31.5153 131.208 29.69L138.53 29.6918ZM136.958 28.7363H131.216C131.501 26.282 132.439 25.2182 134.294 25.2182C136.063 25.2182 136.981 26.2391 136.981 28.2361L136.958 28.7363ZM147.438 26.8027C147.454 26.6734 147.462 26.543 147.46 26.4126V26.086C147.46 25.8695 147.438 25.696 147.438 25.6306L147.415 25.0446V24.5015H147.307C146.931 24.4567 146.586 24.4362 146.28 24.3709L145.583 24.2626C145.004 24.1834 144.42 24.1397 143.836 24.132C141.397 24.132 140.084 25.2182 140.084 27.2152C140.084 28.6485 140.935 29.606 142.573 29.9531L144.232 30.3264C145.477 30.6082 146.175 31.3249 146.175 32.4111C146.175 33.7568 145.192 34.6041 143.534 34.6041C141.57 34.6041 140.739 33.9751 140.739 32.5418L139.866 32.5623C139.85 32.6991 139.842 32.8369 139.844 32.9747V33.348C139.866 33.5869 139.866 33.7605 139.866 33.8482L139.889 34.4566L139.909 34.9773V35.0856L140.018 35.108L140.695 35.2162L141.504 35.3245C142.262 35.4556 143.028 35.5354 143.796 35.5634C146.218 35.5634 147.639 34.3036 147.639 32.1106C147.639 30.569 146.83 29.5687 145.237 29.2215L143.643 28.8314C142.027 28.4395 141.459 27.9841 141.459 27.0285C141.459 25.7893 142.29 25.1174 143.883 25.1174C145.718 25.1174 146.635 25.7034 146.635 26.8102V26.855L147.438 26.8027ZM156.499 26.8027C156.514 26.6733 156.521 26.543 156.52 26.4126V26.086C156.52 25.8695 156.499 25.696 156.499 25.6306L156.477 25.0446V24.5015H156.368C155.993 24.4567 155.648 24.4362 155.342 24.3709L154.644 24.2626C154.065 24.1834 153.482 24.1397 152.897 24.132C150.458 24.132 149.145 25.2182 149.145 27.2152C149.145 28.6485 149.997 29.606 151.635 29.9531L153.293 30.3264C154.537 30.6082 155.237 31.3249 155.237 32.4111C155.237 33.7568 154.254 34.6041 152.595 34.6041C150.629 34.6041 149.8 33.9751 149.8 32.5418L148.926 32.5623C148.91 32.6992 148.904 32.837 148.905 32.9747V33.348C148.926 33.5869 148.926 33.7605 148.926 33.8482L148.948 34.4566L148.971 34.9773V35.0856L149.079 35.108L149.757 35.2162L150.563 35.3245C151.321 35.4555 152.087 35.5353 152.856 35.5634C155.28 35.5634 156.698 34.3036 156.698 32.1106C156.698 30.569 155.891 29.5687 154.297 29.2215L152.704 28.8314C151.089 28.4395 150.52 27.9841 150.52 27.0285C150.52 25.7893 151.35 25.1174 152.944 25.1174C154.777 25.1174 155.694 25.7034 155.694 26.8102V26.855L156.499 26.8027ZM21.9314 12.8405C24.1263 12.8405 25.9086 11.1608 25.9086 9.07048C25.9086 6.98017 24.1263 5.31911 21.9314 5.31911C19.7364 5.31911 17.9541 6.99883 17.9541 9.07048C17.9541 11.1421 19.7364 12.8405 21.9314 12.8405ZM33.7318 7.52141C35.9268 7.52141 37.709 5.84169 37.709 3.75137C37.709 1.66106 35.9268 0 33.7318 0C31.5368 0 29.7526 1.67972 29.7526 3.75137C29.7526 5.82303 31.5349 7.52141 33.7299 7.52141M45.5303 12.8405C47.7253 12.8405 49.5076 11.1608 49.5076 9.07048C49.5076 6.98017 47.7253 5.31911 45.5303 5.31911C43.3353 5.31911 41.5531 6.99883 41.5531 9.07048C41.5531 11.1421 43.3166 12.8405 45.5303 12.8405Z" fill="white"/>
<path d="M33.15 32.1386C33.2063 32.3066 33.2438 32.4746 33.3001 32.6239C31.7429 37.831 30.0545 42.4782 25.8896 50.7089C25.8877 50.723 25.8811 50.7361 25.8709 50.7462V50.7649C25.5707 51.2688 25.0454 50.8955 25.0829 50.2983C24.5389 42.3663 22.5878 30.6829 18.648 23.3668C15.1961 16.9652 10.7123 11.6274 0 10.8995C7.31664 3.45278 14.9897 10.9555 19.8675 18.085C23.9198 24.02 26.7151 35.4421 26.5463 44.6059C28.1034 39.8654 30.2421 35.4421 31.9868 27.8834L32.4371 29.5631C32.6622 30.4589 32.9061 31.2988 33.15 32.1386ZM35.5326 24.0387C35.5701 24.2253 35.6076 24.3933 35.6264 24.5612C37.0334 20.5113 39.0971 17.0772 43.2432 16.6666C40.2603 12.6726 36.5269 13.3445 34.1631 19.0742C34.7869 20.6788 35.2457 22.3421 35.5326 24.0387ZM47.5957 18.085C43.5434 24.02 40.748 35.4421 40.9169 44.6059C39.1159 39.1375 36.5644 34.0983 34.7071 24.1693C32.7935 13.923 27.9158 11.6647 24.2012 16.6479C30.8237 17.3011 32.0994 25.6437 33.9379 31.8774C35.5701 37.3831 37.2023 42.0863 41.5735 50.6902C41.5755 50.7044 41.5821 50.7175 41.5923 50.7275V50.7462C41.8924 51.2501 42.4177 50.8768 42.3802 50.2796C42.9243 42.3476 44.8754 30.6642 48.8151 23.3481C52.2483 16.9465 56.7321 11.6274 67.4631 10.8809C60.1465 3.45278 52.4734 10.9555 47.5957 18.085Z" fill="white"/>
</g>
<defs>
<clipPath id="clip0_2336_883">
<rect width="157" height="51" fill="white"/>
</clipPath>
</defs>
</svg>
