<?xml version="1.0" encoding="UTF-8"?>
<svg xmlns="http://www.w3.org/2000/svg" xmlns:xlink="http://www.w3.org/1999/xlink" fill="none" height="85" viewBox="0 0 125 85" width="125">
  <clipPath id="a">
    <path d="m0 0h125v85h-125z"></path>
  </clipPath>
  <g clip-path="url(#a)" fill="#c0924e">
    <path d="m10.1644 35.7398c1.3935-1.4069 2.952-2.6271 4.636-3.6272 1.6906-1.0002 3.5266-1.7936 5.4747-2.3471 1.935-.5534 3.9756-.8334 6.0757-.8334 2.1463 0 4.2199.2733 6.1747.8134s3.7973 1.3202 5.4681 2.3137c.4028.2401.7991.4934 1.1887.7601.3962.2734.7859.5535 1.1689.8535.3962.3067.7859.6334 1.1689.9668.3764.3334.7397.6801 1.0963 1.0335 1.1557 1.1735 2.1727 2.4737 3.0378 3.8673.1651-2.2137.5085-4.3674 1.0368-6.4543-.2377-.2601-.4689-.5268-.7198-.7735-.9906-1.0002-2.0671-1.9136-3.1963-2.7471-.3699-.2734-.7463-.5401-1.1293-.8001-.3764-.2534-.7595-.4934-1.1557-.7268-.033-.02-.0661-.0467-.1057-.0667-2.034-1.1868-4.2595-2.127-6.6106-2.7804-2.3576-.6535-4.8539-.9868-7.4228-.9868-2.5293 0-5.0058.3333-7.3701.9868-2.351.6534-4.5765 1.5936-6.6171 2.7938-.8453.5-1.6576 1.0468-2.44351 1.6335v-20.13645h28.60181l2.6482-5.01412h-36.11053v34.50537h2.44347c.78587-1.1535 1.67741-2.2403 2.66136-3.2338z"></path>
    <path d="m42.524 68.4649c-1.3803 1.4002-2.9322 2.6204-4.6228 3.6206-1.684 1.0001-3.5199 1.7869-5.4681 2.3337-1.935.5467-3.9822.8201-6.0823.8201-2.0802 0-4.1142-.28-6.036-.8335-1.935-.5601-3.7709-1.3535-5.4549-2.3603-1.6906-1.0135-3.2623-2.2404-4.6624-3.6473-1.40003-1.4069-2.60856-2.9804-3.59915-4.6807-.00661-.0133-.01321-.0333-.02642-.0467-.59436-1.0268-1.10286-2.107-1.53873-3.2338h-5.03222344c.63398144 2.0003 1.47268344 3.9206 2.51611344 5.7009 1.13588 1.9403 2.50291 3.7272 4.06144 5.3475.09906.1.18492.2067.28398.3067 1.6774 1.6936 3.55949 3.1672 5.60019 4.3874 2.0406 1.2201 4.2595 2.1736 6.5841 2.8404 2.3378.6668 4.7945 1.0068 7.3106 1.0068 2.5294 0 5.0058-.34 7.3635-1.0001 2.3444-.6601 4.5633-1.607 6.5907-2.8071 2.0341-1.2002 3.9162-2.6671 5.5936-4.3607.5811-.5868 1.1293-1.2136 1.6576-1.847-1.017-1.3269-1.9614-2.7137-2.8331-4.1473-.6736.9135-1.4067 1.7869-2.2057 2.6004z"></path>
    <path d="m123.515 31.1249c-.984-3.6206-2.398-7.0478-4.187-10.1883-1.797-3.1405-3.996-6.0409-6.538-8.608-2.543-2.56707-5.402-4.78742-8.5-6.60104-3.097-1.81361-6.4847-3.23384-10.0707-4.23399-3.5925-.986824-7.403-1.49357-11.3126-1.49357-3.8567 0-7.6275.506746-11.2201 1.50024-3.586.99348-6.9738 2.42704-10.0711 4.254-3.0972 1.82695-5.9502 4.05396-8.4993 6.62106-2.5425 2.567-4.7548 5.4608-6.5775 8.6013-1.0963 1.8937-2.0473 3.8873-2.853 5.961 1.3737.9601 2.668 2.0336 3.87 3.2138.8057-2.3737 1.8293-4.6407 3.0642-6.7611 1.618-2.7871 3.586-5.3541 5.8379-7.6345 2.2586-2.2804 4.7945-4.254 7.5418-5.87425 2.7472-1.62026 5.7586-2.89379 8.9417-3.78059 3.1832-.88681 6.538-1.33355 9.9588-1.33355 3.4803 0 6.855.44674 10.0447 1.33355 3.1831.8868 6.1945 2.147 8.9422 3.75392 2.747 1.60692 5.283 3.58052 7.541 5.86092 2.259 2.2804 4.214 4.8474 5.805 7.6345 1.592 2.7871 2.846 5.8343 3.718 9.0481.879 3.2205 1.321 6.6144 1.321 10.1016 0 3.4605-.449 6.8344-1.341 10.0416-.891 3.2005-2.152 6.2276-3.757 9.008-1.605 2.7738-3.573 5.3409-5.838 7.6346s-4.814 4.274-7.562 5.8942c-2.747 1.6203-5.7452 2.9005-8.9217 3.8006-3.1765.9002-6.5181 1.3536-9.9456 1.3536-3.3944 0-6.7162-.4534-9.8663-1.3536-3.1435-.9001-6.1417-2.1936-8.9022-3.8406-2.7604-1.6469-5.3095-3.6472-7.5813-5.9342-1.0831-1.0935-2.1001-2.2604-3.0444-3.4739-.3104-.4001-.601-.8135-.8982-1.2202-.2972-.4201-.5943-.8335-.8783-1.2669-.3632-.5534-.7264-1.1201-1.0633-1.6936-.7726-1.3202-1.4594-2.6937-2.0736-4.1139-.3302-.7602-.634-1.5336-.9114-2.3204-.2971-.8401-.5745-1.6869-.8188-2.5537-.1255-.4468-.2378-.9002-.3501-1.3603-.383-1.6135-.6537-3.2671-.8188-4.9474-.4689-1.6003-1.0897-3.1138-1.8756-4.5007-.7726-1.3669-1.7104-2.6271-2.7869-3.7606-.1584 1.5202-.2377 3.0538-.2377 4.6141 0 3.8672.5085 7.6478 1.5123 11.2284.6472 2.3137 1.4793 4.554 2.4897 6.701.2378.5135.4953 1.0202.7529 1.5269.2443.4668.4953.9335.7528 1.3936.0925.1667.1849.34.284.5067.7991 1.3603 1.684 2.6671 2.6218 3.934.2773.3734.5547.7401.8453 1.1002.2839.36.5745.7134.8717 1.0601.733.8668 1.4859 1.7136 2.285 2.5204 2.5557 2.5804 5.4218 4.8275 8.5323 6.6811s6.4851 3.3138 10.0248 4.3207c3.553 1.0134 7.2908 1.5269 11.1211 1.5269 3.8567 0 7.6276-.5135 11.207-1.5269 3.5727-1.0135 6.9535-2.4538 10.0445-4.2741 3.097-1.8269 5.964-4.0606 8.519-6.641 2.556-2.5804 4.768-5.4742 6.578-8.6013 1.809-3.1272 3.236-6.5411 4.233-10.1416 1.004-3.6073 1.512-7.4145 1.512-11.3151.013-3.9273-.488-7.7546-1.472-11.3818z"></path>
    <path d="m86.1277 27.9838v1.9003l1.9812.1733c.3368.0467.383.1467.383.4868v9.2681h-.099l-3.4539-8.3213h-4.1143l-3.4539 8.3213h-.099v-9.2681c0-.3401.0462-.4401.3896-.4868l1.9812-.1733v-1.9003h-7.9512v1.9003l1.618.1933c.317.0467.3896.1467.3896.4668v12.5419c0 .3668-.0264.4134-.3896.4601l-1.618.1934v1.9003h7.0068l4.1803-10.7684 4.1804 10.7684h7.0068v-1.9003l-1.618-.1934c-.3632-.0467-.3896-.1-.3896-.4601v-12.5353c0-.32.0726-.4134.3896-.4667l1.618-.1934v-1.9003h-7.938z"></path>
    <path d="m63.5571 52.8629v-.3134l.3236-.0267c.0528-.0066.066-.0266.066-.08v-1.5136h-.0198l-.5614 1.3602h-.6405l-.5548-1.3602h-.0264v1.5136c0 .0667.0066.0734.066.08l.3368.0334v.3133h-1.2019v-.3133l.251-.0267c.0528-.0067.066-.02.066-.08v-2.047c0-.06-.0066-.0734-.066-.08l-.251-.0267v-.3134h1.0567l.6868 1.807h.0132l.7198-1.807h1.0236v.3134l-.2641.0333c-.0595.0067-.0661.0134-.0661.0734v2.047c0 .0533.0132.0667.0661.0733l.2641.0334v.3133h-1.2877z"></path>
    <path d="m66.5547 51.4087-.0396-.2067c-.0066-.0333-.0132-.0466-.0397-.0533-.0528-.0133-.1452-.0333-.2509-.0333-.1981 0-.3104.0733-.3104.2067 0 .16.2179.2.4557.2533.3104.0734.6604.1801.6604.6468 0 .4867-.3897.6868-.8916.6868-.3566 0-.7132-.0934-.7792-.1467v-.5801l.4226.0333.0397.2267c.0066.0334.0132.0534.0462.06.0462.0134.1519.0401.3038.0401.2113 0 .3302-.0601.3302-.2067 0-.1601-.1585-.2067-.3567-.2401-.3301-.06-.766-.1333-.766-.6534 0-.4934.416-.7001.8717-.7001.3104 0 .6142.0733.7264.1133v.5801z"></path>
    <path d="m69.9492 52.862v-.3134l.251-.0267c.0528-.0066.066-.02.066-.08v-2.047c0-.06-.0066-.0733-.066-.08l-.251-.0267v-.3133h2.0869v.8068l-.4359-.0201-.0528-.3067c-.0066-.04-.0264-.0533-.0661-.0533h-.6009v.7801h.9113v.4401h-.9113v.8068c0 .0666.0066.0733.066.08l.5812.0333v.3134h-1.5784z"></path>
    <path d="m73.0068 51.422c0-.8535.4755-1.5003 1.4133-1.5003.9377 0 1.3406.6468 1.3406 1.4536 0 .9335-.4557 1.5336-1.3934 1.5336-.9576 0-1.3605-.6201-1.3605-1.4869zm2.1265-.0134c0-.6868-.2707-.9868-.7198-.9868-.4557 0-.7727.3-.7727.9868 0 .7201.2972 1.0068.7529 1.0068.4358 0 .7396-.2733.7396-1.0068z"></path>
    <path d="m78.7918 50.3949c0-.06-.0066-.0733-.066-.08l-.251-.0267v-.3133h1.1689v.3133l-.2641.0334c-.0594.0066-.0661.0133-.0661.0733v1.4336c0 .7601-.4292 1.0801-1.1226 1.0801-.7859 0-1.1227-.3533-1.1227-1.0935v-1.4135c0-.06-.0066-.0734-.066-.08l-.2444-.0267v-.3134h1.2482v.3134l-.2642.0333c-.0594.0067-.066.0134-.066.0734v1.3002c0 .4601.1056.7068.5349.7068.4226 0 .5745-.1867.5745-.6868v-1.3269z"></path>
    <path d="m82.7149 52.8629-1.2613-2.0803v1.6602c0 .0667.0066.0734.066.08l.2642.0334v.3133h-1.0963v-.3133l.2509-.0267c.0529-.0067.0661-.02.0661-.08v-2.047c0-.06-.0066-.0734-.0661-.08l-.2509-.0267v-.3134h.9774l1.2415 2.087v-1.6602c0-.0601-.0066-.0734-.066-.0801l-.251-.0266v-.3201h1.0963v.3201l-.2642.0333c-.0594.0067-.066.0133-.066.0734v2.4603h-.6406z"></path>
    <path d="m84.7432 52.8629v-.3201l.2509-.0266c.0528-.0067.0661-.0201.0661-.0801v-2.0336c0-.06-.0067-.0734-.0661-.08l-.2509-.0267v-.3134h1.2811c.9906 0 1.4199.5401 1.4199 1.4002 0 .8868-.4623 1.4869-1.4859 1.4869h-1.2151zm1.149-.4334c.6935 0 .9246-.4134.9246-1.0202 0-.7334-.2774-1.0068-.9047-1.0068h-.251v2.027z"></path>
    <path d="m89.9072 52.862v-.3134l.3236-.0333-.1387-.4134h-.9773l-.1387.4134.3104.0333v.3134h-1.1029v-.3134l.1717-.0467c.0462-.0133.0859-.0267.0991-.0733l.8651-2.4537h.7l.8585 2.4603c.0132.0467.0462.0534.0925.0667l.1849.0467v.3134zm-.2839-2.2804h-.0265l-.3632 1.0869h.7397z"></path>
    <path d="m92.2109 52.862v-.3201l.4094-.0266c.0529-.0067.0661-.0201.0661-.0801v-2.0269h-.4095c-.0462 0-.0528.0066-.066.0466l-.0661.3468h-.4358v-.8268h2.5425v.8268h-.4292l-.0661-.3468c-.0066-.04-.0198-.0466-.066-.0466h-.4095v2.0269c0 .0534.0066.0734.0661.0734l.4358.0333v.3134h-1.5717z"></path>
    <path d="m95.2559 52.862v-.3134l.2905-.0267c.0529-.0066.0661-.02.0661-.08v-2.0403c0-.06-.0066-.0734-.0661-.08l-.2905-.0267v-.32h1.3274v.32l-.3038.0333c-.0595.0067-.0661.0134-.0661.0734v2.0403c0 .0667.0066.0734.0661.08l.3038.0334v.3133h-1.3274z"></path>
    <path d="m97.6201 51.422c0-.8535.4755-1.5003 1.4133-1.5003.9377 0 1.3406.6468 1.3406 1.4536 0 .9335-.4557 1.5336-1.3935 1.5336-.9575 0-1.3604-.6201-1.3604-1.4869zm2.1265-.0134c0-.6868-.2708-.9868-.7198-.9868-.4557 0-.7727.3-.7727.9868 0 .7201.2972 1.0068.7528 1.0068.4359 0 .7397-.2733.7397-1.0068z"></path>
    <path d="m103.464 52.8629-1.261-2.0803v1.6602c0 .0667.006.0734.066.08l.264.0334v.3133h-1.096v-.3133l.25-.0267c.053-.0067.067-.02.067-.08v-2.047c0-.06-.007-.0734-.067-.08l-.25-.0267v-.3134h.977l1.241 2.087v-1.6602c0-.0601-.006-.0734-.066-.0801l-.251-.0266v-.3201h1.097v.3201l-.264.0333c-.06.0067-.066.0133-.066.0734v2.4603h-.641z"></path>
    <path d="m71.7988 56.9769v-.1534l.1783-.02c.0397-.0067.0463-.0133.0463-.06v-1.5936c0-.04-.0066-.0533-.0463-.06l-.1783-.02v-.16h1.4001v.4667l-.1915-.0133-.0397-.22c-.0066-.0267-.0198-.0334-.0462-.0334h-.6406v.7068h.7397v.2067h-.7397v.7068c0 .0466 0 .0533.0462.06l.4161.02v.1533h-.9444z"></path>
    <path d="m73.9844 55.9351c0-.6001.3368-1.0535.9774-1.0535s.9245.4534.9245 1.0202c0 .6734-.3236 1.1068-.9642 1.1068-.6538.0067-.9377-.4401-.9377-1.0735zm1.6378 0c0-.5468-.2576-.8335-.667-.8335-.4161 0-.7067.2867-.7067.8335 0 .5734.2708.8535.6868.8535.4095.0066.6869-.2667.6869-.8535z"></path>
    <path d="m77.6832 56.9763v-.1534l.2245-.02-.2311-.5867c-.0396-.0934-.0792-.1201-.1915-.1201h-.3104v.6468c0 .0467 0 .0534.0462.06l.1849.02v.1534h-.7066v-.1534l.1783-.02c.0397-.0066.0463-.0133.0463-.06v-1.5936c0-.04-.0066-.0533-.0463-.06l-.1783-.02v-.1533h.8585c.5085 0 .634.2867.634.56 0 .3068-.1651.4734-.3896.5535.0924.04.1123.1.1585.2067l.1915.5c.0198.0467.0462.0601.0858.0667l.1718.0267v.1533h-.7265zm-.2509-1.0802c.2641 0 .4887-.08.4887-.4067 0-.2867-.185-.3601-.5284-.3601h-.2179v.7668z"></path>
    <path d="m82.002 56.976-.3566-1.3202-.3764 1.3202h-.3236l-.4689-1.8203c-.0066-.04-.0198-.0466-.0594-.0533l-.1651-.0267.0264-.1533h.7066v.1533l-.251.0267.3765 1.5936.383-1.3602h.2906l.383 1.3868.3962-1.6202-.2575-.0267.0264-.1533h.6604v.1533l-.1453.0267c-.0396.0067-.0528.0133-.0594.0533l-.4557 1.8203z"></path>
    <path d="m83.5996 55.9351c0-.6001.3368-1.0535.9774-1.0535s.9246.4534.9246 1.0202c0 .6734-.3236 1.1068-.9642 1.1068-.6538.0067-.9378-.4401-.9378-1.0735zm1.6378 0c0-.5468-.2576-.8335-.667-.8335-.4161 0-.7066.2867-.7066.8335 0 .5734.2707.8535.6868.8535.4094.0066.6868-.2667.6868-.8535z"></path>
    <path d="m87.9582 56.9763v-.1534l.2312-.02c.0396-.0066.0462-.0133.0462-.06v-1.4069l-.5679 1.1535h-.2708l-.5415-1.1468v1.4069c0 .0466 0 .0533.0462.06l.2443.02v.1533h-.766v-.1533l.1783-.02c.0396-.0067.0462-.0134.0462-.06v-1.5936c0-.04-.0066-.0534-.0462-.06l-.1783-.02v-.16h.5481l.6208 1.3535.6406-1.3535h.5415v.1533l-.1915.02c-.0462.0134-.0462.02-.0462.06v1.6003c0 .04.0066.0467.0462.0533l.1915.02v.1534z"></path>
    <path d="m89.6221 56.9769v-.1534l.1783-.02c.0396-.0067.0462-.0133.0462-.06v-1.5936c0-.04-.0066-.0533-.0462-.06l-.1783-.02v-.16h1.4132v.4667l-.1915-.0133-.0396-.22c-.0066-.0267-.0198-.0334-.0463-.0334h-.6537v.7135h.7528v.2067h-.7528v.7334h.7132c.033 0 .0396 0 .0462-.0333l.0462-.2467h.1916v.48h-1.4793z"></path>
    <path d="m93.4471 56.9769-1.0303-1.7203v1.4869c0 .0467 0 .0533.0463.06l.1915.02v.1534h-.6868v-.1534l.1783-.02c.0396-.0067.0462-.0133.0462-.06v-1.6002c0-.0401-.0066-.0534-.0462-.0601l-.1783-.02v-.1533h.5547l1.0038 1.7069v-1.4735c0-.0401-.0066-.0534-.0462-.0601l-.1783-.02v-.1533h.6802v.1533l-.1915.02c-.0396.0067-.0463.0134-.0463.0534v1.8269h-.2971z"></path>
    <path d="m67.73 52.9079c-.2309 0-.3364-.0999-.3364-.3131 0-.1998.1121-.313.3364-.313.2176 0 .3364.1066.3364.313 0 .2065-.1122.3131-.3364.3131z"></path>
    </g></svg>